<svg xmlns="http://www.w3.org/2000/svg" xmlns:xlink="http://www.w3.org/1999/xlink" viewBox="0 0 1200.48 209.36"><defs><style>.cls-1{fill:url(#linear-gradient);}.cls-2{fill:url(#linear-gradient-2);}.cls-3{fill:url(#linear-gradient-3);}.cls-4{fill:url(#linear-gradient-4);}.cls-5{fill:#919aa8;}</style><linearGradient id="linear-gradient" x1="168.62" y1="210.59" x2="61.43" y2="24.94" gradientUnits="userSpaceOnUse"><stop offset="0" stop-color="#5e0094"/><stop offset="1" stop-color="#4a85ff"/></linearGradient><linearGradient id="linear-gradient-2" x1="414.14" y1="210.59" x2="306.95" y2="24.94" xlink:href="#linear-gradient"/><linearGradient id="linear-gradient-3" x1="659.65" y1="210.59" x2="552.47" y2="24.94" xlink:href="#linear-gradient"/><linearGradient id="linear-gradient-4" x1="905.17" y1="210.59" x2="797.98" y2="24.94" xlink:href="#linear-gradient"/></defs><g id="Layer_2" data-name="Layer 2"><g id="Layer_1-2" data-name="Layer 1"><path class="cls-1" d="M125,11.47l14.39,44.31a16.62,16.62,0,0,0,15.8,11.48h46.59c16.08,0,22.77,20.58,9.76,30l-37.7,27.39a16.6,16.6,0,0,0-6,18.56l14.4,44.31c5,15.3-12.54,28-25.55,18.57L119,178.73a16.6,16.6,0,0,0-19.52,0l-37.7,27.39c-13,9.45-30.52-3.27-25.55-18.57l14.4-44.31a16.6,16.6,0,0,0-6-18.56L6.88,97.29c-13-9.45-6.33-30,9.76-30H63.23A16.62,16.62,0,0,0,79,55.78L93.41,11.47C98.38-3.82,120-3.82,125,11.47Z"/><path class="cls-2" d="M370.52,11.47l14.39,44.31A16.61,16.61,0,0,0,400.7,67.26h46.59c16.09,0,22.78,20.58,9.76,30l-37.69,27.39a16.6,16.6,0,0,0-6,18.56l14.4,44.31c5,15.3-12.54,28-25.56,18.57l-37.69-27.39a16.6,16.6,0,0,0-19.52,0l-37.69,27.39c-13,9.45-30.52-3.27-25.55-18.57l14.4-44.31a16.62,16.62,0,0,0-6-18.56l-37.7-27.39c-13-9.45-6.32-30,9.76-30h46.59a16.6,16.6,0,0,0,15.79-11.48l14.4-44.31C343.9-3.82,365.54-3.82,370.52,11.47Z"/><path class="cls-3" d="M616,11.47l14.4,44.31a16.61,16.61,0,0,0,15.79,11.48h46.59c16.09,0,22.77,20.58,9.76,30l-37.69,27.39a16.59,16.59,0,0,0-6,18.56l14.39,44.31c5,15.3-12.54,28-25.55,18.57L610,178.73a16.6,16.6,0,0,0-19.52,0l-37.69,27.39c-13,9.45-30.52-3.27-25.55-18.57l14.39-44.31a16.59,16.59,0,0,0-6-18.56L497.91,97.29c-13-9.45-6.32-30,9.76-30h46.59a16.61,16.61,0,0,0,15.79-11.48l14.4-44.31C589.42-3.82,611.06-3.82,616,11.47Z"/><path class="cls-4" d="M861.55,11.47,876,55.78a16.6,16.6,0,0,0,15.79,11.48h46.59c16.08,0,22.77,20.58,9.76,30L910.4,124.68a16.61,16.61,0,0,0-6,18.56l14.4,44.31c5,15.3-12.54,28-25.55,18.57l-37.69-27.39a16.6,16.6,0,0,0-19.52,0l-37.69,27.39c-13,9.45-30.53-3.27-25.56-18.57l14.4-44.31a16.6,16.6,0,0,0-6-18.56L743.43,97.29c-13-9.45-6.33-30,9.76-30h46.59a16.61,16.61,0,0,0,15.79-11.48L830,11.47C834.94-3.82,856.58-3.82,861.55,11.47Z"/><path class="cls-5" d="M1096.41,18.27h0m-5.13,15.79,9.26,28.52a38.51,38.51,0,0,0,36.72,26.68h30L1143,106.88A38.5,38.5,0,0,0,1129,150l9.26,28.52L1114,160.93a38.63,38.63,0,0,0-45.39,0l-24.25,17.63,9.26-28.52a38.5,38.5,0,0,0-14-43.16l-24.26-17.62h30A38.51,38.51,0,0,0,1082,62.58l9.27-28.52m0-34.06a16.3,16.3,0,0,0-15.8,11.47l-14.39,44.31a16.62,16.62,0,0,1-15.8,11.48H998.71c-16.09,0-22.78,20.58-9.76,30l37.69,27.39a16.6,16.6,0,0,1,6,18.56l-14.4,44.31c-3.78,11.65,5.47,21.81,15.85,21.81a16.36,16.36,0,0,0,9.7-3.24l37.7-27.39a16.61,16.61,0,0,1,19.52,0l37.69,27.39a16.36,16.36,0,0,0,9.7,3.24c10.38,0,19.63-10.16,15.85-21.81l-14.4-44.31a16.6,16.6,0,0,1,6-18.56l37.69-27.39c13-9.45,6.33-30-9.76-30h-46.58a16.62,16.62,0,0,1-15.8-11.48l-14.39-44.31A16.3,16.3,0,0,0,1091.28,0Z"/></g></g></svg>