<svg xmlns="http://www.w3.org/2000/svg" xmlns:xlink="http://www.w3.org/1999/xlink" viewBox="0 0 1200.48 209.36"><defs><style>.cls-1{fill:url(#linear-gradient);}.cls-2{fill:url(#linear-gradient-2);}.cls-3{fill:url(#linear-gradient-3);}.cls-4{fill:url(#linear-gradient-4);}.cls-5{fill:url(#linear-gradient-5);}</style><linearGradient id="linear-gradient" x1="168.62" y1="210.59" x2="61.43" y2="24.94" gradientUnits="userSpaceOnUse"><stop offset="0" stop-color="#5e0094"/><stop offset="1" stop-color="#4a85ff"/></linearGradient><linearGradient id="linear-gradient-2" x1="414.14" y1="210.59" x2="306.95" y2="24.94" xlink:href="#linear-gradient"/><linearGradient id="linear-gradient-3" x1="659.65" y1="210.59" x2="552.47" y2="24.94" xlink:href="#linear-gradient"/><linearGradient id="linear-gradient-4" x1="905.17" y1="210.59" x2="797.98" y2="24.94" xlink:href="#linear-gradient"/><linearGradient id="linear-gradient-5" x1="1150.69" y1="210.59" x2="1043.5" y2="24.94" xlink:href="#linear-gradient"/></defs><g id="Layer_2" data-name="Layer 2"><g id="Layer_1-2" data-name="Layer 1"><path class="cls-1" d="M125,11.47l14.39,44.31a16.62,16.62,0,0,0,15.8,11.48h46.59c16.08,0,22.77,20.58,9.76,30l-37.7,27.39a16.6,16.6,0,0,0-6,18.56l14.4,44.31c5,15.3-12.54,28-25.55,18.57L119,178.73a16.6,16.6,0,0,0-19.52,0l-37.7,27.39c-13,9.45-30.52-3.27-25.55-18.57l14.4-44.31a16.6,16.6,0,0,0-6-18.56L6.88,97.29c-13-9.45-6.33-30,9.76-30H63.23A16.62,16.62,0,0,0,79,55.78L93.41,11.47C98.38-3.82,120-3.82,125,11.47Z"/><path class="cls-2" d="M370.52,11.47l14.39,44.31A16.61,16.61,0,0,0,400.7,67.26h46.59c16.09,0,22.78,20.58,9.76,30l-37.69,27.39a16.6,16.6,0,0,0-6,18.56l14.4,44.31c5,15.3-12.54,28-25.56,18.57l-37.69-27.39a16.6,16.6,0,0,0-19.52,0l-37.69,27.39c-13,9.45-30.52-3.27-25.55-18.57l14.4-44.31a16.62,16.62,0,0,0-6-18.56l-37.7-27.39c-13-9.45-6.32-30,9.76-30h46.59a16.6,16.6,0,0,0,15.79-11.48l14.4-44.31C343.9-3.82,365.54-3.82,370.52,11.47Z"/><path class="cls-3" d="M616,11.47l14.4,44.31a16.61,16.61,0,0,0,15.79,11.48h46.59c16.09,0,22.77,20.58,9.76,30l-37.69,27.39a16.59,16.59,0,0,0-6,18.56l14.39,44.31c5,15.3-12.54,28-25.55,18.57L610,178.73a16.6,16.6,0,0,0-19.52,0l-37.69,27.39c-13,9.45-30.52-3.27-25.55-18.57l14.39-44.31a16.59,16.59,0,0,0-6-18.56L497.91,97.29c-13-9.45-6.32-30,9.76-30h46.59a16.61,16.61,0,0,0,15.79-11.48l14.4-44.31C589.42-3.82,611.06-3.82,616,11.47Z"/><path class="cls-4" d="M861.55,11.47,876,55.78a16.6,16.6,0,0,0,15.79,11.48h46.59c16.08,0,22.77,20.58,9.76,30L910.4,124.68a16.61,16.61,0,0,0-6,18.56l14.4,44.31c5,15.3-12.54,28-25.55,18.57l-37.69-27.39a16.6,16.6,0,0,0-19.52,0l-37.69,27.39c-13,9.45-30.53-3.27-25.56-18.57l14.4-44.31a16.6,16.6,0,0,0-6-18.56L743.43,97.29c-13-9.45-6.33-30,9.76-30h46.59a16.61,16.61,0,0,0,15.79-11.48L830,11.47C834.94-3.82,856.58-3.82,861.55,11.47Z"/><path class="cls-5" d="M1107.07,11.47l14.39,44.31a16.62,16.62,0,0,0,15.8,11.48h46.58c16.09,0,22.78,20.58,9.76,30l-37.69,27.39a16.6,16.6,0,0,0-6,18.56l14.4,44.31c5,15.3-12.54,28-25.55,18.57L1101,178.73a16.6,16.6,0,0,0-19.52,0l-37.7,27.39c-13,9.45-30.52-3.27-25.55-18.57l14.4-44.31a16.6,16.6,0,0,0-6-18.56L989,97.29c-13-9.45-6.33-30,9.76-30h46.58a16.62,16.62,0,0,0,15.8-11.48l14.39-44.31C1080.45-3.82,1102.1-3.82,1107.07,11.47Z"/></g></g></svg>