<?xml version="1.0" encoding="utf-8"?>
<!-- Generator: Adobe Illustrator 24.1.2, SVG Export Plug-In . SVG Version: 6.00 Build 0)  -->
<svg version="1.1" id="Layer_1" xmlns="http://www.w3.org/2000/svg" xmlns:xlink="http://www.w3.org/1999/xlink" x="0px" y="0px"
	 viewBox="0 0 1024 356.83" style="enable-background:new 0 0 1024 356.83;" xml:space="preserve">
<style type="text/css">
	.st0{fill:#4A85FF;}
	.st1{fill:#B9BCC1;}
</style>
<path id="audiowave" class="st0" d="M40.39,195.53c-5.04,0-9.13-4.09-9.13-9.13v-28.19c0-5.04,4.09-9.13,9.13-9.13
	s9.13,4.09,9.13,9.13v28.19C49.52,191.45,45.43,195.53,40.39,195.53z M73.42,166.79v-66.38c0-5.04-4.09-9.13-9.13-9.13
	s-9.13,4.09-9.13,9.13v66.38c0,5.04,4.09,9.13,9.13,9.13S73.42,171.83,73.42,166.79z M97.88,188.51v-48.4
	c0-5.04-4.09-9.13-9.13-9.13c-5.04,0-9.13,4.09-9.13,9.13v48.4c0,5.04,4.09,9.13,9.13,9.13C93.79,197.64,97.88,193.56,97.88,188.51z
	 M122.3,162.35v-52.57c0-5.04-4.09-9.13-9.13-9.13c-5.04,0-9.13,4.09-9.13,9.13v52.57c0,5.04,4.09,9.13,9.13,9.13
	C118.21,171.48,122.3,167.39,122.3,162.35z M145.97,199.41v-54.04c0-5.04-4.09-9.13-9.13-9.13s-9.13,4.09-9.13,9.13v54.04
	c0,5.04,4.09,9.13,9.13,9.13S145.97,204.45,145.97,199.41z M170.01,227.26V167.2c0-5.04-4.09-9.13-9.13-9.13s-9.13,4.09-9.13,9.13
	v60.06c0,5.04,4.09,9.13,9.13,9.13S170.01,232.3,170.01,227.26z M194.06,218.57v-93.22c0-5.04-4.09-9.13-9.13-9.13
	s-9.13,4.09-9.13,9.13v93.22c0,5.04,4.09,9.13,9.13,9.13S194.06,223.61,194.06,218.57z M218.24,206.32v-57.65
	c0-5.04-4.09-9.13-9.13-9.13c-5.04,0-9.13,4.09-9.13,9.13v57.65c0,5.04,4.09,9.13,9.13,9.13
	C214.15,215.44,218.24,211.36,218.24,206.32z M242.57,227.26V186.4c0-5.04-4.09-9.13-9.13-9.13s-9.13,4.09-9.13,9.13v40.85
	c0,5.04,4.09,9.13,9.13,9.13S242.57,232.3,242.57,227.26z"/>
<g id="brain">
	<path class="st1" d="M262.07,167.16c-0.73-3.15-3.43-14.33-8.19-27.65c-5.57-15.61-14.6-28.81-26.84-39.24
		c-20.43-17.43-48.47-25.98-83.36-25.42c-3.69-0.95-16.29-3.66-33.37-1.64c-10.96,1.3-25.14,4.79-40.36,13.17
		c4.27,1.78,7.55,5.48,8.75,10.02c10.3-5.33,21.17-8.74,32.52-10.16c17.45-2.19,29.64,1.35,29.76,1.39c0.65,0.2,1.33,0.29,2.02,0.28
		c67.88-1.43,90.91,34.48,98.6,55.99c5.21,14.6,7.89,26.79,7.92,26.9c0.13,0.59,0.34,1.15,0.62,1.68
		c7.07,13.26,3.75,30.95-1.78,38.15v16.46c0,0.43-0.02,0.85-0.06,1.27c3.8-3.01,7.31-5.95,9.94-9.19
		C267.28,208.05,271.21,185.17,262.07,167.16z"/>
	<path class="st1" d="M25.31,161.21c-0.91-2.55-1.44-5.26-1.44-8.1c0-21.47,21.39-31.69,22.28-32.11c0.74-0.34,1.41-0.81,1.97-1.39
		c0.36-0.38,0.73-0.75,1.1-1.12v-17.77c-3.23,2.73-6.47,5.73-9.68,9.01c-5.62,2.91-28.71,16.53-28.71,43.38
		c0,12.83,6.7,23.21,14.48,30.93V161.21z"/>
	<path class="st1" d="M220.92,235.46c-2.15,2.54-4.18,5.3-5.97,8.36c-6.25,10.66-22.9,9.68-26.1,9.39
		c-8.89-2.92-15.86-1.27-18.28,4.38c-0.95,2.22-1.37,4.9-1.22,7.96c0.1,2.15-0.83,4.11-2.43,5.13c-0.54,0.35-1.28,0.71-1.6,0.59
		c-0.13-0.05-3.21-1.33-6.39-12.37c-9.09-31.53-32.36-32.12-49.36-32.55c-3.19-0.08-6.21-0.16-9.05-0.4
		c-15.79-1.35-23.89-10.46-24.54-14.81c-0.2-1.34-0.32-2.41-0.42-3.35c-0.63-5.61-1.52-7.76-6.58-12.27
		c-4.46-3.96-10.54-6.04-13.83-6.95c-0.75,4.78-3.77,8.82-7.92,10.98c0.95,0.47,1.56,0.75,1.73,0.82c0.44,0.2,0.9,0.34,1.37,0.44
		c1.66,0.33,7.07,1.87,9.99,4.46c1.39,1.24,1.86,1.76,2.02,1.97c0.08,0.36,0.18,1.23,0.27,2c0.11,1,0.25,2.25,0.49,3.83
		c1.69,11.34,15.73,24.12,36.32,25.89c3.23,0.28,6.59,0.36,9.84,0.44c16.48,0.42,30.72,0.77,37.16,23.12
		c3.38,11.74,8.07,18.6,14.32,20.96c1.29,0.49,2.9,0.88,4.77,0.88c2.45,0,5.32-0.67,8.46-2.67c5.5-3.51,8.73-9.88,8.44-16.65
		c0.94,0.17,2,0.43,2.88,0.74c0.42,0.15,0.85,0.25,1.29,0.31c1.15,0.16,28.35,3.63,39.65-15.66c1.81-3.08,3.96-5.84,6.28-8.36
		C227.68,241.78,223.47,239.23,220.92,235.46z"/>
</g>
<g id="AIVA">
	<g>
		<path class="st1" d="M345.44,177.77c-2.18,0-4.37-0.82-6.06-2.45c-3.45-3.35-3.54-8.86-0.19-12.31l59.92-61.83
			c1.64-1.69,3.9-2.65,6.25-2.65s4.61,0.96,6.25,2.65L471.54,163c3.35,3.45,3.26,8.97-0.19,12.31c-3.46,3.35-8.97,3.26-12.31-0.19
			l-53.67-55.38l-53.66,55.38C349.99,176.88,347.72,177.77,345.44,177.77z"/>
	</g>
	<g>
		<path class="st1" d="M576.2,177.77c-4.81,0-8.71-3.9-8.71-8.71v-61.83c0-4.81,3.9-8.71,8.71-8.71c4.81,0,8.71,3.9,8.71,8.71v61.83
			C584.91,173.87,581.01,177.77,576.2,177.77z"/>
	</g>
	<g>
		<path class="st1" d="M745.76,177.77L745.76,177.77c-2.37,0-4.64-0.97-6.29-2.68l-59.28-61.83c-3.33-3.47-3.21-8.98,0.26-12.31
			c3.47-3.33,8.98-3.21,12.31,0.26l52.99,55.28l53-55.28c3.33-3.47,8.84-3.59,12.31-0.26c3.47,3.33,3.59,8.84,0.26,12.31
			l-59.28,61.83C750.4,176.8,748.13,177.77,745.76,177.77z"/>
	</g>
	<g>
		<path class="st1" d="M1002.01,177.77c-2.31,0-4.61-0.91-6.32-2.72l-52.33-55.17l-52.33,55.17c-3.31,3.49-8.82,3.63-12.31,0.33
			c-3.49-3.31-3.64-8.82-0.33-12.31l58.64-61.83c1.64-1.73,3.93-2.72,6.32-2.72s4.67,0.98,6.32,2.72l58.65,61.83
			c3.31,3.49,3.17,9-0.33,12.31C1006.32,176.97,1004.17,177.77,1002.01,177.77z"/>
	</g>
</g>
<g id="connect">
	<path class="st1" d="M379.5,218.63h-35.05c-2.11,0-3.93,0.87-5.41,2.58c-1.45,1.66-2.19,3.69-2.19,6.02v13.49
		c0,2.35,0.74,4.39,2.19,6.05c1.48,1.69,3.3,2.55,5.41,2.55h35.05c0.37,0,0.67-0.3,0.67-0.67v-5.06c0-0.37-0.3-0.67-0.67-0.67
		h-35.05c-0.5,0-0.9-0.2-1.27-0.61c-0.38-0.44-0.57-0.96-0.57-1.59v-13.49c0-0.63,0.19-1.15,0.57-1.59
		c0.37-0.42,0.77-0.61,1.27-0.61h35.05c0.37,0,0.67-0.3,0.67-0.67v-5.06C380.17,218.93,379.87,218.63,379.5,218.63z"/>
	<path class="st1" d="M476.39,218.63H449.3c-2.11,0-3.93,0.87-5.41,2.58c-1.45,1.66-2.19,3.69-2.19,6.02v13.49
		c0,2.35,0.74,4.39,2.19,6.05c1.48,1.69,3.29,2.55,5.41,2.55h27.09c2.11,0,3.93-0.86,5.41-2.55c1.45-1.66,2.19-3.7,2.19-6.05v-13.49
		c0-2.33-0.74-4.36-2.19-6.03C480.32,219.5,478.5,218.63,476.39,218.63z M478.23,227.24v13.49c0,0.63-0.19,1.15-0.57,1.59
		c-0.37,0.42-0.77,0.61-1.27,0.61H449.3c-0.5,0-0.9-0.19-1.27-0.61c-0.38-0.44-0.57-0.96-0.57-1.59v-13.49
		c0-0.63,0.19-1.15,0.57-1.59c0.37-0.42,0.77-0.61,1.27-0.61h27.09c0.5,0,0.9,0.2,1.27,0.61
		C478.04,226.09,478.23,226.61,478.23,227.24z"/>
	<path class="st1" d="M589,218.82h-4.42c-0.37,0-0.67,0.3-0.67,0.67v21.35l-34.06-22.1c-0.47-0.3-0.96-0.46-1.45-0.46
		c-0.51,0-1.01,0.16-1.5,0.49c-0.9,0.62-1.38,1.56-1.38,2.74v27.09c0,0.37,0.3,0.67,0.67,0.67h4.42c0.37,0,0.67-0.3,0.67-0.67
		v-21.56l34.06,22.13c0.04,0.02,0.08,0.04,0.11,0.06c0.42,0.24,0.87,0.36,1.33,0.36c0.67,0,1.28-0.23,1.8-0.69
		c0.51-0.45,0.84-1.03,0.99-1.73c0.05-0.23,0.08-0.48,0.08-0.74c0-0.01,0-0.02,0-0.03c0-0.01,0-0.01,0-0.02c0-0.01,0-0.03,0-0.04
		v-26.86C589.67,219.12,589.37,218.82,589,218.82z"/>
	<path class="st1" d="M694.68,218.82h-4.42c-0.37,0-0.67,0.3-0.67,0.67v21.35l-34.06-22.1c-0.47-0.3-0.96-0.46-1.45-0.46
		c-0.51,0-1.01,0.16-1.5,0.49c-0.9,0.62-1.38,1.56-1.38,2.74v27.09c0,0.37,0.3,0.67,0.67,0.67h4.42c0.37,0,0.67-0.3,0.67-0.67
		v-21.56l34.06,22.13c0.04,0.02,0.08,0.04,0.11,0.06c0.42,0.24,0.87,0.36,1.33,0.36c0.67,0,1.28-0.23,1.8-0.69
		c0.51-0.45,0.84-1.03,0.99-1.73c0.05-0.23,0.08-0.48,0.08-0.74c0-0.01,0-0.02,0-0.03c0-0.01,0-0.01,0-0.02c0-0.01,0-0.03,0-0.04
		v-26.86C695.35,219.12,695.05,218.82,694.68,218.82z"/>
	<path class="st1" d="M799.54,218.63h-35.05c-2.11,0-3.93,0.87-5.41,2.58c-1.45,1.66-2.19,3.69-2.19,6.02v13.49
		c0,2.35,0.74,4.39,2.19,6.05c1.48,1.69,3.29,2.55,5.41,2.55h35.05c0.37,0,0.67-0.3,0.67-0.67v-5.06c0-0.37-0.3-0.67-0.67-0.67
		h-35.05c-0.5,0-0.9-0.19-1.27-0.61c-0.38-0.44-0.57-0.96-0.57-1.59v-3.36h36.89c0.37,0,0.67-0.3,0.67-0.67v-5.06
		c0-0.37-0.3-0.67-0.67-0.67h-36.89v-3.73c0-0.63,0.19-1.15,0.57-1.59c0.37-0.42,0.77-0.61,1.27-0.61h35.05
		c0.37,0,0.67-0.3,0.67-0.67v-5.06C800.2,218.93,799.9,218.63,799.54,218.63z"/>
	<path class="st1" d="M904.39,218.63h-35.05c-2.11,0-3.93,0.87-5.41,2.58c-1.45,1.66-2.19,3.69-2.19,6.02v13.49
		c0,2.35,0.74,4.39,2.19,6.05c1.48,1.69,3.29,2.55,5.41,2.55h35.05c0.37,0,0.67-0.3,0.67-0.67v-5.06c0-0.37-0.3-0.67-0.67-0.67
		h-35.05c-0.5,0-0.9-0.19-1.27-0.61c-0.38-0.44-0.57-0.96-0.57-1.59v-13.49c0-0.63,0.19-1.15,0.57-1.59
		c0.37-0.42,0.77-0.61,1.27-0.61h35.05c0.37,0,0.67-0.3,0.67-0.67v-5.06C905.06,218.93,904.76,218.63,904.39,218.63z"/>
	<path class="st1" d="M1014.1,218.63h-46.83c-0.37,0-0.67,0.3-0.67,0.67v5.06c0,0.37,0.3,0.67,0.67,0.67h20.55v23.63
		c0,0.37,0.3,0.67,0.67,0.67h4.42c0.37,0,0.67-0.3,0.67-0.67v-23.63h20.52c0.37,0,0.67-0.3,0.67-0.67v-5.06
		C1014.77,218.93,1014.47,218.63,1014.1,218.63z"/>
</g>
</svg>
