<svg xmlns="http://www.w3.org/2000/svg" xmlns:xlink="http://www.w3.org/1999/xlink" viewBox="0 0 641.51 509.8"><defs><style>.cls-1{fill:url(#linear-gradient);}</style><linearGradient id="linear-gradient" x1="506.95" y1="445.19" x2="237.49" y2="-21.51" gradientUnits="userSpaceOnUse"><stop offset="0" stop-color="#5e0094"/><stop offset="1" stop-color="#4a85ff"/></linearGradient></defs><g id="Layer_2" data-name="Layer 2"><g id="Layer_1-2" data-name="Layer 1"><path class="cls-1" d="M71.11,296.1a22,22,0,0,1-22-22V206.29a22,22,0,1,1,43.93,0v67.84A22,22,0,0,1,71.11,296.1Zm79.5-69.17V67.19a22,22,0,0,0-43.93,0V226.93a22,22,0,1,0,43.93,0Zm58.84,52.27V162.75a22,22,0,1,0-43.93,0V279.2a22,22,0,1,0,43.93,0Zm58.76-62.95V89.75a22,22,0,1,0-43.93,0v126.5a22,22,0,1,0,43.93,0Zm57,89.16v-130a22,22,0,1,0-43.93,0v130a22,22,0,1,0,43.93,0Zm57.86,67V227.91a22,22,0,1,0-43.93,0V372.43a22,22,0,1,0,43.93,0Zm57.86-20.9V127.22a22,22,0,1,0-43.93,0V351.53a22,22,0,1,0,43.93,0ZM499.06,322V183.32a22,22,0,1,0-43.93,0V322a22,22,0,1,0,43.93,0Zm58.56,50.39v-98.3a22,22,0,0,0-43.94,0v98.3a22,22,0,0,0,43.94,0Zm46.93-144.61a626.26,626.26,0,0,0-19.7-66.53C571.44,123.74,549.72,92,520.28,66.86,471.11,24.93,403.64,4.34,319.69,5.7c-8.88-2.28-39.21-8.81-80.3-3.94-26.37,3.13-60.5,11.53-97.11,31.7a36.27,36.27,0,0,1,21.07,24.1,231.94,231.94,0,0,1,78.24-24.45c42-5.28,71.31,3.26,71.61,3.34a15.58,15.58,0,0,0,4.85.67c163.33-3.43,218.76,83,237.25,134.72a589.85,589.85,0,0,1,19.06,64.74,15.77,15.77,0,0,0,1.49,4c17,31.92,9,74.48-4.3,91.8V372c0,1,0,2-.13,3.05,9.13-7.24,17.58-14.31,23.91-22.11C617.07,326.22,626.53,271.17,604.55,227.82ZM34.84,213.51A57.78,57.78,0,0,1,31.38,194c0-51.65,51.47-76.26,53.61-77.26a15.62,15.62,0,0,0,4.74-3.36l2.64-2.68V68Q80.71,77.84,69.08,89.64C55.56,96.64,0,129.4,0,194c0,30.88,16.12,55.84,34.84,74.44ZM505.53,392.16a143.15,143.15,0,0,0-14.36,20.13c-15,25.64-55.1,23.3-62.81,22.6-21.4-7-38.16-3.06-44,10.53-2.29,5.36-3.28,11.8-2.95,19.15.24,5.16-2,9.89-5.84,12.35-1.3.83-3.09,1.7-3.86,1.41-.31-.12-7.72-3.19-15.38-29.76-21.86-75.87-77.88-77.29-118.78-78.32-7.69-.19-14.95-.37-21.79-1-38-3.26-57.48-25.18-59-35.64-.48-3.22-.76-5.8-1-8.07-1.5-13.49-3.65-18.69-15.84-29.53-10.72-9.53-25.36-14.54-33.29-16.72a36.16,36.16,0,0,1-19,26.42c2.27,1.13,3.74,1.8,4.16,2a15.85,15.85,0,0,0,3.3,1c4,.8,17,4.49,24,10.72a44,44,0,0,1,4.87,4.74c.19.86.43,2.95.64,4.82.26,2.42.6,5.42,1.16,9.2,4.06,27.29,37.86,58.05,87.4,62.3,7.79.66,15.86.87,23.68,1.06,39.66,1,73.92,1.87,89.42,55.64,8.14,28.25,19.41,44.75,34.45,50.43a32.52,32.52,0,0,0,11.48,2.11c5.88,0,12.81-1.62,20.35-6.44,13.23-8.44,21-23.78,20.31-40.05a47.38,47.38,0,0,1,6.94,1.78,15.23,15.23,0,0,0,3.1.75c2.77.38,68.21,8.73,95.42-37.68a116.76,116.76,0,0,1,15.12-20.11A36.1,36.1,0,0,1,505.53,392.16Zm83.7-357.84v27H581v-27H571.4v-7h27.45v7Zm44.21,27,.21-24.08h-.16l-8.82,24.08h-5.78l-8.61-24.08h-.14l.19,24.08h-7.72v-34h11.68L622,49.12h.18l7.42-21.82h11.87v34Z"/></g></g></svg>