<svg xmlns="http://www.w3.org/2000/svg" xmlns:xlink="http://www.w3.org/1999/xlink" viewBox="0 0 512 481.85"><defs><style>.cls-1{fill:url(#linear-gradient);}</style><linearGradient id="linear-gradient" x1="390.28" y1="465.85" x2="124.41" y2="5.34" gradientUnits="userSpaceOnUse"><stop offset="0" stop-color="#5e0094"/><stop offset="1" stop-color="#4a85ff"/></linearGradient></defs><g id="Layer_2" data-name="Layer 2"><g id="Layer_1-2" data-name="Layer 1"><path class="cls-1" d="M430.88,290.08a180.92,180.92,0,0,0,6.18-27.73l21.11-4.5A68.06,68.06,0,0,0,510.5,177.2l-9.61-45.12-39.64,8.44a67.44,67.44,0,0,0-37.52,22.34,186.08,186.08,0,0,0-11.31-22.15l13.11-16.54a68,68,0,0,0-11-95.51L378.34,0,353.16,31.76a68,68,0,0,0,10.19,94.8c28.88,28.5,45.44,68.51,45.44,109.87,0,84.33-68.61,152.94-152.94,152.94S102.91,320.76,102.91,236.43a154.14,154.14,0,0,1,46.73-110.7,67.95,67.95,0,0,0,9.2-94L133.66,0,97.51,28.66a68.07,68.07,0,0,0-11,95.51l13.07,16.48a183.18,183.18,0,0,0-11.4,22,67.46,67.46,0,0,0-37.39-22.18l-39.64-8.44L1.5,177.2a68.06,68.06,0,0,0,52.33,80.65l20.8,4.43A181.17,181.17,0,0,0,80.81,290a67.65,67.65,0,0,0-42.95,7.47L2.28,316.92l22.1,40.49a67.56,67.56,0,0,0,40.51,32.66,68.44,68.44,0,0,0,19.26,2.78,67.63,67.63,0,0,0,32.48-8.34l18.85-10.29a184.7,184.7,0,0,0,19,14.58,67.45,67.45,0,0,0-28.68,33.06l-15.29,37.53,42.72,17.4a68,68,0,0,0,88.61-37.32l8.18-20.08c1.93.06,3.86.1,5.8.1s4.07-.05,6.09-.11l8.19,20.09a67.86,67.86,0,0,0,88.61,37.32l42.72-17.4-15.29-37.53a67.46,67.46,0,0,0-28.84-33.15,184.55,184.55,0,0,0,19-14.59l19,10.39a67.67,67.67,0,0,0,32.48,8.35,68.45,68.45,0,0,0,19.26-2.79,67.53,67.53,0,0,0,40.51-32.66l22.1-40.49L474.14,297.5a67.62,67.62,0,0,0-43.26-7.42ZM214,428.11a37.86,37.86,0,0,1-49.35,20.79l-14.83-6,3.92-9.64a37.87,37.87,0,0,1,49.36-20.79l14.83,6ZM362.2,442.86l-14.82,6A37.86,37.86,0,0,1,298,428.11l-3.93-9.64,14.83-6a37.86,37.86,0,0,1,49.36,20.79ZM443.65,186.4A37.58,37.58,0,0,1,467.52,170l10.19-2.17L481,183.47a37.87,37.87,0,0,1-29.15,44.93l-10.18,2.17-3.33-15.67a37.59,37.59,0,0,1,5.27-28.5ZM376.76,50.47l6.47-8.16,12.55,9.95a37.87,37.87,0,0,1,6.15,53.2l-6.47,8.16-12.55-10A37.92,37.92,0,0,1,376.76,50.47ZM102.13,77.58a37.63,37.63,0,0,1,14.09-25.32l12.55-9.95,6.47,8.16a37.93,37.93,0,0,1-2,49.35c-1.29,1.17-2.57,2.35-3.82,3.56l-.35.29-12.55,10-6.47-8.16A37.66,37.66,0,0,1,102.13,77.58Zm-42,150.81A37.86,37.86,0,0,1,31,183.47l3.33-15.66L44.48,170A37.86,37.86,0,0,1,73.63,214.9l-3.34,15.66ZM102.2,358.08A37.87,37.87,0,0,1,50.82,343l-7.68-14.06,9.14-5A37.87,37.87,0,0,1,103.67,339l7.67,14.06Zm359-15.1a37.87,37.87,0,0,1-51.38,15.1l-9.14-5L408.33,339a37.87,37.87,0,0,1,51.39-15.09l9.14,5ZM192.39,257.66l-7.69,77.47L256,303.88l71.3,31.25-7.69-77.47,51.76-58.16-76.06-16.62L256,115.69l-39.32,67.19-76.05,16.63ZM236,209.49l20-34.16,20,34.15,38.66,8.46L288.34,247.5l3.91,39.38L256,271l-36.24,15.89,3.9-39.38-26.31-29.56Z"/></g></g></svg>