<svg xmlns="http://www.w3.org/2000/svg" xmlns:xlink="http://www.w3.org/1999/xlink" viewBox="0 0 425.22 355.61"><defs><style>.cls-1{fill:url(#linear-gradient);}</style><linearGradient id="linear-gradient" x1="339.1" y1="394.17" x2="144.83" y2="57.69" gradientUnits="userSpaceOnUse"><stop offset="0" stop-color="#5e0094"/><stop offset="1" stop-color="#4a85ff"/></linearGradient></defs><g id="Layer_2" data-name="Layer 2"><g id="Layer_1-2" data-name="Layer 1"><path class="cls-1" d="M365.88,132.61h40v223h-40Zm-115,72h40v151h-40Zm-116,75h40v76h-40Zm-115-21h40v97h-40Zm395.7-244.9a39.55,39.55,0,0,0-67.7,37.6l-47.8,33.9a39.79,39.79,0,0,0-66.4,41.6l-44.6,37.6a39.77,39.77,0,0,0-72,9.7l-37.8-15.3a39.74,39.74,0,1,0-1.2,16.8l37.8,15.3a39.84,39.84,0,1,0,79-10.4l47.8-40.3A39.81,39.81,0,0,0,308.38,99l47.3-33.6a39.56,39.56,0,0,0,59.9-51.7Z"/></g></g></svg>