<svg xmlns="http://www.w3.org/2000/svg" viewBox="0 0 444.8 234.62"><defs><style>.cls-1{fill:#c72027;}.cls-2{fill:#12393d;}</style></defs><g id="Layer_2" data-name="Layer 2"><g id="Ñëîé_1" data-name="Ñëîé 1"><path class="cls-1" d="M360,234.62a28.43,28.43,0,0,0-4.4-.82,40.55,40.55,0,0,1-31.85-32.68c-2.16-12.69,1.56-23.76,10-33.21,7.72-8.65,17.62-13,29.21-13.41a40.6,40.6,0,0,1,41.17,32.37c2.62,13.28-.87,25.09-10.08,35-6.59,7.14-14.94,11-24.49,12.29a5.28,5.28,0,0,0-2.22.41Zm4.1-19.74a20.29,20.29,0,1,0-.06-40.58c-11,.08-20.2,9.08-20.24,19.88A20.32,20.32,0,0,0,364.12,214.88Z"/><path class="cls-1" d="M187.24,234.62a6.55,6.55,0,0,0-2.66-.39c-4.11-.32-8.16-.92-12.21-1.62-.57-.09-.71-.33-.71-.87,0-5.44.05-10.89,0-16.33,0-.85.42-.67.89-.54a78.7,78.7,0,0,0,14.85,2.53c4.31.31,8.6.15,12.68-1.49,3.1-1.25,4.65-3.88,4-6.69a6.64,6.64,0,0,0-2.19-3.4,16.32,16.32,0,0,0-6.27-3.2c-3.43-1.15-7-2-10.24-3.59-4.44-2.15-8.38-4.9-11-9.19-5-8.12-5.11-24.12,9-31.62a35,35,0,0,1,14.94-3.73,70.57,70.57,0,0,1,18.82,2c2.1.46,2.1.49,2.1,2.63,0,4.41,0,8.81,0,13.22,0,.9-.2,1-1.06.82-5.09-1.17-10.21-2.2-15.47-2a17.18,17.18,0,0,0-7,1.46,6,6,0,0,0-3.63,3.8c-.66,2.48,1,5.32,3.87,6.46,2,.8,4,1.51,6,2.25,2.77,1,5.55,2,8.32,3.08a22.27,22.27,0,0,1,14.32,23.77c-1.37,10.74-7.74,17.14-17.68,20.45a43.21,43.21,0,0,1-9.76,2c-.17,0-.38,0-.43.22Z"/><path class="cls-1" d="M280.86,234.62a29,29,0,0,0-4.63-.83c-16.86-3.19-28.65-14.71-32-31.48-3.26-16.59,4.17-35,20.41-43.21a43.44,43.44,0,0,1,17.82-4.54,55,55,0,0,1,19.38,2.5c.46.14.77.24.77.84q0,9.9,0,19.78c0,.07-.05.13-.11.29a40.4,40.4,0,0,0-6.33-2.58,31.34,31.34,0,0,0-16.33-.75,19.86,19.86,0,0,0-14.8,16.52c-.85,6.49.45,12.41,5,17.31s10.14,6.88,16.66,6.67a37.48,37.48,0,0,0,15.1-3.63c.62-.29.87-.3.86.53q0,9.51,0,19c0,.68-.27.85-.84,1a55.89,55.89,0,0,1-11.51,2.36.35.35,0,0,0-.35.2Z"/><path class="cls-1" d="M77.16,234.62a26.52,26.52,0,0,0-4.61-.83c-17.2-3.23-29.42-15.5-32.07-32.74-2.08-13.49,1.6-25.39,11.22-35.19,6.09-6.2,13.71-9.57,22.26-10.81a53.72,53.72,0,0,1,24.25,2c.52.17.8.33.8,1,0,6.55,0,13.11,0,19.66a1.54,1.54,0,0,1-.08.32,39.07,39.07,0,0,0-6.34-2.59c-5.91-1.66-11.91-2.37-17.8-.26-7.84,2.81-12.38,8.51-13.38,16.82-.75,6.17.7,11.81,5,16.46,4.5,4.9,10.23,7,16.84,6.74a38.81,38.81,0,0,0,15.58-3.88c.36.3.22.66.22,1,0,6.18,0,12.37,0,18.55,0,.79-.19,1.13-1,1.36a55.45,55.45,0,0,1-11.18,2.27c-.15,0-.28,0-.33.22Z"/><path class="cls-2" d="M0,71c.42-.89.6-1.86,1.06-2.75a9.68,9.68,0,0,1,18.25,4.38q0,10.15,0,20.33a9.61,9.61,0,0,1-8.52,9.74A9.74,9.74,0,0,1,.25,95.6c-.06-.19,0-.46-.25-.55Z"/><path class="cls-2" d="M319.22,60.93q0-25.44,0-50.88c0-7.46,7.24-12.22,13.84-9a9.16,9.16,0,0,1,5.49,8.79q0,20.61,0,41.22v61.44a9.67,9.67,0,1,1-19.34-.07q0-20.61,0-41.22Z"/><path class="cls-2" d="M125.68,61.14v51.44a9.64,9.64,0,0,1-19.27,0V9.71a9.66,9.66,0,0,1,19.16-1.78,9.46,9.46,0,0,1,.1,1.77Q125.69,35.42,125.68,61.14Z"/><path class="cls-1" d="M125.83,194.62q0-18.78,0-37.56c0-.89.18-1.18,1.13-1.18q8.67.08,17.34,0c1,0,1.14.31,1.13,1.19q0,37.45,0,74.89c0,.95-.19,1.26-1.21,1.25q-8.55-.08-17.12,0c-1,0-1.29-.21-1.29-1.26Q125.86,213.29,125.83,194.62Z"/><path class="cls-2" d="M179.05,69.67V93.12a9.68,9.68,0,0,1-19.35,0q0-23.39,0-46.77a9.68,9.68,0,0,1,19.18-2,10.15,10.15,0,0,1,.15,2Q179.06,58,179.05,69.67Z"/><path class="cls-2" d="M266.14,69.59c0-7.74,0-15.48,0-23.22a9.67,9.67,0,0,1,19.33-.43q0,23.82,0,47.66c0,4.61-3.84,8.59-8.67,9.16a9.73,9.73,0,0,1-10.41-7.31,11.29,11.29,0,0,1-.26-2.65Z"/><path class="cls-2" d="M53.33,69.71c0-7.85,0-15.7,0-23.55a9.65,9.65,0,0,1,19-2.32,9.81,9.81,0,0,1,.32,2.53V93.13a9.68,9.68,0,0,1-19.35,0Z"/><path class="cls-2" d="M391.82,69.82V93.27a9.67,9.67,0,0,1-19.34.08q0-23.55,0-47.11a9.68,9.68,0,0,1,19.24-1.52,11.27,11.27,0,0,1,.1,1.54Z"/><path class="cls-2" d="M232.16,83.07V93.39a9.66,9.66,0,0,1-19.31,0q0-10.33,0-20.66a9.66,9.66,0,0,1,19.31,0Z"/><path class="cls-2" d="M444.74,82.93c0,3.51-.16,7,.05,10.54.25,4.17-3.12,7.77-6.45,8.86a9.69,9.69,0,0,1-12.72-9.18q0-10.22,0-20.43A9.68,9.68,0,0,1,444.55,70a4.6,4.6,0,0,1,.2,1.42Q444.74,77.16,444.74,82.93Z"/><path class="cls-1" d="M439.78,231.23c1-2.62,1.82-5,2.68-7.4.15-.41.23-.79.85-.82,1.44-.06,1.43-.1,1.43,1.38,0,2.59,0,5.18,0,7.77,0,.4.31,1-.56,1s-.65-.62-.65-1.08c0-2.17,0-4.34-.24-6.56-.41,1-.81,2.09-1.21,3.14-.47,1.24-.95,2.48-1.4,3.73-.18.5-.39.79-1,.79s-.8-.33-1-.82c-.72-2-1.45-4-2.21-6-.12-.32-.11-.74-.61-1,0,2.35,0,4.62,0,6.89,0,.49.09.94-.69,1s-.69-.45-.69-.94c0-2.73,0-5.47,0-8.21,0-.35-.33-1.07.43-1s1.64-.6,2.06.61C437.88,226.12,438.79,228.54,439.78,231.23Z"/><path class="cls-1" d="M428.92,228.7c0-1.22,0-2.44,0-3.66,0-.61-.15-.88-.81-.84s-1.33,0-2,0c-.49,0-.64-.18-.64-.65s.25-.55.64-.54h7.1c.41,0,.6.13.59.57s-.1.64-.55.61c-.19,0-.37,0-.56,0-2.38,0-2.38,0-2.38,2.45,0,1.89,0,3.77,0,5.66,0,.55,0,.9-.74.89s-.68-.37-.68-.85C428.93,231.14,428.92,229.92,428.92,228.7Z"/></g></g></svg>