<svg xmlns="http://www.w3.org/2000/svg" xmlns:xlink="http://www.w3.org/1999/xlink" viewBox="0 0 512 512"><defs><style>.cls-1{fill:url(#linear-gradient);}</style><linearGradient id="linear-gradient" x1="383.98" y1="477.66" x2="128.02" y2="34.34" gradientUnits="userSpaceOnUse"><stop offset="0" stop-color="#5e0094"/><stop offset="1" stop-color="#4a85ff"/></linearGradient></defs><g id="Layer_2" data-name="Layer 2"><g id="Layer_1-2" data-name="Layer 1"><path class="cls-1" d="M347.22,301.21l-71.39-53.54V138.61a19.83,19.83,0,1,0-39.66,0v119a19.78,19.78,0,0,0,7.93,15.86l79.32,59.49a19.83,19.83,0,0,0,23.8-31.73ZM256,0C114.83,0,0,114.83,0,256S114.83,512,256,512,512,397.17,512,256,397.17,0,256,0Zm0,472.34C136.73,472.34,39.66,375.27,39.66,256S136.73,39.66,256,39.66,472.34,136.73,472.34,256,375.27,472.34,256,472.34Z"/></g></g></svg>