<svg xmlns="http://www.w3.org/2000/svg" viewBox="0 0 991.94 291"><defs><style>.cls-1{isolation:isolate;}.cls-2{fill:#fff;mix-blend-mode:color;}</style></defs><g class="cls-1"><g id="Layer_2" data-name="Layer 2"><g id="Layer_1-2" data-name="Layer 1"><path class="cls-2" d="M93.17,0A25.62,25.62,0,1,1,67.55,25.61,25.62,25.62,0,0,1,93.17,0ZM87.82,237V194.78a8.45,8.45,0,0,0-8.45-8.45h-10l.19-25.27a8.44,8.44,0,0,0-8.44-8.5H26.74a8.44,8.44,0,0,0-8.44,8.5l.19,25.27h-10A8.44,8.44,0,0,0,0,194.78V237a8.44,8.44,0,0,0,8.44,8.44H79.37A8.44,8.44,0,0,0,87.82,237ZM52.44,186.33H35.37l-.12-16.89H52.57Zm62.9-129.47H101.61v70.36a8.45,8.45,0,1,1-16.89,0V56.86H71A32.75,32.75,0,0,0,38.28,89.57v46.1h22.8A25.35,25.35,0,0,1,86.41,161h61.64V89.57a32.74,32.74,0,0,0-32.71-32.71ZM104.71,194.78V237a25.37,25.37,0,0,1-25.34,25.33H57.15L58,280.18a8.45,8.45,0,0,0,8.44,8h51.22a8.44,8.44,0,0,0,8.44-8.08l4.36-102.25H98.23a25.17,25.17,0,0,1,6.48,16.89ZM198.94,291h57V216h-57Zm261,0h57V144h-57Zm-85,0h57V167h-57Zm-227,0h12V234h-12Zm142,0h57V193h-57Zm645-258V291h57V33Zm-96,258h57V56h-57Zm-192,0h57V102h-57Zm96,0h57V80h-57Zm-192,0h57V122h-57Zm-542-29v29h26V262Z"/></g></g></g></svg>