<svg xmlns="http://www.w3.org/2000/svg" viewBox="0 0 370 121.2"><defs><style>.cls-1{fill:#4285f4;}.cls-2{fill:#ea4335;}.cls-3{fill:#fbbc05;}.cls-4{fill:#34a853;}</style></defs><g id="Layer_2" data-name="Layer 2"><g id="Layer_1-2" data-name="Layer 1"><path class="cls-1" d="M91,42.8H47.8V55.6H78.4c-1.5,18-16.5,25.6-30.6,25.6A33.63,33.63,0,0,1,14,47.1c0-19.4,15-34.3,33.8-34.3a33.3,33.3,0,0,1,23.1,9.3l9-9.3S68.4,0,47.4,0C20.7,0,0,22.6,0,46.9A47.72,47.72,0,0,0,48.1,94.1c25.2,0,43.6-17.3,43.6-42.8a42.59,42.59,0,0,0-.7-8.5Z"/><path class="cls-2" d="M126.3,33.5a29.92,29.92,0,0,0-30.4,30c0,16.4,12.3,30.5,30.6,30.5,16.6,0,30.1-12.7,30.1-30.1C156.7,43.8,140.9,33.5,126.3,33.5Zm.2,11.9c8.7,0,17,7,17,18.4,0,11.1-8.2,18.4-17,18.4-9.7,0-17.3-7.7-17.3-18.4S116.7,45.4,126.5,45.4Z"/><path class="cls-3" d="M192.5,33.5a29.92,29.92,0,0,0-30.4,30c0,16.4,12.3,30.5,30.6,30.5,16.6,0,30.1-12.7,30.1-30.1,0-20.1-15.8-30.4-30.3-30.4Zm.2,11.9c8.7,0,17,7,17,18.4,0,11.1-8.2,18.4-17,18.4-9.7,0-17.3-7.7-17.3-18.4S182.9,45.4,192.7,45.4Z"/><path class="cls-1" d="M257.3,33.5c-16.3,0-29,14.2-29,30.2,0,18.2,14.8,30.3,28.8,30.3,8.6,0,13.2-3.4,16.6-7.4v6c0,10.4-6.3,16.7-15.9,16.7-9.2,0-13.9-6.9-15.5-10.8l-11.6,4.9c4.1,8.7,12.4,17.8,27.2,17.8,16.2,0,28.5-10.2,28.5-31.5V35.3H273.7v5.1a21.9,21.9,0,0,0-16.4-6.9Zm1.2,11.9c8,0,16.2,6.8,16.2,18.4,0,11.8-8.2,18.3-16.3,18.3-8.7,0-16.7-7-16.7-18.2-.1-11.6,8.3-18.5,16.8-18.5Z"/><path class="cls-2" d="M342.7,33.5c-15.3,0-28.2,12.2-28.2,30.2,0,19.1,14.4,30.4,29.7,30.4,12.8,0,20.7-7,25.3-13.3l-10.5-7a17,17,0,0,1-14.8,8.3c-8.5,0-12.4-4.7-14.8-9.2L370,56.1l-2.1-4.9c-3.9-9.7-13.1-17.7-25.2-17.7Zm.6,11.6c5.5,0,9.5,2.9,11.2,6.5L327.4,62.9C326.2,54.1,334.5,45.1,343.3,45.1Z"/><rect class="cls-4" x="295.2" y="3.1" width="13.3" height="89.2"/></g></g></svg>