<svg xmlns="http://www.w3.org/2000/svg" xmlns:xlink="http://www.w3.org/1999/xlink" viewBox="0 0 834.24 349.23"><defs><style>.cls-1{fill:url(#linear-gradient);}</style><linearGradient id="linear-gradient" y1="174.61" x2="834.24" y2="174.61" gradientUnits="userSpaceOnUse"><stop offset="0" stop-color="#5e0094"/><stop offset="1" stop-color="#4a85ff"/></linearGradient></defs><g id="Layer_2" data-name="Layer 2"><g id="Layer_1-2" data-name="Layer 1"><path class="cls-1" d="M0,5.38H60.64V139h81.45V5.38h60.63v338H142.09V191.52H60.64V343.41H0ZM469.74,171.8c0,123.61-33.59,177.43-111.52,177.43-72.78,0-108.26-53-108.26-178.12C250,49.14,291.25,0,361,0,434.64,0,469.74,54.44,469.74,171.8ZM312,170.55c0,80.2,12.15,127.9,47.63,127.9,37.35,0,48-44.18,48-127.78,0-78.54-11.34-119.45-48.08-119.45C323.44,51.22,312,95.22,312,170.55ZM555.22,343.41l-64.49-338h64.72C567.77,85.15,584,195.78,588.88,259h.51c10.09-65.32,34.14-180,47.68-253.58h53.82c12.64,66.46,37.09,186,45.79,250.44h1C745.11,185,765.3,69.76,774,5.38h60.25l-68.79,338H705.61c-13-70.5-34.84-173.34-43.87-238.51h-.93c-9.58,66.32-32.71,173.49-45.87,238.51Z"/></g></g></svg>