<svg xmlns="http://www.w3.org/2000/svg" xmlns:xlink="http://www.w3.org/1999/xlink" viewBox="0 0 1366.73 725.05"><defs><style>.cls-1{fill:#fff;}.cls-2{fill:url(#linear-gradient);}</style><linearGradient id="linear-gradient" y1="296.04" x2="1366.73" y2="296.04" gradientUnits="userSpaceOnUse"><stop offset="0" stop-color="#5e0094"/><stop offset="1" stop-color="#4a85ff"/></linearGradient></defs><g id="Layer_2" data-name="Layer 2"><g id="Layer_1-2" data-name="Layer 1"><path class="cls-1" d="M56,338.2h49.09L153,456.3l47.38-118.1h48.84V508.78H207.63V406.48l-38.15,102.3H136L97.55,406.24V508.78H56Z"/><path class="cls-1" d="M279.07,338.2h41.56V508.78H279.07Z"/><path class="cls-1" d="M472,338.2c41.8,0,62.7,24.06,62.7,53.7,0,21.39-11.67,41.56-37.91,49.33l39.36,67.55H489.27l-35.48-64.39h-10v64.39H402.27V338.2Zm-2.43,34.51H443.83V415h25.75c15.55,0,22.84-8,22.84-21.39C492.42,381,485.13,372.71,469.58,372.71Z"/><path class="cls-1" d="M621,510.73c-39.85,0-68.53-26.73-68.53-69.74s28.19-69.74,68.53-69.74c39.61,0,67.55,26.24,67.55,67.55a104.09,104.09,0,0,1-.73,12.15h-94c1.46,17.74,12.4,26,25.76,26,11.67,0,18.23-5.83,21.63-13.12h44.22C678.8,490.32,654.75,510.73,621,510.73Zm-27-82.86h52c0-14.83-11.67-23.33-25.52-23.33C606.88,404.54,596.43,412.8,594,427.87Z"/><path class="cls-1" d="M765.56,510.73c-36.21,0-60.51-20.17-62.46-46.41h41.07c1,9.47,9.48,15.79,20.9,15.79,10.69,0,16.28-4.86,16.28-10.93,0-21.87-73.87-6.08-73.87-55.89,0-23.09,19.68-42,55.16-42,35,0,54.43,19.44,57.1,46.17H781.35c-1.22-9.24-8.26-15.31-19.93-15.31-9.72,0-15.06,3.89-15.06,10.45,0,21.63,73.38,6.32,74.11,56.86C820.47,493,799.57,510.73,765.56,510.73Z"/><path class="cls-1" d="M907.71,510.73c-39.85,0-70-26.73-70-69.74s30.86-69.74,70.47-69.74c39.85,0,70.46,26.73,70.46,69.74S947.56,510.73,907.71,510.73Zm0-36c14.82,0,28.67-10.94,28.67-33.78,0-23.09-13.61-33.78-28.18-33.78C893.13,407.21,880,417.9,880,441,880,463.83,892.64,474.77,907.71,474.77Z"/><path class="cls-1" d="M1042.33,508.78h-41.55V373.19h41.55v22.6c9.48-14.34,24.3-24.06,42.52-24.06v44h-11.42c-19.68,0-31.1,6.8-31.1,30.13Z"/><path class="cls-1" d="M1111.34,407.7h-16.52V373.19h16.52v-33h41.55v33h27.22V407.7h-27.22v54.43c0,8,3.41,11.42,12.64,11.42h14.82v35.23h-21.14c-28.19,0-47.87-11.9-47.87-47.14Z"/><path class="cls-1" d="M1258.6,510.73c-36.21,0-60.51-20.17-62.45-46.41h41.06c1,9.47,9.48,15.79,20.9,15.79,10.69,0,16.28-4.86,16.28-10.93,0-21.87-73.87-6.08-73.87-55.89,0-23.09,19.68-42,55.16-42,35,0,54.43,19.44,57.1,46.17h-38.39c-1.21-9.24-8.26-15.31-19.93-15.31-9.72,0-15.06,3.89-15.06,10.45,0,21.63,73.38,6.32,74.11,56.86C1313.51,493,1292.61,510.73,1258.6,510.73Z"/><path class="cls-2" d="M1365.73,263.93h-485L762.11,42,734.73,84.21,690.11,0,641.73,80.21,618.11,42l-133,221.93H0v15H637.63l47.62-79.49,42.49,79.49h639v-15ZM689.36,30.43l36.37,68.78L686,169,648.73,94.21ZM502.62,263.93,617.36,72.43l25.7,48.08L557.13,263.93Zm126.51,0H574.62l76.69-128L677,184Zm107.6,0-42.49-79.49,29.07-48.5,68.41,128Zm72,0-76.43-143,29.06-48.5,102.36,191.5Zm556.78,328.14H0v-15H1365.51Z"/><path class="cls-1" d="M60.81,652.89V700H79.25v5.59H53.94V652.89Z"/><path class="cls-1" d="M85.45,652.74a4.61,4.61,0,1,1,4.68,4.68A4.61,4.61,0,0,1,85.45,652.74Zm1.13,11.41h6.88v41.41H86.58Z"/><path class="cls-1" d="M107.66,664.15l12.92,35.06,12.85-35.06h7.33l-16.25,41.41h-8l-16.25-41.41Z"/><path class="cls-1" d="M165.46,706.24c-11.79,0-20.48-8.31-20.48-21.46s8.39-21.31,20.48-21.31,19.87,8.46,19.87,19.8a37.4,37.4,0,0,1-.22,4.15H152c.53,8.39,6.42,13,13.45,13,6.2,0,10.13-3.17,11.64-7.63h7.4C182.39,700.34,175.74,706.24,165.46,706.24Zm-13.37-24.41h26.14c.08-8.08-6-12.54-13.07-12.54C158.43,669.29,152.84,673.75,152.09,681.83Z"/><path class="cls-1" d="M210.19,652.89h7.63l13,26.67,13-26.67h7.63L234.3,685.68v19.88h-6.88V685.68Z"/><path class="cls-1" d="M276.76,706.24c-11.71,0-20.63-8.31-20.63-21.46s9.22-21.31,20.93-21.31S298,671.71,298,684.78,288.55,706.24,276.76,706.24Zm0-6c7.18,0,14.21-4.91,14.21-15.41s-6.88-15.34-14-15.34c-7.26,0-13.83,4.91-13.83,15.34S269.58,700.19,276.76,700.19Z"/><path class="cls-1" d="M343.78,705.56h-6.87v-6.12c-2.65,4.3-7.71,6.72-13.23,6.72-9.52,0-17-5.89-17-17.76V664.15h6.8V687.5c0,8.39,4.61,12.69,11.56,12.69,7.11,0,11.87-4.38,11.87-13.3V664.15h6.87Z"/><path class="cls-1" d="M362.29,705.56h-6.87V664.15h6.87v6.72c2.35-4.6,6.8-7.48,13.38-7.48v7.11h-1.82c-6.57,0-11.56,2.94-11.56,12.54Z"/><path class="cls-1" d="M434.9,693.85h-23l-4.23,11.71h-7.25l19-52.37h7.93l19,52.37h-7.25Zm-11.48-32.19-9.52,26.59h19Z"/><path class="cls-1" d="M471.85,663.47c6.5,0,12.47,3.32,15.34,8.08V649.64h6.95v55.92h-6.95v-7.79c-2.49,4.61-7.86,8.47-15.41,8.47-11.11,0-19.65-8.69-19.65-21.54S460.67,663.47,471.85,663.47Zm1.29,6c-7.56,0-14,5.51-14,15.26s6.42,15.49,14,15.49,14.05-5.67,14.05-15.41S480.69,669.44,473.14,669.44Z"/><path class="cls-1" d="M508.27,664.15l12.92,35.06L534,664.15h7.33l-16.25,41.41h-8l-16.24-41.41Z"/><path class="cls-1" d="M566.07,706.24c-11.78,0-20.47-8.31-20.47-21.46s8.38-21.31,20.47-21.31S586,671.93,586,683.27a37.37,37.37,0,0,1-.23,4.15h-33.1c.53,8.39,6.43,13,13.45,13,6.2,0,10.13-3.17,11.64-7.63h7.4C583,700.34,576.35,706.24,566.07,706.24ZM552.7,681.83h26.14c.08-8.08-6-12.54-13.07-12.54C559.05,669.29,553.45,673.75,552.7,681.83Z"/><path class="cls-1" d="M625.31,682.13c0-8.46-4.61-12.77-11.56-12.77s-11.86,4.39-11.86,13.3v22.9H595V664.15h6.88V670c2.72-4.3,7.71-6.65,13.3-6.65,9.59,0,16.92,5.9,16.92,17.76v24.41h-6.8Z"/><path class="cls-1" d="M644.88,669.82h-5.36v-5.67h5.36V653.72h6.88v10.43h10.8v5.67h-10.8v24.4c0,4.08,1.51,5.52,5.74,5.52h5.06v5.82h-6.19c-7.33,0-11.49-3-11.49-11.34Z"/><path class="cls-1" d="M707.6,705.56h-6.88v-6.12c-2.64,4.3-7.71,6.72-13.22,6.72-9.52,0-17-5.89-17-17.76V664.15h6.8V687.5c0,8.39,4.61,12.69,11.56,12.69s11.86-4.38,11.86-13.3V664.15h6.88Z"/><path class="cls-1" d="M726.11,705.56h-6.88V664.15h6.88v6.72c2.34-4.6,6.8-7.48,13.37-7.48v7.11h-1.81c-6.58,0-11.56,2.94-11.56,12.54Z"/><path class="cls-1" d="M765.32,706.24c-11.79,0-20.48-8.31-20.48-21.46s8.39-21.31,20.48-21.31,19.87,8.46,19.87,19.8a37.4,37.4,0,0,1-.22,4.15h-33.1c.53,8.39,6.42,13,13.45,13,6.2,0,10.13-3.17,11.64-7.63h7.4C782.25,700.34,775.6,706.24,765.32,706.24ZM752,681.83h26.14c.08-8.08-6-12.54-13.07-12.54C758.29,669.29,752.7,673.75,752,681.83Z"/><path class="cls-1" d="M833.25,634.38h6.87l-20.7,84h-6.8Z"/><path class="cls-1" d="M887.27,706.09c-10.58,0-18.06-5.9-18.21-14.59h7.33c.46,4.39,3.55,8.77,10.88,8.77,6.65,0,10.58-3.78,10.58-8.77,0-14.2-28.48-5.14-28.48-24.71,0-8.69,7-14.58,17.45-14.58,10,0,16.62,5.52,17.45,13.53h-7.55c-.45-3.55-3.78-7.56-10.2-7.64-5.67-.15-10.13,2.8-10.13,8.47,0,13.6,28.41,5.14,28.41,24.63C904.8,698.68,898.68,706.09,887.27,706.09Z"/><path class="cls-1" d="M916.44,669.82h-5.37v-5.67h5.37V653.72h6.87v10.43h10.81v5.67H923.31v24.4c0,4.08,1.52,5.52,5.75,5.52h5.06v5.82h-6.2c-7.33,0-11.48-3-11.48-11.34Z"/><path class="cls-1" d="M959.51,663.47c7.7,0,13,3.93,15.41,8.24v-7.56h7v41.41h-7v-7.71c-2.49,4.46-7.86,8.39-15.49,8.39-11,0-19.57-8.69-19.57-21.54S948.4,663.47,959.51,663.47Zm1.36,6c-7.56,0-14,5.51-14,15.26s6.42,15.49,14,15.49,14-5.67,14-15.41S968.42,669.44,960.87,669.44Z"/><path class="cls-1" d="M1022.07,664.15h7.1l-24.93,60.9h-7.1l8.16-19.95-16.7-41h7.63l13,33.55Z"/><path class="cls-1" d="M1055.09,652.74a4.61,4.61,0,1,1,4.68,4.68A4.61,4.61,0,0,1,1055.09,652.74Zm1.13,11.41h6.88v41.41h-6.88Z"/><path class="cls-1" d="M1105.11,682.13c0-8.46-4.61-12.77-11.56-12.77s-11.87,4.39-11.87,13.3v22.9h-6.87V664.15h6.87V670c2.72-4.3,7.71-6.65,13.3-6.65,9.6,0,16.93,5.9,16.93,17.76v24.41h-6.8Z"/><path class="cls-1" d="M1160,706.09c-10.58,0-18.06-5.9-18.21-14.59h7.33c.45,4.39,3.55,8.77,10.88,8.77,6.65,0,10.58-3.78,10.58-8.77,0-14.2-28.49-5.14-28.49-24.71,0-8.69,7-14.58,17.46-14.58,10.05,0,16.62,5.52,17.45,13.53h-7.56c-.45-3.55-3.77-7.56-10.2-7.64-5.66-.15-10.12,2.8-10.12,8.47,0,13.6,28.41,5.14,28.41,24.63C1177.57,698.68,1171.45,706.09,1160,706.09Z"/><path class="cls-1" d="M1189.2,669.82h-5.36v-5.67h5.36V653.72h6.88v10.43h10.8v5.67h-10.8v24.4c0,4.08,1.51,5.52,5.74,5.52h5.06v5.82h-6.19c-7.33,0-11.49-3-11.49-11.34Z"/><path class="cls-1" d="M1243.76,664.15h7.1l-24.93,60.9h-7.11L1227,705.1l-16.7-41h7.64l13,33.55Z"/><path class="cls-1" d="M1257.73,649.64h6.88v55.92h-6.88Z"/><path class="cls-1" d="M1294.23,706.24c-11.79,0-20.48-8.31-20.48-21.46s8.39-21.31,20.48-21.31,19.87,8.46,19.87,19.8a35.1,35.1,0,0,1-.23,4.15h-33.09c.53,8.39,6.42,13,13.45,13,6.19,0,10.12-3.17,11.64-7.63h7.4C1311.15,700.34,1304.51,706.24,1294.23,706.24Zm-13.38-24.41H1307c.07-8.08-6-12.54-13.07-12.54C1287.2,669.29,1281.61,673.75,1280.85,681.83Z"/></g></g></svg>