<svg xmlns="http://www.w3.org/2000/svg" viewBox="0 0 928.48 660.69"><defs><style>.cls-1{fill:#1b1464;}</style></defs><g id="Layer_2" data-name="Layer 2"><g id="Layer_1-2" data-name="Layer 1"><path class="cls-1" d="M402,161.36H39.35A39.39,39.39,0,0,1,0,122V41.49A39.39,39.39,0,0,1,39.35,2.14H402a39.4,39.4,0,0,1,39.36,39.35V122A39.4,39.4,0,0,1,402,161.36ZM39.35,19.14A22.37,22.37,0,0,0,17,41.49V122a22.38,22.38,0,0,0,22.35,22.35H402A22.38,22.38,0,0,0,424.37,122V41.49A22.38,22.38,0,0,0,402,19.14Zm9.48,54H45.6a18.67,18.67,0,0,1-.2-2c-1.06,1.88-2.7,2.43-4.7,2.43-5,0-6.74-4.41-6.74-12.11,0-8.64,2.92-12.36,8-12.36,6.41,0,6.77,5.5,6.84,6.9H44.62c-.07-1-.28-3.31-2.78-3.31-2.74,0-3.5,3.64-3.5,8.77C38.34,67,39,70,41.69,70c2.25,0,2.93-1.72,2.93-5.21V63.49H41.43V59.87h7.4ZM64.9,67.86c0,2.64,0,4.39,0,5.32H61a17.59,17.59,0,0,1-.17-2,3.94,3.94,0,0,1-4,2.29c-2.58,0-4.53-1.27-4.53-5.43v-13h4.19V67.12c0,1.79.37,2.79,1.89,2.79s2.42-.85,2.42-3.73V55.06H64.9Zm7-2.65c0,2.29.28,4.85,2.6,4.85a2.37,2.37,0,0,0,2.43-2.38h4a6.09,6.09,0,0,1-6.49,5.84c-5.87,0-6.69-4.93-6.69-9.52,0-5.74,2.18-9.25,6.77-9.25,5.26,0,6.55,3.93,6.55,8.66,0,.64,0,1.49-.07,1.8Zm5-3c0-1.76-.2-4-2.42-4-2.4,0-2.54,2.69-2.55,4ZM87,67.7a2.36,2.36,0,0,0,2.35,2.61,1.78,1.78,0,0,0,2.05-1.92c0-1.28-.58-2-2.72-2.77-4.27-1.57-5.33-3.07-5.33-5.7,0-2.46,1.56-5.2,5.88-5.2,4.75,0,5.9,3.26,5.91,5.64h-4c0-.64-.08-2.46-2-2.46a1.59,1.59,0,0,0-1.71,1.71c0,1.15.66,1.68,2.82,2.48,3.83,1.41,5.28,2.87,5.28,5.8,0,3.57-2.23,5.6-6.34,5.6-4.33,0-6.26-2.57-6.27-5.79Zm9.47-12.64h2.37V50.53H103v4.53h2.8v3.43H103V68.4c0,1.06.19,1.66,1.5,1.66a4.73,4.73,0,0,0,1-.08v3.08a7.46,7.46,0,0,1-2.56.36c-2.89,0-4.15-1.07-4.15-4.32V58.49H96.47Zm18.47,18.12V58.49h-2.11V55.06h2.11V53.29c0-3,1.37-5.21,5-5.21a7.76,7.76,0,0,1,1.73.2v3.5a4.62,4.62,0,0,0-1-.11c-1.2,0-1.52.67-1.52,1.92v1.47h2.57v3.43h-2.57V73.18Zm8.81-18.12h4.18V73.18h-4.18Zm0-6.75H128v4.13h-4.18Zm7.88,12.39c0-3.73,0-4.69,0-5.64h4a15.7,15.7,0,0,1,.13,1.89,4.21,4.21,0,0,1,4-2.23c3,0,4.64,1.87,4.64,5.53V73.18h-4.19v-12c0-1.79-.36-2.89-2-2.89s-2.35.89-2.35,3.64V73.18h-4.18Zm29.08-12.39V68.14c0,2.15,0,4,0,5h-4a19.11,19.11,0,0,1-.13-1.93c-.53,1.29-1.62,2.24-4,2.24-3.82,0-5.34-3.43-5.34-9.52,0-5.55,1.81-9.22,6-9.22,2,0,2.9.72,3.26,1.43V48.31ZM151.51,64c0,4.2.76,5.93,2.53,5.93,2.17,0,2.64-1.69,2.64-6.06,0-4.18-.33-5.59-2.46-5.59C152.52,58.31,151.51,59.59,151.51,64Zm15.67,3.67a2.36,2.36,0,0,0,2.35,2.61,1.78,1.78,0,0,0,2.05-1.92c0-1.28-.58-2-2.72-2.77-4.27-1.57-5.33-3.07-5.33-5.7,0-2.46,1.56-5.2,5.88-5.2,4.76,0,5.91,3.26,5.91,5.64h-4c0-.64-.07-2.46-2-2.46a1.59,1.59,0,0,0-1.71,1.71c0,1.15.66,1.68,2.83,2.48,3.82,1.41,5.28,2.87,5.28,5.8,0,3.57-2.23,5.6-6.34,5.6-4.33,0-6.26-2.57-6.28-5.79Zm21.9,4.09v7.93h-4.19V60.3c0-2.45,0-4.09,0-5.24h4a14.86,14.86,0,0,1,.13,2,4,4,0,0,1,4.07-2.29c3.36,0,5.29,2.89,5.29,9.07,0,7.08-2.35,9.7-5.85,9.7A3.54,3.54,0,0,1,189.08,71.79ZM194.15,64c0-4.33-.9-5.7-2.67-5.7-2.11,0-2.54,2-2.54,5.54,0,4.14.22,6.12,2.51,6.12C193.27,70,194.15,68,194.15,64Zm11.28-15.7V56.8a4.2,4.2,0,0,1,4.07-2.08c3,0,4.5,2,4.5,5.65V73.18h-4.18v-12c0-1.77-.32-2.9-2.09-2.9s-2.3,1.4-2.3,3.79V73.18h-4.19V48.31Zm25,15.66c0,6.57-2.41,9.55-6.86,9.55s-6.75-2.84-6.75-9.46c0-6.41,2.7-9.31,7-9.31S230.48,57.9,230.48,64Zm-9.39.07c0,3.89.65,6,2.65,6s2.52-2.08,2.52-5.94c0-4-.66-5.82-2.55-5.82S221.09,60.15,221.09,64Zm12.24-3.34c0-3.73,0-4.69,0-5.64h4a13.88,13.88,0,0,1,.13,1.89,4.21,4.21,0,0,1,4-2.23c3,0,4.64,1.87,4.64,5.53V73.18h-4.18v-12c0-1.79-.36-2.89-2-2.89s-2.34.89-2.34,3.64V73.18h-4.19Zm19.79,4.51c0,2.29.28,4.85,2.6,4.85a2.36,2.36,0,0,0,2.42-2.38h4a6.08,6.08,0,0,1-6.48,5.84c-5.88,0-6.7-4.93-6.7-9.52,0-5.74,2.19-9.25,6.78-9.25,5.26,0,6.54,3.93,6.54,8.66,0,.64,0,1.49-.06,1.8Zm5-3c0-1.76-.21-4-2.42-4-2.4,0-2.55,2.69-2.56,4Zm13.46-1.48c0-3.73,0-4.69,0-5.64h4a15.7,15.7,0,0,1,.13,1.89,4.21,4.21,0,0,1,4-2.23c3,0,4.64,1.87,4.64,5.53V73.18H280.2v-12c0-1.79-.37-2.89-2.05-2.89s-2.34.89-2.34,3.64V73.18h-4.19Zm29.11,7.16c0,2.64,0,4.39,0,5.32h-4a17.64,17.64,0,0,1-.16-2,4,4,0,0,1-4,2.29c-2.57,0-4.53-1.27-4.53-5.43v-13h4.19V67.12c0,1.79.37,2.79,1.89,2.79s2.42-.85,2.42-3.73V55.06h4.19ZM304,60.5c0-3.58,0-4.66,0-5.44h4a13.25,13.25,0,0,1,.13,1.85,4.32,4.32,0,0,1,4-2.16,3.49,3.49,0,0,1,3.67,2.46,4.78,4.78,0,0,1,4.45-2.46c2.58,0,4.59,1.31,4.59,5.43v13h-4.12V60.81c0-1.45-.47-2.5-1.92-2.5-1.7,0-2.25,1.28-2.25,3.52V73.18h-4.15V60.88c0-1.67-.56-2.54-1.91-2.54-1.68,0-2.29,1.15-2.29,3.59V73.18H304Zm24.47-12.19h4.19v8.56a4.17,4.17,0,0,1,4-2.12c3.71,0,5.3,3.26,5.3,8.89s-1.41,9.85-5.85,9.85a3.56,3.56,0,0,1-3.61-2.07c0,.43,0,1.23-.08,1.76h-4c0-1.2,0-3.27,0-5.1Zm9.3,15.39c0-3.5-.51-5.39-2.55-5.39s-2.7,1.47-2.7,5.9c0,4.24.59,5.75,2.54,5.75S337.76,68.08,337.76,63.7Zm10.49,1.51c0,2.29.28,4.85,2.6,4.85a2.36,2.36,0,0,0,2.42-2.38h4a6.08,6.08,0,0,1-6.48,5.84c-5.88,0-6.7-4.93-6.7-9.52,0-5.74,2.18-9.25,6.78-9.25,5.25,0,6.54,3.93,6.54,8.66,0,.64,0,1.49-.06,1.8Zm5-3c0-1.76-.21-4-2.43-4-2.39,0-2.54,2.69-2.55,4Zm6.95-1c0-3,0-4.85,0-6.14h4a29.73,29.73,0,0,1,.1,3,4.63,4.63,0,0,1,4.75-3.29v4.69c-3-.07-4.63.8-4.63,4.23v9.51h-4.18Zm15.56-6.14h2.37V50.53h4.18v4.53h2.8v3.43h-2.8V68.4c0,1.06.19,1.66,1.5,1.66a4.73,4.73,0,0,0,1-.08v3.08a7.46,7.46,0,0,1-2.56.36c-2.9,0-4.15-1.07-4.15-4.32V58.49H375.8ZM400.12,64c0,6.57-2.41,9.55-6.86,9.55s-6.75-2.84-6.75-9.46c0-6.41,2.7-9.31,7-9.31S400.12,57.9,400.12,64Zm-9.39.07c0,3.89.65,6,2.65,6s2.52-2.08,2.52-5.94c0-4-.66-5.82-2.55-5.82S390.73,60.15,390.73,64ZM64.42,108.28c-.11,1.2-.56,7.31-7.13,7.31-6.74,0-7.51-5.92-7.51-12.28,0-7.67,2.25-12.19,7.76-12.19,6.28,0,6.77,5.38,6.86,7.28H60.21c-.07-.81-.12-3.69-2.74-3.69s-3.31,3.26-3.31,8.68c0,4.47.45,8.66,3.2,8.66,2.52,0,2.72-2.86,2.83-3.77Zm14.43-3.63h-7.6v6.88h8.53l-.52,3.65H67.06V91.49H79.21v3.72h-8V101h7.6Zm17.52,3.63c-.11,1.2-.56,7.31-7.13,7.31-6.73,0-7.51-5.92-7.51-12.28,0-7.67,2.25-12.19,7.76-12.19,6.28,0,6.77,5.38,6.87,7.28h-4.2c-.06-.81-.12-3.69-2.73-3.69s-3.31,3.26-3.31,8.68c0,4.47.44,8.66,3.19,8.66,2.53,0,2.73-2.86,2.84-3.77Zm7.2-11.22H106V92.53h4.18v4.53h2.79v3.43h-2.79v9.91c0,1.06.19,1.66,1.49,1.66a4.68,4.68,0,0,0,1-.08v3.08a7.41,7.41,0,0,1-2.55.36c-2.9,0-4.15-1.07-4.15-4.32V100.49h-2.38Zm15.76-6.75V98.8a4.22,4.22,0,0,1,4.07-2.08c3,0,4.5,2,4.5,5.65v12.81h-4.18v-12c0-1.77-.32-2.9-2.09-2.9s-2.3,1.4-2.3,3.79v11.08h-4.19V90.31Zm12.26,12.89c0-3,0-4.85,0-6.14h4a29.73,29.73,0,0,1,.1,3,4.63,4.63,0,0,1,4.75-3.29v4.69c-3-.07-4.63.8-4.63,4.23v9.51h-4.18ZM155.37,106c0,6.57-2.41,9.55-6.86,9.55s-6.75-2.84-6.75-9.46c0-6.41,2.7-9.31,7-9.31S155.37,99.9,155.37,106ZM146,106c0,3.89.65,6,2.65,6s2.52-2.08,2.52-5.94c0-4-.66-5.82-2.55-5.82S146,102.15,146,106Zm24.86,3.82c0,2.64,0,4.39,0,5.32h-4a17.59,17.59,0,0,1-.17-2,3.94,3.94,0,0,1-4,2.29c-2.58,0-4.53-1.27-4.53-5.43v-13h4.19v12.06c0,1.79.37,2.79,1.89,2.79s2.42-.85,2.42-3.73V97.06h4.18Zm16.33,3.85c0,5.14-1.49,8.29-7,8.29-5.16,0-6.25-3-6.36-5.24H178c.07.55.27,1.84,2.36,1.84,2.26,0,2.69-1.71,2.69-4.89v-.81a3.94,3.94,0,0,1-3.88,2.16c-3.85,0-5.49-3.39-5.49-8.73,0-6.2,2.23-9.58,5.88-9.58,2.38,0,3.2,1.13,3.49,1.91,0-.54.1-1.16.16-1.6h4c0,1.11-.06,2.93-.06,5.46Zm-9.21-7.5c0,3.73.9,5.32,2.59,5.32,2.11,0,2.56-2,2.56-5.89,0-3.25-.16-5.33-2.43-5.33C178.93,100.31,178,102.13,178,106.21Zm17.11-15.9V98.8a4.2,4.2,0,0,1,4.07-2.08c3,0,4.5,2,4.5,5.65v12.81h-4.18v-12c0-1.77-.32-2.9-2.09-2.9s-2.3,1.4-2.3,3.79v11.08h-4.19V90.31Zm21.67,19.39a2.36,2.36,0,0,0,2.35,2.61,1.78,1.78,0,0,0,2-1.92c0-1.28-.58-2-2.72-2.77-4.27-1.57-5.33-3.07-5.33-5.7,0-2.46,1.56-5.2,5.88-5.2,4.76,0,5.91,3.26,5.91,5.64h-4c0-.64-.07-2.46-2-2.46a1.59,1.59,0,0,0-1.71,1.71c0,1.15.66,1.68,2.83,2.48,3.82,1.41,5.27,2.87,5.27,5.8,0,3.57-2.22,5.6-6.33,5.6-4.33,0-6.26-2.57-6.28-5.79Zm14.64-2.49c0,2.29.29,4.85,2.6,4.85a2.37,2.37,0,0,0,2.43-2.38h4a6.09,6.09,0,0,1-6.49,5.84c-5.87,0-6.69-4.93-6.69-9.52,0-5.74,2.18-9.25,6.77-9.25,5.26,0,6.55,3.93,6.55,8.66,0,.64,0,1.49-.07,1.8Zm5.05-3c0-1.76-.21-4-2.43-4-2.4,0-2.54,2.69-2.55,4Zm18.8,7c0,.89.08,3.13.14,4h-3.8a11.06,11.06,0,0,1-.17-1.69,4.31,4.31,0,0,1-4.09,2c-3.48,0-4.82-2.77-4.82-5.37,0-3.71,2.54-6,7.14-6,.61,0,1.08,0,1.49,0v-2c0-1.06-.14-2.3-2-2.3s-1.94,1.15-2,2.34h-4c.07-2.67,1.32-5.52,6.17-5.52,3.89,0,5.9,1.76,5.9,5.22Zm-4-4a7.92,7.92,0,0,0-1.35-.07c-2.38,0-3.25,1.11-3.25,2.58a2.08,2.08,0,0,0,2.08,2.35c2.14,0,2.52-1.59,2.52-4.28Zm7.74-4c0-3,0-4.85,0-6.14h4a29.73,29.73,0,0,1,.1,3,4.63,4.63,0,0,1,4.75-3.29v4.69c-3-.07-4.63.8-4.63,4.23v9.51H259ZM282,109c-.07,1.46-.4,6.45-6.38,6.45-5.19,0-6.48-4.15-6.48-9.52,0-4.81,1.59-9.25,6.7-9.25,5.94,0,6.13,5.13,6.16,6.23h-4.22c0-.71-.11-2.77-2-2.77s-2.45,2.06-2.45,5.81c0,3.9.58,6,2.4,6s2.1-2,2.21-3Zm6.75-18.73V98.8a4.19,4.19,0,0,1,4.06-2.08c3,0,4.51,2,4.51,5.65v12.81h-4.19v-12c0-1.77-.31-2.9-2.08-2.9s-2.3,1.4-2.3,3.79v11.08h-4.19V90.31ZM320.26,106c0,6.57-2.42,9.55-6.87,9.55s-6.75-2.84-6.75-9.46c0-6.41,2.7-9.31,7-9.31S320.26,99.9,320.26,106Zm-9.4.07c0,3.89.65,6,2.65,6S316,110,316,106.09c0-4-.67-5.82-2.56-5.82S310.86,102.15,310.86,106Zm12.24-3.34c0-3.73,0-4.69,0-5.64h4a13.7,13.7,0,0,1,.14,1.89,4.18,4.18,0,0,1,4-2.23c2.95,0,4.64,1.87,4.64,5.53v12.93h-4.19v-12c0-1.79-.36-2.89-2.05-2.89s-2.34.89-2.34,3.64v11.23H323.1Zm16.45,12.48V90.31h4.19v24.87Zm7.88-18.12h4.18v18.12h-4.18Zm0-6.75h4.18v4.13h-4.18Zm7.88,12.39c0-3.73,0-4.69,0-5.64h4a15.7,15.7,0,0,1,.13,1.89,4.21,4.21,0,0,1,4-2.23c3,0,4.64,1.87,4.64,5.53v12.93h-4.19v-12c0-1.79-.36-2.89-2-2.89s-2.34.89-2.34,3.64v11.23h-4.19Zm19.79,4.51c0,2.29.28,4.85,2.6,4.85a2.36,2.36,0,0,0,2.42-2.38h4a6.08,6.08,0,0,1-6.48,5.84c-5.88,0-6.7-4.93-6.7-9.52,0-5.74,2.18-9.25,6.78-9.25,5.25,0,6.54,3.93,6.54,8.66,0,.64,0,1.49-.06,1.8Zm5-3c0-1.76-.21-4-2.43-4-2.4,0-2.54,2.69-2.55,4Zm32.71,259.11H114.57a39.39,39.39,0,0,1-39.35-39.35V243.42a39.4,39.4,0,0,1,39.35-39.35H412.88a39.4,39.4,0,0,1,39.35,39.35v80.52A39.39,39.39,0,0,1,412.88,363.29ZM114.57,221.07a22.37,22.37,0,0,0-22.35,22.35v80.52a22.37,22.37,0,0,0,22.35,22.35H412.88a22.37,22.37,0,0,0,22.35-22.35V243.42a22.38,22.38,0,0,0-22.35-22.35Zm32.54,54h-3.23a18.49,18.49,0,0,1-.2-2c-1.06,1.87-2.71,2.42-4.71,2.42-4.94,0-6.73-4.4-6.73-12.1,0-8.64,2.92-12.36,8-12.36,6.42,0,6.77,5.5,6.84,6.9h-4.19c-.07-1-.27-3.32-2.77-3.32-2.74,0-3.5,3.64-3.5,8.77,0,5.52.65,8.56,3.35,8.56,2.25,0,2.93-1.73,2.93-5.22v-1.32h-3.19v-3.62h7.4Zm16.07-5.32c0,2.64,0,4.4,0,5.32h-4a17.41,17.41,0,0,1-.17-2,4,4,0,0,1-4,2.29c-2.58,0-4.53-1.27-4.53-5.43V257h4.18v12.06c0,1.79.38,2.79,1.9,2.79S159,271,159,268.12V257h4.19Zm7-2.65c0,2.3.28,4.86,2.6,4.86a2.37,2.37,0,0,0,2.43-2.39h4a6.09,6.09,0,0,1-6.49,5.85c-5.87,0-6.69-4.94-6.69-9.52,0-5.74,2.18-9.25,6.77-9.25,5.26,0,6.55,3.93,6.55,8.66,0,.63,0,1.48-.07,1.79Zm5-3c0-1.77-.2-4-2.42-4-2.4,0-2.54,2.69-2.55,4Zm10.07,5.51a2.36,2.36,0,0,0,2.35,2.62,1.78,1.78,0,0,0,2-1.92c0-1.28-.57-2-2.71-2.77-4.28-1.58-5.33-3.07-5.33-5.7,0-2.47,1.55-5.2,5.88-5.2,4.75,0,5.9,3.26,5.91,5.64h-4c0-.64-.08-2.46-2-2.46a1.58,1.58,0,0,0-1.71,1.71c0,1.14.65,1.67,2.82,2.48,3.83,1.41,5.28,2.87,5.28,5.8,0,3.56-2.23,5.6-6.34,5.6-4.33,0-6.26-2.58-6.27-5.8ZM194.75,257h2.37v-4.53h4.18V257h2.8v3.43h-2.8v9.91c0,1.05.19,1.65,1.49,1.65a4.86,4.86,0,0,0,1-.07V275a7.25,7.25,0,0,1-2.56.37c-2.9,0-4.15-1.07-4.15-4.33v-10.6h-2.37Zm18.07,0H217v18.11h-4.18Zm0-6.75H217v4.13h-4.19Zm10.68,19.38a2.37,2.37,0,0,0,2.35,2.62,1.78,1.78,0,0,0,2.05-1.92c0-1.28-.58-2-2.72-2.77-4.27-1.58-5.33-3.07-5.33-5.7,0-2.47,1.56-5.2,5.88-5.2,4.75,0,5.91,3.26,5.91,5.64h-4c0-.64-.07-2.46-2-2.46a1.58,1.58,0,0,0-1.71,1.71c0,1.14.66,1.67,2.82,2.48,3.83,1.41,5.28,2.87,5.28,5.8,0,3.56-2.22,5.6-6.33,5.6-4.33,0-6.26-2.58-6.28-5.8Zm21.89,4.09v7.94h-4.18V262.23c0-2.44,0-4.09,0-5.23h4a14.74,14.74,0,0,1,.13,2,4,4,0,0,1,4.06-2.29c3.37,0,5.3,2.89,5.3,9.06,0,7.09-2.35,9.71-5.85,9.71A3.56,3.56,0,0,1,245.42,273.72ZM250.5,266c0-4.34-.91-5.71-2.68-5.71-2.1,0-2.53,2-2.53,5.54,0,4.15.22,6.12,2.5,6.12C249.62,271.9,250.5,270,250.5,266Zm7.09-2.81c0-3,0-4.85,0-6.14h4a26.4,26.4,0,0,1,.1,3,4.63,4.63,0,0,1,4.75-3.29v4.69c-3-.07-4.62.8-4.62,4.23v9.5h-4.18Zm23.78,2.76c0,6.58-2.41,9.56-6.86,9.56s-6.75-2.85-6.75-9.46c0-6.42,2.7-9.31,7-9.31S281.37,259.84,281.37,265.9ZM272,266c0,3.89.65,6,2.65,6s2.52-2.08,2.52-5.94-.66-5.82-2.55-5.82S272,262.09,272,266Zm12.27-3.54c0-3.58,0-4.65,0-5.43h4a13.09,13.09,0,0,1,.13,1.84,4.32,4.32,0,0,1,4-2.15,3.5,3.5,0,0,1,3.67,2.45,4.79,4.79,0,0,1,4.45-2.45c2.58,0,4.59,1.31,4.59,5.43v13h-4.12V262.74c0-1.44-.47-2.5-1.92-2.5-1.7,0-2.25,1.29-2.25,3.53v11.34H292.6v-12.3c0-1.66-.56-2.54-1.91-2.54-1.67,0-2.29,1.16-2.29,3.6v11.24h-4.15Zm28.65,11.29v7.94h-4.18V262.23c0-2.44,0-4.09,0-5.23h4a14.74,14.74,0,0,1,.13,2,4,4,0,0,1,4.06-2.29c3.36,0,5.3,2.89,5.3,9.06,0,7.09-2.35,9.71-5.85,9.71A3.56,3.56,0,0,1,312.9,273.72ZM318,266c0-4.34-.91-5.71-2.68-5.71-2.1,0-2.53,2-2.53,5.54,0,4.15.22,6.12,2.5,6.12C317.1,271.9,318,270,318,266Zm5.28-8.95h2.38v-4.53h4.18V257h2.79v3.43h-2.79v9.91c0,1.05.19,1.65,1.49,1.65a4.72,4.72,0,0,0,1-.07V275a7.16,7.16,0,0,1-2.55.37c-2.9,0-4.15-1.07-4.15-4.33v-10.6h-2.38Zm14.87,10.14c0,2.3.28,4.86,2.6,4.86a2.37,2.37,0,0,0,2.43-2.39h4a6.09,6.09,0,0,1-6.49,5.85c-5.87,0-6.69-4.94-6.69-9.52,0-5.74,2.18-9.25,6.77-9.25,5.26,0,6.55,3.93,6.55,8.66,0,.63,0,1.48-.07,1.79Zm5-3c0-1.77-.2-4-2.42-4-2.4,0-2.54,2.69-2.55,4ZM363,250.25v19.83c0,2.14,0,4,0,5h-4a18.71,18.71,0,0,1-.13-1.92c-.53,1.28-1.62,2.24-4,2.24-3.82,0-5.34-3.43-5.34-9.52,0-5.56,1.81-9.22,6-9.22,2,0,2.9.72,3.26,1.42v-7.86ZM353.77,266c0,4.2.76,5.93,2.53,5.93,2.17,0,2.64-1.69,2.64-6.06,0-4.18-.33-5.6-2.46-5.6C354.78,260.24,353.77,261.53,353.77,266Zm17.41-9h2.37v-4.53h4.18V257h2.8v3.43h-2.8v9.91c0,1.05.19,1.65,1.5,1.65a4.77,4.77,0,0,0,1-.07V275a7.25,7.25,0,0,1-2.56.37c-2.9,0-4.15-1.07-4.15-4.33v-10.6h-2.37Zm24.32,8.9c0,6.58-2.41,9.56-6.86,9.56s-6.75-2.85-6.75-9.46c0-6.42,2.7-9.31,7-9.31S395.5,259.84,395.5,265.9Zm-9.39.07c0,3.89.65,6,2.65,6s2.52-2.08,2.52-5.94-.66-5.82-2.55-5.82S386.11,262.09,386.11,266Zm-228.2,45c-.07,1.46-.4,6.45-6.38,6.45-5.19,0-6.48-4.15-6.48-9.53,0-4.8,1.59-9.25,6.7-9.25,5.94,0,6.13,5.14,6.16,6.23h-4.22c0-.7-.11-2.76-2-2.76s-2.45,2.05-2.45,5.81.58,6,2.4,6,2.1-2,2.21-3Zm6.74-18.73v8.49a4.22,4.22,0,0,1,4.07-2.09c3,0,4.51,2,4.51,5.66v12.8H169v-12c0-1.77-.31-2.91-2.09-2.91s-2.3,1.4-2.3,3.8v11.07h-4.18V292.25Zm25.06,15.65c0,6.58-2.41,9.56-6.86,9.56s-6.75-2.85-6.75-9.46c0-6.42,2.69-9.31,7-9.31S189.71,301.84,189.71,307.9Zm-9.39.07c0,3.89.65,6,2.64,6s2.53-2.08,2.53-5.94-.67-5.82-2.56-5.82S180.32,304.09,180.32,308Zm25.17-.07c0,6.58-2.41,9.56-6.86,9.56s-6.75-2.85-6.75-9.46c0-6.42,2.7-9.31,7-9.31S205.49,301.84,205.49,307.9Zm-9.39.07c0,3.89.65,6,2.65,6s2.52-2.08,2.52-5.94-.66-5.82-2.55-5.82S196.1,304.09,196.1,308Zm15.32,3.66a2.37,2.37,0,0,0,2.35,2.62,1.78,1.78,0,0,0,2-1.92c0-1.28-.58-2-2.72-2.77-4.27-1.58-5.33-3.08-5.33-5.7s1.56-5.21,5.88-5.21c4.76,0,5.91,3.27,5.91,5.65h-4c0-.64-.07-2.46-2-2.46a1.58,1.58,0,0,0-1.71,1.71c0,1.14.66,1.67,2.83,2.48,3.82,1.41,5.28,2.87,5.28,5.8,0,3.56-2.23,5.6-6.34,5.6-4.33,0-6.26-2.58-6.28-5.8Zm14.64-2.49c0,2.3.29,4.86,2.6,4.86a2.37,2.37,0,0,0,2.43-2.39h4a6.09,6.09,0,0,1-6.49,5.85c-5.87,0-6.69-4.94-6.69-9.52,0-5.75,2.18-9.25,6.78-9.25,5.25,0,6.54,3.93,6.54,8.66,0,.63,0,1.48-.07,1.79Zm5.05-3c0-1.77-.21-4-2.43-4-2.4,0-2.54,2.69-2.55,4Zm25.5,4.86c-.07,1.46-.4,6.45-6.38,6.45-5.19,0-6.48-4.15-6.48-9.53,0-4.8,1.58-9.25,6.7-9.25,5.94,0,6.13,5.14,6.16,6.23h-4.22c0-.7-.11-2.76-2-2.76s-2.44,2.05-2.44,5.81.58,6,2.39,6,2.1-2,2.21-3Zm14.65,2.19c0,.89.08,3.13.14,3.94h-3.8a10.91,10.91,0,0,1-.17-1.68,4.31,4.31,0,0,1-4.09,2c-3.48,0-4.82-2.78-4.82-5.37,0-3.71,2.54-6,7.14-6,.61,0,1.08,0,1.49,0v-2c0-1.05-.14-2.29-1.95-2.29s-1.94,1.14-2.05,2.33h-4c.07-2.66,1.32-5.51,6.17-5.51,3.89,0,5.9,1.76,5.9,5.22Zm-4-4a7.92,7.92,0,0,0-1.35-.07c-2.38,0-3.25,1.1-3.25,2.58a2.09,2.09,0,0,0,2.08,2.35c2.14,0,2.52-1.59,2.52-4.28Zm7.74,7.94V292.25h4.18v24.86Zm7.88,0V292.25H287v24.86Zm14.38-12c0-3,0-4.85,0-6.14h4a29.54,29.54,0,0,1,.1,3,4.62,4.62,0,0,1,4.75-3.29v4.69c-3-.07-4.63.8-4.63,4.23v9.5h-4.18Zm14.33,4c0,2.3.28,4.86,2.6,4.86a2.36,2.36,0,0,0,2.42-2.39h4a6.08,6.08,0,0,1-6.49,5.85c-5.87,0-6.69-4.94-6.69-9.52,0-5.75,2.18-9.25,6.78-9.25,5.25,0,6.54,3.93,6.54,8.66,0,.63,0,1.48-.06,1.79Zm5-3c0-1.77-.21-4-2.43-4-2.39,0-2.54,2.69-2.55,4Zm18.81,7.05c0,.89.07,3.13.14,3.94h-3.8a9.71,9.71,0,0,1-.18-1.68,4.31,4.31,0,0,1-4.08,2c-3.49,0-4.83-2.78-4.83-5.37,0-3.71,2.55-6,7.15-6,.61,0,1.07,0,1.48,0v-2c0-1.05-.13-2.29-1.95-2.29s-1.94,1.14-2,2.33h-4c.07-2.66,1.32-5.51,6.17-5.51,3.89,0,5.91,1.76,5.91,5.22Zm-4-4a8,8,0,0,0-1.36-.07c-2.38,0-3.24,1.1-3.24,2.58a2.09,2.09,0,0,0,2.08,2.35c2.13,0,2.52-1.59,2.52-4.28Zm10.5,2.46a2.36,2.36,0,0,0,2.35,2.62,1.78,1.78,0,0,0,2-1.92c0-1.28-.57-2-2.71-2.77-4.27-1.58-5.33-3.08-5.33-5.7s1.55-5.21,5.88-5.21c4.75,0,5.9,3.27,5.91,5.65h-4c0-.64-.08-2.46-2-2.46a1.58,1.58,0,0,0-1.71,1.71c0,1.14.65,1.67,2.82,2.48,3.83,1.41,5.28,2.87,5.28,5.8,0,3.56-2.23,5.6-6.34,5.6-4.33,0-6.26-2.58-6.27-5.8ZM366,307.9c0,6.58-2.41,9.56-6.86,9.56s-6.75-2.85-6.75-9.46c0-6.42,2.69-9.31,7-9.31S366,301.84,366,307.9Zm-9.39.07c0,3.89.65,6,2.64,6s2.53-2.08,2.53-5.94-.67-5.82-2.56-5.82S356.61,304.09,356.61,308Zm12.24-3.34c0-3.72,0-4.68,0-5.63h4a15.67,15.67,0,0,1,.13,1.88,4.21,4.21,0,0,1,4-2.23c3,0,4.64,1.87,4.64,5.54v12.92h-4.19v-12c0-1.8-.36-2.9-2-2.9s-2.35.89-2.35,3.65v11.22h-4.18ZM137.52,485.89h-3.23a18.49,18.49,0,0,1-.2-2c-1.06,1.87-2.7,2.42-4.7,2.42-4.95,0-6.74-4.41-6.74-12.1,0-8.65,2.92-12.37,8-12.37,6.42,0,6.78,5.5,6.85,6.91h-4.19c-.07-1-.28-3.32-2.78-3.32-2.74,0-3.5,3.64-3.5,8.77,0,5.52.65,8.55,3.35,8.55,2.25,0,2.93-1.72,2.93-5.21V476.2h-3.19v-3.62h7.4Zm16.07-5.32c0,2.64,0,4.39,0,5.32h-4a17.39,17.39,0,0,1-.17-2,3.94,3.94,0,0,1-4,2.3c-2.58,0-4.53-1.27-4.53-5.43v-13h4.18v12.07c0,1.79.38,2.78,1.9,2.78s2.42-.85,2.42-3.72V467.77h4.18Zm7-2.65c0,2.3.28,4.86,2.6,4.86a2.37,2.37,0,0,0,2.43-2.39h4a6.1,6.1,0,0,1-6.49,5.85c-5.87,0-6.69-4.94-6.69-9.52,0-5.75,2.18-9.26,6.77-9.26,5.26,0,6.55,3.94,6.55,8.67,0,.63,0,1.48-.07,1.79Zm5-3c0-1.77-.2-4-2.42-4-2.4,0-2.54,2.7-2.55,4Zm10.07,5.51A2.35,2.35,0,0,0,178,483a1.77,1.77,0,0,0,2-1.91c0-1.28-.57-2-2.71-2.78-4.27-1.57-5.33-3.07-5.33-5.69,0-2.47,1.56-5.21,5.88-5.21,4.75,0,5.9,3.27,5.91,5.64h-4c0-.64-.08-2.45-2-2.45a1.58,1.58,0,0,0-1.71,1.7c0,1.15.65,1.68,2.82,2.48,3.83,1.42,5.28,2.88,5.28,5.81,0,3.56-2.23,5.6-6.34,5.6-4.33,0-6.26-2.58-6.27-5.8Zm9.47-12.64h2.37v-4.52h4.18v4.52h2.8v3.43h-2.8v9.92c0,1.05.19,1.65,1.5,1.65a4.18,4.18,0,0,0,1-.08v3.08a7.25,7.25,0,0,1-2.56.37c-2.89,0-4.15-1.07-4.15-4.33V471.2h-2.37Zm18.07,0h4.19v18.12h-4.19Zm0-6.74h4.19v4.13h-4.19Zm10.68,19.38a2.36,2.36,0,0,0,2.35,2.61c1.39,0,2.05-.73,2.05-1.91s-.58-2-2.72-2.78c-4.27-1.57-5.33-3.07-5.33-5.69,0-2.47,1.56-5.21,5.88-5.21,4.76,0,5.91,3.27,5.91,5.64h-4c0-.64-.07-2.45-2-2.45a1.58,1.58,0,0,0-1.71,1.7c0,1.15.66,1.68,2.83,2.48,3.82,1.42,5.28,2.88,5.28,5.81,0,3.56-2.23,5.6-6.34,5.6-4.33,0-6.26-2.58-6.28-5.8Zm15.74-12.64h2.37v-4.52h4.18v4.52H239v3.43h-2.8v9.92c0,1.05.19,1.65,1.49,1.65a4.14,4.14,0,0,0,1-.08v3.08a7.16,7.16,0,0,1-2.55.37c-2.9,0-4.15-1.07-4.15-4.33V471.2h-2.37Zm11.56,6.14c0-3,0-4.85,0-6.14h4c0,.32.1,1.07.1,3a4.62,4.62,0,0,1,4.75-3.29v4.68c-3-.06-4.63.81-4.63,4.23v9.51h-4.18Zm22.53,8c0,.89.08,3.13.14,3.94h-3.8a11,11,0,0,1-.17-1.68,4.31,4.31,0,0,1-4.09,2c-3.48,0-4.82-2.78-4.82-5.37,0-3.71,2.55-6,7.14-6,.61,0,1.08,0,1.49,0v-2c0-1.06-.14-2.29-2-2.29s-1.94,1.14-2,2.33h-4c.07-2.67,1.32-5.52,6.17-5.52,3.89,0,5.9,1.77,5.9,5.23Zm-4-4a7.84,7.84,0,0,0-1.35-.08c-2.38,0-3.25,1.11-3.25,2.59a2.09,2.09,0,0,0,2.08,2.35c2.14,0,2.52-1.6,2.52-4.29Zm7.74-4.54c0-3.72,0-4.68,0-5.64h4a14,14,0,0,1,.13,1.89,4.21,4.21,0,0,1,4-2.23c3,0,4.64,1.87,4.64,5.54v12.92h-4.18v-12c0-1.8-.36-2.9-2.05-2.9s-2.34.89-2.34,3.65v11.22h-4.19Zm19.39,7a2.36,2.36,0,0,0,2.35,2.61c1.39,0,2-.73,2-1.91s-.58-2-2.72-2.78c-4.27-1.57-5.33-3.07-5.33-5.69,0-2.47,1.56-5.21,5.88-5.21,4.75,0,5.91,3.27,5.91,5.64h-4c0-.64-.07-2.45-2-2.45a1.58,1.58,0,0,0-1.71,1.7c0,1.15.66,1.68,2.82,2.48,3.83,1.42,5.28,2.88,5.28,5.81,0,3.56-2.22,5.6-6.33,5.6-4.33,0-6.27-2.58-6.28-5.8Zm11.84,5.48V471.2h-2.11v-3.43h2.11V466c0-3,1.37-5.22,5-5.22a7.13,7.13,0,0,1,1.72.21v3.5a4.62,4.62,0,0,0-1-.12c-1.2,0-1.52.68-1.52,1.92v1.47h2.57v3.43H302.9v14.69Zm11.83-8c0,2.3.28,4.86,2.6,4.86a2.37,2.37,0,0,0,2.43-2.39h4a6.1,6.1,0,0,1-6.49,5.85c-5.87,0-6.69-4.94-6.69-9.52,0-5.75,2.18-9.26,6.77-9.26,5.26,0,6.55,3.94,6.55,8.67,0,.63,0,1.48-.07,1.79Zm5-3c0-1.77-.2-4-2.42-4-2.4,0-2.54,2.7-2.55,4Zm7-1c0-3,0-4.85,0-6.14h4a26.82,26.82,0,0,1,.1,3,4.63,4.63,0,0,1,4.75-3.29v4.68c-3-.06-4.62.81-4.62,4.23v9.51h-4.19Zm10.85,0c0-3,0-4.85,0-6.14h4a26.82,26.82,0,0,1,.1,3,4.63,4.63,0,0,1,4.75-3.29v4.68c-3-.06-4.62.81-4.62,4.23v9.51h-4.19Zm14.33,4c0,2.3.28,4.86,2.6,4.86a2.37,2.37,0,0,0,2.43-2.39h4a6.1,6.1,0,0,1-6.49,5.85c-5.87,0-6.69-4.94-6.69-9.52,0-5.75,2.18-9.26,6.77-9.26,5.26,0,6.55,3.94,6.55,8.67,0,.63,0,1.48-.07,1.79Zm5-3c0-1.77-.2-4-2.42-4-2.4,0-2.54,2.7-2.55,4ZM372.59,461v19.83c0,2.14,0,4,0,5h-4a18.71,18.71,0,0,1-.13-1.92c-.53,1.28-1.62,2.24-4,2.24-3.82,0-5.34-3.44-5.34-9.52,0-5.56,1.81-9.23,6-9.23,2,0,2.9.73,3.26,1.43V461Zm-9.23,15.72c0,4.2.76,5.93,2.53,5.93,2.17,0,2.65-1.69,2.65-6.07,0-4.18-.34-5.59-2.47-5.59C364.37,471,363.36,472.31,363.36,476.75Zm17.41-9h2.37v-4.52h4.18v4.52h2.8v3.43h-2.8v9.92c0,1.05.19,1.65,1.5,1.65a4.18,4.18,0,0,0,1-.08v3.08a7.25,7.25,0,0,1-2.56.37c-2.9,0-4.15-1.07-4.15-4.33V471.2h-2.37Zm24.32,8.91c0,6.58-2.41,9.56-6.86,9.56s-6.75-2.85-6.75-9.46c0-6.42,2.7-9.32,7-9.32S405.09,470.62,405.09,476.68Zm-9.39.07c0,3.89.65,6,2.65,6s2.52-2.09,2.52-5.95-.66-5.81-2.55-5.81S395.7,472.87,395.7,476.75Zm-273,33H125v-4.52h4.18v4.52H132v3.43h-2.8v9.92c0,1,.19,1.65,1.49,1.65a4.27,4.27,0,0,0,1-.08v3.08a7.25,7.25,0,0,1-2.56.37c-2.9,0-4.15-1.07-4.15-4.33V513.2h-2.37ZM138.42,503v8.49a4.21,4.21,0,0,1,4.07-2.09c3,0,4.51,2,4.51,5.66v12.8h-4.19v-12c0-1.78-.31-2.91-2.09-2.91s-2.3,1.4-2.3,3.8v11.07h-4.18V503ZM154,519.92c0,2.3.28,4.86,2.6,4.86a2.36,2.36,0,0,0,2.42-2.39h4a6.09,6.09,0,0,1-6.48,5.85c-5.88,0-6.7-4.94-6.7-9.52,0-5.75,2.19-9.26,6.78-9.26,5.26,0,6.54,3.94,6.54,8.67,0,.63,0,1.48-.06,1.79Zm5-3c0-1.77-.21-4-2.42-4-2.4,0-2.55,2.7-2.56,4Zm27.52,4.1c-.1,1.19-.56,7.3-7.13,7.3-6.73,0-7.51-5.92-7.51-12.28,0-7.67,2.25-12.19,7.77-12.19,6.27,0,6.76,5.39,6.86,7.28h-4.2c-.06-.8-.12-3.68-2.73-3.68s-3.31,3.26-3.31,8.68c0,4.46.44,8.66,3.19,8.66,2.53,0,2.73-2.87,2.84-3.77ZM201,517.36h-7.6v6.88H202l-.53,3.65H189.23V504.21h12.14v3.71h-8v5.77H201ZM218.54,521c-.11,1.19-.56,7.3-7.13,7.3-6.74,0-7.51-5.92-7.51-12.28,0-7.67,2.25-12.19,7.76-12.19,6.28,0,6.77,5.39,6.86,7.28h-4.19c-.07-.8-.12-3.68-2.74-3.68s-3.31,3.26-3.31,8.68c0,4.46.45,8.66,3.2,8.66,2.52,0,2.73-2.87,2.83-3.77Zm21.07,3c0,.89.07,3.13.14,3.94H236a9.83,9.83,0,0,1-.18-1.68,4.31,4.31,0,0,1-4.08,2c-3.49,0-4.83-2.78-4.83-5.37,0-3.71,2.55-6,7.15-6,.61,0,1.07,0,1.48,0v-2c0-1.06-.13-2.29-2-2.29s-1.94,1.14-2,2.33h-4c.07-2.67,1.32-5.52,6.17-5.52,3.89,0,5.91,1.77,5.91,5.23Zm-4-4a7.9,7.9,0,0,0-1.35-.08c-2.39,0-3.25,1.11-3.25,2.59a2.09,2.09,0,0,0,2.08,2.35c2.13,0,2.52-1.6,2.52-4.29ZM256,526.43c0,5.14-1.5,8.28-7,8.28-5.16,0-6.25-3-6.36-5.24h4.16c.07.55.26,1.84,2.35,1.84,2.27,0,2.7-1.71,2.7-4.88v-.82a3.92,3.92,0,0,1-3.88,2.16c-3.86,0-5.5-3.39-5.5-8.73,0-6.2,2.24-9.58,5.89-9.58,2.38,0,3.2,1.13,3.49,1.92,0-.55.1-1.17.16-1.61h4c0,1.12-.06,2.93-.06,5.46Zm-9.21-7.51c0,3.73.9,5.32,2.59,5.32,2.11,0,2.56-2,2.56-5.89,0-3.25-.16-5.33-2.43-5.33C247.76,513,246.79,514.84,246.79,518.92Zm16.25,1c0,2.3.28,4.86,2.6,4.86a2.37,2.37,0,0,0,2.43-2.39h4a6.1,6.1,0,0,1-6.49,5.85c-5.87,0-6.69-4.94-6.69-9.52,0-5.75,2.18-9.26,6.77-9.26,5.26,0,6.55,3.94,6.55,8.67,0,.63,0,1.48-.07,1.79Zm5-3c0-1.77-.2-4-2.42-4-2.4,0-2.54,2.7-2.55,4Zm6.95-1.49c0-3.72,0-4.68,0-5.64h4a14,14,0,0,1,.13,1.89,4.21,4.21,0,0,1,4-2.23c2.95,0,4.63,1.87,4.63,5.54v12.92h-4.18v-12c0-1.8-.36-2.9-2.05-2.9s-2.34.89-2.34,3.65v11.22H275Zm14.51-5.64h2.38v-4.52h4.18v4.52h2.79v3.43H296.1v9.92c0,1,.19,1.65,1.49,1.65a4.14,4.14,0,0,0,1-.08v3.08a7.2,7.2,0,0,1-2.55.37c-2.9,0-4.15-1.07-4.15-4.33V513.2h-2.38Zm20.94,0c1.32,8,1.82,11.27,2.07,13.63h.07c.29-2.43,1.05-5.11,2.69-13.63h3.76c1.39,6.8,2.36,11.46,2.58,13.59h0c.25-1.9.6-4.46,2.21-13.59h4.16l-4.43,18.12h-4.21c-1.09-5.52-2-9.79-2.35-12.4h0c-.32,2.57-1.42,7-2.61,12.4H310.1L306,509.77Zm19.68,0h4.18v18.12h-4.18Zm0-6.74h4.18v4.13h-4.18Zm6.29,6.74h2.37v-4.52H343v4.52h2.8v3.43H343v9.92c0,1,.19,1.65,1.5,1.65a4.18,4.18,0,0,0,1-.08v3.08a7.25,7.25,0,0,1-2.56.37c-2.9,0-4.15-1.07-4.15-4.33V513.2h-2.37ZM352.23,503v8.49a4.21,4.21,0,0,1,4.07-2.09c3,0,4.51,2,4.51,5.66v12.8h-4.19v-12c0-1.78-.32-2.91-2.09-2.91s-2.3,1.4-2.3,3.8v11.07h-4.18V503Zm25.06,15.65c0,6.58-2.42,9.56-6.87,9.56s-6.75-2.85-6.75-9.46c0-6.42,2.7-9.32,7-9.32S377.29,512.62,377.29,518.68Zm-9.39.07c0,3.89.65,6,2.64,6s2.53-2.09,2.53-6-.67-5.81-2.56-5.81S367.9,514.87,367.9,518.75Zm24.86,3.82c0,2.64,0,4.39,0,5.32h-4a17.45,17.45,0,0,1-.16-2,4,4,0,0,1-4,2.3c-2.57,0-4.52-1.27-4.52-5.43v-13h4.18v12.07c0,1.79.37,2.78,1.89,2.78s2.42-.85,2.42-3.72V509.77h4.19Zm2.17-12.8h2.37v-4.52h4.18v4.52h2.8v3.43h-2.8v9.92c0,1,.19,1.65,1.49,1.65a4.14,4.14,0,0,0,1-.08v3.08a7.16,7.16,0,0,1-2.55.37c-2.9,0-4.15-1.07-4.15-4.33V513.2h-2.37Zm-267.26,42h4.18v18.12h-4.18Zm0-6.74h4.18v4.13H127.7Zm7.88,12.38c0-3.72,0-4.68,0-5.64h4a15.86,15.86,0,0,1,.13,1.89,4.21,4.21,0,0,1,4-2.23c3,0,4.64,1.87,4.64,5.54v12.92h-4.19v-12c0-1.8-.36-2.9-2-2.9s-2.34.89-2.34,3.65v11.22h-4.19Zm16.84,12.48V555.2h-2.11v-3.43h2.11V550c0-3,1.38-5.22,5-5.22a7.06,7.06,0,0,1,1.72.21v3.5a4.55,4.55,0,0,0-1-.12c-1.2,0-1.51.68-1.51,1.92v1.47h2.57v3.43h-2.57v14.69Zm21.29-9.21c0,6.58-2.41,9.56-6.86,9.56s-6.75-2.85-6.75-9.46c0-6.42,2.7-9.32,7-9.32S173.71,554.62,173.71,560.68Zm-9.39.07c0,3.89.65,6,2.65,6s2.52-2.09,2.52-6-.66-5.81-2.55-5.81S164.32,556.87,164.32,560.75Zm12.24-2.84c0-3,0-4.85,0-6.14h4a26.82,26.82,0,0,1,.1,3,4.62,4.62,0,0,1,4.75-3.29v4.68c-3-.06-4.62.81-4.62,4.23v9.51h-4.19Zm10.88-.7c0-3.58,0-4.65,0-5.44h4a13.36,13.36,0,0,1,.13,1.85,4.32,4.32,0,0,1,4-2.16,3.51,3.51,0,0,1,3.68,2.46,4.78,4.78,0,0,1,4.44-2.46c2.58,0,4.59,1.31,4.59,5.44v13h-4.12V557.52c0-1.45-.47-2.5-1.92-2.5-1.7,0-2.24,1.28-2.24,3.52v11.35h-4.16v-12.3c0-1.66-.56-2.54-1.91-2.54-1.67,0-2.29,1.16-2.29,3.6v11.24h-4.15ZM223.56,566c0,.89.07,3.13.14,3.94h-3.8a11,11,0,0,1-.18-1.68,4.31,4.31,0,0,1-4.08,2c-3.48,0-4.82-2.78-4.82-5.37,0-3.71,2.54-6,7.14-6,.61,0,1.07,0,1.48,0v-2c0-1.06-.13-2.29-1.94-2.29s-1.94,1.14-2.05,2.33h-4c.06-2.67,1.32-5.52,6.16-5.52,3.89,0,5.91,1.77,5.91,5.23Zm-4-4a7.84,7.84,0,0,0-1.35-.08c-2.38,0-3.25,1.11-3.25,2.59a2.09,2.09,0,0,0,2.08,2.35c2.14,0,2.52-1.6,2.52-4.29Zm5.76-10.18h2.38v-4.52h4.17v4.52h2.8v3.43h-2.8v9.92c0,1,.2,1.65,1.5,1.65a4.14,4.14,0,0,0,1-.08v3.08a7.2,7.2,0,0,1-2.55.37c-2.9,0-4.15-1.07-4.15-4.33V555.2H225.3Zm11.6,0h4.18v18.12H236.9Zm0-6.74h4.19v4.13h-4.19Zm20.68,15.65c0,6.58-2.42,9.56-6.87,9.56s-6.74-2.85-6.74-9.46c0-6.42,2.69-9.32,7-9.32S257.61,554.62,257.61,560.68Zm-9.39.07c0,3.89.65,6,2.64,6s2.53-2.09,2.53-6-.67-5.81-2.56-5.81S248.22,556.87,248.22,560.75Zm12.24-3.34c0-3.72,0-4.68,0-5.64h4a15.86,15.86,0,0,1,.13,1.89,4.19,4.19,0,0,1,4-2.23c3,0,4.64,1.87,4.64,5.54v12.92H269v-12c0-1.8-.36-2.9-2-2.9s-2.35.89-2.35,3.65v11.22h-4.18ZM296,545v19.83c0,2.14,0,4,0,5h-4a16.26,16.26,0,0,1-.13-1.92c-.53,1.28-1.63,2.24-4,2.24-3.82,0-5.34-3.44-5.34-9.52,0-5.56,1.82-9.23,6-9.23,2,0,2.91.73,3.26,1.43V545Zm-9.23,15.72c0,4.2.75,5.93,2.52,5.93,2.17,0,2.65-1.69,2.65-6.07,0-4.18-.34-5.59-2.47-5.59C287.79,555,286.79,556.31,286.79,560.75Zm16.2,1.17c0,2.3.29,4.86,2.6,4.86a2.37,2.37,0,0,0,2.43-2.39h4a6.1,6.1,0,0,1-6.49,5.85c-5.87,0-6.69-4.94-6.69-9.52,0-5.75,2.18-9.26,6.78-9.26,5.25,0,6.54,3.94,6.54,8.67,0,.63,0,1.48-.07,1.79Zm5.05-3c0-1.77-.21-4-2.43-4-2.4,0-2.54,2.7-2.55,4Zm6.95,11V545h4.18v24.86Zm7.87-18.12H327v18.12h-4.18Zm0-6.74h4.18v4.13h-4.18Zm10.65,6.74c1.13,5.15,2.34,10.74,2.75,13.77h0c.33-2.79,1.85-8.56,2.95-13.77h4.19l-5.08,18.12h-4.51l-4.8-18.12Zm15.09,10.15c0,2.3.29,4.86,2.6,4.86a2.37,2.37,0,0,0,2.43-2.39h4a6.1,6.1,0,0,1-6.49,5.85c-5.87,0-6.69-4.94-6.69-9.52,0-5.75,2.18-9.26,6.77-9.26,5.26,0,6.55,3.94,6.55,8.67,0,.63,0,1.48-.07,1.79Zm5-3c0-1.77-.2-4-2.42-4-2.4,0-2.54,2.7-2.55,4Zm7-1c0-3,0-4.85,0-6.14h4a26.82,26.82,0,0,1,.1,3,4.63,4.63,0,0,1,4.75-3.29v4.68c-3-.06-4.62.81-4.62,4.23v9.51h-4.18Zm14.32,4c0,2.3.28,4.86,2.6,4.86a2.37,2.37,0,0,0,2.43-2.39h4a6.1,6.1,0,0,1-6.49,5.85c-5.87,0-6.69-4.94-6.69-9.52,0-5.75,2.18-9.26,6.77-9.26,5.26,0,6.55,3.94,6.55,8.67,0,.63,0,1.48-.07,1.79Zm5-3c0-1.77-.2-4-2.42-4-2.4,0-2.54,2.7-2.55,4ZM399.82,545v19.83c0,2.14,0,4,0,5h-4a16.17,16.17,0,0,1-.14-1.92c-.53,1.28-1.62,2.24-4,2.24-3.82,0-5.34-3.44-5.34-9.52,0-5.56,1.81-9.23,6-9.23,2,0,2.9.73,3.26,1.43V545Zm-9.23,15.72c0,4.2.76,5.93,2.53,5.93,2.17,0,2.65-1.69,2.65-6.07,0-4.18-.34-5.59-2.47-5.59C391.6,555,390.59,556.31,390.59,560.75Zm-203.47,33h2.37v-4.52h4.18v4.52h2.8v3.43h-2.8v9.92c0,1,.19,1.65,1.5,1.65a4.18,4.18,0,0,0,1-.08v3.08a7.25,7.25,0,0,1-2.56.37c-2.89,0-4.15-1.07-4.15-4.33V597.2h-2.37Zm24.32,8.91c0,6.58-2.41,9.56-6.86,9.56s-6.75-2.85-6.75-9.46c0-6.42,2.7-9.32,7-9.32S211.44,596.62,211.44,602.68Zm-9.39.07c0,3.89.65,6,2.65,6s2.52-2.09,2.52-6-.66-5.81-2.55-5.81S202.05,598.87,202.05,602.75Zm16.74-9h2.38v-4.52h4.17v4.52h2.8v3.43h-2.8v9.92c0,1,.2,1.65,1.5,1.65a4.14,4.14,0,0,0,1-.08v3.08a7.2,7.2,0,0,1-2.55.37c-2.9,0-4.15-1.07-4.15-4.33V597.2h-2.38ZM234.55,587v8.49a4.2,4.2,0,0,1,4.07-2.09c3,0,4.5,2,4.5,5.66v12.8h-4.18v-12c0-1.78-.32-2.91-2.09-2.91s-2.3,1.4-2.3,3.8v11.07h-4.19V587Zm15.6,16.89c0,2.3.28,4.86,2.6,4.86a2.36,2.36,0,0,0,2.42-2.39h4a6.1,6.1,0,0,1-6.49,5.85c-5.87,0-6.69-4.94-6.69-9.52,0-5.75,2.18-9.26,6.78-9.26,5.25,0,6.54,3.94,6.54,8.67,0,.63,0,1.48-.06,1.79Zm5-3c0-1.77-.21-4-2.43-4-2.4,0-2.54,2.7-2.55,4ZM280.54,608c0,.89.07,3.13.14,3.94h-3.8a9.83,9.83,0,0,1-.18-1.68,4.31,4.31,0,0,1-4.08,2c-3.49,0-4.83-2.78-4.83-5.37,0-3.71,2.55-6,7.15-6,.61,0,1.07,0,1.48,0v-2c0-1.06-.13-2.29-1.95-2.29s-1.94,1.14-2,2.33h-4c.07-2.67,1.33-5.52,6.17-5.52,3.89,0,5.91,1.77,5.91,5.23Zm-4-4a7.9,7.9,0,0,0-1.35-.08c-2.38,0-3.25,1.11-3.25,2.59a2.09,2.09,0,0,0,2.08,2.35c2.13,0,2.52-1.6,2.52-4.29Zm20.41,6.48c0,5.14-1.5,8.28-7,8.28-5.16,0-6.25-3-6.36-5.24h4.16c.07.55.26,1.84,2.36,1.84,2.26,0,2.69-1.71,2.69-4.88v-.82a3.92,3.92,0,0,1-3.88,2.16c-3.86,0-5.5-3.39-5.5-8.73,0-6.2,2.24-9.58,5.89-9.58,2.38,0,3.2,1.13,3.49,1.92,0-.55.1-1.17.16-1.61h4c0,1.12-.06,2.93-.06,5.46Zm-9.21-7.51c0,3.73.9,5.32,2.59,5.32,2.11,0,2.56-2,2.56-5.89,0-3.25-.16-5.33-2.43-5.33C288.69,597,287.72,598.84,287.72,602.92Zm16.25,1c0,2.3.28,4.86,2.6,4.86a2.37,2.37,0,0,0,2.43-2.39h4a6.1,6.1,0,0,1-6.49,5.85c-5.87,0-6.69-4.94-6.69-9.52,0-5.75,2.18-9.26,6.77-9.26,5.26,0,6.55,3.94,6.55,8.67,0,.63,0,1.48-.07,1.79Zm5-3c0-1.77-.2-4-2.42-4-2.4,0-2.54,2.7-2.55,4Zm7-1.49c0-3.72,0-4.68,0-5.64h4a13.83,13.83,0,0,1,.14,1.89,4.18,4.18,0,0,1,4-2.23c3,0,4.64,1.87,4.64,5.54v12.92h-4.19v-12c0-1.8-.36-2.9-2-2.9s-2.35.89-2.35,3.65v11.22H316Zm14.5-5.64h2.38v-4.52H337v4.52h2.79v3.43H337v9.92c0,1,.19,1.65,1.49,1.65a4.14,4.14,0,0,0,1-.08v3.08a7.16,7.16,0,0,1-2.55.37c-2.9,0-4.15-1.07-4.15-4.33V597.2h-2.38ZM889.13,159.22H533.9a39.39,39.39,0,0,1-39.35-39.35V39.35A39.39,39.39,0,0,1,533.9,0H889.13a39.4,39.4,0,0,1,39.35,39.35v80.52A39.4,39.4,0,0,1,889.13,159.22ZM533.9,17a22.38,22.38,0,0,0-22.35,22.35v80.52a22.37,22.37,0,0,0,22.35,22.35H889.13a22.37,22.37,0,0,0,22.35-22.35V39.35A22.38,22.38,0,0,0,889.13,17Zm65.15,54h-3.23a18.49,18.49,0,0,1-.2-2c-1.06,1.87-2.7,2.42-4.7,2.42-4.95,0-6.74-4.41-6.74-12.1,0-8.65,2.92-12.37,8-12.37,6.41,0,6.77,5.5,6.84,6.91h-4.19c-.07-1-.28-3.32-2.78-3.32-2.73,0-3.5,3.64-3.5,8.77,0,5.52.65,8.55,3.36,8.55,2.24,0,2.92-1.72,2.92-5.21V61.35h-3.19V57.73h7.4Zm16.07-5.32c0,2.64,0,4.39,0,5.32h-4a17.39,17.39,0,0,1-.17-2,3.94,3.94,0,0,1-4,2.3c-2.58,0-4.53-1.27-4.53-5.43v-13h4.19V65c0,1.79.37,2.78,1.89,2.78s2.42-.85,2.42-3.72V52.92h4.18Zm7-2.65c0,2.3.29,4.86,2.6,4.86a2.37,2.37,0,0,0,2.43-2.39h4a6.1,6.1,0,0,1-6.49,5.85c-5.87,0-6.69-4.94-6.69-9.52,0-5.75,2.18-9.26,6.78-9.26,5.25,0,6.54,3.94,6.54,8.67,0,.63,0,1.48-.07,1.79Zm5-3c0-1.77-.21-4-2.43-4-2.4,0-2.54,2.7-2.55,4Zm10.06,5.51a2.36,2.36,0,0,0,2.35,2.61c1.39,0,2-.73,2-1.91s-.58-2-2.72-2.78c-4.27-1.57-5.33-3.07-5.33-5.69s1.56-5.21,5.88-5.21c4.75,0,5.9,3.27,5.91,5.64h-4c0-.64-.07-2.45-2-2.45a1.58,1.58,0,0,0-1.71,1.7c0,1.15.66,1.68,2.82,2.48,3.83,1.42,5.28,2.88,5.28,5.81,0,3.56-2.23,5.6-6.33,5.6-4.33,0-6.27-2.58-6.28-5.8Zm9.47-12.64h2.37V48.4h4.18v4.52H656v3.43h-2.8v9.92c0,1,.19,1.65,1.5,1.65a4.77,4.77,0,0,0,1-.07v3.07a7.22,7.22,0,0,1-2.56.37c-2.89,0-4.15-1.07-4.15-4.33V56.35h-2.37Zm30.12,12c-.07,1.45-.4,6.45-6.38,6.45-5.2,0-6.48-4.16-6.48-9.53,0-4.8,1.58-9.25,6.69-9.25,6,0,6.14,5.13,6.17,6.23h-4.22c0-.7-.11-2.77-2-2.77s-2.44,2.06-2.44,5.82.58,6,2.39,6c2,0,2.1-2,2.21-3Zm14.65,2.19c0,.89.07,3.13.14,3.94h-3.8a11,11,0,0,1-.18-1.68,4.29,4.29,0,0,1-4.08,2c-3.48,0-4.82-2.78-4.82-5.37,0-3.71,2.54-6,7.14-6,.61,0,1.07,0,1.48,0v-2c0-1.06-.13-2.29-1.94-2.29s-1.94,1.14-2,2.33h-4c.07-2.67,1.32-5.52,6.16-5.52,3.89,0,5.91,1.77,5.91,5.23Zm-4-4a7.84,7.84,0,0,0-1.35-.08c-2.38,0-3.25,1.11-3.25,2.59A2.09,2.09,0,0,0,684.92,68c2.14,0,2.52-1.6,2.52-4.29ZM695.18,71V46.18h4.18V71Zm7.87,0V46.18h4.19V71Zm10.68-5.48a2.35,2.35,0,0,0,2.35,2.61,1.78,1.78,0,0,0,2-1.91c0-1.28-.57-2-2.71-2.78-4.28-1.57-5.33-3.07-5.33-5.69s1.55-5.21,5.88-5.21c4.75,0,5.9,3.27,5.91,5.64h-4c0-.64-.07-2.45-2-2.45a1.57,1.57,0,0,0-1.7,1.7c0,1.15.65,1.68,2.82,2.48,3.83,1.42,5.28,2.88,5.28,5.81,0,3.56-2.23,5.6-6.34,5.6-4.33,0-6.26-2.58-6.28-5.8Zm15.73-12.64h2.38V48.4H736v4.52h2.8v3.43H736v9.92c0,1,.2,1.65,1.5,1.65a4.77,4.77,0,0,0,1-.07v3.07a7.22,7.22,0,0,1-2.56.37c-2.89,0-4.14-1.07-4.14-4.33V56.35h-2.38Zm15.76-6.74v8.49a4.18,4.18,0,0,1,4.06-2.09c3,0,4.51,2,4.51,5.66V71h-4.18v-12c0-1.78-.32-2.91-2.09-2.91s-2.3,1.4-2.3,3.8V71H741V46.18Zm15.59,16.89c0,2.3.29,4.86,2.6,4.86a2.37,2.37,0,0,0,2.43-2.39h4a6.1,6.1,0,0,1-6.49,5.85c-5.87,0-6.69-4.94-6.69-9.52,0-5.75,2.18-9.26,6.77-9.26,5.26,0,6.55,3.94,6.55,8.67,0,.63,0,1.48-.07,1.79Zm5.05-3c0-1.77-.21-4-2.43-4-2.4,0-2.54,2.7-2.55,4Zm17.65-13.87v8.49a4.18,4.18,0,0,1,4.06-2.09c3,0,4.51,2,4.51,5.66V71h-4.19v-12c0-1.78-.31-2.91-2.08-2.91s-2.3,1.4-2.3,3.8V71h-4.19V46.18Zm25,15.65c0,6.58-2.41,9.56-6.86,9.56S795,68.54,795,61.93c0-6.42,2.7-9.32,7-9.32S808.56,55.77,808.56,61.83Zm-9.39.07c0,3.89.65,6,2.65,6s2.52-2.09,2.52-6-.67-5.81-2.55-5.81S799.17,58,799.17,61.9Zm10.44-9H812V48.4h4.18v4.52H819v3.43h-2.8v9.92c0,1,.19,1.65,1.5,1.65a4.77,4.77,0,0,0,1-.07v3.07a7.25,7.25,0,0,1-2.56.37c-2.89,0-4.15-1.07-4.15-4.33V56.35h-2.37Zm14.87,10.15c0,2.3.28,4.86,2.6,4.86a2.36,2.36,0,0,0,2.42-2.39h4A6.09,6.09,0,0,1,827,71.39c-5.87,0-6.69-4.94-6.69-9.52,0-5.75,2.18-9.26,6.78-9.26,5.25,0,6.54,3.94,6.54,8.67,0,.63,0,1.48-.06,1.79Zm5-3c0-1.77-.21-4-2.43-4-2.39,0-2.54,2.7-2.55,4Zm7,11V46.18h4.18V71ZM678.1,88.18V108c0,2.14,0,4,0,5h-4a16.26,16.26,0,0,1-.13-1.92c-.53,1.28-1.62,2.24-4,2.24-3.83,0-5.34-3.44-5.34-9.53,0-5.55,1.81-9.22,6-9.22,2,0,2.9.73,3.26,1.43V88.18Zm-9.23,15.72c0,4.2.75,5.93,2.53,5.93,2.16,0,2.64-1.69,2.64-6.06,0-4.19-.33-5.6-2.46-5.6C669.88,98.17,668.87,99.46,668.87,103.9Zm12.87-9h4.18V113h-4.18Zm0-6.74H686v4.13h-4.18Zm7.88,12.88c0-3,0-4.84,0-6.14h4c0,.32.1,1.07.1,3a4.62,4.62,0,0,1,4.75-3.29v4.69c-3-.07-4.63.8-4.63,4.22V113h-4.18Zm14.33,4c0,2.3.28,4.86,2.6,4.86a2.36,2.36,0,0,0,2.42-2.39h4a6.09,6.09,0,0,1-6.49,5.85c-5.87,0-6.69-4.94-6.69-9.52,0-5.75,2.18-9.26,6.78-9.26,5.25,0,6.54,3.94,6.54,8.67,0,.63,0,1.48-.06,1.79Zm5-3c0-1.77-.21-4-2.43-4-2.39,0-2.54,2.7-2.55,4Zm19.24,4.86c-.07,1.45-.4,6.45-6.38,6.45-5.2,0-6.48-4.16-6.48-9.53,0-4.8,1.58-9.25,6.69-9.25,5.95,0,6.14,5.13,6.17,6.23H724c0-.7-.11-2.77-2-2.77s-2.44,2.06-2.44,5.82.58,6,2.39,6c2,0,2.1-2,2.21-3Zm1.34-12H732V90.4h4.17v4.52H739v3.43h-2.8v9.92c0,1,.2,1.65,1.5,1.65a4.77,4.77,0,0,0,1-.07v3.07a7.22,7.22,0,0,1-2.56.37c-2.89,0-4.14-1.07-4.14-4.33V98.35H729.6ZM741.17,113V88.18h4.18V113Zm10.6-18.12c1.33,5.83,2.6,10.78,2.81,13h0c.41-2.58,1.61-7.87,2.84-13h4.2l-5.21,18.94c-1.55,5.64-3.58,6-6.1,6a9.1,9.1,0,0,1-1.63-.13v-3.53a11.41,11.41,0,0,0,1.3.07c1.6,0,2.15-.8,2.63-3l-5.44-18.36ZM37.92,496.56h-17v-12h17Zm0-24h-17v-12h17Zm0-24h-17v-12h17Zm0-24h-17v-12h17Zm0-24h-17v-12h17Zm0-24h-17v-12h17Zm0-24h-17v-12h17Zm0-24h-17v-12h17Zm0-24h-17v-12h17Zm0-24h-17v-12h17Zm0-24h-17v-12h17Zm0-24h-17v-12h17Zm0-24h-17v-12h17Zm0-24h-17v-12h17Zm0-24h-17v-7.7h17Zm45.8,131.62h-12v-17h12Zm-24,0h-12v-17h12Zm-24,0h-6.3v-17h6.3ZM412.88,660.69H114.57a39.39,39.39,0,0,1-39.35-39.35V448a39.39,39.39,0,0,1,39.35-39.35H412.88A39.39,39.39,0,0,1,452.23,448V621.34A39.39,39.39,0,0,1,412.88,660.69Zm-298.31-235A22.37,22.37,0,0,0,92.22,448V621.34a22.37,22.37,0,0,0,22.35,22.35H412.88a22.38,22.38,0,0,0,22.35-22.35V448a22.37,22.37,0,0,0-22.35-22.35Zm717.64-62.38H533.9a39.39,39.39,0,0,1-39.35-39.35V243.42a39.4,39.4,0,0,1,39.35-39.35H832.21a39.4,39.4,0,0,1,39.35,39.35v80.52A39.39,39.39,0,0,1,832.21,363.29ZM533.9,221.07a22.38,22.38,0,0,0-22.35,22.35v80.52a22.37,22.37,0,0,0,22.35,22.35H832.21a22.37,22.37,0,0,0,22.35-22.35V243.42a22.37,22.37,0,0,0-22.35-22.35Zm72,54h-3.23a18.49,18.49,0,0,1-.2-2c-1.06,1.87-2.7,2.42-4.7,2.42-4.95,0-6.74-4.4-6.74-12.1,0-8.64,2.92-12.36,8-12.36,6.41,0,6.77,5.5,6.84,6.9h-4.19c-.07-1-.28-3.32-2.78-3.32-2.73,0-3.5,3.64-3.5,8.77,0,5.52.65,8.56,3.36,8.56,2.24,0,2.92-1.73,2.92-5.22v-1.32h-3.19v-3.62h7.4ZM622,269.79c0,2.64,0,4.4,0,5.32h-4a17.41,17.41,0,0,1-.17-2,4,4,0,0,1-4,2.29c-2.58,0-4.53-1.27-4.53-5.43V257h4.19v12.06c0,1.79.37,2.79,1.89,2.79s2.42-.85,2.42-3.73V257H622Zm7-2.65c0,2.3.29,4.86,2.6,4.86a2.36,2.36,0,0,0,2.43-2.39h4a6.09,6.09,0,0,1-6.49,5.85c-5.87,0-6.69-4.94-6.69-9.52,0-5.74,2.18-9.25,6.78-9.25,5.25,0,6.54,3.93,6.54,8.66,0,.63,0,1.48-.07,1.79Zm5-3c0-1.77-.21-4-2.43-4-2.4,0-2.54,2.69-2.55,4Zm10.06,5.51a2.37,2.37,0,0,0,2.35,2.62,1.78,1.78,0,0,0,2-1.92c0-1.28-.58-2-2.72-2.77-4.27-1.58-5.33-3.07-5.33-5.7,0-2.47,1.56-5.2,5.88-5.2,4.75,0,5.91,3.26,5.91,5.64h-4c0-.64-.07-2.46-2-2.46a1.58,1.58,0,0,0-1.71,1.71c0,1.14.66,1.67,2.82,2.48,3.83,1.41,5.28,2.87,5.28,5.8,0,3.56-2.22,5.6-6.33,5.6-4.33,0-6.26-2.58-6.28-5.8ZM653.58,257H656v-4.53h4.17V257h2.8v3.43h-2.8v9.91c0,1.05.19,1.65,1.5,1.65a4.77,4.77,0,0,0,1-.07V275a7.22,7.22,0,0,1-2.56.37c-2.89,0-4.14-1.07-4.14-4.33v-10.6h-2.38Zm30.12,12c-.07,1.46-.4,6.45-6.38,6.45-5.2,0-6.48-4.15-6.48-9.53,0-4.8,1.58-9.24,6.69-9.24,6,0,6.14,5.13,6.17,6.22h-4.22c0-.7-.11-2.76-2-2.76s-2.44,2.05-2.44,5.81.58,6,2.39,6,2.1-2,2.21-3Zm6.74-18.73v8.49a4.22,4.22,0,0,1,4.07-2.08c3,0,4.5,1.95,4.5,5.65v12.8h-4.18v-12c0-1.77-.32-2.91-2.09-2.91s-2.3,1.4-2.3,3.8v11.07h-4.19V250.25ZM715.5,265.9c0,6.58-2.42,9.56-6.87,9.56s-6.75-2.85-6.75-9.46c0-6.42,2.7-9.31,7-9.31S715.5,259.84,715.5,265.9Zm-9.4.07c0,3.89.65,6,2.65,6s2.52-2.08,2.52-5.94-.66-5.82-2.55-5.82S706.1,262.09,706.1,266Zm25.18-.07c0,6.58-2.41,9.56-6.86,9.56s-6.75-2.85-6.75-9.46c0-6.42,2.69-9.31,7-9.31S731.28,259.84,731.28,265.9Zm-9.39.07c0,3.89.65,6,2.64,6s2.53-2.08,2.53-5.94-.67-5.82-2.56-5.82S721.89,262.09,721.89,266Zm15.32,3.66a2.36,2.36,0,0,0,2.35,2.62,1.78,1.78,0,0,0,2-1.92c0-1.28-.57-2-2.71-2.77-4.28-1.58-5.33-3.07-5.33-5.7,0-2.47,1.55-5.2,5.88-5.2,4.75,0,5.9,3.26,5.91,5.64h-4c0-.64-.07-2.46-2-2.46a1.57,1.57,0,0,0-1.7,1.71c0,1.14.65,1.67,2.82,2.48,3.83,1.41,5.28,2.87,5.28,5.8,0,3.56-2.23,5.6-6.34,5.6-4.33,0-6.26-2.58-6.27-5.8Zm14.64-2.49c0,2.3.28,4.86,2.6,4.86a2.36,2.36,0,0,0,2.42-2.39h4a6.1,6.1,0,0,1-6.49,5.85c-5.88,0-6.69-4.94-6.69-9.52,0-5.74,2.18-9.25,6.77-9.25,5.26,0,6.55,3.93,6.55,8.66,0,.63,0,1.48-.07,1.79Zm5-3c0-1.77-.2-4-2.42-4-2.4,0-2.55,2.69-2.55,4ZM767,269.63a2.36,2.36,0,0,0,2.35,2.62,1.78,1.78,0,0,0,2-1.92c0-1.28-.57-2-2.72-2.77-4.27-1.58-5.32-3.07-5.32-5.7,0-2.47,1.55-5.2,5.87-5.2,4.76,0,5.91,3.26,5.91,5.64h-4c0-.64-.07-2.46-2-2.46a1.57,1.57,0,0,0-1.7,1.71c0,1.14.65,1.67,2.82,2.48,3.83,1.41,5.28,2.87,5.28,5.8,0,3.56-2.23,5.6-6.34,5.6-4.33,0-6.26-2.58-6.28-5.8ZM567.11,305.14c0-3,0-4.85,0-6.14h4a26.4,26.4,0,0,1,.1,3,4.62,4.62,0,0,1,4.75-3.29v4.69c-3-.07-4.63.8-4.63,4.23v9.5h-4.18Zm14.33,4c0,2.3.28,4.86,2.6,4.86a2.36,2.36,0,0,0,2.42-2.39h4a6.1,6.1,0,0,1-6.49,5.85c-5.88,0-6.69-4.94-6.69-9.52,0-5.75,2.18-9.25,6.77-9.25,5.26,0,6.55,3.93,6.55,8.66,0,.63,0,1.48-.07,1.79Zm5-3c0-1.77-.2-4-2.42-4-2.4,0-2.55,2.69-2.55,4Zm10.07,5.51a2.36,2.36,0,0,0,2.35,2.62,1.78,1.78,0,0,0,2-1.92c0-1.28-.57-2-2.72-2.77-4.27-1.58-5.32-3.08-5.32-5.7s1.55-5.21,5.87-5.21c4.76,0,5.91,3.27,5.91,5.65h-4c0-.64-.07-2.46-2-2.46a1.57,1.57,0,0,0-1.7,1.71c0,1.14.65,1.67,2.82,2.48,3.83,1.41,5.28,2.87,5.28,5.8,0,3.56-2.23,5.6-6.34,5.6-4.33,0-6.26-2.58-6.28-5.8Zm14.64-2.49c0,2.3.28,4.86,2.6,4.86a2.36,2.36,0,0,0,2.42-2.39h4a6.08,6.08,0,0,1-6.48,5.85c-5.88,0-6.7-4.94-6.7-9.52,0-5.75,2.18-9.25,6.78-9.25,5.26,0,6.54,3.93,6.54,8.66,0,.63,0,1.48-.06,1.79Zm5-3c0-1.77-.21-4-2.43-4-2.39,0-2.54,2.69-2.55,4Zm6.95-1c0-3,0-4.85,0-6.14h4a29.54,29.54,0,0,1,.1,3,4.62,4.62,0,0,1,4.75-3.29v4.69c-3-.07-4.63.8-4.63,4.23v9.5h-4.18Zm14.6-6.14c1.13,5.14,2.34,10.73,2.74,13.76h0c.33-2.79,1.85-8.56,3-13.76h4.18l-5.07,18.11h-4.51L633.31,299Zm23.33,14.17c0,.89.07,3.13.14,3.94h-3.8a10.91,10.91,0,0,1-.17-1.68,4.32,4.32,0,0,1-4.09,2c-3.48,0-4.82-2.78-4.82-5.37,0-3.71,2.54-6,7.14-6,.61,0,1.07,0,1.49,0v-2c0-1.05-.14-2.29-2-2.29s-1.94,1.14-2,2.33h-4c.07-2.66,1.32-5.51,6.16-5.51,3.89,0,5.91,1.76,5.91,5.22Zm-4-4a7.92,7.92,0,0,0-1.35-.07c-2.38,0-3.25,1.1-3.25,2.58a2.09,2.09,0,0,0,2.08,2.35c2.14,0,2.52-1.59,2.52-4.28ZM662.85,299h2.38v-4.53h4.18V299h2.79v3.43h-2.79v9.91c0,1.05.19,1.65,1.49,1.65a4.72,4.72,0,0,0,1-.07V317a7.2,7.2,0,0,1-2.55.37c-2.9,0-4.15-1.07-4.15-4.33v-10.6h-2.38Zm11.6,0h4.19v18.11h-4.19Zm0-6.75h4.19v4.13h-4.19Zm20.68,15.65c0,6.58-2.41,9.56-6.87,9.56s-6.74-2.85-6.74-9.46c0-6.42,2.69-9.31,7-9.31S695.16,301.84,695.16,307.9Zm-9.39.07c0,3.89.65,6,2.64,6s2.53-2.08,2.53-5.94-.67-5.82-2.56-5.82S685.77,304.09,685.77,308ZM698,304.63c0-3.72,0-4.68,0-5.63h4a15.67,15.67,0,0,1,.13,1.88,4.21,4.21,0,0,1,4-2.23c3,0,4.64,1.87,4.64,5.54v12.92h-4.19v-12c0-1.8-.36-2.9-2-2.9s-2.35.89-2.35,3.65v11.22H698Zm35.72,3.27c0,6.58-2.42,9.56-6.87,9.56s-6.74-2.85-6.74-9.46c0-6.42,2.69-9.31,7-9.31S733.73,301.84,733.73,307.9Zm-9.39.07c0,3.89.65,6,2.64,6s2.53-2.08,2.53-5.94-.67-5.82-2.56-5.82S724.34,304.09,724.34,308Zm16.42,7.75v7.94h-4.18V304.23c0-2.44,0-4.09,0-5.23h4a16.61,16.61,0,0,1,.13,2,4,4,0,0,1,4.06-2.29c3.36,0,5.3,2.89,5.3,9.06,0,7.09-2.35,9.71-5.85,9.71A3.56,3.56,0,0,1,740.76,315.72Zm5.07-7.77c0-4.34-.9-5.71-2.67-5.71-2.11,0-2.53,2-2.53,5.54,0,4.15.21,6.12,2.5,6.12C745,313.9,745.83,312,745.83,308Zm5.29-8.95h2.38v-4.53h4.17V299h2.8v3.43h-2.8v9.91c0,1.05.2,1.65,1.5,1.65a4.77,4.77,0,0,0,1-.07V317a7.22,7.22,0,0,1-2.56.37c-2.89,0-4.14-1.07-4.14-4.33v-10.6h-2.38Zm11.6,0h4.18v18.11h-4.18Zm0-6.75h4.18v4.13h-4.18Zm20.68,15.65c0,6.58-2.42,9.56-6.87,9.56s-6.75-2.85-6.75-9.46c0-6.42,2.7-9.31,7-9.31S783.43,301.84,783.43,307.9ZM774,308c0,3.89.66,6,2.65,6s2.53-2.08,2.53-5.94-.67-5.82-2.56-5.82S774,304.09,774,308Zm12.25-3.34c0-3.72,0-4.68,0-5.63h4a13.67,13.67,0,0,1,.14,1.88,4.18,4.18,0,0,1,4-2.23c3,0,4.64,1.87,4.64,5.54v12.92h-4.19v-12c0-1.8-.36-2.9-2.05-2.9s-2.34.89-2.34,3.65v11.22h-4.18ZM556.86,485.89h-3.23c-.1-.72-.17-1.25-.21-2-1,1.87-2.7,2.42-4.7,2.42-5,0-6.74-4.41-6.74-12.1,0-8.65,2.92-12.37,8-12.37,6.42,0,6.77,5.5,6.84,6.91h-4.19c-.07-1-.27-3.32-2.78-3.32-2.73,0-3.49,3.64-3.49,8.77,0,5.52.65,8.55,3.35,8.55,2.25,0,2.93-1.72,2.93-5.21V476.2h-3.19v-3.62h7.4Zm16.07-5.32c0,2.64,0,4.39,0,5.32h-4a17.45,17.45,0,0,1-.16-2,4,4,0,0,1-4,2.3c-2.57,0-4.53-1.27-4.53-5.43v-13h4.19v12.07c0,1.79.37,2.78,1.89,2.78s2.42-.85,2.42-3.72V467.77h4.19Zm7-2.65c0,2.3.28,4.86,2.6,4.86a2.36,2.36,0,0,0,2.42-2.39h4a6.09,6.09,0,0,1-6.48,5.85c-5.88,0-6.7-4.94-6.7-9.52,0-5.75,2.19-9.26,6.78-9.26,5.26,0,6.54,3.94,6.54,8.67,0,.63,0,1.48-.06,1.79Zm5-3c0-1.77-.21-4-2.42-4-2.4,0-2.55,2.7-2.56,4ZM595,480.41a2.35,2.35,0,0,0,2.35,2.61,1.78,1.78,0,0,0,2-1.91c0-1.28-.57-2-2.72-2.78-4.27-1.57-5.32-3.07-5.32-5.69,0-2.47,1.55-5.21,5.87-5.21,4.76,0,5.91,3.27,5.91,5.64h-4c0-.64-.07-2.45-2-2.45a1.58,1.58,0,0,0-1.71,1.7c0,1.15.66,1.68,2.83,2.48,3.83,1.42,5.28,2.88,5.28,5.81,0,3.56-2.23,5.6-6.34,5.6-4.33,0-6.26-2.58-6.28-5.8Zm9.46-12.64h2.38v-4.52h4.18v4.52h2.79v3.43h-2.79v9.92c0,1.05.19,1.65,1.49,1.65a4.14,4.14,0,0,0,1-.08v3.08a7.2,7.2,0,0,1-2.55.37c-2.9,0-4.15-1.07-4.15-4.33V471.2h-2.38Zm18.08,0h4.18v18.12h-4.18Zm0-6.74h4.18v4.13H622.6Zm10.68,19.38a2.35,2.35,0,0,0,2.35,2.61,1.78,1.78,0,0,0,2-1.91c0-1.28-.57-2-2.71-2.78-4.28-1.57-5.33-3.07-5.33-5.69,0-2.47,1.55-5.21,5.88-5.21,4.75,0,5.9,3.27,5.91,5.64h-4c0-.64-.08-2.45-2-2.45a1.57,1.57,0,0,0-1.71,1.7c0,1.15.65,1.68,2.82,2.48,3.83,1.42,5.28,2.88,5.28,5.81,0,3.56-2.23,5.6-6.34,5.6-4.33,0-6.26-2.58-6.27-5.8ZM649,467.77h2.38v-4.52h4.17v4.52h2.8v3.43h-2.8v9.92c0,1.05.2,1.65,1.5,1.65a4.14,4.14,0,0,0,1-.08v3.08a7.2,7.2,0,0,1-2.55.37c-2.9,0-4.15-1.07-4.15-4.33V471.2H649Zm11.57,6.14c0-3,0-4.85,0-6.14h4c0,.32.1,1.07.1,3a4.61,4.61,0,0,1,4.74-3.29v4.68c-3-.06-4.62.81-4.62,4.23v9.51h-4.18Zm22.53,8c0,.89.07,3.13.14,3.94h-3.8a11,11,0,0,1-.18-1.68,4.31,4.31,0,0,1-4.08,2c-3.48,0-4.82-2.78-4.82-5.37,0-3.71,2.54-6,7.14-6,.61,0,1.07,0,1.48,0v-2c0-1.06-.13-2.29-2-2.29s-1.93,1.14-2,2.33h-4c.07-2.67,1.33-5.52,6.17-5.52,3.89,0,5.91,1.77,5.91,5.23Zm-4-4a7.84,7.84,0,0,0-1.35-.08c-2.38,0-3.25,1.11-3.25,2.59a2.09,2.09,0,0,0,2.08,2.35c2.14,0,2.52-1.6,2.52-4.29Zm7.74-4.54c0-3.72,0-4.68,0-5.64h4a15.86,15.86,0,0,1,.13,1.89,4.21,4.21,0,0,1,4-2.23c3,0,4.64,1.87,4.64,5.54v12.92H695.4v-12c0-1.8-.36-2.9-2-2.9s-2.35.89-2.35,3.65v11.22h-4.18Zm19.39,7a2.35,2.35,0,0,0,2.35,2.61,1.78,1.78,0,0,0,2-1.91c0-1.28-.57-2-2.71-2.78-4.28-1.57-5.33-3.07-5.33-5.69,0-2.47,1.55-5.21,5.87-5.21,4.76,0,5.91,3.27,5.91,5.64h-4c0-.64-.07-2.45-2-2.45a1.57,1.57,0,0,0-1.7,1.7c0,1.15.65,1.68,2.82,2.48,3.83,1.42,5.28,2.88,5.28,5.81,0,3.56-2.23,5.6-6.34,5.6-4.33,0-6.26-2.58-6.28-5.8Zm11.84,5.48V471.2h-2.12v-3.43h2.12V466c0-3,1.37-5.22,5-5.22a7.06,7.06,0,0,1,1.72.21v3.5a4.46,4.46,0,0,0-1-.12c-1.2,0-1.52.68-1.52,1.92v1.47h2.57v3.43h-2.57v14.69Zm11.83-8c0,2.3.28,4.86,2.6,4.86a2.36,2.36,0,0,0,2.42-2.39h4a6.09,6.09,0,0,1-6.48,5.85c-5.88,0-6.7-4.94-6.7-9.52,0-5.75,2.19-9.26,6.78-9.26,5.26,0,6.54,3.94,6.54,8.67,0,.63,0,1.48-.06,1.79Zm5-3c0-1.77-.21-4-2.43-4-2.39,0-2.54,2.7-2.55,4Zm7-1c0-3,0-4.85,0-6.14h4c0,.32.1,1.07.1,3a4.62,4.62,0,0,1,4.75-3.29v4.68c-3-.06-4.63.81-4.63,4.23v9.51h-4.18Zm10.85,0c0-3,0-4.85,0-6.14h4c0,.32.1,1.07.1,3a4.62,4.62,0,0,1,4.75-3.29v4.68c-3-.06-4.63.81-4.63,4.23v9.51h-4.18Zm14.33,4c0,2.3.28,4.86,2.6,4.86a2.36,2.36,0,0,0,2.42-2.39h4a6.09,6.09,0,0,1-6.48,5.85c-5.88,0-6.7-4.94-6.7-9.52,0-5.75,2.18-9.26,6.78-9.26,5.25,0,6.54,3.94,6.54,8.67,0,.63,0,1.48-.06,1.79Zm5-3c0-1.77-.21-4-2.43-4-2.39,0-2.54,2.7-2.55,4ZM791.93,461v19.83c0,2.14,0,4,0,5h-4a18.71,18.71,0,0,1-.13-1.92c-.53,1.28-1.62,2.24-4,2.24-3.83,0-5.34-3.44-5.34-9.52,0-5.56,1.81-9.23,6-9.23,2,0,2.9.73,3.26,1.43V461Zm-9.23,15.72c0,4.2.76,5.93,2.53,5.93,2.16,0,2.64-1.69,2.64-6.07,0-4.18-.33-5.59-2.46-5.59C783.7,471,782.7,472.31,782.7,476.75Zm17.4-9h2.38v-4.52h4.18v4.52h2.79v3.43h-2.79v9.92c0,1.05.19,1.65,1.49,1.65a4.14,4.14,0,0,0,1-.08v3.08a7.2,7.2,0,0,1-2.55.37c-2.9,0-4.15-1.07-4.15-4.33V471.2H800.1Zm24.33,8.91c0,6.58-2.42,9.56-6.87,9.56s-6.74-2.85-6.74-9.46c0-6.42,2.69-9.32,7-9.32S824.43,470.62,824.43,476.68Zm-9.39.07c0,3.89.65,6,2.64,6s2.53-2.09,2.53-5.95-.67-5.81-2.56-5.81S815,472.87,815,476.75ZM584.9,521c-.11,1.19-.56,7.3-7.13,7.3-6.73,0-7.51-5.92-7.51-12.28,0-7.67,2.25-12.19,7.76-12.19,6.28,0,6.77,5.39,6.87,7.28h-4.2c-.06-.8-.12-3.68-2.73-3.68s-3.31,3.26-3.31,8.68c0,4.46.44,8.66,3.19,8.66,2.53,0,2.73-2.87,2.83-3.77Zm14.43-3.64h-7.6v6.88h8.53l-.52,3.65h-12.2V504.21h12.15v3.71h-8v5.77h7.6ZM616.85,521c-.1,1.19-.56,7.3-7.13,7.3-6.73,0-7.5-5.92-7.5-12.28,0-7.67,2.25-12.19,7.76-12.19,6.28,0,6.76,5.39,6.86,7.28h-4.19c-.07-.8-.13-3.68-2.74-3.68s-3.31,3.26-3.31,8.68c0,4.46.44,8.66,3.19,8.66,2.53,0,2.73-2.87,2.84-3.77Zm21.07,3c0,.89.08,3.13.14,3.94h-3.8a11,11,0,0,1-.17-1.68,4.31,4.31,0,0,1-4.09,2c-3.48,0-4.82-2.78-4.82-5.37,0-3.71,2.55-6,7.14-6,.61,0,1.08,0,1.49,0v-2c0-1.06-.14-2.29-1.95-2.29s-1.94,1.14-2,2.33h-4c.07-2.67,1.32-5.52,6.17-5.52,3.89,0,5.9,1.77,5.9,5.23Zm-4-4a8,8,0,0,0-1.36-.08c-2.38,0-3.25,1.11-3.25,2.59a2.09,2.09,0,0,0,2.08,2.35c2.14,0,2.53-1.6,2.53-4.29Zm7.73-4.54c0-3.72,0-4.68,0-5.64h4a14,14,0,0,1,.13,1.89,4.21,4.21,0,0,1,4-2.23c3,0,4.64,1.87,4.64,5.54v12.92h-4.18v-12c0-1.8-.36-2.9-2.05-2.9s-2.34.89-2.34,3.65v11.22h-4.19ZM670.73,503v19.83c0,2.14,0,4,0,5h-4a16.26,16.26,0,0,1-.13-1.92c-.53,1.28-1.63,2.24-4,2.24-3.82,0-5.34-3.44-5.34-9.52,0-5.56,1.82-9.23,6-9.23,2,0,2.91.73,3.27,1.43V503Zm-9.23,15.72c0,4.2.75,5.93,2.53,5.93,2.16,0,2.64-1.69,2.64-6.07,0-4.18-.33-5.59-2.46-5.59C662.5,513,661.5,514.31,661.5,518.75Zm25-14.54-.42,4.07,3.12-2.44,1.5,2.43L687,510l3.58,1.63-1.4,2.45-3.1-2.44.46,4.08h-2.82l.47-4.05L681,514.05l-1.39-2.48,3.55-1.62-3.52-1.62,1.45-2.49,3.07,2.44-.45-4.07Zm19.21,18.36c0,2.64,0,4.39,0,5.32h-4a17.39,17.39,0,0,1-.17-2,3.94,3.94,0,0,1-4,2.3c-2.58,0-4.53-1.27-4.53-5.43v-13h4.19v12.07c0,1.79.37,2.78,1.89,2.78s2.42-.85,2.42-3.72V509.77h4.18Zm6.56-.16a2.36,2.36,0,0,0,2.35,2.61c1.39,0,2-.73,2-1.91s-.58-2-2.72-2.78c-4.27-1.57-5.33-3.07-5.33-5.69s1.56-5.21,5.88-5.21c4.75,0,5.91,3.27,5.91,5.64h-4c0-.64-.07-2.45-2-2.45a1.58,1.58,0,0,0-1.71,1.7c0,1.15.66,1.68,2.82,2.48,3.83,1.42,5.28,2.88,5.28,5.81,0,3.56-2.22,5.6-6.33,5.6-4.33,0-6.26-2.58-6.28-5.8Zm23.79.16c0,2.64,0,4.39,0,5.32h-4a17.45,17.45,0,0,1-.16-2,4,4,0,0,1-4,2.3c-2.58,0-4.53-1.27-4.53-5.43v-13h4.18v12.07c0,1.79.38,2.78,1.89,2.78s2.42-.85,2.42-3.72V509.77h4.19ZM751.6,524c0,.89.08,3.13.14,3.94h-3.8a11,11,0,0,1-.17-1.68,4.31,4.31,0,0,1-4.09,2c-3.48,0-4.82-2.78-4.82-5.37,0-3.71,2.55-6,7.14-6,.61,0,1.08,0,1.49,0v-2c0-1.06-.14-2.29-2-2.29s-1.94,1.14-2,2.33h-4c.07-2.67,1.32-5.52,6.17-5.52,3.89,0,5.9,1.77,5.9,5.23Zm-4-4a7.84,7.84,0,0,0-1.35-.08c-2.38,0-3.25,1.11-3.25,2.59a2.09,2.09,0,0,0,2.08,2.35c2.14,0,2.52-1.6,2.52-4.29Zm7.74,7.94V503h4.18v24.86Zm7.88,0V503h4.18v24.86Zm10.6-18.12c1.33,5.83,2.6,10.78,2.81,13h0c.4-2.58,1.61-7.87,2.84-13h4.2l-5.21,18.94c-1.56,5.64-3.58,6-6.1,6a9.1,9.1,0,0,1-1.63-.13V531a11.41,11.41,0,0,0,1.3.07c1.6,0,2.15-.8,2.63-3l-5.45-18.36Zm18.57-5.56-.42,4.07,3.13-2.44,1.49,2.43-3.71,1.7,3.58,1.63-1.4,2.45L792,511.61l.45,4.08h-2.82l.48-4.05-3.18,2.41-1.4-2.48L789,510l-3.52-1.62,1.46-2.49,3.06,2.44-.45-4.07Zm-236,53.7c0-3,0-4.85,0-6.14h4a26.82,26.82,0,0,1,.1,3,4.63,4.63,0,0,1,4.75-3.29v4.68c-3-.06-4.62.81-4.62,4.23v9.51h-4.18Zm14.32,4c0,2.3.29,4.86,2.6,4.86a2.37,2.37,0,0,0,2.43-2.39h4a6.1,6.1,0,0,1-6.49,5.85c-5.87,0-6.69-4.94-6.69-9.52,0-5.75,2.18-9.26,6.77-9.26,5.26,0,6.55,3.94,6.55,8.67,0,.63,0,1.48-.07,1.79Zm5-3c0-1.77-.2-4-2.42-4-2.4,0-2.54,2.7-2.55,4Zm5.33-7.13h2.37v-4.52h4.18v4.52h2.8v3.43h-2.8v9.92c0,1,.19,1.65,1.5,1.65a4.18,4.18,0,0,0,1-.08v3.08a7.25,7.25,0,0,1-2.56.37c-2.89,0-4.15-1.07-4.15-4.33V555.2h-2.37ZM604.68,566c0,.89.07,3.13.14,3.94H601a9.83,9.83,0,0,1-.18-1.68,4.31,4.31,0,0,1-4.08,2c-3.49,0-4.83-2.78-4.83-5.37,0-3.71,2.55-6,7.15-6,.61,0,1.07,0,1.48,0v-2c0-1.06-.14-2.29-1.95-2.29s-1.94,1.14-2,2.33h-4c.07-2.67,1.32-5.52,6.17-5.52,3.89,0,5.91,1.77,5.91,5.23Zm-4-4a8,8,0,0,0-1.36-.08c-2.38,0-3.24,1.11-3.24,2.59a2.09,2.09,0,0,0,2.08,2.35c2.13,0,2.52-1.6,2.52-4.29Zm7.73-10.18h4.19v18.12h-4.19Zm0-6.74h4.19v4.13h-4.19Zm7.88,12.38c0-3.72,0-4.68,0-5.64h4a14,14,0,0,1,.13,1.89,4.21,4.21,0,0,1,4-2.23c3,0,4.64,1.87,4.64,5.54v12.92h-4.19v-12c0-1.8-.36-2.9-2-2.9s-2.34.89-2.34,3.65v11.22H616.3Zm19.39,7A2.36,2.36,0,0,0,638,567c1.39,0,2.05-.73,2.05-1.91s-.58-2-2.72-2.78c-4.27-1.57-5.32-3.07-5.32-5.69s1.55-5.21,5.87-5.21c4.76,0,5.91,3.27,5.91,5.64h-4c0-.64-.07-2.45-2-2.45a1.58,1.58,0,0,0-1.71,1.7c0,1.15.66,1.68,2.83,2.48,3.82,1.42,5.28,2.88,5.28,5.81,0,3.56-2.23,5.6-6.34,5.6-4.33,0-6.26-2.58-6.28-5.8Zm15.74-12.64h2.37v-4.52H658v4.52h2.8v3.43H658v9.92c0,1,.19,1.65,1.5,1.65a4.18,4.18,0,0,0,1-.08v3.08a7.25,7.25,0,0,1-2.56.37c-2.9,0-4.15-1.07-4.15-4.33V555.2h-2.37ZM667.18,545v8.49a4.21,4.21,0,0,1,4.07-2.09c3,0,4.51,2,4.51,5.66v12.8h-4.19v-12c0-1.78-.31-2.91-2.09-2.91s-2.3,1.4-2.3,3.8v11.07H663V545Zm15.6,16.89c0,2.3.28,4.86,2.6,4.86a2.36,2.36,0,0,0,2.42-2.39h4a6.11,6.11,0,0,1-6.49,5.85c-5.88,0-6.7-4.94-6.7-9.52,0-5.75,2.19-9.26,6.78-9.26,5.26,0,6.55,3.94,6.55,8.67,0,.63,0,1.48-.07,1.79Zm5-3c0-1.77-.2-4-2.42-4-2.4,0-2.55,2.7-2.55,4Zm17.64,9.6v7.93h-4.18V557c0-2.44,0-4.09,0-5.24h4a15,15,0,0,1,.13,2,4,4,0,0,1,4.07-2.3c3.36,0,5.29,2.89,5.29,9.07,0,7.09-2.35,9.71-5.85,9.71A3.57,3.57,0,0,1,705.46,568.5Zm5.08-7.78c0-4.33-.9-5.7-2.68-5.7-2.1,0-2.53,2-2.53,5.54,0,4.15.22,6.12,2.5,6.12C709.66,566.68,710.54,564.72,710.54,560.72Zm7.09-2.81c0-3,0-4.85,0-6.14h4a25.39,25.39,0,0,1,.11,3,4.61,4.61,0,0,1,4.74-3.29v4.68c-3-.06-4.62.81-4.62,4.23v9.51h-4.18Zm23.78,2.77c0,6.58-2.41,9.56-6.86,9.56s-6.75-2.85-6.75-9.46c0-6.42,2.7-9.32,7-9.32S741.41,554.62,741.41,560.68Zm-9.39.07c0,3.89.65,6,2.65,6s2.52-2.09,2.52-6-.66-5.81-2.55-5.81S732,556.87,732,560.75Zm16.42,7.75v7.93h-4.18V557c0-2.44,0-4.09,0-5.24h4a15,15,0,0,1,.13,2,4,4,0,0,1,4.06-2.3c3.36,0,5.3,2.89,5.3,9.07,0,7.09-2.35,9.71-5.85,9.71A3.56,3.56,0,0,1,748.44,568.5Zm5.08-7.78c0-4.33-.91-5.7-2.68-5.7-2.1,0-2.53,2-2.53,5.54,0,4.15.22,6.12,2.5,6.12C752.64,566.68,753.52,564.72,753.52,560.72Zm10.56,1.2c0,2.3.28,4.86,2.6,4.86a2.37,2.37,0,0,0,2.43-2.39h4a6.1,6.1,0,0,1-6.49,5.85c-5.87,0-6.69-4.94-6.69-9.52,0-5.75,2.18-9.26,6.77-9.26,5.26,0,6.55,3.94,6.55,8.67,0,.63,0,1.48-.07,1.79Zm5-3c0-1.77-.2-4-2.42-4-2.4,0-2.54,2.7-2.55,4Zm7-1c0-3,0-4.85,0-6.14h4a26.82,26.82,0,0,1,.1,3,4.63,4.63,0,0,1,4.75-3.29v4.68c-3-.06-4.62.81-4.62,4.23v9.51h-4.18Zm10.2-6.14h2.37v-4.52h4.18v4.52h2.8v3.43h-2.8v9.92c0,1,.19,1.65,1.5,1.65a4.18,4.18,0,0,0,1-.08v3.08a7.25,7.25,0,0,1-2.56.37c-2.89,0-4.15-1.07-4.15-4.33V555.2h-2.37Zm15.27,0c1.33,5.83,2.6,10.78,2.81,13h0c.41-2.58,1.61-7.87,2.84-13h4.2l-5.21,18.94c-1.55,5.64-3.58,6-6.1,6a9.1,9.1,0,0,1-1.63-.13V573a11.55,11.55,0,0,0,1.3.07c1.6,0,2.15-.8,2.63-3L797,551.77Zm-246.88,42c1.31,8,1.81,11.27,2.07,13.63h.06c.29-2.43,1.06-5.11,2.69-13.63h3.76c1.39,6.8,2.36,11.46,2.58,13.59h0c.24-1.9.6-4.46,2.2-13.59h4.17l-4.43,18.12H563.6c-1.1-5.52-2-9.79-2.36-12.4h0c-.32,2.57-1.42,7-2.61,12.4h-4.31l-4.07-18.12ZM578.53,587v8.49a4.21,4.21,0,0,1,4.07-2.09c3,0,4.51,2,4.51,5.66v12.8h-4.19v-12c0-1.78-.32-2.91-2.09-2.91s-2.3,1.4-2.3,3.8v11.07h-4.19V587Zm15.6,16.89c0,2.3.28,4.86,2.6,4.86a2.36,2.36,0,0,0,2.42-2.39h4a6.09,6.09,0,0,1-6.48,5.85c-5.88,0-6.7-4.94-6.7-9.52,0-5.75,2.18-9.26,6.78-9.26,5.25,0,6.54,3.94,6.54,8.67,0,.63,0,1.48-.06,1.79Zm5-3c0-1.77-.21-4-2.43-4-2.39,0-2.54,2.7-2.55,4Zm7-1.49c0-3.72,0-4.68,0-5.64h4a15.86,15.86,0,0,1,.13,1.89,4.21,4.21,0,0,1,4-2.23c3,0,4.64,1.87,4.64,5.54v12.92h-4.19v-12c0-1.8-.36-2.9-2-2.9s-2.34.89-2.34,3.65v11.22h-4.19ZM640.94,608c0,.89.07,3.13.14,3.94h-3.8a9.83,9.83,0,0,1-.18-1.68,4.31,4.31,0,0,1-4.08,2c-3.49,0-4.83-2.78-4.83-5.37,0-3.71,2.55-6,7.14-6,.62,0,1.08,0,1.49,0v-2c0-1.06-.14-2.29-2-2.29s-1.94,1.14-2,2.33h-4c.07-2.67,1.32-5.52,6.17-5.52,3.89,0,5.91,1.77,5.91,5.23Zm-4-4a8,8,0,0,0-1.36-.08c-2.38,0-3.24,1.11-3.24,2.59a2.09,2.09,0,0,0,2.08,2.35c2.13,0,2.52-1.6,2.52-4.29Zm20.4,6.48c0,5.14-1.49,8.28-7,8.28-5.15,0-6.25-3-6.35-5.24h4.16c.07.55.26,1.84,2.35,1.84,2.27,0,2.69-1.71,2.69-4.88v-.82a3.9,3.9,0,0,1-3.87,2.16c-3.86,0-5.5-3.39-5.5-8.73,0-6.2,2.24-9.58,5.88-9.58,2.39,0,3.21,1.13,3.49,1.92,0-.55.1-1.17.17-1.61h4c0,1.12-.07,2.93-.07,5.46Zm-9.2-7.51c0,3.73.9,5.32,2.59,5.32,2.11,0,2.56-2,2.56-5.89,0-3.25-.16-5.33-2.43-5.33C649.09,597,648.12,598.84,648.12,602.92Zm16.25,1c0,2.3.28,4.86,2.6,4.86a2.37,2.37,0,0,0,2.43-2.39h4a6.11,6.11,0,0,1-6.49,5.85c-5.87,0-6.69-4.94-6.69-9.52,0-5.75,2.18-9.26,6.77-9.26,5.26,0,6.55,3.94,6.55,8.67,0,.63,0,1.48-.07,1.79Zm5-3c0-1.77-.2-4-2.42-4-2.4,0-2.54,2.7-2.55,4Zm7-1.49c0-3.72,0-4.68,0-5.64h4a14,14,0,0,1,.13,1.89,4.21,4.21,0,0,1,4-2.23c3,0,4.63,1.87,4.63,5.54v12.92h-4.18v-12c0-1.8-.36-2.9-2.05-2.9s-2.34.89-2.34,3.65v11.22h-4.19Zm14.51-5.64h2.38v-4.52h4.17v4.52h2.8v3.43h-2.8v9.92c0,1,.2,1.65,1.5,1.65a4.18,4.18,0,0,0,1-.08v3.08a7.22,7.22,0,0,1-2.56.37c-2.89,0-4.14-1.07-4.14-4.33V597.2h-2.38Zm30,14.18c0,.89.07,3.13.14,3.94h-3.8a9.83,9.83,0,0,1-.18-1.68,4.31,4.31,0,0,1-4.08,2c-3.49,0-4.83-2.78-4.83-5.37,0-3.71,2.55-6,7.15-6,.61,0,1.07,0,1.48,0v-2c0-1.06-.13-2.29-2-2.29s-1.94,1.14-2,2.33h-4c.07-2.67,1.32-5.52,6.17-5.52,3.89,0,5.91,1.77,5.91,5.23Zm-4-4a7.9,7.9,0,0,0-1.35-.08c-2.39,0-3.25,1.11-3.25,2.59a2.09,2.09,0,0,0,2.08,2.35c2.13,0,2.52-1.6,2.52-4.29Zm7.74-4.54c0-3.72,0-4.68,0-5.64h4a13.83,13.83,0,0,1,.14,1.89,4.18,4.18,0,0,1,4-2.23c3,0,4.64,1.87,4.64,5.54v12.92h-4.19v-12c0-1.8-.36-2.9-2-2.9s-2.35.89-2.35,3.65v11.22h-4.18Zm19.39,7A2.35,2.35,0,0,0,746.3,609a1.78,1.78,0,0,0,2-1.91c0-1.28-.57-2-2.72-2.78-4.27-1.57-5.32-3.07-5.32-5.69s1.55-5.21,5.87-5.21c4.76,0,5.91,3.27,5.91,5.64h-4c0-.64-.07-2.45-2-2.45a1.57,1.57,0,0,0-1.7,1.7c0,1.15.65,1.68,2.82,2.48,3.83,1.42,5.28,2.88,5.28,5.81,0,3.56-2.23,5.6-6.34,5.6-4.33,0-6.26-2.58-6.28-5.8Zm13.89-12.64c1.31,8,1.81,11.27,2.07,13.63H760c.3-2.43,1.06-5.11,2.69-13.63h3.77c1.38,6.8,2.35,11.46,2.57,13.59h0c.25-1.9.6-4.46,2.2-13.59h4.17L771,611.89h-4.21c-1.1-5.52-2-9.79-2.36-12.4h0c-.32,2.57-1.42,7-2.61,12.4h-4.31l-4.06-18.12Zm22.76,10.15c0,2.3.29,4.86,2.6,4.86a2.37,2.37,0,0,0,2.43-2.39h4a6.1,6.1,0,0,1-6.49,5.85c-5.87,0-6.69-4.94-6.69-9.52,0-5.75,2.18-9.26,6.77-9.26,5.26,0,6.55,3.94,6.55,8.67,0,.63,0,1.48-.07,1.79Zm5-3c0-1.77-.21-4-2.43-4-2.4,0-2.54,2.7-2.55,4Zm7-1c0-3,0-4.85,0-6.14h4a26.82,26.82,0,0,1,.1,3,4.63,4.63,0,0,1,4.75-3.29v4.68c-3-.06-4.62.81-4.62,4.23v9.51H792.6Zm14.2,6.5a2.37,2.37,0,0,0,2.36,2.61,1.78,1.78,0,0,0,2-1.91c0-1.28-.58-2-2.72-2.78-4.27-1.57-5.32-3.07-5.32-5.69s1.55-5.21,5.87-5.21c4.76,0,5.91,3.27,5.91,5.64h-4c0-.64-.07-2.45-2-2.45a1.58,1.58,0,0,0-1.71,1.7c0,1.15.66,1.68,2.83,2.48,3.83,1.42,5.28,2.88,5.28,5.81,0,3.56-2.23,5.6-6.34,5.6-4.33,0-6.26-2.58-6.28-5.8Zm25.41,54.28H533.9a39.39,39.39,0,0,1-39.35-39.35V448a39.39,39.39,0,0,1,39.35-39.35H832.21A39.39,39.39,0,0,1,871.56,448V621.34A39.39,39.39,0,0,1,832.21,660.69Zm-298.31-235A22.37,22.37,0,0,0,511.55,448V621.34a22.38,22.38,0,0,0,22.35,22.35H832.21a22.37,22.37,0,0,0,22.35-22.35V448a22.37,22.37,0,0,0-22.35-22.35ZM83.72,496.78h-12v-17h12Zm-24,0h-12v-17h12Zm-24,0h-6.3v-17h6.3Zm884.16-.22h-17v-12h17Zm0-24h-17v-12h17Zm0-24h-17v-12h17Zm0-24h-17v-12h17Zm0-24h-17v-12h17Zm0-24h-17v-12h17Zm0-24h-17v-12h17Zm0-24h-17v-12h17Zm0-24h-17v-12h17Zm0-24h-17v-12h17Zm0-24h-17v-12h17Zm0-24h-17v-12h17Zm0-24h-17v-12h17Zm0-24h-17v-12h17Zm0-24h-17v-7.7h17Zm-2.52,131.62h-12v-17h12Zm-24,0h-12v-17h12Zm-24,0h-6.3v-17h6.3Zm48,204.6h-12v-17h12Zm-24,0h-12v-17h12Zm-24,0h-6.3v-17h6.3Z"/></g></g></svg>