<svg xmlns="http://www.w3.org/2000/svg" xmlns:xlink="http://www.w3.org/1999/xlink" viewBox="0 0 784.1 431.18"><defs><style>.cls-1{fill:url(#linear-gradient);}</style><linearGradient id="linear-gradient" y1="215.59" x2="784.1" y2="215.59" gradientUnits="userSpaceOnUse"><stop offset="0" stop-color="#5e0094"/><stop offset="1" stop-color="#4a85ff"/></linearGradient></defs><g id="Layer_2" data-name="Layer 2"><g id="Layer_1-2" data-name="Layer 1"><path class="cls-1" d="M100.42,92.68H97.19a18.49,18.49,0,0,1-.2-2c-1.06,1.87-2.71,2.42-4.71,2.42-4.94,0-6.73-4.41-6.73-12.1,0-8.65,2.91-12.37,8-12.37,6.42,0,6.77,5.5,6.84,6.91H96.2c-.07-1-.27-3.32-2.78-3.32-2.73,0-3.49,3.64-3.49,8.77,0,5.52.65,8.55,3.35,8.55,2.25,0,2.93-1.72,2.93-5.21V83H93V79.37h7.4Zm16.07-5.32c0,2.64,0,4.39,0,5.32h-4a15.53,15.53,0,0,1-.17-2,4,4,0,0,1-4,2.3c-2.58,0-4.53-1.27-4.53-5.43v-13H108V86.62c0,1.79.38,2.79,1.89,2.79s2.42-.85,2.42-3.73V74.56h4.19Zm7-2.65c0,2.3.28,4.86,2.6,4.86a2.36,2.36,0,0,0,2.42-2.39h4A6.11,6.11,0,0,1,126,93c-5.88,0-6.69-4.94-6.69-9.52,0-5.75,2.18-9.26,6.77-9.26,5.26,0,6.55,3.94,6.55,8.67,0,.63,0,1.48-.07,1.79Zm5-3c0-1.76-.2-4-2.42-4-2.4,0-2.54,2.7-2.55,4Zm10.07,5.52a2.35,2.35,0,0,0,2.35,2.61,1.78,1.78,0,0,0,2-1.91c0-1.28-.57-2-2.71-2.78-4.28-1.57-5.33-3.07-5.33-5.7,0-2.46,1.55-5.2,5.87-5.2,4.76,0,5.91,3.27,5.92,5.64h-4c0-.64-.07-2.45-2-2.45a1.57,1.57,0,0,0-1.7,1.7c0,1.15.65,1.68,2.82,2.48,3.83,1.42,5.28,2.87,5.28,5.81,0,3.56-2.23,5.6-6.34,5.6-4.33,0-6.26-2.58-6.28-5.8Zm9.47-12.64h2.37V70h4.18v4.52h2.8V78h-2.8v9.92c0,1,.19,1.65,1.49,1.65a4.68,4.68,0,0,0,1-.08v3.08a7.16,7.16,0,0,1-2.55.37c-2.9,0-4.15-1.07-4.15-4.33V78h-2.37Zm18.07,0h4.18V92.68h-4.18Zm0-6.74h4.18V72h-4.18ZM176.84,87.2a2.36,2.36,0,0,0,2.35,2.61c1.39,0,2.05-.73,2.05-1.91s-.58-2-2.72-2.78c-4.27-1.57-5.33-3.07-5.33-5.7,0-2.46,1.56-5.2,5.88-5.2,4.75,0,5.9,3.27,5.91,5.64h-4c0-.64-.08-2.45-2-2.45a1.58,1.58,0,0,0-1.71,1.7c0,1.15.66,1.68,2.82,2.48,3.83,1.42,5.28,2.87,5.28,5.81,0,3.56-2.23,5.6-6.34,5.6-4.33,0-6.26-2.58-6.27-5.8Zm30.38,4c0,5.14-1.49,8.28-7,8.28-5.15,0-6.25-3-6.35-5.24h4.15c.07.55.27,1.84,2.36,1.84,2.26,0,2.69-1.71,2.69-4.88V90.4a3.92,3.92,0,0,1-3.87,2.16c-3.86,0-5.5-3.39-5.5-8.73,0-6.2,2.23-9.58,5.88-9.58,2.39,0,3.2,1.13,3.49,1.92,0-.55.1-1.17.17-1.61h4c0,1.12-.07,2.93-.07,5.46ZM198,83.71c0,3.73.9,5.32,2.6,5.32,2.1,0,2.56-2,2.56-5.89,0-3.25-.17-5.33-2.44-5.33C199,77.81,198,79.63,198,83.71Zm12.92-3c0-3,0-4.85,0-6.14h4c0,.32.1,1.07.1,3a4.61,4.61,0,0,1,4.75-3.29v4.68c-3-.06-4.63.81-4.63,4.23v9.51h-4.18Zm14.33,4c0,2.3.28,4.86,2.6,4.86a2.36,2.36,0,0,0,2.42-2.39h4A6.09,6.09,0,0,1,227.79,93c-5.87,0-6.69-4.94-6.69-9.52,0-5.75,2.18-9.26,6.78-9.26,5.25,0,6.54,3.94,6.54,8.67,0,.63,0,1.48-.06,1.79Zm5-3c0-1.76-.21-4-2.43-4-2.39,0-2.54,2.7-2.55,4Zm10.53,3c0,2.3.28,4.86,2.6,4.86a2.37,2.37,0,0,0,2.43-2.39h4A6.11,6.11,0,0,1,243.37,93c-5.87,0-6.69-4.94-6.69-9.52,0-5.75,2.18-9.26,6.77-9.26,5.26,0,6.55,3.94,6.55,8.67,0,.63,0,1.48-.07,1.79Zm5-3c0-1.76-.2-4-2.42-4-2.4,0-2.54,2.7-2.55,4Zm5.33-7.12h2.37V70h4.18v4.52h2.8V78h-2.8v9.92c0,1,.19,1.65,1.5,1.65a4.73,4.73,0,0,0,1-.08v3.08a7.25,7.25,0,0,1-2.56.37c-2.9,0-4.15-1.07-4.15-4.33V78H251.2Zm14.87,10.15c0,2.3.28,4.86,2.6,4.86a2.36,2.36,0,0,0,2.42-2.39h4A6.1,6.1,0,0,1,268.6,93c-5.87,0-6.69-4.94-6.69-9.52,0-5.75,2.18-9.26,6.78-9.26,5.25,0,6.54,3.94,6.54,8.67,0,.63,0,1.48-.06,1.79Zm5-3c0-1.76-.21-4-2.43-4-2.4,0-2.54,2.7-2.55,4Zm19.83-13.86V87.64c0,2.15,0,4,0,5h-4a16.26,16.26,0,0,1-.13-1.92c-.53,1.28-1.63,2.24-4,2.24-3.82,0-5.34-3.44-5.34-9.53,0-5.55,1.82-9.22,6-9.22,2,0,2.91.73,3.26,1.43V67.82Zm-9.23,15.72c0,4.2.75,5.93,2.52,5.93,2.17,0,2.65-1.7,2.65-6.07,0-4.18-.34-5.59-2.47-5.59C282.71,77.81,281.71,79.09,281.71,83.54Zm-176.14,33h2.37V112h4.18v4.52h2.8V120h-2.8v9.92c0,1.05.19,1.65,1.49,1.65a4.68,4.68,0,0,0,1-.08v3.08a7.16,7.16,0,0,1-2.55.37c-2.9,0-4.15-1.07-4.15-4.33V120h-2.37Zm15.75-6.74v8.48a4.22,4.22,0,0,1,4.07-2.08c3,0,4.51,2,4.51,5.66v12.8h-4.19v-12c0-1.78-.32-2.91-2.09-2.91s-2.3,1.4-2.3,3.8v11.07h-4.18V109.82Zm12.26,12.88c0-3,0-4.85,0-6.14h4c0,.32.1,1.07.1,3a4.61,4.61,0,0,1,4.75-3.29v4.68c-3-.06-4.63.81-4.63,4.23v9.51h-4.18Zm23.79,2.77c0,6.57-2.42,9.56-6.87,9.56s-6.75-2.85-6.75-9.46c0-6.42,2.7-9.32,7-9.32S157.37,119.4,157.37,125.47Zm-9.4.07c0,3.89.65,6,2.65,6s2.53-2.09,2.53-5.95-.67-5.82-2.56-5.82S148,121.66,148,125.54Zm24.87,3.82c0,2.64,0,4.39,0,5.32h-4a17.64,17.64,0,0,1-.16-2,4,4,0,0,1-4,2.3c-2.58,0-4.53-1.27-4.53-5.43v-13h4.19v12.06c0,1.79.37,2.79,1.89,2.79s2.42-.85,2.42-3.73V116.56h4.19Zm16.32,3.86c0,5.14-1.49,8.28-7,8.28-5.16,0-6.25-3-6.36-5.24H180c.07.55.27,1.84,2.36,1.84,2.26,0,2.69-1.71,2.69-4.88v-.82a3.92,3.92,0,0,1-3.87,2.16c-3.86,0-5.5-3.39-5.5-8.73,0-6.2,2.23-9.58,5.88-9.58,2.38,0,3.2,1.13,3.49,1.92,0-.55.1-1.17.17-1.61h4c0,1.12-.07,2.93-.07,5.46ZM180,125.71c0,3.73.9,5.32,2.6,5.32,2.1,0,2.55-2,2.55-5.89,0-3.25-.16-5.33-2.43-5.33C180.92,119.81,180,121.63,180,125.71Zm17.11-15.89v8.48a4.22,4.22,0,0,1,4.07-2.08c3,0,4.5,2,4.5,5.66v12.8h-4.18v-12c0-1.78-.32-2.91-2.09-2.91s-2.3,1.4-2.3,3.8v11.07h-4.19V109.82Zm22.49,18.9-1.17,6h-4.25L219.61,111h5.51l5.54,23.68h-4.45l-1.18-6Zm4.73-3.68c-.89-4.53-1.59-7.85-2-10.11h-.1c-.29,2.18-1,5.74-1.91,10.11Zm12.64-14v23.68h-4.25V111ZM245,134.68,239.09,111h4.57l2.17,10c.69,3.16,1.34,6.67,1.63,9.14h.07c.28-2.41,1.15-6,1.81-9.05l2.1-10.13h4.44l-6,23.68Zm15.1-6-1.18,6h-4.24L260.14,111h5.51l5.54,23.68h-4.45l-1.18-6Zm4.73-3.68c-.89-4.53-1.59-7.85-2-10.11h-.1c-.29,2.18-1,5.74-1.91,10.11ZM485.52,92.68h-3.23a18.49,18.49,0,0,1-.2-2c-1.06,1.87-2.7,2.42-4.7,2.42-4.95,0-6.74-4.41-6.74-12.1,0-8.65,2.92-12.37,8-12.37,6.42,0,6.78,5.5,6.85,6.91h-4.19c-.07-1-.28-3.32-2.78-3.32-2.74,0-3.5,3.64-3.5,8.77,0,5.52.65,8.55,3.35,8.55,2.25,0,2.93-1.72,2.93-5.21V83h-3.19V79.37h7.4Zm16.07-5.32c0,2.64,0,4.39,0,5.32h-4a17.59,17.59,0,0,1-.17-2,3.94,3.94,0,0,1-4,2.3c-2.58,0-4.53-1.27-4.53-5.43v-13h4.19V86.62c0,1.79.37,2.79,1.89,2.79s2.42-.85,2.42-3.73V74.56h4.18Zm7-2.65c0,2.3.28,4.86,2.6,4.86a2.37,2.37,0,0,0,2.43-2.39h4A6.1,6.1,0,0,1,511.12,93c-5.87,0-6.69-4.94-6.69-9.52,0-5.75,2.18-9.26,6.77-9.26,5.26,0,6.55,3.94,6.55,8.67,0,.63,0,1.48-.07,1.79Zm5-3c0-1.76-.2-4-2.42-4-2.4,0-2.54,2.7-2.55,4Zm10.07,5.52A2.35,2.35,0,0,0,526,89.81a1.77,1.77,0,0,0,2-1.91c0-1.28-.57-2-2.71-2.78-4.27-1.57-5.33-3.07-5.33-5.7,0-2.46,1.56-5.2,5.88-5.2,4.75,0,5.9,3.27,5.91,5.64h-4c0-.64-.08-2.45-2-2.45a1.58,1.58,0,0,0-1.71,1.7c0,1.15.66,1.68,2.82,2.48,3.83,1.42,5.28,2.87,5.28,5.81,0,3.56-2.23,5.6-6.34,5.6-4.33,0-6.26-2.58-6.27-5.8Zm9.47-12.64h2.37V70h4.18v4.52h2.8V78h-2.8v9.92c0,1,.19,1.65,1.5,1.65a4.73,4.73,0,0,0,1-.08v3.08a7.25,7.25,0,0,1-2.56.37c-2.89,0-4.15-1.07-4.15-4.33V78h-2.37Zm18.07,0h4.19V92.68h-4.19Zm0-6.74h4.19V72h-4.19ZM561.94,87.2a2.36,2.36,0,0,0,2.35,2.61c1.39,0,2.05-.73,2.05-1.91s-.58-2-2.72-2.78c-4.27-1.57-5.33-3.07-5.33-5.7,0-2.46,1.56-5.2,5.88-5.2,4.76,0,5.91,3.27,5.91,5.64h-4c0-.64-.07-2.45-2-2.45a1.58,1.58,0,0,0-1.71,1.7c0,1.15.66,1.68,2.83,2.48,3.82,1.42,5.28,2.87,5.28,5.81,0,3.56-2.23,5.6-6.34,5.6-4.33,0-6.26-2.58-6.28-5.8ZM579.68,80c0-3.58,0-4.65,0-5.44h4a13.36,13.36,0,0,1,.13,1.85,4.32,4.32,0,0,1,4-2.16,3.51,3.51,0,0,1,3.68,2.46,4.78,4.78,0,0,1,4.44-2.46c2.58,0,4.59,1.31,4.59,5.44v13h-4.12V80.31c0-1.45-.47-2.5-1.92-2.5-1.7,0-2.24,1.28-2.24,3.52V92.68H588V80.38c0-1.66-.56-2.54-1.91-2.54-1.67,0-2.29,1.16-2.29,3.6V92.68h-4.15Zm36.12,8.74c0,.89.07,3.13.14,3.94h-3.8A11,11,0,0,1,612,91a4.31,4.31,0,0,1-4.08,2c-3.48,0-4.82-2.78-4.82-5.38,0-3.7,2.54-6,7.14-6,.61,0,1.07,0,1.48,0v-2c0-1.06-.13-2.29-1.95-2.29s-1.93,1.14-2,2.33h-4c.06-2.67,1.32-5.52,6.16-5.52,3.89,0,5.91,1.77,5.91,5.23Zm-4-4a7.84,7.84,0,0,0-1.35-.08c-2.38,0-3.25,1.11-3.25,2.59a2.09,2.09,0,0,0,2.08,2.35c2.14,0,2.52-1.6,2.52-4.29Zm5.76-10.18h2.38V70h4.17v4.52h2.8V78h-2.8v9.92c0,1,.2,1.65,1.5,1.65a4.73,4.73,0,0,0,1-.08v3.08a7.22,7.22,0,0,1-2.56.37c-2.89,0-4.14-1.07-4.14-4.33V78h-2.38Zm23.58,12C641,88,640.72,93,634.74,93c-5.2,0-6.48-4.16-6.48-9.53,0-4.8,1.58-9.25,6.69-9.25,5.95,0,6.13,5.13,6.17,6.23h-4.23c0-.7-.1-2.77-2-2.77s-2.44,2.06-2.44,5.82.57,6,2.39,6,2.1-2,2.21-3Zm6.74-18.72V76.3a4.2,4.2,0,0,1,4.07-2.08c3,0,4.5,2,4.5,5.66v12.8h-4.18v-12c0-1.78-.32-2.91-2.09-2.91s-2.3,1.4-2.3,3.8V92.68h-4.19V67.82Zm15.6,16.89c0,2.3.28,4.86,2.59,4.86a2.37,2.37,0,0,0,2.43-2.39h4A6.1,6.1,0,0,1,666,93c-5.87,0-6.69-4.94-6.69-9.52,0-5.75,2.18-9.26,6.78-9.26,5.25,0,6.54,3.94,6.54,8.67,0,.63,0,1.48-.07,1.79Zm5-3c0-1.76-.21-4-2.43-4-2.4,0-2.54,2.7-2.55,4Zm19.83-13.86V87.64c0,2.15,0,4,0,5h-4a16.26,16.26,0,0,1-.13-1.92c-.53,1.28-1.63,2.24-4,2.24-3.82,0-5.34-3.44-5.34-9.53,0-5.55,1.82-9.22,6-9.22,2,0,2.91.73,3.26,1.43V67.82Zm-9.24,15.72c0,4.2.76,5.93,2.53,5.93,2.17,0,2.65-1.7,2.65-6.07,0-4.18-.34-5.59-2.47-5.59C680.1,77.81,679.09,79.09,679.09,83.54Zm17.41-9h2.38V70h4.17v4.52h2.8V78h-2.8v9.92c0,1,.19,1.65,1.5,1.65a4.73,4.73,0,0,0,1-.08v3.08a7.22,7.22,0,0,1-2.56.37c-2.89,0-4.14-1.07-4.14-4.33V78H696.5Zm24.33,8.91C720.83,90,718.41,93,714,93s-6.75-2.85-6.75-9.46c0-6.42,2.7-9.32,7-9.32S720.83,77.4,720.83,83.47Zm-9.4.07c0,3.89.65,6,2.65,6s2.53-2.09,2.53-6-.67-5.82-2.56-5.82S711.43,79.66,711.43,83.54Zm-207.74,45c-.07,1.46-.4,6.46-6.38,6.46-5.19,0-6.48-4.16-6.48-9.53,0-4.8,1.59-9.25,6.7-9.25,5.94,0,6.13,5.13,6.16,6.23h-4.22c0-.7-.11-2.77-2-2.77s-2.45,2.06-2.45,5.82.58,6,2.39,6,2.11-2,2.22-3Zm15.66-3.07c0,6.57-2.41,9.56-6.86,9.56s-6.75-2.85-6.75-9.46c0-6.42,2.7-9.32,7-9.32S519.35,119.4,519.35,125.47Zm-9.39.07c0,3.89.65,6,2.65,6s2.52-2.09,2.52-5.95-.66-5.82-2.55-5.82S510,121.66,510,125.54Zm12.24-2.84c0-3,0-4.85,0-6.14h4a26.82,26.82,0,0,1,.1,3,4.61,4.61,0,0,1,4.75-3.29v4.68c-3-.06-4.63.81-4.63,4.23v9.51H522.2Zm10.85,0c0-3,0-4.85,0-6.14h4a26.82,26.82,0,0,1,.1,3,4.61,4.61,0,0,1,4.75-3.29v4.68c-3-.06-4.63.81-4.63,4.23v9.51h-4.18Zm14.33,4c0,2.3.28,4.86,2.6,4.86a2.36,2.36,0,0,0,2.42-2.39h4a6.11,6.11,0,0,1-6.49,5.85c-5.88,0-6.7-4.94-6.7-9.52,0-5.75,2.19-9.26,6.78-9.26,5.26,0,6.54,3.94,6.54,8.67,0,.63,0,1.48-.06,1.79Zm5-3c0-1.76-.21-4-2.42-4-2.4,0-2.55,2.7-2.55,4Zm19.24,4.86c-.07,1.46-.4,6.46-6.38,6.46-5.19,0-6.48-4.16-6.48-9.53,0-4.8,1.58-9.25,6.69-9.25,6,0,6.14,5.13,6.17,6.23h-4.22c0-.7-.11-2.77-2-2.77S563,121.74,563,125.5s.58,6,2.39,6c2,0,2.1-2,2.21-3Zm1.34-12h2.38V112h4.18v4.52h2.79V120h-2.79v9.92c0,1.05.19,1.65,1.49,1.65a4.68,4.68,0,0,0,1-.08v3.08a7.16,7.16,0,0,1-2.55.37c-2.9,0-4.15-1.07-4.15-4.33V120H573Zm22.26,16.73v7.93h-4.18V121.8c0-2.44,0-4.09,0-5.24h4a17,17,0,0,1,.13,2,4,4,0,0,1,4.06-2.3c3.36,0,5.3,2.89,5.3,9.07,0,7.09-2.35,9.71-5.85,9.71A3.56,3.56,0,0,1,595.26,133.29Zm5.08-7.78c0-4.33-.91-5.7-2.68-5.7-2.1,0-2.53,2-2.53,5.54,0,4.15.22,6.12,2.5,6.12C599.46,131.47,600.34,129.51,600.34,125.51Zm7.08-2.81c0-3,0-4.85,0-6.14h4a26.82,26.82,0,0,1,.1,3,4.62,4.62,0,0,1,4.75-3.29v4.68c-3-.06-4.62.81-4.62,4.23v9.51h-4.19Zm23.79,2.77c0,6.57-2.41,9.56-6.86,9.56s-6.75-2.85-6.75-9.46c0-6.42,2.69-9.32,7-9.32S631.21,119.4,631.21,125.47Zm-9.39.07c0,3.89.65,6,2.64,6s2.53-2.09,2.53-5.95-.67-5.82-2.56-5.82S621.82,121.66,621.82,125.54Zm16.42,7.75v7.93h-4.18V121.8c0-2.44,0-4.09,0-5.24h4a17,17,0,0,1,.13,2,4,4,0,0,1,4.06-2.3c3.36,0,5.3,2.89,5.3,9.07,0,7.09-2.35,9.71-5.85,9.71A3.56,3.56,0,0,1,638.24,133.29Zm5.08-7.78c0-4.33-.91-5.7-2.68-5.7-2.11,0-2.53,2-2.53,5.54,0,4.15.22,6.12,2.5,6.12C642.44,131.47,643.32,129.51,643.32,125.51Zm10.56,1.2c0,2.3.28,4.86,2.6,4.86a2.38,2.38,0,0,0,2.43-2.39h4a6.11,6.11,0,0,1-6.49,5.85c-5.88,0-6.69-4.94-6.69-9.52,0-5.75,2.18-9.26,6.77-9.26,5.26,0,6.55,3.94,6.55,8.67,0,.63,0,1.48-.07,1.79Zm5-3c0-1.76-.2-4-2.42-4-2.4,0-2.54,2.7-2.55,4Zm7-1c0-3,0-4.85,0-6.14h4a26.82,26.82,0,0,1,.1,3,4.61,4.61,0,0,1,4.75-3.29v4.68c-3-.06-4.62.81-4.62,4.23v9.51h-4.19Zm10.21-6.14h2.37V112h4.18v4.52h2.8V120h-2.8v9.92c0,1.05.19,1.65,1.49,1.65a4.68,4.68,0,0,0,1-.08v3.08a7.16,7.16,0,0,1-2.55.37c-2.9,0-4.15-1.07-4.15-4.33V120h-2.37Zm15.27,0c1.33,5.83,2.6,10.78,2.81,12.95h0c.4-2.57,1.61-7.86,2.84-12.95h4.2L696,135.5c-1.55,5.64-3.57,6-6.09,6a9.1,9.1,0,0,1-1.63-.13v-3.53c.24,0,.88.07,1.3.07,1.6,0,2.15-.8,2.63-3l-5.45-18.36ZM337.66,202.5H39.35A39.39,39.39,0,0,1,0,163.15V39.35A39.39,39.39,0,0,1,39.35,0H337.66A39.39,39.39,0,0,1,377,39.35v123.8A39.39,39.39,0,0,1,337.66,202.5ZM39.35,17A22.38,22.38,0,0,0,17,39.35v123.8A22.38,22.38,0,0,0,39.35,185.5H337.66A22.37,22.37,0,0,0,360,163.15V39.35A22.37,22.37,0,0,0,337.66,17Zm705.4,185.5H446.43a39.4,39.4,0,0,1-39.35-39.35V39.35A39.4,39.4,0,0,1,446.43,0H744.75A39.4,39.4,0,0,1,784.1,39.35v123.8A39.4,39.4,0,0,1,744.75,202.5ZM446.43,17a22.38,22.38,0,0,0-22.35,22.35v123.8a22.38,22.38,0,0,0,22.35,22.35H744.75a22.38,22.38,0,0,0,22.35-22.35V39.35A22.38,22.38,0,0,0,744.75,17ZM282.56,300.36h-3.23a18.67,18.67,0,0,1-.2-2c-1.06,1.88-2.71,2.43-4.71,2.43-4.94,0-6.73-4.41-6.73-12.1,0-8.65,2.91-12.37,8-12.37,6.42,0,6.77,5.5,6.84,6.9h-4.19c-.07-.95-.27-3.31-2.78-3.31-2.73,0-3.49,3.64-3.49,8.77,0,5.52.65,8.55,3.35,8.55,2.25,0,2.93-1.72,2.93-5.21v-1.33h-3.19v-3.62h7.4ZM298.63,295c0,2.64,0,4.39,0,5.32h-4a17.64,17.64,0,0,1-.16-2,4,4,0,0,1-4,2.29c-2.58,0-4.53-1.26-4.53-5.43v-13h4.18V294.3c0,1.79.38,2.79,1.89,2.79s2.42-.85,2.42-3.73V282.24h4.19Zm7-2.65c0,2.3.28,4.85,2.6,4.85a2.36,2.36,0,0,0,2.42-2.38h4a6.11,6.11,0,0,1-6.49,5.85c-5.88,0-6.7-4.94-6.7-9.52,0-5.75,2.19-9.26,6.78-9.26,5.26,0,6.55,3.93,6.55,8.66,0,.64,0,1.49-.07,1.8Zm5-3c0-1.76-.2-4-2.42-4-2.4,0-2.55,2.69-2.55,4Zm10.07,5.52a2.36,2.36,0,0,0,2.35,2.61,1.78,1.78,0,0,0,2-1.92c0-1.28-.57-2-2.72-2.77-4.27-1.57-5.32-3.07-5.32-5.7,0-2.46,1.55-5.2,5.87-5.2,4.76,0,5.91,3.27,5.91,5.64h-4c0-.64-.07-2.46-2-2.46a1.58,1.58,0,0,0-1.7,1.71c0,1.15.65,1.68,2.82,2.48,3.83,1.41,5.28,2.87,5.28,5.8,0,3.57-2.23,5.6-6.34,5.6-4.33,0-6.26-2.57-6.28-5.79Zm9.47-12.64h2.37v-4.53h4.18v4.53h2.79v3.43h-2.79v9.92c0,1.05.19,1.65,1.49,1.65a4.68,4.68,0,0,0,1-.08v3.08a7.14,7.14,0,0,1-2.55.36c-2.9,0-4.15-1.07-4.15-4.32V285.67H330.2Zm18.07,0h4.18v18.12h-4.18Zm0-6.75h4.18v4.13H348.3ZM359,294.88a2.36,2.36,0,0,0,2.35,2.61,1.78,1.78,0,0,0,2-1.92c0-1.28-.57-2-2.71-2.77-4.27-1.57-5.33-3.07-5.33-5.7,0-2.46,1.56-5.2,5.88-5.2,4.75,0,5.9,3.27,5.91,5.64h-4c0-.64-.08-2.46-2-2.46a1.59,1.59,0,0,0-1.71,1.71c0,1.15.66,1.68,2.82,2.48,3.83,1.41,5.28,2.87,5.28,5.8,0,3.57-2.23,5.6-6.34,5.6-4.33,0-6.26-2.57-6.27-5.79Zm15.73-12.64h2.38v-4.53h4.18v4.53h2.79v3.43h-2.79v9.92c0,1.05.19,1.65,1.49,1.65a4.68,4.68,0,0,0,1-.08v3.08a7.17,7.17,0,0,1-2.55.36c-2.9,0-4.15-1.07-4.15-4.32V285.67h-2.38Zm11.57,6.14c0-3,0-4.85,0-6.14h4a29.73,29.73,0,0,1,.1,3,4.63,4.63,0,0,1,4.75-3.29v4.69c-3-.07-4.63.8-4.63,4.23v9.51h-4.18Zm22.53,8c0,.89.07,3.13.14,3.95h-3.8a11.06,11.06,0,0,1-.17-1.69,4.3,4.3,0,0,1-4.09,2c-3.48,0-4.82-2.77-4.82-5.37,0-3.71,2.54-5.95,7.14-5.95.61,0,1.07,0,1.48,0v-2c0-1.06-.13-2.3-1.94-2.3s-1.94,1.15-2.05,2.34h-4c.07-2.67,1.32-5.52,6.16-5.52,3.89,0,5.91,1.76,5.91,5.22Zm-4-4a7.92,7.92,0,0,0-1.35-.07c-2.38,0-3.25,1.11-3.25,2.58a2.09,2.09,0,0,0,2.08,2.36c2.14,0,2.52-1.6,2.52-4.29Zm7.74-4.53c0-3.73,0-4.69,0-5.64h4a15.7,15.7,0,0,1,.13,1.89,4.21,4.21,0,0,1,4-2.23c3,0,4.64,1.87,4.64,5.54v12.92H421.1v-12c0-1.79-.36-2.89-2-2.89s-2.35.89-2.35,3.64v11.23h-4.18Zm19.39,7a2.36,2.36,0,0,0,2.35,2.61,1.78,1.78,0,0,0,2-1.92c0-1.28-.57-2-2.71-2.77-4.28-1.57-5.33-3.07-5.33-5.7,0-2.46,1.55-5.2,5.88-5.2,4.75,0,5.9,3.27,5.91,5.64h-4c0-.64-.08-2.46-2-2.46a1.58,1.58,0,0,0-1.7,1.71c0,1.15.65,1.68,2.82,2.48,3.83,1.41,5.28,2.87,5.28,5.8,0,3.57-2.23,5.6-6.34,5.6-4.33,0-6.26-2.57-6.27-5.79Zm11.84,5.48V285.67h-2.11v-3.43h2.11v-1.76c0-3,1.37-5.22,5-5.22a7.84,7.84,0,0,1,1.73.2V279a4.62,4.62,0,0,0-1-.11c-1.2,0-1.52.68-1.52,1.92v1.47h2.57v3.43h-2.57v14.69Zm11.83-8c0,2.3.28,4.85,2.6,4.85a2.36,2.36,0,0,0,2.42-2.38h4a6.11,6.11,0,0,1-6.49,5.85c-5.88,0-6.7-4.94-6.7-9.52,0-5.75,2.19-9.26,6.78-9.26,5.26,0,6.54,3.93,6.54,8.66,0,.64,0,1.49-.06,1.8Zm5-3c0-1.76-.2-4-2.42-4-2.4,0-2.55,2.69-2.55,4Zm6.95-1c0-3,0-4.85,0-6.14h4a29.73,29.73,0,0,1,.1,3,4.63,4.63,0,0,1,4.75-3.29v4.69c-3-.07-4.63.8-4.63,4.23v9.51h-4.18Zm10.85,0c0-3,0-4.85,0-6.14h4a29.73,29.73,0,0,1,.1,3,4.63,4.63,0,0,1,4.75-3.29v4.69c-3-.07-4.63.8-4.63,4.23v9.51h-4.18Zm14.33,4c0,2.3.28,4.85,2.6,4.85a2.36,2.36,0,0,0,2.42-2.38h4a6.09,6.09,0,0,1-6.48,5.85c-5.88,0-6.7-4.94-6.7-9.52,0-5.75,2.19-9.26,6.78-9.26,5.26,0,6.54,3.93,6.54,8.66,0,.64,0,1.49-.06,1.8Zm5-3c0-1.76-.21-4-2.42-4-2.4,0-2.55,2.69-2.56,4Zm19.83-13.87v19.83c0,2.15,0,4,0,5h-4a19.11,19.11,0,0,1-.13-1.93c-.53,1.29-1.62,2.24-4,2.24-3.82,0-5.34-3.43-5.34-9.52,0-5.55,1.81-9.22,6-9.22,2,0,2.9.72,3.26,1.43v-7.87Zm-9.23,15.72c0,4.2.76,5.93,2.53,5.93,2.16,0,2.64-1.69,2.64-6.06,0-4.18-.33-5.59-2.46-5.59C509.41,285.49,508.4,286.77,508.4,291.21Zm-216.56,33h2.37v-4.53h4.18v4.53h2.8v3.43h-2.8v9.92c0,1.05.19,1.65,1.49,1.65a4.68,4.68,0,0,0,1-.08v3.08a7.14,7.14,0,0,1-2.55.36c-2.9,0-4.15-1.07-4.15-4.32V327.67h-2.37Zm24.32,8.91c0,6.57-2.41,9.56-6.86,9.56s-6.75-2.85-6.75-9.47c0-6.41,2.7-9.31,7-9.31S316.16,327.08,316.16,333.15Zm-9.39.07c0,3.89.65,6,2.65,6s2.52-2.08,2.52-5.94-.66-5.82-2.55-5.82S306.77,329.33,306.77,333.22Zm16.74-9h2.38v-4.53h4.17v4.53h2.8v3.43h-2.8v9.92c0,1.05.19,1.65,1.5,1.65a4.73,4.73,0,0,0,1-.08v3.08a7.2,7.2,0,0,1-2.56.36c-2.89,0-4.14-1.07-4.14-4.32V327.67h-2.38Zm15.76-6.75V326a4.19,4.19,0,0,1,4.06-2.08c3,0,4.51,2,4.51,5.65v12.81h-4.19v-12c0-1.77-.31-2.9-2.08-2.9s-2.3,1.4-2.3,3.8v11.07h-4.19V317.49Zm15.59,16.9c0,2.3.28,4.85,2.6,4.85a2.37,2.37,0,0,0,2.43-2.38h4a6.1,6.1,0,0,1-6.49,5.85c-5.87,0-6.69-4.94-6.69-9.52,0-5.75,2.18-9.26,6.77-9.26,5.26,0,6.55,3.93,6.55,8.66,0,.64,0,1.49-.07,1.8Zm5-3c0-1.76-.2-4-2.42-4-2.4,0-2.54,2.69-2.55,4Zm27.52,4.1c-.1,1.2-.55,7.31-7.13,7.31-6.73,0-7.5-5.92-7.5-12.28,0-7.67,2.25-12.19,7.76-12.19,6.28,0,6.77,5.39,6.86,7.28h-4.19c-.07-.8-.12-3.68-2.74-3.68s-3.31,3.25-3.31,8.67c0,4.47.45,8.66,3.19,8.66,2.53,0,2.73-2.86,2.84-3.77Zm14.44-3.63h-7.61v6.88h8.54l-.52,3.65h-12.2V318.68h12.14v3.71h-8v5.76h7.61Zm17.52,3.63c-.11,1.2-.56,7.31-7.13,7.31-6.73,0-7.51-5.92-7.51-12.28,0-7.67,2.25-12.19,7.76-12.19,6.28,0,6.77,5.39,6.87,7.28h-4.2c-.06-.8-.12-3.68-2.73-3.68s-3.31,3.25-3.31,8.67c0,4.47.44,8.66,3.19,8.66,2.53,0,2.73-2.86,2.83-3.77Zm12.94.94-1.18,6h-4.25l5.49-23.68h5.5l5.55,23.68H439l-1.18-6Zm4.72-3.68c-.88-4.54-1.59-7.85-2-10.11H435c-.29,2.18-1,5.74-1.91,10.11Zm12.64-14v23.68h-4.24V318.68Zm10.88,23.68V327.67h-2.11v-3.43h2.11v-1.76c0-3,1.37-5.22,5-5.22a7.76,7.76,0,0,1,1.73.2V321a4.62,4.62,0,0,0-1-.11c-1.2,0-1.52.68-1.52,1.92v1.47h2.57v3.43h-2.57v14.69Zm21.29-9.21c0,6.57-2.42,9.56-6.87,9.56s-6.74-2.85-6.74-9.47c0-6.41,2.69-9.31,7-9.31S481.85,327.08,481.85,333.15Zm-9.39.07c0,3.89.65,6,2.64,6s2.53-2.08,2.53-5.94-.67-5.82-2.56-5.82S472.46,329.33,472.46,333.22Zm12.24-2.84c0-3,0-4.85,0-6.14h4a29.73,29.73,0,0,1,.1,3,4.62,4.62,0,0,1,4.74-3.29v4.69c-3-.07-4.62.8-4.62,4.23v9.51H484.7ZM309.49,366.24h2.38v-4.53h4.18v4.53h2.79v3.43h-2.79v9.92c0,1.05.19,1.65,1.49,1.65a4.68,4.68,0,0,0,1-.08v3.08a7.17,7.17,0,0,1-2.55.36c-2.9,0-4.15-1.07-4.15-4.32V369.67h-2.38Zm15.76-6.75V368a4.22,4.22,0,0,1,4.07-2.08c3,0,4.5,2,4.5,5.65v12.81h-4.18v-12c0-1.77-.32-2.9-2.09-2.9s-2.3,1.4-2.3,3.8v11.07h-4.19V359.49Zm12.26,6.75h4.18v18.12h-4.18Zm0-6.75h4.18v4.13h-4.18Zm10.68,19.39a2.36,2.36,0,0,0,2.35,2.61,1.78,1.78,0,0,0,2-1.92c0-1.28-.57-2-2.71-2.77-4.28-1.57-5.33-3.07-5.33-5.7,0-2.46,1.55-5.2,5.88-5.2,4.75,0,5.9,3.27,5.91,5.64h-4c0-.64-.07-2.46-2-2.46a1.58,1.58,0,0,0-1.7,1.71c0,1.15.65,1.68,2.82,2.48,3.83,1.41,5.28,2.87,5.28,5.8,0,3.57-2.23,5.6-6.34,5.6-4.33,0-6.26-2.57-6.28-5.79ZM370.11,383v7.93h-4.18V371.48c0-2.45,0-4.09,0-5.24h4a16.77,16.77,0,0,1,.13,2,4,4,0,0,1,4.06-2.29c3.36,0,5.3,2.89,5.3,9.07,0,7.08-2.35,9.71-5.85,9.71A3.56,3.56,0,0,1,370.11,383Zm5.08-7.78c0-4.33-.91-5.7-2.68-5.7-2.11,0-2.53,2-2.53,5.54,0,4.14.21,6.12,2.5,6.12C374.31,381.15,375.19,379.19,375.19,375.19Zm7.08-2.81c0-3,0-4.85,0-6.14h4a26.56,26.56,0,0,1,.1,3,4.63,4.63,0,0,1,4.75-3.29v4.69c-3-.07-4.63.8-4.63,4.23v9.51h-4.18Zm23.79,2.77c0,6.57-2.42,9.56-6.87,9.56s-6.75-2.85-6.75-9.47c0-6.41,2.7-9.31,7-9.31S406.06,369.08,406.06,375.15Zm-9.39.07c0,3.89.65,6,2.64,6s2.53-2.08,2.53-5.94-.67-5.82-2.56-5.82S396.67,371.33,396.67,375.22ZM413.09,383v7.93h-4.18V371.48c0-2.45,0-4.09,0-5.24h4a16.77,16.77,0,0,1,.13,2,4,4,0,0,1,4.06-2.29c3.36,0,5.3,2.89,5.3,9.07,0,7.08-2.36,9.71-5.85,9.71A3.56,3.56,0,0,1,413.09,383Zm5.07-7.78c0-4.33-.9-5.7-2.67-5.7-2.11,0-2.53,2-2.53,5.54,0,4.14.21,6.12,2.5,6.12C417.29,381.15,418.16,379.19,418.16,375.19Zm10.57,1.2c0,2.3.28,4.85,2.6,4.85a2.36,2.36,0,0,0,2.42-2.38h4a6.09,6.09,0,0,1-6.48,5.85c-5.88,0-6.7-4.94-6.7-9.52,0-5.75,2.19-9.26,6.78-9.26,5.26,0,6.54,3.93,6.54,8.66,0,.64,0,1.49-.06,1.8Zm5-3c0-1.76-.21-4-2.42-4-2.4,0-2.55,2.69-2.56,4Zm7-1c0-3,0-4.85,0-6.14h4a29.73,29.73,0,0,1,.1,3,4.63,4.63,0,0,1,4.75-3.29v4.69c-3-.07-4.63.8-4.63,4.23v9.51h-4.18Zm10.2-6.14h2.38v-4.53h4.18v4.53h2.79v3.43h-2.79v9.92c0,1.05.19,1.65,1.49,1.65a4.68,4.68,0,0,0,1-.08v3.08a7.14,7.14,0,0,1-2.55.36c-2.9,0-4.15-1.07-4.15-4.32V369.67h-2.38Zm15.28,0c1.32,5.83,2.6,10.78,2.81,12.95h0c.4-2.57,1.61-7.86,2.84-12.95h4.19l-5.21,18.94c-1.55,5.64-3.57,6-6.09,6a8.29,8.29,0,0,1-1.63-.14v-3.53a11,11,0,0,0,1.3.08c1.6,0,2.15-.81,2.62-3l-5.44-18.36Zm75.88,64.94H243.77a39.39,39.39,0,0,1-39.35-39.35V268a39.39,39.39,0,0,1,39.35-39.35H542.08A39.39,39.39,0,0,1,581.43,268v123.8A39.39,39.39,0,0,1,542.08,431.18ZM243.77,245.68A22.37,22.37,0,0,0,221.42,268v123.8a22.37,22.37,0,0,0,22.35,22.35H542.08a22.38,22.38,0,0,0,22.35-22.35V268a22.37,22.37,0,0,0-22.35-22.35Z"/></g></g></svg>