<svg xmlns="http://www.w3.org/2000/svg" xmlns:xlink="http://www.w3.org/1999/xlink" viewBox="0 0 972.99 691.26"><defs><style>.cls-1{fill:#1b1464;}.cls-2{fill:url(#linear-gradient);}</style><linearGradient id="linear-gradient" x1="75.22" y1="447.67" x2="964.6" y2="447.67" gradientUnits="userSpaceOnUse"><stop offset="0" stop-color="#5e0094"/><stop offset="1" stop-color="#4a85ff"/></linearGradient></defs><g id="Layer_2" data-name="Layer 2"><g id="Layer_1-2" data-name="Layer 1"><path class="cls-1" d="M402,161.36H39.35A39.39,39.39,0,0,1,0,122V41.49A39.39,39.39,0,0,1,39.35,2.14H402a39.39,39.39,0,0,1,39.35,39.35V122A39.39,39.39,0,0,1,402,161.36ZM39.35,19.14A22.37,22.37,0,0,0,17,41.49V122a22.38,22.38,0,0,0,22.35,22.35H402A22.37,22.37,0,0,0,424.36,122V41.49A22.37,22.37,0,0,0,402,19.14Z"/><path class="cls-1" d="M48.83,73.18H45.6a18.67,18.67,0,0,1-.2-2c-1.06,1.88-2.7,2.43-4.7,2.43-5,0-6.74-4.41-6.74-12.11,0-8.64,2.92-12.36,8-12.36,6.41,0,6.77,5.5,6.84,6.9H44.62c-.07-1-.28-3.31-2.78-3.31-2.74,0-3.5,3.64-3.5,8.77C38.34,67,39,70,41.69,70c2.25,0,2.93-1.72,2.93-5.21V63.49H41.43V59.87h7.4Z"/><path class="cls-1" d="M64.9,67.86c0,2.64,0,4.39,0,5.32H61a17.59,17.59,0,0,1-.17-2,3.94,3.94,0,0,1-4,2.29c-2.58,0-4.53-1.26-4.53-5.43v-13h4.19V67.12c0,1.79.37,2.79,1.89,2.79s2.42-.85,2.42-3.73V55.06H64.9Z"/><path class="cls-1" d="M71.89,65.21c0,2.29.29,4.85,2.6,4.85a2.37,2.37,0,0,0,2.43-2.38h4a6.09,6.09,0,0,1-6.49,5.84c-5.87,0-6.69-4.93-6.69-9.52,0-5.74,2.18-9.25,6.77-9.25,5.26,0,6.55,3.93,6.55,8.66,0,.64,0,1.49-.07,1.8Zm5-3c0-1.76-.21-4-2.43-4-2.4,0-2.54,2.69-2.55,4Z"/><path class="cls-1" d="M87,67.7a2.36,2.36,0,0,0,2.35,2.61,1.78,1.78,0,0,0,2-1.92c0-1.28-.57-2-2.71-2.77-4.27-1.57-5.33-3.07-5.33-5.7,0-2.46,1.56-5.2,5.88-5.2,4.75,0,5.9,3.26,5.91,5.64h-4c0-.64-.08-2.46-2-2.46a1.59,1.59,0,0,0-1.71,1.71c0,1.15.66,1.68,2.82,2.48,3.83,1.41,5.28,2.87,5.28,5.8,0,3.57-2.23,5.6-6.34,5.6-4.33,0-6.26-2.57-6.27-5.79Z"/><path class="cls-1" d="M96.47,55.06h2.37V50.53H103v4.53h2.8v3.43H103v9.92c0,1,.19,1.65,1.5,1.65a4.73,4.73,0,0,0,1-.08v3.08a7.46,7.46,0,0,1-2.56.36c-2.89,0-4.15-1.07-4.15-4.32V58.49H96.47Z"/><path class="cls-1" d="M114.94,73.18V58.49h-2.11V55.06h2.11V53.3c0-3,1.37-5.22,5-5.22a7.76,7.76,0,0,1,1.73.2v3.5a4.62,4.62,0,0,0-1-.11c-1.2,0-1.52.68-1.52,1.92v1.47h2.57v3.43h-2.57V73.18Z"/><path class="cls-1" d="M123.75,55.06h4.18V73.18h-4.18Zm0-6.75H128v4.13h-4.18Z"/><path class="cls-1" d="M131.66,60.7c0-3.73,0-4.69,0-5.64h4a15.7,15.7,0,0,1,.13,1.89,4.21,4.21,0,0,1,4-2.23c3,0,4.64,1.87,4.64,5.54V73.18h-4.19v-12c0-1.79-.36-2.89-2-2.89s-2.35.89-2.35,3.64V73.18h-4.18Z"/><path class="cls-1" d="M160.74,48.31V68.14c0,2.15,0,4,0,5h-4a19.11,19.11,0,0,1-.13-1.93c-.53,1.29-1.62,2.24-4,2.24-3.82,0-5.34-3.43-5.34-9.52,0-5.55,1.81-9.22,6-9.22,2,0,2.9.72,3.26,1.43V48.31ZM151.51,64c0,4.2.76,5.93,2.53,5.93,2.17,0,2.64-1.69,2.64-6.06,0-4.18-.33-5.59-2.46-5.59C152.52,58.31,151.51,59.59,151.51,64Z"/><path class="cls-1" d="M167.18,67.7a2.36,2.36,0,0,0,2.35,2.61,1.78,1.78,0,0,0,2.05-1.92c0-1.28-.58-2-2.72-2.77-4.27-1.57-5.33-3.07-5.33-5.7,0-2.46,1.56-5.2,5.88-5.2,4.76,0,5.91,3.26,5.91,5.64h-4c0-.64-.07-2.46-2-2.46a1.59,1.59,0,0,0-1.71,1.71c0,1.15.66,1.68,2.83,2.48,3.82,1.41,5.28,2.87,5.28,5.8,0,3.57-2.23,5.6-6.34,5.6-4.33,0-6.26-2.57-6.28-5.79Z"/><path class="cls-1" d="M189.07,71.79v7.93h-4.18V60.3c0-2.45,0-4.09,0-5.24h4a14.86,14.86,0,0,1,.13,2,4,4,0,0,1,4.07-2.29c3.36,0,5.29,2.89,5.29,9.07,0,7.08-2.35,9.7-5.85,9.7A3.58,3.58,0,0,1,189.07,71.79ZM194.15,64c0-4.33-.9-5.7-2.67-5.7-2.11,0-2.54,2-2.54,5.54,0,4.14.22,6.12,2.51,6.12C193.27,70,194.15,68,194.15,64Z"/><path class="cls-1" d="M205.43,48.31V56.8a4.2,4.2,0,0,1,4.07-2.08c3,0,4.5,2,4.5,5.65V73.18h-4.18v-12c0-1.77-.32-2.9-2.09-2.9s-2.3,1.4-2.3,3.79V73.18h-4.19V48.31Z"/><path class="cls-1" d="M230.48,64c0,6.57-2.41,9.55-6.86,9.55s-6.75-2.84-6.75-9.46c0-6.41,2.7-9.31,7-9.31S230.48,57.9,230.48,64Zm-9.39.07c0,3.89.65,6,2.65,6s2.52-2.08,2.52-5.94c0-4-.66-5.82-2.55-5.82S221.09,60.15,221.09,64Z"/><path class="cls-1" d="M233.33,60.7c0-3.73,0-4.69,0-5.64h4a13.88,13.88,0,0,1,.13,1.89,4.21,4.21,0,0,1,4-2.23c3,0,4.64,1.87,4.64,5.54V73.18h-4.18v-12c0-1.79-.36-2.89-2-2.89s-2.34.89-2.34,3.64V73.18h-4.19Z"/><path class="cls-1" d="M253.12,65.21c0,2.29.28,4.85,2.6,4.85a2.36,2.36,0,0,0,2.42-2.38h4a6.08,6.08,0,0,1-6.48,5.84c-5.88,0-6.7-4.93-6.7-9.52,0-5.74,2.19-9.25,6.78-9.25,5.26,0,6.54,3.93,6.54,8.66,0,.64,0,1.49-.06,1.8Zm5-3c0-1.76-.21-4-2.42-4-2.4,0-2.55,2.69-2.56,4Z"/><path class="cls-1" d="M271.62,60.7c0-3.73,0-4.69,0-5.64h4a13.88,13.88,0,0,1,.13,1.89,4.21,4.21,0,0,1,4-2.23c3,0,4.64,1.87,4.64,5.54V73.18H280.2v-12c0-1.79-.36-2.89-2.05-2.89s-2.34.89-2.34,3.64V73.18h-4.19Z"/><path class="cls-1" d="M300.73,67.86c0,2.64,0,4.39,0,5.32h-4a17.64,17.64,0,0,1-.16-2,4,4,0,0,1-4,2.29c-2.57,0-4.53-1.26-4.53-5.43v-13h4.19V67.12c0,1.79.37,2.79,1.89,2.79s2.42-.85,2.42-3.73V55.06h4.19Z"/><path class="cls-1" d="M304,60.5c0-3.58,0-4.66,0-5.44h4a13.25,13.25,0,0,1,.13,1.85,4.32,4.32,0,0,1,4-2.16,3.49,3.49,0,0,1,3.67,2.46,4.78,4.78,0,0,1,4.45-2.46c2.58,0,4.59,1.31,4.59,5.43v13h-4.12V60.81c0-1.45-.47-2.5-1.92-2.5-1.7,0-2.25,1.28-2.25,3.52V73.18h-4.15V60.88c0-1.67-.56-2.54-1.91-2.54-1.67,0-2.29,1.15-2.29,3.59V73.18H304Z"/><path class="cls-1" d="M328.46,48.31h4.19v8.56a4.17,4.17,0,0,1,4-2.12c3.71,0,5.3,3.26,5.3,8.89s-1.41,9.85-5.85,9.85a3.56,3.56,0,0,1-3.61-2.07c0,.43,0,1.23-.08,1.76h-4c0-1.2,0-3.27,0-5.1Zm9.3,15.39c0-3.5-.51-5.39-2.55-5.39s-2.69,1.48-2.69,5.9c0,4.24.58,5.75,2.53,5.75S337.76,68.08,337.76,63.7Z"/><path class="cls-1" d="M348.25,65.21c0,2.29.28,4.85,2.6,4.85a2.36,2.36,0,0,0,2.42-2.38h4a6.08,6.08,0,0,1-6.48,5.84c-5.88,0-6.7-4.93-6.7-9.52,0-5.74,2.18-9.25,6.78-9.25,5.25,0,6.54,3.93,6.54,8.66,0,.64,0,1.49-.06,1.8Zm5-3c0-1.76-.21-4-2.43-4-2.39,0-2.54,2.69-2.55,4Z"/><path class="cls-1" d="M360.24,61.2c0-3,0-4.85,0-6.14h4a29.73,29.73,0,0,1,.1,3,4.63,4.63,0,0,1,4.75-3.29v4.69c-3-.07-4.63.8-4.63,4.23v9.51h-4.18Z"/><path class="cls-1" d="M375.8,55.06h2.37V50.53h4.18v4.53h2.8v3.43h-2.8v9.92c0,1,.19,1.65,1.5,1.65a4.73,4.73,0,0,0,1-.08v3.08a7.46,7.46,0,0,1-2.56.36c-2.9,0-4.15-1.07-4.15-4.32V58.49H375.8Z"/><path class="cls-1" d="M400.12,64c0,6.57-2.41,9.55-6.86,9.55s-6.75-2.84-6.75-9.46c0-6.41,2.7-9.31,7-9.31S400.12,57.9,400.12,64Zm-9.39.07c0,3.89.65,6,2.65,6s2.52-2.08,2.52-5.94c0-4-.66-5.82-2.55-5.82S390.73,60.15,390.73,64Z"/><path class="cls-1" d="M64.42,108.28c-.11,1.2-.56,7.31-7.13,7.31-6.74,0-7.51-5.92-7.51-12.28,0-7.67,2.25-12.19,7.76-12.19,6.28,0,6.77,5.38,6.86,7.28H60.21c-.07-.81-.12-3.69-2.74-3.69s-3.31,3.26-3.31,8.68c0,4.47.45,8.66,3.2,8.66,2.52,0,2.73-2.86,2.83-3.77Z"/><path class="cls-1" d="M78.85,104.65h-7.6v6.88h8.53l-.52,3.65H67.06V91.5H79.21v3.71h-8V101h7.6Z"/><path class="cls-1" d="M96.37,108.28c-.1,1.2-.56,7.31-7.13,7.31-6.73,0-7.51-5.92-7.51-12.28,0-7.67,2.25-12.19,7.76-12.19,6.28,0,6.77,5.38,6.87,7.28h-4.2c-.06-.81-.12-3.69-2.73-3.69s-3.31,3.26-3.31,8.68c0,4.47.44,8.66,3.19,8.66,2.53,0,2.73-2.86,2.84-3.77Z"/><path class="cls-1" d="M103.57,97.06H106V92.53h4.18v4.53h2.79v3.43h-2.79v9.92c0,1,.19,1.65,1.49,1.65a4.68,4.68,0,0,0,1-.08v3.08a7.41,7.41,0,0,1-2.55.36c-2.9,0-4.15-1.07-4.15-4.32V100.49h-2.38Z"/><path class="cls-1" d="M119.33,90.31V98.8a4.22,4.22,0,0,1,4.07-2.08c3,0,4.5,2,4.5,5.65v12.81h-4.18v-12c0-1.77-.32-2.9-2.09-2.9s-2.3,1.4-2.3,3.79v11.08h-4.19V90.31Z"/><path class="cls-1" d="M131.59,103.2c0-3,0-4.85,0-6.14h4a29.73,29.73,0,0,1,.1,3,4.63,4.63,0,0,1,4.75-3.29v4.69c-3-.07-4.63.8-4.63,4.23v9.51h-4.18Z"/><path class="cls-1" d="M155.37,106c0,6.57-2.41,9.55-6.86,9.55s-6.75-2.84-6.75-9.46c0-6.41,2.7-9.31,7-9.31S155.37,99.9,155.37,106ZM146,106c0,3.89.65,6,2.65,6s2.52-2.08,2.52-5.94c0-4-.66-5.82-2.55-5.82S146,102.15,146,106Z"/><path class="cls-1" d="M170.84,109.86c0,2.64,0,4.39,0,5.32h-4a17.59,17.59,0,0,1-.17-2,3.94,3.94,0,0,1-4,2.29c-2.58,0-4.53-1.26-4.53-5.43v-13h4.19v12.06c0,1.79.37,2.79,1.89,2.79s2.42-.85,2.42-3.73V97.06h4.18Z"/><path class="cls-1" d="M187.17,113.71c0,5.15-1.49,8.29-7,8.29-5.16,0-6.25-3-6.36-5.24H178c.07.55.27,1.84,2.36,1.84,2.26,0,2.69-1.71,2.69-4.89v-.81a3.92,3.92,0,0,1-3.88,2.16c-3.85,0-5.49-3.39-5.49-8.73,0-6.2,2.23-9.58,5.88-9.58,2.38,0,3.2,1.13,3.49,1.91,0-.54.1-1.16.16-1.6h4c0,1.11-.06,2.93-.06,5.46Zm-9.21-7.5c0,3.73.9,5.32,2.59,5.32,2.11,0,2.56-2,2.56-5.89,0-3.25-.16-5.33-2.43-5.33C178.93,100.31,178,102.13,178,106.21Z"/><path class="cls-1" d="M195.07,90.31V98.8a4.2,4.2,0,0,1,4.07-2.08c3,0,4.5,2,4.5,5.65v12.81h-4.18v-12c0-1.77-.32-2.9-2.09-2.9s-2.3,1.4-2.3,3.79v11.08h-4.19V90.31Z"/><path class="cls-1" d="M216.74,109.7a2.36,2.36,0,0,0,2.35,2.61,1.78,1.78,0,0,0,2-1.92c0-1.28-.58-2-2.72-2.77-4.27-1.57-5.33-3.07-5.33-5.7,0-2.46,1.56-5.2,5.88-5.2,4.76,0,5.91,3.26,5.91,5.64h-4c0-.64-.07-2.46-2-2.46a1.59,1.59,0,0,0-1.71,1.71c0,1.15.66,1.68,2.82,2.48,3.83,1.41,5.29,2.87,5.29,5.8,0,3.57-2.23,5.6-6.34,5.6-4.33,0-6.26-2.57-6.28-5.79Z"/><path class="cls-1" d="M231.38,107.21c0,2.29.29,4.85,2.6,4.85a2.37,2.37,0,0,0,2.43-2.38h4a6.09,6.09,0,0,1-6.49,5.84c-5.87,0-6.69-4.93-6.69-9.52,0-5.74,2.18-9.25,6.78-9.25,5.25,0,6.54,3.93,6.54,8.66,0,.64,0,1.49-.07,1.8Zm5.05-3c0-1.76-.21-4-2.43-4-2.4,0-2.54,2.69-2.55,4Z"/><path class="cls-1" d="M255.23,111.23c0,.89.08,3.13.14,4h-3.8a11.06,11.06,0,0,1-.17-1.69c-.69,1.16-1.88,2-4.09,2-3.48,0-4.82-2.77-4.82-5.37,0-3.71,2.54-6,7.14-6,.61,0,1.08,0,1.49,0v-2c0-1.06-.14-2.3-2-2.3s-1.94,1.15-2,2.34h-4c.07-2.67,1.32-5.52,6.17-5.52,3.89,0,5.9,1.76,5.9,5.22Zm-4-4a7.92,7.92,0,0,0-1.35-.07c-2.38,0-3.25,1.11-3.25,2.58a2.08,2.08,0,0,0,2.08,2.35c2.14,0,2.52-1.59,2.52-4.28Z"/><path class="cls-1" d="M259,103.2c0-3,0-4.85,0-6.14h4a29.73,29.73,0,0,1,.1,3,4.63,4.63,0,0,1,4.75-3.29v4.69c-3-.07-4.63.8-4.63,4.23v9.51H259Z"/><path class="cls-1" d="M282,109c-.07,1.46-.39,6.45-6.38,6.45-5.19,0-6.48-4.15-6.48-9.52,0-4.81,1.59-9.25,6.7-9.25,5.94,0,6.13,5.13,6.16,6.23h-4.22c0-.71-.11-2.77-2-2.77s-2.45,2.06-2.45,5.81c0,3.9.58,6,2.4,6s2.1-2,2.21-3Z"/><path class="cls-1" d="M288.73,90.31V98.8a4.19,4.19,0,0,1,4.06-2.08c3,0,4.51,2,4.51,5.65v12.81h-4.19v-12c0-1.77-.31-2.9-2.08-2.9s-2.3,1.4-2.3,3.79v11.08h-4.19V90.31Z"/><path class="cls-1" d="M320.26,106c0,6.57-2.42,9.55-6.87,9.55s-6.75-2.84-6.75-9.46c0-6.41,2.7-9.31,7-9.31S320.26,99.9,320.26,106Zm-9.4.07c0,3.89.65,6,2.65,6S316,110,316,106.09c0-4-.67-5.82-2.56-5.82S310.86,102.15,310.86,106Z"/><path class="cls-1" d="M323.1,102.7c0-3.73,0-4.69,0-5.64h4a13.7,13.7,0,0,1,.14,1.89,4.18,4.18,0,0,1,4-2.23c2.95,0,4.64,1.87,4.64,5.54v12.92h-4.19v-12c0-1.79-.36-2.89-2.05-2.89s-2.34.89-2.34,3.64v11.23H323.1Z"/><path class="cls-1" d="M339.55,115.18V90.31h4.19v24.87Z"/><path class="cls-1" d="M347.43,97.06h4.18v18.12h-4.18Zm0-6.75h4.18v4.13h-4.18Z"/><path class="cls-1" d="M355.34,102.7c0-3.73,0-4.69,0-5.64h4a15.7,15.7,0,0,1,.13,1.89,4.21,4.21,0,0,1,4-2.23c3,0,4.64,1.87,4.64,5.54v12.92h-4.19v-12c0-1.79-.36-2.89-2-2.89s-2.34.89-2.34,3.64v11.23h-4.19Z"/><path class="cls-1" d="M375.13,107.21c0,2.29.28,4.85,2.6,4.85a2.36,2.36,0,0,0,2.42-2.38h4a6.08,6.08,0,0,1-6.49,5.84c-5.87,0-6.69-4.93-6.69-9.52,0-5.74,2.18-9.25,6.78-9.25,5.25,0,6.54,3.93,6.54,8.66,0,.64,0,1.49-.06,1.8Zm5-3c0-1.76-.21-4-2.43-4-2.39,0-2.54,2.69-2.55,4Z"/><path class="cls-1" d="M933.64,159.22H578.42a39.39,39.39,0,0,1-39.35-39.35V39.35A39.39,39.39,0,0,1,578.42,0H933.64A39.39,39.39,0,0,1,973,39.35v80.52A39.39,39.39,0,0,1,933.64,159.22ZM578.42,17a22.38,22.38,0,0,0-22.35,22.35v80.52a22.37,22.37,0,0,0,22.35,22.35H933.64A22.37,22.37,0,0,0,956,119.87V39.35A22.37,22.37,0,0,0,933.64,17Z"/><path class="cls-1" d="M643.57,71h-3.23a18.49,18.49,0,0,1-.2-2c-1.06,1.87-2.7,2.42-4.71,2.42-4.94,0-6.73-4.41-6.73-12.1,0-8.65,2.92-12.37,8-12.37,6.42,0,6.78,5.5,6.84,6.91h-4.19c-.07-1-.27-3.32-2.77-3.32-2.74,0-3.5,3.64-3.5,8.77,0,5.52.65,8.55,3.35,8.55,2.25,0,2.93-1.72,2.93-5.21V61.35h-3.19V57.73h7.4Z"/><path class="cls-1" d="M659.64,65.72c0,2.64,0,4.39,0,5.32h-4a17.39,17.39,0,0,1-.17-2,3.94,3.94,0,0,1-4,2.3c-2.58,0-4.53-1.27-4.53-5.43v-13h4.18V65c0,1.79.38,2.78,1.9,2.78s2.41-.85,2.41-3.72V52.92h4.19Z"/><path class="cls-1" d="M666.63,63.07c0,2.3.28,4.86,2.6,4.86a2.37,2.37,0,0,0,2.43-2.39h4a6.1,6.1,0,0,1-6.49,5.85c-5.87,0-6.69-4.94-6.69-9.52,0-5.75,2.18-9.26,6.77-9.26,5.26,0,6.55,3.94,6.55,8.67,0,.63,0,1.48-.07,1.79Zm5-3c0-1.77-.2-4-2.42-4-2.4,0-2.54,2.7-2.55,4Z"/><path class="cls-1" d="M681.74,65.56a2.35,2.35,0,0,0,2.35,2.61,1.77,1.77,0,0,0,2-1.91c0-1.28-.57-2-2.71-2.78-4.27-1.57-5.33-3.07-5.33-5.69s1.55-5.21,5.88-5.21c4.75,0,5.9,3.27,5.91,5.64h-4c0-.64-.08-2.45-2-2.45a1.58,1.58,0,0,0-1.71,1.7c0,1.15.65,1.68,2.82,2.48,3.83,1.42,5.28,2.88,5.28,5.81,0,3.56-2.23,5.6-6.34,5.6-4.33,0-6.26-2.58-6.27-5.8Z"/><path class="cls-1" d="M691.21,52.92h2.37V48.4h4.18v4.52h2.8v3.43h-2.8v9.92c0,1,.19,1.65,1.5,1.65a4.77,4.77,0,0,0,1-.07v3.07a7.25,7.25,0,0,1-2.56.37c-2.9,0-4.15-1.07-4.15-4.33V56.35h-2.37Z"/><path class="cls-1" d="M721.32,64.91c-.07,1.45-.39,6.45-6.37,6.45-5.2,0-6.49-4.16-6.49-9.53,0-4.8,1.59-9.25,6.7-9.25,6,0,6.13,5.13,6.16,6.23H717.1c0-.7-.1-2.77-2-2.77s-2.44,2.06-2.44,5.82.57,6,2.39,6,2.1-2,2.21-3Z"/><path class="cls-1" d="M736,67.1c0,.89.07,3.13.14,3.94h-3.8a9.83,9.83,0,0,1-.18-1.68,4.31,4.31,0,0,1-4.08,2c-3.49,0-4.83-2.78-4.83-5.37,0-3.71,2.55-6,7.15-6,.61,0,1.07,0,1.48,0v-2c0-1.06-.13-2.29-2-2.29s-1.94,1.14-2,2.33h-4c.07-2.67,1.33-5.52,6.17-5.52,3.89,0,5.91,1.77,5.91,5.23Zm-4-4a7.9,7.9,0,0,0-1.35-.08c-2.39,0-3.25,1.11-3.25,2.59A2.09,2.09,0,0,0,729.44,68c2.13,0,2.52-1.6,2.52-4.29Z"/><path class="cls-1" d="M739.7,71V46.18h4.18V71Z"/><path class="cls-1" d="M747.57,71V46.18h4.18V71Z"/><path class="cls-1" d="M758.25,65.56a2.35,2.35,0,0,0,2.35,2.61,1.78,1.78,0,0,0,2-1.91c0-1.28-.57-2-2.72-2.78-4.27-1.57-5.32-3.07-5.32-5.69s1.55-5.21,5.87-5.21c4.76,0,5.91,3.27,5.91,5.64h-4c0-.64-.07-2.45-2-2.45a1.58,1.58,0,0,0-1.71,1.7c0,1.15.66,1.68,2.83,2.48,3.83,1.42,5.28,2.88,5.28,5.81,0,3.56-2.23,5.6-6.34,5.6-4.33,0-6.26-2.58-6.28-5.8Z"/><path class="cls-1" d="M774,52.92h2.37V48.4h4.18v4.52h2.8v3.43h-2.8v9.92c0,1,.19,1.65,1.5,1.65a4.77,4.77,0,0,0,1-.07v3.07a7.25,7.25,0,0,1-2.56.37c-2.89,0-4.15-1.07-4.15-4.33V56.35H774Z"/><path class="cls-1" d="M789.73,46.18v8.49a4.21,4.21,0,0,1,4.07-2.09c3,0,4.51,2,4.51,5.66V71h-4.19v-12c0-1.78-.31-2.91-2.09-2.91s-2.3,1.4-2.3,3.8V71h-4.18V46.18Z"/><path class="cls-1" d="M805.33,63.07c0,2.3.28,4.86,2.6,4.86a2.37,2.37,0,0,0,2.43-2.39h4a6.1,6.1,0,0,1-6.49,5.85c-5.87,0-6.69-4.94-6.69-9.52,0-5.75,2.18-9.26,6.77-9.26,5.26,0,6.55,3.94,6.55,8.67,0,.63,0,1.48-.07,1.79Zm5-3c0-1.77-.2-4-2.42-4-2.4,0-2.54,2.7-2.55,4Z"/><path class="cls-1" d="M828,46.18v8.49a4.21,4.21,0,0,1,4.07-2.09c3,0,4.51,2,4.51,5.66V71h-4.19v-12c0-1.78-.31-2.91-2.09-2.91S828,57.57,828,60V71h-4.18V46.18Z"/><path class="cls-1" d="M853.08,61.83c0,6.58-2.41,9.56-6.87,9.56s-6.74-2.85-6.74-9.46c0-6.42,2.69-9.32,7-9.32S853.08,55.77,853.08,61.83Zm-9.39.07c0,3.89.65,6,2.64,6s2.53-2.09,2.53-6-.67-5.81-2.56-5.81S843.69,58,843.69,61.9Z"/><path class="cls-1" d="M854.13,52.92h2.37V48.4h4.18v4.52h2.8v3.43h-2.8v9.92c0,1,.19,1.65,1.49,1.65a4.86,4.86,0,0,0,1-.07v3.07a7.25,7.25,0,0,1-2.56.37c-2.9,0-4.15-1.07-4.15-4.33V56.35h-2.37Z"/><path class="cls-1" d="M869,63.07c0,2.3.29,4.86,2.6,4.86A2.37,2.37,0,0,0,874,65.54h4a6.1,6.1,0,0,1-6.49,5.85c-5.87,0-6.69-4.94-6.69-9.52,0-5.75,2.18-9.26,6.78-9.26,5.25,0,6.54,3.94,6.54,8.67,0,.63,0,1.48-.07,1.79Zm5-3c0-1.77-.21-4-2.43-4-2.4,0-2.54,2.7-2.55,4Z"/><path class="cls-1" d="M881,71V46.18h4.18V71Z"/><path class="cls-1" d="M722.62,88.18V108c0,2.14,0,4,0,5h-4a16.26,16.26,0,0,1-.13-1.92c-.53,1.28-1.63,2.24-4,2.24-3.82,0-5.34-3.44-5.34-9.53,0-5.55,1.82-9.22,6-9.22,2,0,2.91.73,3.27,1.43V88.18Zm-9.23,15.72c0,4.2.75,5.93,2.53,5.93,2.16,0,2.64-1.69,2.64-6.06,0-4.19-.33-5.6-2.47-5.6C714.39,98.17,713.39,99.46,713.39,103.9Z"/><path class="cls-1" d="M726.26,94.92h4.18V113h-4.18Zm0-6.74h4.18v4.13h-4.18Z"/><path class="cls-1" d="M734.17,101.06c0-3,0-4.84,0-6.14h4c0,.32.1,1.07.1,3A4.61,4.61,0,0,1,743,94.62v4.69c-3-.07-4.62.8-4.62,4.22V113h-4.18Z"/><path class="cls-1" d="M748.5,105.07c0,2.3.28,4.86,2.59,4.86a2.37,2.37,0,0,0,2.43-2.39h4a6.1,6.1,0,0,1-6.49,5.85c-5.87,0-6.69-4.94-6.69-9.52,0-5.75,2.18-9.26,6.78-9.26,5.25,0,6.54,3.94,6.54,8.67,0,.63,0,1.48-.07,1.79Zm5-3c0-1.77-.21-4-2.43-4-2.4,0-2.54,2.7-2.55,4Z"/><path class="cls-1" d="M772.77,106.91c-.07,1.45-.39,6.45-6.37,6.45-5.2,0-6.49-4.16-6.49-9.53,0-4.8,1.59-9.25,6.7-9.25,5.95,0,6.13,5.13,6.16,6.23h-4.22c0-.7-.11-2.77-2-2.77s-2.45,2.06-2.45,5.82.58,6,2.4,6,2.1-2,2.21-3Z"/><path class="cls-1" d="M774.12,94.92h2.38V90.4h4.17v4.52h2.8v3.43h-2.8v9.92c0,1,.19,1.65,1.5,1.65a4.77,4.77,0,0,0,1-.07v3.07a7.22,7.22,0,0,1-2.56.37c-2.89,0-4.14-1.07-4.14-4.33V98.35h-2.38Z"/><path class="cls-1" d="M785.69,113V88.18h4.18V113Z"/><path class="cls-1" d="M796.29,94.92c1.33,5.83,2.6,10.78,2.81,13h0c.4-2.58,1.61-7.87,2.84-13h4.19L801,113.86c-1.55,5.64-3.57,6-6.09,6a9.1,9.1,0,0,1-1.63-.13v-3.53a11.28,11.28,0,0,0,1.3.07c1.6,0,2.15-.8,2.62-3l-5.44-18.36Z"/><path class="cls-1" d="M37.92,496.56h-17v-12h17Zm0-24h-17v-12h17Zm0-24h-17v-12h17Zm0-24h-17v-12h17Zm0-24h-17v-12h17Zm0-24h-17v-12h17Zm0-24h-17v-12h17Zm0-24h-17v-12h17Zm0-24h-17v-12h17Zm0-24h-17v-12h17Zm0-24h-17v-12h17Zm0-24h-17v-12h17Zm0-24h-17v-12h17Zm0-24h-17v-12h17Zm0-24h-17v-7.7h17Z"/><path class="cls-1" d="M83.72,292.18h-12v-17h12Zm-24,0h-12v-17h12Zm-24,0h-6.3v-17h6.3Z"/><path class="cls-1" d="M876.73,363.29H578.42a39.39,39.39,0,0,1-39.35-39.35V243.42a39.4,39.4,0,0,1,39.35-39.35H876.73a39.4,39.4,0,0,1,39.35,39.35v80.52A39.39,39.39,0,0,1,876.73,363.29ZM578.42,221.07a22.38,22.38,0,0,0-22.35,22.35v80.52a22.37,22.37,0,0,0,22.35,22.35H876.73a22.37,22.37,0,0,0,22.35-22.35V243.42a22.37,22.37,0,0,0-22.35-22.35Z"/><path class="cls-1" d="M650.46,275.12h-3.23a18.93,18.93,0,0,1-.2-2c-1.06,1.87-2.7,2.42-4.71,2.42-4.94,0-6.73-4.4-6.73-12.1,0-8.64,2.92-12.36,8-12.36,6.42,0,6.78,5.5,6.85,6.9h-4.19c-.08-1-.28-3.32-2.78-3.32-2.74,0-3.5,3.64-3.5,8.77,0,5.52.65,8.56,3.35,8.56,2.25,0,2.93-1.73,2.93-5.22v-1.32h-3.19v-3.62h7.4Z"/><path class="cls-1" d="M666.53,269.79c0,2.64,0,4.4,0,5.33h-4a17.79,17.79,0,0,1-.17-2,4,4,0,0,1-4,2.29c-2.58,0-4.53-1.27-4.53-5.43V257H658v12.06c0,1.79.38,2.79,1.9,2.79s2.41-.85,2.41-3.73V257h4.19Z"/><path class="cls-1" d="M673.52,267.14c0,2.3.28,4.86,2.6,4.86a2.37,2.37,0,0,0,2.43-2.38h4a6.09,6.09,0,0,1-6.49,5.84c-5.87,0-6.69-4.94-6.69-9.52,0-5.74,2.18-9.25,6.77-9.25,5.26,0,6.55,3.93,6.55,8.66,0,.63,0,1.48-.07,1.79Zm5-3c0-1.77-.2-4-2.42-4-2.4,0-2.54,2.69-2.55,4Z"/><path class="cls-1" d="M688.63,269.63a2.36,2.36,0,0,0,2.35,2.62,1.78,1.78,0,0,0,2-1.92c0-1.28-.57-2-2.71-2.77C686,266,685,264.49,685,261.86c0-2.47,1.55-5.2,5.88-5.2,4.75,0,5.9,3.26,5.91,5.64h-4c0-.64-.08-2.46-2-2.46a1.58,1.58,0,0,0-1.71,1.71c0,1.14.65,1.67,2.82,2.48,3.83,1.41,5.28,2.87,5.28,5.8,0,3.56-2.23,5.6-6.34,5.6-4.33,0-6.26-2.58-6.27-5.8Z"/><path class="cls-1" d="M698.1,257h2.37v-4.53h4.18V257h2.8v3.43h-2.8v9.91c0,1.05.19,1.65,1.5,1.65a4.77,4.77,0,0,0,1-.07V275a7.25,7.25,0,0,1-2.56.37c-2.9,0-4.15-1.07-4.15-4.33v-10.6H698.1Z"/><path class="cls-1" d="M728.21,269c-.07,1.46-.39,6.45-6.37,6.45-5.2,0-6.49-4.15-6.49-9.53,0-4.8,1.59-9.24,6.7-9.24,6,0,6.13,5.13,6.16,6.22H724c0-.7-.1-2.76-2-2.76s-2.44,2.05-2.44,5.81.57,6,2.39,6,2.1-2,2.21-3Z"/><path class="cls-1" d="M735,250.25v8.49a4.19,4.19,0,0,1,4.06-2.08c3,0,4.51,1.95,4.51,5.65v12.81h-4.18v-12c0-1.77-.32-2.91-2.09-2.91s-2.3,1.4-2.3,3.8v11.08h-4.19V250.25Z"/><path class="cls-1" d="M760,265.9c0,6.58-2.41,9.56-6.86,9.56s-6.75-2.85-6.75-9.46c0-6.42,2.7-9.31,7-9.31S760,259.84,760,265.9Zm-9.39.07c0,3.89.65,6,2.65,6s2.52-2.08,2.52-5.94-.66-5.82-2.55-5.82S750.62,262.09,750.62,266Z"/><path class="cls-1" d="M775.8,265.9c0,6.58-2.42,9.56-6.87,9.56s-6.75-2.85-6.75-9.46c0-6.42,2.7-9.31,7-9.31S775.8,259.84,775.8,265.9Zm-9.4.07c0,3.89.66,6,2.65,6s2.53-2.08,2.53-5.94-.67-5.82-2.56-5.82S766.4,262.09,766.4,266Z"/><path class="cls-1" d="M781.73,269.63a2.36,2.36,0,0,0,2.35,2.62,1.78,1.78,0,0,0,2-1.92c0-1.28-.57-2-2.72-2.77-4.27-1.58-5.32-3.07-5.32-5.7,0-2.47,1.55-5.2,5.87-5.2,4.76,0,5.91,3.26,5.91,5.64h-4c0-.64-.07-2.46-2-2.46a1.58,1.58,0,0,0-1.71,1.71c0,1.14.66,1.67,2.83,2.48,3.83,1.41,5.28,2.87,5.28,5.8,0,3.56-2.23,5.6-6.34,5.6-4.33,0-6.26-2.58-6.28-5.8Z"/><path class="cls-1" d="M796.37,267.14c0,2.3.28,4.86,2.6,4.86a2.36,2.36,0,0,0,2.42-2.38h4a6.08,6.08,0,0,1-6.48,5.84c-5.88,0-6.7-4.94-6.7-9.52,0-5.74,2.18-9.25,6.78-9.25,5.25,0,6.54,3.93,6.54,8.66,0,.63,0,1.48-.06,1.79Zm5-3c0-1.77-.21-4-2.43-4-2.39,0-2.54,2.69-2.55,4Z"/><path class="cls-1" d="M811.47,269.63a2.37,2.37,0,0,0,2.35,2.62,1.78,1.78,0,0,0,2-1.92c0-1.28-.58-2-2.72-2.77-4.27-1.58-5.32-3.07-5.32-5.7,0-2.47,1.55-5.2,5.87-5.2,4.76,0,5.91,3.26,5.91,5.64h-4c0-.64-.07-2.46-2-2.46a1.58,1.58,0,0,0-1.71,1.71c0,1.14.66,1.67,2.83,2.48,3.82,1.41,5.28,2.87,5.28,5.8,0,3.56-2.23,5.6-6.34,5.6-4.33,0-6.26-2.58-6.28-5.8Z"/><path class="cls-1" d="M611.63,305.14c0-3,0-4.85,0-6.14h4a29.54,29.54,0,0,1,.1,3,4.62,4.62,0,0,1,4.75-3.29v4.69c-3-.07-4.63.8-4.63,4.23v9.51h-4.18Z"/><path class="cls-1" d="M626,309.14c0,2.3.28,4.86,2.6,4.86a2.36,2.36,0,0,0,2.42-2.38h4a6.08,6.08,0,0,1-6.48,5.84c-5.88,0-6.7-4.94-6.7-9.52,0-5.74,2.18-9.25,6.78-9.25,5.25,0,6.54,3.93,6.54,8.66,0,.63,0,1.48-.06,1.79Zm5-3c0-1.77-.21-4-2.43-4-2.39,0-2.54,2.69-2.55,4Z"/><path class="cls-1" d="M641.06,311.63a2.38,2.38,0,0,0,2.36,2.62,1.78,1.78,0,0,0,2-1.92c0-1.28-.58-2-2.72-2.77-4.27-1.58-5.32-3.07-5.32-5.7,0-2.47,1.55-5.2,5.87-5.2,4.76,0,5.91,3.26,5.91,5.64h-4c0-.64-.07-2.46-2-2.46a1.58,1.58,0,0,0-1.71,1.71c0,1.14.66,1.67,2.83,2.48,3.83,1.41,5.28,2.87,5.28,5.8,0,3.56-2.23,5.6-6.34,5.6-4.33,0-6.26-2.58-6.28-5.8Z"/><path class="cls-1" d="M655.71,309.14c0,2.3.28,4.86,2.6,4.86a2.36,2.36,0,0,0,2.42-2.38h4a6.08,6.08,0,0,1-6.49,5.84c-5.87,0-6.69-4.94-6.69-9.52,0-5.74,2.18-9.25,6.78-9.25,5.25,0,6.54,3.93,6.54,8.66,0,.63,0,1.48-.06,1.79Zm5-3c0-1.77-.21-4-2.43-4-2.4,0-2.54,2.69-2.55,4Z"/><path class="cls-1" d="M667.7,305.14c0-3,0-4.85,0-6.14h4a29.54,29.54,0,0,1,.1,3,4.61,4.61,0,0,1,4.74-3.29v4.69c-3-.07-4.62.8-4.62,4.23v9.51H667.7Z"/><path class="cls-1" d="M682.3,299c1.12,5.14,2.33,10.73,2.74,13.76h0c.33-2.79,1.85-8.56,2.95-13.76h4.18l-5.07,18.12h-4.51L677.83,299Z"/><path class="cls-1" d="M705.63,313.17c0,.89.07,3.13.14,3.95H702a11.09,11.09,0,0,1-.18-1.69,4.31,4.31,0,0,1-4.08,2c-3.49,0-4.83-2.77-4.83-5.37,0-3.71,2.55-6,7.15-6,.61,0,1.07,0,1.48,0v-2c0-1.05-.13-2.29-2-2.29s-1.94,1.14-2,2.33h-4c.07-2.66,1.33-5.51,6.17-5.51,3.89,0,5.91,1.76,5.91,5.22Zm-4-4a7.92,7.92,0,0,0-1.35-.07c-2.38,0-3.25,1.1-3.25,2.58a2.09,2.09,0,0,0,2.08,2.35c2.13,0,2.52-1.59,2.52-4.28Z"/><path class="cls-1" d="M707.37,299h2.38v-4.53h4.17V299h2.8v3.43h-2.8v9.91c0,1.05.2,1.65,1.5,1.65a4.77,4.77,0,0,0,1-.07V317a7.22,7.22,0,0,1-2.56.37c-2.89,0-4.14-1.07-4.14-4.33v-10.6h-2.38Z"/><path class="cls-1" d="M719,299h4.18v18.12H719Zm0-6.75h4.18v4.13H719Z"/><path class="cls-1" d="M739.68,307.9c0,6.58-2.42,9.56-6.87,9.56s-6.75-2.85-6.75-9.46c0-6.42,2.7-9.31,7-9.31S739.68,301.84,739.68,307.9Zm-9.4.07c0,3.89.66,6,2.65,6s2.53-2.08,2.53-5.94-.67-5.82-2.56-5.82S730.28,304.09,730.28,308Z"/><path class="cls-1" d="M742.53,304.63c0-3.72,0-4.68,0-5.63h4a13.67,13.67,0,0,1,.14,1.88,4.18,4.18,0,0,1,4-2.22c3,0,4.64,1.86,4.64,5.53v12.93H751.1v-12c0-1.8-.36-2.9-2-2.9s-2.35.89-2.35,3.65v11.23h-4.18Z"/><path class="cls-1" d="M778.25,307.9c0,6.58-2.42,9.56-6.87,9.56s-6.75-2.85-6.75-9.46c0-6.42,2.7-9.31,7-9.31S778.25,301.84,778.25,307.9Zm-9.4.07c0,3.89.65,6,2.65,6S774,311.89,774,308s-.67-5.82-2.56-5.82S768.85,304.09,768.85,308Z"/><path class="cls-1" d="M785.28,315.72v7.94H781.1V304.23c0-2.44,0-4.09,0-5.23h4a14.52,14.52,0,0,1,.14,2,4,4,0,0,1,4.06-2.29c3.36,0,5.29,2.89,5.29,9.06,0,7.09-2.35,9.71-5.84,9.71A3.56,3.56,0,0,1,785.28,315.72Zm5.07-7.77c0-4.34-.9-5.71-2.67-5.71-2.11,0-2.53,2-2.53,5.54,0,4.15.21,6.12,2.5,6.12C789.48,313.9,790.35,312,790.35,308Z"/><path class="cls-1" d="M795.64,299H798v-4.53h4.18V299H805v3.43h-2.8v9.91c0,1.05.19,1.65,1.5,1.65a4.77,4.77,0,0,0,1-.07V317a7.25,7.25,0,0,1-2.56.37c-2.89,0-4.15-1.07-4.15-4.33v-10.6h-2.37Z"/><path class="cls-1" d="M807.24,299h4.18v18.12h-4.18Zm0-6.75h4.18v4.13h-4.18Z"/><path class="cls-1" d="M827.94,307.9c0,6.58-2.41,9.56-6.86,9.56s-6.75-2.85-6.75-9.46c0-6.42,2.7-9.31,7-9.31S827.94,301.84,827.94,307.9Zm-9.39.07c0,3.89.65,6,2.65,6s2.52-2.08,2.52-5.94-.66-5.82-2.55-5.82S818.55,304.09,818.55,308Z"/><path class="cls-1" d="M830.79,304.63c0-3.72,0-4.68,0-5.63h4a13.84,13.84,0,0,1,.13,1.88,4.21,4.21,0,0,1,4-2.22c3,0,4.63,1.86,4.63,5.53v12.93h-4.18v-12c0-1.8-.36-2.9-2-2.9s-2.34.89-2.34,3.65v11.23h-4.19Z"/><path class="cls-1" d="M83.72,496.78h-12v-17h12Zm-24,0h-12v-17h12Zm-24,0h-6.3v-17h6.3Z"/><path class="cls-1" d="M964.4,465.34h-17v-12h17Zm0-24h-17v-12h17Zm0-24h-17v-12h17Zm0-24h-17v-12h17Zm0-24h-17v-12h17Zm0-24h-17v-12h17Zm0-24h-17v-12h17Zm0-24h-17v-12h17Zm0-24h-17v-12h17Zm0-24h-17v-12h17Zm0-24h-17v-12h17Zm0-24h-17v-12h17Zm0-24h-17v-12h17Zm0-24h-17v-.48h17Z"/><path class="cls-1" d="M961.88,292.18h-12v-17h12Zm-24,0h-12v-17h12Zm-24,0h-6.3v-17h6.3Z"/><path class="cls-1" d="M784.6,523.25h-17v-12h17Zm0-24h-17v-12h17Zm0-24h-17v-9.91h17Z"/><path class="cls-1" d="M955.9,473.84h-12v-17h12Zm-24,0h-12v-17h12Zm-24,0h-12v-17h12Zm-24,0h-12v-17h12Zm-24,0h-12v-17h12Zm-24,0h-12v-17h12Zm-24,0h-12v-17h12Zm-24,0h-12v-17h12Zm-24,0h-12v-17h12Zm-24,0h-12v-17h12Zm-24,0h-12v-17h12Zm-24,0h-12v-17h12Zm-24,0h-12v-17h12Zm-24,0h-12v-17h12Zm-24,0h-12v-17h12Zm-24,0h-12v-17h12Zm-24,0h-12v-17h12Zm-24,0h-12v-17h12Zm-24,0h-12v-17h12Zm-24,0h-12v-17h12Zm-24,0h-12v-17h12Zm-24,0h-8.17v-17h8.17Z"/><path class="cls-2" d="M412.88,363.29H114.57a39.39,39.39,0,0,1-39.35-39.35V243.42a39.4,39.4,0,0,1,39.35-39.35H412.88a39.4,39.4,0,0,1,39.35,39.35v80.52A39.39,39.39,0,0,1,412.88,363.29ZM114.57,221.07a22.37,22.37,0,0,0-22.35,22.35v80.52a22.37,22.37,0,0,0,22.35,22.35H412.88a22.37,22.37,0,0,0,22.35-22.35V243.42a22.38,22.38,0,0,0-22.35-22.35Zm61.07,54.05H172.4a18.93,18.93,0,0,1-.2-2c-1,1.87-2.7,2.42-4.7,2.42-4.95,0-6.74-4.4-6.74-12.1,0-8.64,2.92-12.36,8-12.36,6.42,0,6.77,5.5,6.84,6.9h-4.19c-.07-1-.28-3.32-2.78-3.32-2.73,0-3.49,3.64-3.49,8.77,0,5.52.65,8.56,3.35,8.56,2.25,0,2.92-1.73,2.92-5.22v-1.32h-3.18v-3.62h7.4Zm16.07-5.33c0,2.64,0,4.4,0,5.33h-4a17.83,17.83,0,0,1-.16-2,4,4,0,0,1-4,2.29c-2.57,0-4.53-1.27-4.53-5.43V257h4.19v12.06c0,1.79.37,2.79,1.89,2.79s2.42-.85,2.42-3.73V257h4.19Zm7-2.65c0,2.3.28,4.86,2.6,4.86a2.36,2.36,0,0,0,2.42-2.38h4a6.08,6.08,0,0,1-6.48,5.84c-5.88,0-6.7-4.94-6.7-9.52,0-5.74,2.18-9.25,6.78-9.25,5.25,0,6.54,3.93,6.54,8.66,0,.63,0,1.48-.06,1.79Zm5-3c0-1.77-.21-4-2.43-4-2.39,0-2.54,2.69-2.55,4Zm10.06,5.51a2.37,2.37,0,0,0,2.35,2.62,1.78,1.78,0,0,0,2-1.92c0-1.28-.58-2-2.72-2.77-4.27-1.58-5.32-3.07-5.32-5.7,0-2.47,1.55-5.2,5.87-5.2,4.76,0,5.91,3.26,5.91,5.64h-4c0-.64-.07-2.46-2-2.46a1.58,1.58,0,0,0-1.71,1.71c0,1.14.66,1.67,2.83,2.48,3.83,1.41,5.28,2.87,5.28,5.8,0,3.56-2.23,5.6-6.34,5.6-4.33,0-6.26-2.58-6.28-5.8ZM223.27,257h2.38v-4.53h4.18V257h2.79v3.43h-2.79v9.91c0,1.05.19,1.65,1.49,1.65a4.72,4.72,0,0,0,1-.07V275a7.2,7.2,0,0,1-2.55.37c-2.9,0-4.15-1.07-4.15-4.33v-10.6h-2.38Zm18.08,0h4.18v18.12h-4.18Zm0-6.75h4.18v4.13h-4.18Zm10.68,19.38a2.36,2.36,0,0,0,2.35,2.62,1.78,1.78,0,0,0,2-1.92c0-1.28-.57-2-2.71-2.77-4.28-1.58-5.33-3.07-5.33-5.7,0-2.47,1.55-5.2,5.88-5.2,4.75,0,5.9,3.26,5.91,5.64h-4c0-.64-.07-2.46-2-2.46a1.57,1.57,0,0,0-1.7,1.71c0,1.14.65,1.67,2.82,2.48,3.83,1.41,5.28,2.87,5.28,5.8,0,3.56-2.23,5.6-6.34,5.6-4.33,0-6.26-2.58-6.28-5.8Zm30.38,4c0,5.14-1.49,8.29-7,8.29-5.16,0-6.25-3-6.36-5.24h4.16c.07.55.26,1.84,2.36,1.84,2.26,0,2.69-1.72,2.69-4.89v-.81a3.93,3.93,0,0,1-3.88,2.15c-3.86,0-5.49-3.38-5.49-8.72,0-6.21,2.23-9.58,5.88-9.58,2.38,0,3.2,1.12,3.49,1.91,0-.55.1-1.16.16-1.6h4c0,1.11-.06,2.93-.06,5.45Zm-9.21-7.51c0,3.74.9,5.33,2.59,5.33,2.11,0,2.56-2,2.56-5.89,0-3.26-.16-5.34-2.43-5.34C274.2,260.24,273.23,262.07,273.23,266.14Zm12.92-3c0-3,0-4.85,0-6.14h4a25,25,0,0,1,.11,3,4.61,4.61,0,0,1,4.74-3.29v4.69c-3-.07-4.62.8-4.62,4.23v9.51h-4.18Zm14.32,4c0,2.3.29,4.86,2.6,4.86a2.37,2.37,0,0,0,2.43-2.38h4a6.09,6.09,0,0,1-6.49,5.84c-5.87,0-6.69-4.94-6.69-9.52,0-5.74,2.18-9.25,6.77-9.25,5.26,0,6.55,3.93,6.55,8.66,0,.63,0,1.48-.07,1.79Zm5-3c0-1.77-.21-4-2.43-4-2.4,0-2.54,2.69-2.55,4Zm10.53,3c0,2.3.28,4.86,2.6,4.86a2.36,2.36,0,0,0,2.42-2.38h4a6.08,6.08,0,0,1-6.48,5.84c-5.88,0-6.7-4.94-6.7-9.52,0-5.74,2.18-9.25,6.78-9.25,5.26,0,6.54,3.93,6.54,8.66,0,.63,0,1.48-.06,1.79Zm5-3c0-1.77-.21-4-2.43-4-2.39,0-2.54,2.69-2.55,4Zm5.32-7.12h2.38v-4.53H333V257h2.79v3.43H333v9.91c0,1.05.19,1.65,1.49,1.65a4.72,4.72,0,0,0,1-.07V275a7.2,7.2,0,0,1-2.55.37c-2.9,0-4.15-1.07-4.15-4.33v-10.6h-2.38Zm14.87,10.14c0,2.3.28,4.86,2.6,4.86a2.37,2.37,0,0,0,2.43-2.38h4a6.09,6.09,0,0,1-6.49,5.84c-5.87,0-6.69-4.94-6.69-9.52,0-5.74,2.18-9.25,6.77-9.25,5.26,0,6.55,3.93,6.55,8.66,0,.63,0,1.48-.07,1.79Zm5-3c0-1.77-.2-4-2.42-4-2.4,0-2.54,2.69-2.55,4Zm19.83-13.87v19.83c0,2.14,0,4,0,5h-4a19.11,19.11,0,0,1-.13-1.93c-.53,1.28-1.62,2.24-4,2.24-3.82,0-5.34-3.43-5.34-9.52,0-5.56,1.81-9.22,6-9.22,2,0,2.9.72,3.26,1.42v-7.86ZM356.92,266c0,4.2.76,5.93,2.53,5.93,2.17,0,2.64-1.69,2.64-6.06,0-4.18-.33-5.6-2.46-5.6C357.93,260.24,356.92,261.53,356.92,266ZM180.78,299h2.38v-4.53h4.17V299h2.8v3.43h-2.8v9.91c0,1.05.2,1.65,1.5,1.65a4.72,4.72,0,0,0,1-.07V317a7.2,7.2,0,0,1-2.55.37c-2.9,0-4.15-1.07-4.15-4.33v-10.6h-2.38Zm15.76-6.75v8.49a4.2,4.2,0,0,1,4.07-2.08c3,0,4.5,1.95,4.5,5.65v12.81h-4.18v-12c0-1.77-.32-2.91-2.09-2.91s-2.3,1.4-2.3,3.8v11.08h-4.19V292.25Zm12.26,12.89c0-3,0-4.85,0-6.14h4a29.54,29.54,0,0,1,.1,3,4.61,4.61,0,0,1,4.74-3.29v4.69c-3-.07-4.62.8-4.62,4.23v9.51H208.8Zm23.78,2.76c0,6.58-2.41,9.56-6.86,9.56S219,314.61,219,308c0-6.42,2.7-9.31,7-9.31S232.58,301.84,232.58,307.9Zm-9.39.07c0,3.89.65,6,2.65,6s2.52-2.08,2.52-5.94-.66-5.82-2.55-5.82S223.19,304.09,223.19,308Zm24.86,3.82c0,2.64,0,4.4,0,5.33h-4a17.79,17.79,0,0,1-.17-2,4,4,0,0,1-4,2.29c-2.58,0-4.53-1.27-4.53-5.43V299h4.19v12.06c0,1.79.37,2.79,1.89,2.79s2.42-.85,2.42-3.73V299h4.18Zm16.33,3.86c0,5.14-1.5,8.29-7,8.29-5.16,0-6.25-3-6.36-5.24h4.16c.07.55.26,1.84,2.36,1.84,2.26,0,2.69-1.72,2.69-4.89v-.81a3.93,3.93,0,0,1-3.88,2.15c-3.86,0-5.5-3.38-5.5-8.72,0-6.21,2.24-9.58,5.89-9.58,2.38,0,3.2,1.12,3.49,1.91,0-.55.1-1.16.16-1.6h4c0,1.11-.06,2.93-.06,5.45Zm-9.21-7.51c0,3.74.9,5.33,2.59,5.33,2.11,0,2.56-2,2.56-5.89,0-3.26-.16-5.34-2.43-5.34C256.14,302.24,255.17,304.07,255.17,308.14Zm17.11-15.89v8.49a4.19,4.19,0,0,1,4.06-2.08c3,0,4.51,1.95,4.51,5.65v12.81h-4.19v-12c0-1.77-.31-2.91-2.08-2.91s-2.3,1.4-2.3,3.8v11.08h-4.19V292.25Zm22.49,18.9-1.18,6h-4.25l5.49-23.69h5.5l5.55,23.69h-4.45l-1.18-6Zm4.72-3.68c-.88-4.53-1.59-7.84-2-10.1h-.1c-.29,2.18-1,5.74-1.91,10.1Zm12.65-14v23.69h-4.25V293.43Zm8.05,23.69-5.88-23.69h4.57l2.17,10.05c.69,3.15,1.34,6.66,1.62,9.13h.07c.29-2.4,1.16-5.94,1.82-9l2.1-10.14h4.44l-6,23.69Zm15.11-6-1.18,6h-4.25l5.49-23.69h5.5l5.55,23.69H342l-1.18-6Zm4.72-3.68c-.88-4.53-1.59-7.84-2-10.1H338c-.29,2.18-1,5.74-1.91,10.1ZM153.66,479.65h-3.24a18.93,18.93,0,0,1-.2-2c-1.05,1.88-2.7,2.42-4.7,2.42-5,0-6.74-4.4-6.74-12.1,0-8.64,2.92-12.36,8-12.36,6.42,0,6.77,5.5,6.84,6.9h-4.19c-.07-.95-.28-3.32-2.78-3.32-2.73,0-3.49,3.65-3.49,8.77,0,5.53.65,8.56,3.35,8.56,2.25,0,2.92-1.73,2.92-5.22V470h-3.19v-3.62h7.41Zm16.07-5.32c0,2.63,0,4.39,0,5.32h-4c-.1-.55-.13-1.37-.17-2a4,4,0,0,1-4,2.29c-2.58,0-4.53-1.27-4.53-5.43v-13h4.19v12.06c0,1.79.37,2.79,1.89,2.79s2.42-.85,2.42-3.73V461.53h4.19Zm7-2.66c0,2.3.28,4.86,2.6,4.86a2.36,2.36,0,0,0,2.42-2.38h4a6.08,6.08,0,0,1-6.49,5.84c-5.87,0-6.69-4.93-6.69-9.52,0-5.74,2.18-9.25,6.78-9.25,5.25,0,6.54,3.93,6.54,8.66,0,.63,0,1.48-.06,1.79Zm5-3c0-1.76-.21-4-2.43-4-2.39,0-2.54,2.69-2.55,4Zm10.06,5.51a2.37,2.37,0,0,0,2.35,2.62,1.78,1.78,0,0,0,2.05-1.92c0-1.28-.58-2-2.72-2.77-4.27-1.57-5.32-3.07-5.32-5.7,0-2.46,1.55-5.2,5.87-5.2,4.76,0,5.91,3.26,5.91,5.64h-4c0-.64-.07-2.46-2-2.46a1.59,1.59,0,0,0-1.71,1.71c0,1.15.66,1.67,2.83,2.48,3.82,1.41,5.28,2.87,5.28,5.8,0,3.57-2.23,5.6-6.34,5.6-4.33,0-6.26-2.57-6.28-5.8Zm9.47-12.63h2.38V457h4.17v4.53h2.8V465h-2.8v9.91c0,1.06.2,1.65,1.5,1.65a4.77,4.77,0,0,0,1-.07v3.07a7.22,7.22,0,0,1-2.56.37c-2.89,0-4.14-1.07-4.14-4.32V465h-2.38Zm18.08,0h4.18v18.12h-4.18Zm0-6.75h4.18v4.13H219.4Zm10.68,19.38a2.36,2.36,0,0,0,2.35,2.62,1.78,1.78,0,0,0,2-1.92c0-1.28-.57-2-2.71-2.77-4.28-1.57-5.33-3.07-5.33-5.7,0-2.46,1.55-5.2,5.87-5.2,4.76,0,5.91,3.26,5.91,5.64h-4c0-.64-.07-2.46-2-2.46a1.58,1.58,0,0,0-1.7,1.71c0,1.15.65,1.67,2.82,2.48,3.83,1.41,5.28,2.87,5.28,5.8,0,3.57-2.23,5.6-6.34,5.6-4.33,0-6.26-2.57-6.28-5.8Zm17.74-7.2c0-3.57,0-4.65,0-5.43h4a13.25,13.25,0,0,1,.13,1.85,4.31,4.31,0,0,1,4-2.16,3.51,3.51,0,0,1,3.68,2.46,4.77,4.77,0,0,1,4.45-2.46c2.57,0,4.58,1.31,4.58,5.43v13h-4.12V467.27c0-1.44-.46-2.5-1.92-2.5-1.7,0-2.24,1.29-2.24,3.53v11.35h-4.15V467.34c0-1.66-.56-2.53-1.91-2.53-1.68,0-2.29,1.15-2.29,3.59v11.25h-4.15Zm36.11,8.74c0,.89.08,3.13.14,3.95h-3.8a11.19,11.19,0,0,1-.17-1.69,4.31,4.31,0,0,1-4.09,2c-3.48,0-4.82-2.77-4.82-5.37,0-3.71,2.55-6,7.14-6,.61,0,1.08,0,1.49,0v-2c0-1.05-.14-2.29-1.95-2.29s-1.94,1.14-2.05,2.33h-4c.07-2.66,1.32-5.51,6.17-5.51,3.89,0,5.9,1.76,5.9,5.22Zm-4-4a7.92,7.92,0,0,0-1.35-.07c-2.38,0-3.25,1.1-3.25,2.58a2.09,2.09,0,0,0,2.08,2.35c2.14,0,2.52-1.59,2.52-4.28Zm5.77-10.17h2.37V457h4.18v4.53H295V465h-2.8v9.91c0,1.06.19,1.65,1.49,1.65a4.72,4.72,0,0,0,1-.07v3.07a7.16,7.16,0,0,1-2.55.37c-2.9,0-4.15-1.07-4.15-4.32V465h-2.37Zm23.57,12c-.07,1.46-.4,6.45-6.38,6.45-5.19,0-6.48-4.15-6.48-9.53,0-4.8,1.58-9.24,6.69-9.24,5.95,0,6.14,5.13,6.17,6.23H305c0-.71-.11-2.77-2-2.77s-2.44,2.06-2.44,5.81c0,3.9.58,6,2.39,6s2.1-2,2.21-3ZM316,454.78v8.49a4.22,4.22,0,0,1,4.07-2.08c3,0,4.51,1.95,4.51,5.65v12.81h-4.19v-12c0-1.77-.32-2.91-2.09-2.91s-2.3,1.4-2.3,3.8v11.08h-4.18V454.78Zm15.6,16.89c0,2.3.28,4.86,2.6,4.86a2.36,2.36,0,0,0,2.42-2.38h4a6.08,6.08,0,0,1-6.48,5.84c-5.88,0-6.7-4.93-6.7-9.52,0-5.74,2.19-9.25,6.78-9.25,5.26,0,6.54,3.93,6.54,8.66,0,.63,0,1.48-.06,1.79Zm5-3c0-1.76-.21-4-2.42-4-2.4,0-2.55,2.69-2.56,4Zm19.83-13.87v19.83c0,2.14,0,4,0,5h-4a19.11,19.11,0,0,1-.13-1.93c-.53,1.29-1.62,2.24-4,2.24-3.83,0-5.34-3.43-5.34-9.52,0-5.56,1.81-9.22,6-9.22,2,0,2.9.72,3.26,1.42v-7.86Zm-9.23,15.72c0,4.2.76,5.93,2.53,5.93,2.16,0,2.64-1.69,2.64-6.06,0-4.18-.33-5.6-2.46-5.6C348.24,464.77,347.23,466.06,347.23,470.5Zm17.4-9H367V457h4.18v4.53H374V465h-2.79v9.91c0,1.06.19,1.65,1.49,1.65a4.72,4.72,0,0,0,1-.07v3.07a7.2,7.2,0,0,1-2.55.37c-2.9,0-4.15-1.07-4.15-4.32V465h-2.38ZM389,470.44c0,6.57-2.41,9.55-6.86,9.55s-6.75-2.84-6.75-9.46c0-6.42,2.7-9.31,7-9.31S389,464.37,389,470.44Zm-9.39.07c0,3.88.65,6,2.65,6s2.52-2.08,2.52-5.94-.67-5.82-2.56-5.82S379.57,466.62,379.57,470.51Zm-207.74,45c-.08,1.46-.4,6.45-6.38,6.45-5.2,0-6.48-4.15-6.48-9.53,0-4.8,1.58-9.24,6.69-9.24,6,0,6.13,5.13,6.17,6.23H167.6c0-.71-.1-2.77-2-2.77s-2.44,2.06-2.44,5.81.57,6,2.39,6,2.1-2,2.21-3Zm15.66-3.07c0,6.57-2.42,9.55-6.87,9.55s-6.75-2.84-6.75-9.46c0-6.42,2.7-9.31,7-9.31S187.49,506.37,187.49,512.44Zm-9.39.07c0,3.88.65,6,2.64,6s2.53-2.08,2.53-5.94-.67-5.82-2.56-5.82S178.1,508.62,178.1,512.51Zm12.24-2.84c0-3,0-4.85,0-6.14h4a25,25,0,0,1,.11,3,4.62,4.62,0,0,1,4.74-3.29v4.69c-3-.07-4.62.8-4.62,4.23v9.51h-4.18Zm10.85,0c0-3,0-4.85,0-6.14h4a25,25,0,0,1,.11,3,4.62,4.62,0,0,1,4.74-3.29v4.69c-3-.07-4.62.8-4.62,4.23v9.51h-4.18Zm14.32,4c0,2.3.28,4.86,2.6,4.86a2.37,2.37,0,0,0,2.43-2.38h4a6.09,6.09,0,0,1-6.49,5.84c-5.87,0-6.69-4.93-6.69-9.52,0-5.74,2.18-9.25,6.77-9.25,5.26,0,6.55,3.93,6.55,8.66,0,.63,0,1.48-.07,1.79Zm5-3c0-1.76-.2-4-2.42-4-2.4,0-2.54,2.69-2.55,4Zm19.24,4.86c-.07,1.46-.4,6.45-6.38,6.45-5.19,0-6.48-4.15-6.48-9.53,0-4.8,1.59-9.24,6.7-9.24,5.94,0,6.13,5.13,6.16,6.23h-4.22c0-.71-.11-2.77-2-2.77s-2.45,2.06-2.45,5.81.58,6,2.4,6,2.1-2,2.21-3Zm1.35-12h2.37V499h4.18v4.53h2.8V507h-2.8v9.91c0,1.06.19,1.65,1.5,1.65a4.77,4.77,0,0,0,1-.07v3.07a7.25,7.25,0,0,1-2.56.37c-2.89,0-4.15-1.07-4.15-4.32V507h-2.37Zm22.26,16.73v7.93h-4.19V508.77c0-2.45,0-4.09,0-5.24h4a14.74,14.74,0,0,1,.13,2,4,4,0,0,1,4.07-2.29c3.36,0,5.29,2.89,5.29,9.07,0,7.08-2.35,9.7-5.84,9.7A3.57,3.57,0,0,1,263.4,520.26Zm5.07-7.78c0-4.34-.9-5.71-2.67-5.71-2.11,0-2.54,2-2.54,5.54,0,4.15.22,6.13,2.51,6.13C267.6,518.44,268.47,516.48,268.47,512.48Zm7.09-2.81c0-3,0-4.85,0-6.14h4a29.54,29.54,0,0,1,.1,3,4.63,4.63,0,0,1,4.75-3.29v4.69c-3-.07-4.63.8-4.63,4.23v9.51h-4.18Zm23.78,2.77c0,6.57-2.41,9.55-6.86,9.55s-6.75-2.84-6.75-9.46c0-6.42,2.7-9.31,7-9.31S299.34,506.37,299.34,512.44Zm-9.39.07c0,3.88.65,6,2.65,6s2.52-2.08,2.52-5.94-.66-5.82-2.55-5.82S290,508.62,290,512.51Zm16.42,7.75v7.93h-4.18V508.77c0-2.45,0-4.09,0-5.24h4a14.74,14.74,0,0,1,.13,2,4,4,0,0,1,4.07-2.29c3.36,0,5.29,2.89,5.29,9.07,0,7.08-2.35,9.7-5.85,9.7A3.6,3.6,0,0,1,306.37,520.26Zm5.08-7.78c0-4.34-.9-5.71-2.68-5.71-2.1,0-2.53,2-2.53,5.54,0,4.15.22,6.13,2.51,6.13C310.57,518.44,311.45,516.48,311.45,512.48ZM322,513.67c0,2.3.28,4.86,2.59,4.86a2.37,2.37,0,0,0,2.43-2.38h4a6.09,6.09,0,0,1-6.49,5.84c-5.87,0-6.69-4.93-6.69-9.52,0-5.74,2.18-9.25,6.78-9.25,5.25,0,6.54,3.93,6.54,8.66,0,.63,0,1.48-.07,1.79Zm5-3c0-1.76-.21-4-2.43-4-2.4,0-2.54,2.69-2.55,4Zm6.95-1c0-3,0-4.85,0-6.14h4a25,25,0,0,1,.11,3,4.62,4.62,0,0,1,4.74-3.29v4.69c-3-.07-4.62.8-4.62,4.23v9.51H334Zm10.2-6.14h2.38V499h4.17v4.53h2.8V507h-2.8v9.91c0,1.06.19,1.65,1.5,1.65a4.77,4.77,0,0,0,1-.07v3.07a7.22,7.22,0,0,1-2.56.37c-2.89,0-4.14-1.07-4.14-4.32V507h-2.38Zm15.28,0c1.32,5.82,2.59,10.77,2.81,13h0c.41-2.57,1.62-7.86,2.84-13h4.2l-5.21,18.94c-1.55,5.64-3.58,6-6.1,6a9.21,9.21,0,0,1-1.63-.14v-3.53a11.28,11.28,0,0,0,1.3.08c1.6,0,2.15-.81,2.63-3l-5.44-18.36ZM412.88,565H114.57a39.39,39.39,0,0,1-39.35-39.35V447.2a39.39,39.39,0,0,1,39.35-39.35H412.88a39.39,39.39,0,0,1,39.35,39.35v78.46A39.39,39.39,0,0,1,412.88,565ZM114.57,424.85A22.37,22.37,0,0,0,92.22,447.2v78.46A22.37,22.37,0,0,0,114.57,548H412.88a22.37,22.37,0,0,0,22.35-22.35V447.2a22.38,22.38,0,0,0-22.35-22.35ZM649.9,594.44h-3.24a18.93,18.93,0,0,1-.2-2c-1.05,1.88-2.7,2.42-4.7,2.42-5,0-6.74-4.4-6.74-12.1,0-8.64,2.92-12.36,8-12.36,6.42,0,6.77,5.5,6.84,6.9h-4.19c-.07-.95-.28-3.31-2.78-3.31-2.73,0-3.49,3.64-3.49,8.76,0,5.53.65,8.56,3.35,8.56,2.25,0,2.92-1.73,2.92-5.22v-1.32H642.5v-3.62h7.4ZM666,589.12c0,2.63,0,4.39,0,5.32h-4a17.64,17.64,0,0,1-.16-2,4,4,0,0,1-4,2.29c-2.58,0-4.53-1.27-4.53-5.43v-13h4.19v12.06c0,1.79.37,2.79,1.89,2.79s2.42-.85,2.42-3.73V576.32H666Zm7-2.65c0,2.29.28,4.85,2.6,4.85a2.36,2.36,0,0,0,2.42-2.38h4a6.08,6.08,0,0,1-6.48,5.84c-5.88,0-6.7-4.93-6.7-9.52,0-5.74,2.18-9.25,6.78-9.25,5.25,0,6.54,3.93,6.54,8.66,0,.63,0,1.49-.06,1.8Zm5-3c0-1.76-.21-4-2.43-4-2.39,0-2.54,2.69-2.55,4ZM688.06,589a2.36,2.36,0,0,0,2.35,2.61,1.78,1.78,0,0,0,2.05-1.92c0-1.28-.58-2-2.72-2.77-4.27-1.57-5.32-3.07-5.32-5.7,0-2.46,1.55-5.2,5.87-5.2,4.76,0,5.91,3.26,5.91,5.64h-4c0-.64-.07-2.46-2-2.46a1.59,1.59,0,0,0-1.71,1.71c0,1.15.66,1.67,2.83,2.48,3.82,1.41,5.28,2.87,5.28,5.8,0,3.57-2.23,5.6-6.34,5.6-4.33,0-6.26-2.57-6.28-5.79Zm9.47-12.64h2.38v-4.53h4.17v4.53h2.8v3.43h-2.8v9.91c0,1.06.2,1.65,1.5,1.65a4.72,4.72,0,0,0,1-.07v3.07a7.2,7.2,0,0,1-2.55.37c-2.9,0-4.15-1.07-4.15-4.32V579.75h-2.38Zm18.08,0h4.18v18.12h-4.18Zm0-6.75h4.18v4.13h-4.18ZM726.32,589a2.36,2.36,0,0,0,2.35,2.61,1.78,1.78,0,0,0,2-1.92c0-1.28-.57-2-2.71-2.77-4.28-1.57-5.33-3.07-5.33-5.7,0-2.46,1.55-5.2,5.87-5.2,4.76,0,5.91,3.26,5.92,5.64h-4c0-.64-.07-2.46-2-2.46a1.58,1.58,0,0,0-1.7,1.71c0,1.15.65,1.67,2.82,2.48,3.83,1.41,5.28,2.87,5.28,5.8,0,3.57-2.23,5.6-6.34,5.6-4.33,0-6.26-2.57-6.28-5.79Zm15.73-12.64h2.38v-4.53h4.17v4.53h2.8v3.43h-2.8v9.91c0,1.06.2,1.65,1.5,1.65a4.77,4.77,0,0,0,1-.07v3.07a7.22,7.22,0,0,1-2.56.37c-2.89,0-4.14-1.07-4.14-4.32V579.75h-2.38Zm11.57,6.14c0-3,0-4.85,0-6.14h4a26.4,26.4,0,0,1,.1,3,4.64,4.64,0,0,1,4.75-3.29v4.69c-3-.07-4.62.8-4.62,4.23v9.51h-4.18Zm22.53,8c0,.89.07,3.13.14,4h-3.8a10,10,0,0,1-.18-1.69,4.31,4.31,0,0,1-4.08,2c-3.49,0-4.83-2.77-4.83-5.37,0-3.71,2.55-6,7.15-6,.61,0,1.07,0,1.48,0v-2c0-1.05-.13-2.29-1.95-2.29s-1.94,1.15-2,2.33h-4c.07-2.66,1.33-5.51,6.17-5.51,3.89,0,5.91,1.76,5.91,5.22Zm-4-4a8,8,0,0,0-1.35-.07c-2.39,0-3.25,1.1-3.25,2.58a2.09,2.09,0,0,0,2.08,2.35c2.13,0,2.52-1.59,2.52-4.28Zm7.74-4.53c0-3.73,0-4.69,0-5.64h4a13.67,13.67,0,0,1,.14,1.88,4.19,4.19,0,0,1,4-2.22c3,0,4.64,1.87,4.64,5.53v12.93h-4.19v-12c0-1.8-.36-2.89-2-2.89s-2.35.89-2.35,3.64v11.23h-4.18Zm19.39,7a2.36,2.36,0,0,0,2.35,2.61,1.78,1.78,0,0,0,2-1.92c0-1.28-.57-2-2.72-2.77-4.27-1.57-5.32-3.07-5.32-5.7,0-2.46,1.55-5.2,5.87-5.2,4.76,0,5.91,3.26,5.91,5.64h-4c0-.64-.07-2.46-2-2.46a1.59,1.59,0,0,0-1.71,1.71c0,1.15.66,1.67,2.83,2.48,3.83,1.41,5.28,2.87,5.28,5.8,0,3.57-2.23,5.6-6.34,5.6-4.33,0-6.26-2.57-6.28-5.79Zm11.83,5.48V579.75H809v-3.43h2.11v-1.77c0-3,1.38-5.21,5-5.21a7.66,7.66,0,0,1,1.72.2V573a4.46,4.46,0,0,0-1-.11c-1.21,0-1.52.67-1.52,1.92v1.47h2.57v3.43h-2.57v14.69Zm11.84-8c0,2.29.28,4.85,2.6,4.85a2.36,2.36,0,0,0,2.42-2.38h4a6.08,6.08,0,0,1-6.49,5.84c-5.87,0-6.69-4.93-6.69-9.52,0-5.74,2.18-9.25,6.78-9.25,5.25,0,6.54,3.93,6.54,8.66,0,.63,0,1.49-.06,1.8Zm5-3c0-1.76-.21-4-2.43-4-2.39,0-2.54,2.69-2.55,4Zm6.95-1c0-3,0-4.85,0-6.14h4a29.54,29.54,0,0,1,.1,3,4.63,4.63,0,0,1,4.75-3.29v4.69c-3-.07-4.63.8-4.63,4.23v9.51h-4.18Zm10.85,0c0-3,0-4.85,0-6.14h4a29.54,29.54,0,0,1,.1,3,4.63,4.63,0,0,1,4.75-3.29v4.69c-3-.07-4.63.8-4.63,4.23v9.51h-4.18Zm14.33,4c0,2.29.28,4.85,2.6,4.85a2.36,2.36,0,0,0,2.42-2.38h4a6.08,6.08,0,0,1-6.49,5.84c-5.87,0-6.69-4.93-6.69-9.52,0-5.74,2.18-9.25,6.78-9.25,5.25,0,6.54,3.93,6.54,8.66,0,.63,0,1.49-.06,1.8Zm5-3c0-1.76-.21-4-2.43-4-2.4,0-2.54,2.69-2.55,4ZM885,569.57V589.4c0,2.14,0,4,0,5h-4a16.58,16.58,0,0,1-.13-1.93c-.53,1.29-1.63,2.24-4,2.24-3.82,0-5.34-3.43-5.34-9.52,0-5.56,1.82-9.22,6-9.22,2,0,2.91.72,3.27,1.43v-7.87Zm-9.23,15.72c0,4.2.75,5.93,2.53,5.93,2.16,0,2.64-1.69,2.64-6.06,0-4.18-.33-5.59-2.46-5.59C876.74,579.57,875.74,580.85,875.74,585.29Zm17.4-9h2.38v-4.53h4.17v4.53h2.8v3.43h-2.8v9.91c0,1.06.2,1.65,1.5,1.65a4.77,4.77,0,0,0,1-.07v3.07a7.22,7.22,0,0,1-2.56.37c-2.89,0-4.14-1.07-4.14-4.32V579.75h-2.38Zm24.33,8.91c0,6.57-2.42,9.55-6.87,9.55s-6.75-2.84-6.75-9.46c0-6.41,2.7-9.31,7-9.31S917.47,579.16,917.47,585.23Zm-9.39.07c0,3.89.65,6,2.64,6s2.53-2.08,2.53-5.94-.67-5.82-2.56-5.82S908.08,581.41,908.08,585.3ZM644.27,629.54c-.1,1.2-.56,7.3-7.13,7.3-6.73,0-7.51-5.91-7.51-12.28,0-7.66,2.25-12.18,7.76-12.18,6.28,0,6.77,5.38,6.87,7.28h-4.2c-.06-.81-.12-3.69-2.73-3.69s-3.31,3.26-3.31,8.68c0,4.47.44,8.66,3.19,8.66,2.53,0,2.73-2.86,2.83-3.77Zm14.43-3.63h-7.6v6.88h8.53l-.52,3.65h-12.2V612.75h12.15v3.72h-8v5.76h7.6Zm17.52,3.63c-.1,1.2-.55,7.3-7.13,7.3-6.73,0-7.5-5.91-7.5-12.28,0-7.66,2.25-12.18,7.76-12.18,6.28,0,6.77,5.38,6.86,7.28H672c-.07-.81-.12-3.69-2.74-3.69s-3.31,3.26-3.31,8.68c0,4.47.45,8.66,3.19,8.66,2.53,0,2.73-2.86,2.84-3.77Zm12.94.94-1.17,6h-4.25l5.48-23.69h5.51l5.54,23.69h-4.45l-1.18-6Zm4.73-3.68c-.89-4.54-1.59-7.85-2-10.11h-.1c-.28,2.18-1,5.74-1.91,10.11Zm12.64-14v23.69h-4.25V612.75Zm10.87,23.69V621.75h-2.11v-3.43h2.11v-1.77c0-3,1.38-5.21,5-5.21a7.74,7.74,0,0,1,1.72.2V615a4.55,4.55,0,0,0-1-.11c-1.2,0-1.51.67-1.51,1.92v1.47h2.57v3.43h-2.57v14.69Zm21.29-9.21c0,6.57-2.41,9.55-6.86,9.55s-6.75-2.84-6.75-9.46c0-6.41,2.7-9.31,7-9.31S738.69,621.16,738.69,627.23Zm-9.39.07c0,3.89.65,6,2.65,6s2.52-2.08,2.52-5.94-.66-5.82-2.55-5.82S729.3,623.41,729.3,627.3Zm12.24-2.84c0-3,0-4.85,0-6.14h4a26.4,26.4,0,0,1,.1,3,4.63,4.63,0,0,1,4.75-3.29v4.69c-3-.07-4.62.8-4.62,4.23v9.51h-4.19Zm15.56-6.14h2.38v-4.53h4.17v4.53h2.8v3.43h-2.8v9.91c0,1.06.2,1.65,1.5,1.65a4.77,4.77,0,0,0,1-.07v3.07a7.22,7.22,0,0,1-2.56.37c-2.89,0-4.14-1.07-4.14-4.32V621.75H757.1Zm15.76-6.75v8.49a4.19,4.19,0,0,1,4.06-2.08c3,0,4.51,1.95,4.51,5.65v12.81h-4.18v-12c0-1.77-.32-2.9-2.09-2.9s-2.3,1.39-2.3,3.79v11.08h-4.19V611.57Zm12.26,6.75h4.18v18.12h-4.18Zm0-6.75h4.18v4.13h-4.18ZM795.83,631a2.36,2.36,0,0,0,2.35,2.61,1.78,1.78,0,0,0,2-1.92c0-1.28-.57-2-2.72-2.77-4.27-1.57-5.32-3.07-5.32-5.7,0-2.46,1.55-5.2,5.87-5.2,4.76,0,5.91,3.26,5.91,5.64h-4c0-.64-.07-2.46-2-2.46a1.58,1.58,0,0,0-1.7,1.71c0,1.15.65,1.67,2.82,2.48,3.83,1.41,5.28,2.87,5.28,5.8,0,3.57-2.23,5.6-6.34,5.6-4.33,0-6.26-2.57-6.28-5.79Zm21.89,4.09V643h-4.18V623.56c0-2.45,0-4.09,0-5.24h4a14.65,14.65,0,0,1,.14,2,4,4,0,0,1,4.06-2.29c3.36,0,5.3,2.89,5.3,9.07,0,7.08-2.36,9.7-5.85,9.7A3.57,3.57,0,0,1,817.72,635.05Zm5.07-7.78c0-4.34-.9-5.7-2.67-5.7-2.11,0-2.53,2-2.53,5.53,0,4.15.21,6.13,2.5,6.13C821.92,633.23,822.79,631.27,822.79,627.27Zm7.09-2.81c0-3,0-4.85,0-6.14h4a29.54,29.54,0,0,1,.1,3,4.63,4.63,0,0,1,4.75-3.29v4.69c-3-.07-4.63.8-4.63,4.23v9.51h-4.18Zm23.79,2.77c0,6.57-2.42,9.55-6.87,9.55s-6.75-2.84-6.75-9.46c0-6.41,2.7-9.31,7-9.31S853.67,621.16,853.67,627.23Zm-9.4.07c0,3.89.65,6,2.65,6s2.53-2.08,2.53-5.94-.67-5.82-2.56-5.82S844.27,623.41,844.27,627.3Zm16.43,7.75V643h-4.19V623.56c0-2.45,0-4.09,0-5.24h4a14.65,14.65,0,0,1,.14,2A4,4,0,0,1,864.7,618c3.36,0,5.29,2.89,5.29,9.07,0,7.08-2.35,9.7-5.84,9.7A3.57,3.57,0,0,1,860.7,635.05Zm5.07-7.78c0-4.34-.9-5.7-2.67-5.7-2.11,0-2.53,2-2.53,5.53,0,4.15.21,6.13,2.5,6.13C864.9,633.23,865.77,631.27,865.77,627.27Zm10.57,1.2c0,2.29.28,4.85,2.6,4.85a2.36,2.36,0,0,0,2.42-2.38h4a6.08,6.08,0,0,1-6.48,5.84c-5.88,0-6.7-4.93-6.7-9.52,0-5.74,2.18-9.25,6.78-9.25,5.25,0,6.54,3.93,6.54,8.66,0,.63,0,1.49-.06,1.8Zm5-3c0-1.76-.21-4-2.43-4-2.39,0-2.54,2.69-2.55,4Zm7-1c0-3,0-4.85,0-6.14h4a29.54,29.54,0,0,1,.1,3,4.63,4.63,0,0,1,4.75-3.29v4.69c-3-.07-4.63.8-4.63,4.23v9.51h-4.18Zm10.2-6.14h2.38v-4.53h4.17v4.53h2.8v3.43h-2.8v9.91c0,1.06.2,1.65,1.5,1.65a4.77,4.77,0,0,0,1-.07v3.07a7.22,7.22,0,0,1-2.56.37c-2.89,0-4.14-1.07-4.14-4.32V621.75h-2.38Zm15.28,0c1.32,5.82,2.59,10.77,2.81,12.95h0c.41-2.57,1.62-7.86,2.84-12.95h4.2l-5.21,18.94c-1.55,5.64-3.57,6-6.09,6a9.32,9.32,0,0,1-1.64-.14v-3.53a11.32,11.32,0,0,0,1.31.08c1.6,0,2.15-.81,2.62-3l-5.44-18.36Zm11.44,72.94H626.94a39.39,39.39,0,0,1-39.35-39.35V554.1a39.39,39.39,0,0,1,39.35-39.35H925.25A39.39,39.39,0,0,1,964.6,554.1v97.81A39.39,39.39,0,0,1,925.25,691.26ZM626.94,531.75a22.37,22.37,0,0,0-22.35,22.35v97.81a22.37,22.37,0,0,0,22.35,22.35H925.25a22.37,22.37,0,0,0,22.35-22.35V554.1a22.37,22.37,0,0,0-22.35-22.35Z"/></g></g></svg>