<svg xmlns="http://www.w3.org/2000/svg" viewBox="0 0 173.25 53.05"><defs><style>.cls-1{fill:#fff;}</style></defs><g id="Layer_2" data-name="Layer 2"><g id="Layer_1-2" data-name="Layer 1"><path class="cls-1" d="M68.54,46.66h1.1l1.87,2.94,1.84-2.94h1.09l.3,6.22H73.59l-.2-4.31-1.64,2.54H71.2l-1.65-2.47-.2,4.24h-1.1Zm10.92,0h1.21L83,52.88h-1.3l-.54-1.58H78.87l-.54,1.58H77.1Zm1.39,3.67L80,47.92l-.83,2.41Zm4.65-3.67h2.35a2.48,2.48,0,0,1,1,.18,1.76,1.76,0,0,1,.66.45,1.72,1.72,0,0,1,.37.6,1.83,1.83,0,0,1,.12.62,2.06,2.06,0,0,1-.26,1,1.76,1.76,0,0,1-.79.73l1.44,2.6H89.06L87.8,50.43H86.63v2.45H85.5Zm2.36,2.8a.91.91,0,0,0,.7-.27.88.88,0,0,0,.24-.63.84.84,0,0,0-.26-.65.92.92,0,0,0-.68-.25H86.63v1.8ZM93,46.66H95.4a2.43,2.43,0,0,1,1,.18,1.72,1.72,0,0,1,.67.45,1.69,1.69,0,0,1,.36.6,1.83,1.83,0,0,1,.12.62,2.06,2.06,0,0,1-.26,1,1.79,1.79,0,0,1-.78.73l1.43,2.6H96.61l-1.26-2.45H94.17v2.45H93Zm2.37,2.8a.89.89,0,0,0,.94-.9.87.87,0,0,0-.26-.65,1,1,0,0,0-.68-.25H94.17v1.8Zm5.46-2.8h1.18v6.22h-1.18Zm7.25,6.39a3.13,3.13,0,0,1-1.27-.26,3.48,3.48,0,0,1-1-.7,3.32,3.32,0,0,1-.94-2.33,3.34,3.34,0,0,1,.25-1.27,3.26,3.26,0,0,1,.69-1,3.08,3.08,0,0,1,1-.7,3.13,3.13,0,0,1,1.27-.26,3.19,3.19,0,0,1,2.29,1,3,3,0,0,1,.69,1,3.16,3.16,0,0,1,.25,1.27A3.21,3.21,0,0,1,111.1,51a3.09,3.09,0,0,1-.69,1.05,3.31,3.31,0,0,1-1,.7A3.17,3.17,0,0,1,108.12,53.05Zm0-1.11a1.89,1.89,0,0,0,1.46-.66,2,2,0,0,0,.4-.7,2.62,2.62,0,0,0,0-1.69,2,2,0,0,0-.4-.69,1.74,1.74,0,0,0-.63-.47,2,2,0,0,0-1.67,0,1.93,1.93,0,0,0-.63.47,2.36,2.36,0,0,0-.4.69,2.62,2.62,0,0,0,0,1.69,2.41,2.41,0,0,0,.4.7,2.11,2.11,0,0,0,.63.48A1.92,1.92,0,0,0,108.12,51.94ZM115,47.69h-2.11v-1h5.39v1h-2.11v5.19H115Zm7.38,0h-2.11v-1h5.39v1h-2.1v5.19h-1.18ZM100,40.44h10.49L93,.64l-8.8,4.07,6.14,13.85L87.44,25l-11-25L67.57,3.87l7.14,16,0,.06C70.28,30,64.86,32.77,64.34,33a11.06,11.06,0,0,1-4,.76c-.43,0-.87,0-1.28-.06l-4.31,8.77a9.66,9.66,0,0,0,4.72,1.24,9.85,9.85,0,0,0,5.78-1.9l0,0s4.07-2,8.42-12.72c0,0,1.6-3.44,2.46-5.63l.09-.25,7.66,17.23H94.31l-5.4-12.12,2.87-6.44ZM14.47,7.37A14.47,14.47,0,1,0,28.93,21.84,14.47,14.47,0,0,0,14.47,7.37Zm0,24.93A10.47,10.47,0,1,1,24.93,21.84,10.47,10.47,0,0,1,14.47,32.3Zm23-9.23a1.5,1.5,0,0,0-1.5-1.5h-.5a1.5,1.5,0,0,0,0,3h.5A1.5,1.5,0,0,0,37.42,23.07Zm10.48,1.5h-.85a1.5,1.5,0,0,1,0-3h.85a1.5,1.5,0,0,1,0,3Zm-6,0h-.86a1.5,1.5,0,0,1,0-3h.86a1.5,1.5,0,0,1,0,3ZM55,23.07a1.5,1.5,0,0,0-1.5-1.5H53a1.5,1.5,0,0,0,0,3h.5A1.5,1.5,0,0,0,55,23.07Zm68.67,0a1.5,1.5,0,0,0-1.5-1.5h-.5a1.5,1.5,0,0,0,0,3h.5A1.5,1.5,0,0,0,123.71,23.07Zm10.49,1.5h-.86a1.5,1.5,0,0,1,0-3h.86a1.5,1.5,0,0,1,0,3Zm-6,0h-.85a1.5,1.5,0,0,1,0-3h.85a1.5,1.5,0,0,1,0,3Zm13.13-1.5a1.5,1.5,0,0,0-1.5-1.5h-.5a1.5,1.5,0,0,0,0,3h.5A1.5,1.5,0,0,0,141.33,23.07Zm17.46-15.7a14.47,14.47,0,1,0,14.46,14.47A14.47,14.47,0,0,0,158.79,7.37Zm3,22.49a.93.93,0,0,1-.93.93h-4.1a.94.94,0,0,1-.94-.93V29h6Zm.87-5.57v2a.93.93,0,0,1-1,.9H155.9a.93.93,0,0,1-1-.9v-2a6.18,6.18,0,0,1-2.87-5.16,6.73,6.73,0,0,1,13.43,0A6.17,6.17,0,0,1,162.64,24.29ZM15.12,27.61a1,1,0,0,0-.31-.2.94.94,0,0,0-1,.2,1,1,0,0,0-.19.3.84.84,0,0,0-.07.35,1.1,1.1,0,0,0,0,.18.43.43,0,0,0,0,.16.89.89,0,0,0,.08.17,1.34,1.34,0,0,1,.11.14,1,1,0,0,0,.65.26.71.71,0,0,0,.35-.07,1.23,1.23,0,0,0,.31-.19l.1-.14a.56.56,0,0,0,.09-.17.75.75,0,0,0,0-.16,1.1,1.1,0,0,0,0-.18,1,1,0,0,0-.07-.35A1,1,0,0,0,15.12,27.61Zm.41-13a4.58,4.58,0,0,0-5.65,4.46.93.93,0,0,0,.27.65.91.91,0,0,0,.65.27,1,1,0,0,0,.65-.27.92.92,0,0,0,.26-.65,2.75,2.75,0,1,1,5.09,1.46A2.81,2.81,0,0,1,15,21.78a1.83,1.83,0,0,0-1.49,1.8v1a.92.92,0,1,0,1.83,0l0-1a4.58,4.58,0,0,0,2.93-2A4.64,4.64,0,0,0,18.93,18,4.52,4.52,0,0,0,15.53,14.63Z"/></g></g></svg>