<svg xmlns="http://www.w3.org/2000/svg" xmlns:xlink="http://www.w3.org/1999/xlink" viewBox="0 0 351.79 107.71"><defs><style>.cls-1{fill:#1f140f;}.cls-2{fill:#aa0c36;}.cls-3{fill:url(#linear-gradient);}</style><linearGradient id="linear-gradient" x1="351.79" y1="44.34" x2="0" y2="44.34" gradientUnits="userSpaceOnUse"><stop offset="0" stop-color="#5e0094"/><stop offset="1" stop-color="#4a85ff"/></linearGradient></defs><g id="Layer_2" data-name="Layer 2"><g id="Layer_1-2" data-name="Layer 1"><path class="cls-1" d="M139.18,94.74h2.22l3.79,6,3.75-6h2.21l.61,12.63h-2.33L149,98.62l-3.32,5.15h-1.12l-3.35-5-.41,8.62h-2.24Z"/><path class="cls-1" d="M161.35,94.74h2.46l4.79,12.63H166l-1.1-3.2h-4.69l-1.1,3.2h-2.5Zm2.82,7.46-1.67-4.9-1.68,4.9Z"/><path class="cls-1" d="M173.61,94.74h4.77a5.12,5.12,0,0,1,2,.36,3.93,3.93,0,0,1,1.34.92,3.63,3.63,0,0,1,.75,1.22,3.7,3.7,0,0,1,.24,1.27,4.28,4.28,0,0,1-.52,2.11,3.76,3.76,0,0,1-1.6,1.47l2.91,5.28h-2.69l-2.55-5H175.9v5h-2.29Zm4.79,5.68a1.85,1.85,0,0,0,1.41-.53,1.77,1.77,0,0,0,.5-1.29,1.73,1.73,0,0,0-.53-1.32,1.9,1.9,0,0,0-1.38-.51h-2.5v3.65Z"/><path class="cls-1" d="M188.93,94.74h4.77a5.12,5.12,0,0,1,2,.36,3.93,3.93,0,0,1,1.34.92,3.63,3.63,0,0,1,.75,1.22,3.7,3.7,0,0,1,.24,1.27,4.28,4.28,0,0,1-.52,2.11,3.73,3.73,0,0,1-1.61,1.47l2.92,5.28h-2.69l-2.55-5h-2.39v5h-2.29Zm4.79,5.68a1.85,1.85,0,0,0,1.41-.53,1.91,1.91,0,0,0,0-2.61,1.9,1.9,0,0,0-1.38-.51h-2.5v3.65Z"/><path class="cls-1" d="M204.83,94.74h2.38v12.63h-2.38Z"/><path class="cls-1" d="M219.54,107.71a6.33,6.33,0,0,1-2.58-.52,6.44,6.44,0,0,1-2.08-1.43,6.64,6.64,0,0,1-1.4-2.12,6.74,6.74,0,0,1,0-5.19,6.62,6.62,0,0,1,1.39-2.11A6.46,6.46,0,0,1,217,94.92a6.38,6.38,0,0,1,2.59-.52,6.28,6.28,0,0,1,2.57.52,6.73,6.73,0,0,1,2.09,1.42,6.65,6.65,0,0,1,1.4,2.11,6.75,6.75,0,0,1-1.4,7.31,6.59,6.59,0,0,1-2.09,1.43A6.28,6.28,0,0,1,219.54,107.71Zm0-2.25a3.86,3.86,0,0,0,1.68-.36,4,4,0,0,0,1.29-1,4.36,4.36,0,0,0,.81-1.43,5.19,5.19,0,0,0,0-3.42,4.48,4.48,0,0,0-.81-1.41,3.93,3.93,0,0,0-1.29-1,4,4,0,0,0-4.66,1,4.48,4.48,0,0,0-.81,1.41,5.19,5.19,0,0,0,0,3.42,4.36,4.36,0,0,0,.81,1.43,4,4,0,0,0,1.28,1A3.86,3.86,0,0,0,219.54,105.46Z"/><path class="cls-1" d="M233.5,96.84h-4.28v-2.1h10.95v2.1h-4.28v10.53H233.5Z"/><path class="cls-1" d="M248.49,96.84h-4.28v-2.1h10.95v2.1h-4.28v10.53h-2.39Z"/><path class="cls-2" d="M203.13,82.11h21.3L188.78,1.3,170.91,9.56l12.46,28.13L177.56,50.8,155.26,0,137.19,7.87,151.7,40.33a1.12,1.12,0,0,1,0,.13c-9,20.47-19.94,26.09-21,26.49a22.49,22.49,0,0,1-8.18,1.54c-.88,0-1.76,0-2.6-.13L111.1,86.18a19.7,19.7,0,0,0,21.32-1.34l0,.06s8.26-4,17.11-25.83c0,0,3.24-7,5-11.43l.18-.5,15.56,35H191.5l-11-24.6,5.81-13.09Z"/><path class="cls-3" d="M29.37,15A29.38,29.38,0,1,0,58.74,44.34,29.37,29.37,0,0,0,29.37,15Zm0,50.62A21.25,21.25,0,1,1,50.62,44.34,21.27,21.27,0,0,1,29.37,65.59ZM76,46.84a3,3,0,0,0-3-3h-1a3,3,0,0,0,0,6.09h1A3,3,0,0,0,76,46.84Zm21.29,3H95.53a3,3,0,1,1,0-6.09h1.73a3,3,0,1,1,0,6.09Zm-12.16,0H83.36a3,3,0,1,1,0-6.09H85.1a3,3,0,0,1,0,6.09Zm26.66-3a3,3,0,0,0-3.05-3h-1a3,3,0,1,0,0,6.09h1A3.06,3.06,0,0,0,111.76,46.84Zm139.43,0a3,3,0,0,0-3-3h-1a3,3,0,0,0,0,6.09h1A3,3,0,0,0,251.19,46.84Zm21.3,3h-1.74a3,3,0,1,1,0-6.09h1.74a3,3,0,0,1,0,6.09Zm-12.17,0h-1.74a3,3,0,1,1,0-6.09h1.74a3,3,0,0,1,0,6.09Zm26.66-3a3,3,0,0,0-3.05-3h-1a3,3,0,1,0,0,6.09h1A3.06,3.06,0,0,0,287,46.84ZM322.42,15a29.38,29.38,0,1,0,29.37,29.37A29.37,29.37,0,0,0,322.42,15Zm6.06,45.66a1.89,1.89,0,0,1-1.89,1.89h-8.34a1.89,1.89,0,0,1-1.89-1.89V58.92h12.12Zm1.75-11.31v4.11a1.88,1.88,0,0,1-2,1.82H316.55a1.89,1.89,0,0,1-1.95-1.82V49.32a12.51,12.51,0,0,1-5.81-10.47c0-7,6.08-12.69,13.63-12.69s13.63,5.68,13.63,12.69A12.5,12.5,0,0,1,330.23,49.32ZM30.69,56.05a2.44,2.44,0,0,0-.61-.39,1.93,1.93,0,0,0-1.42,0,1.87,1.87,0,0,0-.61.39,1.91,1.91,0,0,0-.39.62,1.69,1.69,0,0,0-.15.7,1.64,1.64,0,0,0,0,.38,1,1,0,0,0,.11.33,1.5,1.5,0,0,0,.16.34l.23.28a2,2,0,0,0,1.32.54,1.74,1.74,0,0,0,.71-.15,2.44,2.44,0,0,0,.61-.39l.22-.28a1.54,1.54,0,0,0,.17-.34,1,1,0,0,0,.11-.33,1.64,1.64,0,0,0,0-.38,1.69,1.69,0,0,0-.15-.7A1.91,1.91,0,0,0,30.69,56.05Zm.85-26.35a9.32,9.32,0,0,0-11.48,9.06,1.88,1.88,0,0,0,.55,1.32,1.87,1.87,0,0,0,2.63,0,1.88,1.88,0,0,0,.55-1.32,5.58,5.58,0,1,1,6.74,5.46,3.74,3.74,0,0,0-3,3.65v2.06a1.86,1.86,0,0,0,3.72,0l.07-2.06a9.33,9.33,0,0,0,7.13-11.28A9.21,9.21,0,0,0,31.54,29.7Z"/></g></g></svg>