<svg xmlns="http://www.w3.org/2000/svg" xmlns:xlink="http://www.w3.org/1999/xlink" viewBox="0 0 779.1 202.5"><defs><style>.cls-1{fill:url(#linear-gradient);}</style><linearGradient id="linear-gradient" y1="101.25" x2="779.1" y2="101.25" gradientUnits="userSpaceOnUse"><stop offset="0" stop-color="#5e0094"/><stop offset="1" stop-color="#4a85ff"/></linearGradient></defs><g id="Layer_2" data-name="Layer 2"><g id="Layer_1-2" data-name="Layer 1"><path class="cls-1" d="M92.43,65.05c.21,2,1,3.69,3.16,3.69s2.86-1.3,2.86-3.07c0-1.94-1-3.07-4-4.5-4-1.93-5.64-3.63-5.64-7.15,0-3.8,2.44-6.39,6.72-6.39,5.33,0,6.64,3.6,6.71,6.68H98.14C98,53,97.65,51,95.51,51c-1.68,0-2.43,1.09-2.43,2.69s.76,2.51,3.53,3.8c4.25,2,6.16,3.87,6.16,7.83,0,3.72-2.3,6.79-7.31,6.79-5.44,0-7.1-3.48-7.25-7Zm16.18-11.49c1.33,5.83,2.6,10.78,2.81,13h0c.4-2.58,1.61-7.87,2.84-13h4.2L113.28,72.5c-1.55,5.64-3.57,6-6.09,6a9.1,9.1,0,0,1-1.63-.13V74.81a11.28,11.28,0,0,0,1.3.07c1.6,0,2.15-.8,2.62-3L104,53.56Zm14.8,12.64a2.37,2.37,0,0,0,2.36,2.61,1.78,1.78,0,0,0,2-1.91c0-1.28-.58-2-2.72-2.78-4.27-1.57-5.32-3.07-5.32-5.69s1.55-5.21,5.87-5.21c4.76,0,5.91,3.27,5.91,5.64h-4c0-.64-.07-2.45-2-2.45a1.58,1.58,0,0,0-1.71,1.7c0,1.15.66,1.68,2.83,2.48,3.83,1.42,5.28,2.88,5.28,5.81,0,3.56-2.23,5.6-6.34,5.6-4.33,0-6.26-2.58-6.28-5.8Zm9.47-12.64h2.38V49h4.18v4.52h2.79V57h-2.79v9.92c0,1,.19,1.65,1.49,1.65a4.68,4.68,0,0,0,1-.08v3.08a7.2,7.2,0,0,1-2.55.37c-2.9,0-4.15-1.07-4.15-4.33V57h-2.38Zm14.87,10.15c0,2.3.28,4.86,2.6,4.86a2.36,2.36,0,0,0,2.42-2.39h4A6.11,6.11,0,0,1,150.29,72c-5.88,0-6.69-4.94-6.69-9.52,0-5.75,2.18-9.26,6.77-9.26,5.26,0,6.55,3.94,6.55,8.67,0,.63,0,1.48-.07,1.79Zm5-3c0-1.76-.2-4-2.42-4-2.4,0-2.54,2.7-2.55,4Zm7-1.68c0-3.58,0-4.65,0-5.44h4a13.36,13.36,0,0,1,.13,1.85,4.32,4.32,0,0,1,4-2.16,3.51,3.51,0,0,1,3.68,2.46A4.78,4.78,0,0,1,176,53.25c2.58,0,4.59,1.31,4.59,5.44v13h-4.12V59.31c0-1.45-.47-2.5-1.92-2.5-1.7,0-2.24,1.28-2.24,3.52V71.68h-4.16V59.38c0-1.66-.56-2.54-1.91-2.54-1.67,0-2.28,1.16-2.28,3.6V71.68h-4.16Zm30.95-5.44h4.18V71.68h-4.18Zm0-6.74h4.18V51h-4.18Zm7.88,12.38c0-3.72,0-4.69,0-5.64h4a15.7,15.7,0,0,1,.13,1.89,4.21,4.21,0,0,1,4-2.23c3,0,4.64,1.87,4.64,5.54V71.68H207.2v-12c0-1.8-.36-2.9-2-2.9s-2.35.89-2.35,3.65V71.68h-4.18Zm27.1,11.09v7.93h-4.18V58.8c0-2.44,0-4.09,0-5.24h4a15,15,0,0,1,.13,2,4,4,0,0,1,4.07-2.3c3.36,0,5.29,2.89,5.29,9.07,0,7.09-2.35,9.71-5.85,9.71A3.58,3.58,0,0,1,225.73,70.29Zm5.08-7.78c0-4.33-.9-5.7-2.67-5.7-2.11,0-2.54,2-2.54,5.54,0,4.15.22,6.12,2.51,6.12C229.93,68.47,230.81,66.51,230.81,62.51Zm7.09,9.17V46.82h4.18V71.68Zm19.55-3.94c0,.89.08,3.13.14,3.94h-3.8a11,11,0,0,1-.17-1.68,4.31,4.31,0,0,1-4.09,2c-3.48,0-4.82-2.78-4.82-5.37,0-3.71,2.54-6,7.14-6,.61,0,1.08,0,1.49,0v-2c0-1.06-.14-2.29-2-2.29s-1.94,1.14-2,2.33h-4c.07-2.67,1.32-5.52,6.17-5.52,3.89,0,5.9,1.77,5.9,5.23Zm-4-4a7.84,7.84,0,0,0-1.35-.08c-2.38,0-3.25,1.11-3.25,2.59a2.09,2.09,0,0,0,2.08,2.35c2.14,0,2.52-1.6,2.52-4.29Zm19.78,1.8c-.07,1.46-.39,6.46-6.37,6.46-5.2,0-6.49-4.16-6.49-9.53,0-4.8,1.59-9.25,6.7-9.25,5.95,0,6.13,5.13,6.16,6.23H269c0-.7-.1-2.77-2-2.77s-2.44,2.06-2.44,5.82.57,6,2.39,6,2.1-2,2.21-3Zm6.21-1.83c0,2.3.28,4.86,2.6,4.86a2.36,2.36,0,0,0,2.42-2.39h4A6.09,6.09,0,0,1,282,72c-5.88,0-6.7-4.94-6.7-9.52,0-5.75,2.19-9.26,6.78-9.26,5.26,0,6.54,3.94,6.54,8.67,0,.63,0,1.48-.06,1.79Zm5-3c0-1.76-.21-4-2.42-4-2.4,0-2.55,2.7-2.56,4ZM101.37,109.74c0,.89.08,3.13.14,3.94h-3.8a11,11,0,0,1-.17-1.68,4.31,4.31,0,0,1-4.09,2c-3.48,0-4.82-2.78-4.82-5.37,0-3.71,2.55-6,7.14-6,.61,0,1.08,0,1.49,0v-2c0-1.06-.14-2.29-2-2.29s-1.94,1.14-2,2.33h-4c.07-2.67,1.32-5.52,6.17-5.52,3.89,0,5.9,1.77,5.9,5.23Zm-4-4a7.84,7.84,0,0,0-1.35-.08c-2.38,0-3.25,1.11-3.25,2.59a2.09,2.09,0,0,0,2.08,2.35c2.14,0,2.52-1.6,2.52-4.29Zm10.51,2.46a2.35,2.35,0,0,0,2.35,2.61,1.78,1.78,0,0,0,2-1.91c0-1.28-.57-2-2.71-2.78-4.28-1.57-5.33-3.07-5.33-5.69s1.55-5.21,5.87-5.21c4.76,0,5.91,3.27,5.92,5.64h-4c0-.64-.07-2.45-2-2.45a1.57,1.57,0,0,0-1.7,1.7c0,1.15.65,1.68,2.82,2.48,3.83,1.42,5.28,2.88,5.28,5.81,0,3.56-2.23,5.6-6.34,5.6-4.33,0-6.26-2.58-6.28-5.8Zm15.24-4.9c1.27-2.29,2.94-5.18,4.43-7.74h4.61c-1.47,2.27-2.86,4.35-4.39,6.65l4.65,11.47h-4.73l-2.75-8.12c-.5.69-1.35,2-1.82,2.65v5.47h-4.18V88.82h4.18Zm14,4.9a2.35,2.35,0,0,0,2.35,2.61,1.78,1.78,0,0,0,2-1.91c0-1.28-.57-2-2.72-2.78-4.27-1.57-5.32-3.07-5.32-5.69s1.55-5.21,5.87-5.21c4.76,0,5.91,3.27,5.91,5.64h-4c0-.64-.07-2.45-2-2.45a1.57,1.57,0,0,0-1.7,1.7c0,1.15.65,1.68,2.82,2.48,3.83,1.42,5.28,2.88,5.28,5.81,0,3.56-2.23,5.6-6.34,5.6-4.33,0-6.26-2.58-6.28-5.8Zm18.1,5.48V99h-2.11V95.56h2.11V93.8c0-3,1.37-5.22,5-5.22a7.13,7.13,0,0,1,1.72.21v3.5a4.62,4.62,0,0,0-1-.12c-1.2,0-1.52.68-1.52,1.92v1.47H162V99H159.4v14.69Zm21.29-9.21c0,6.58-2.41,9.56-6.86,9.56s-6.75-2.85-6.75-9.46c0-6.42,2.7-9.32,7-9.32S176.51,98.4,176.51,104.47Zm-9.39.07c0,3.89.65,6,2.65,6s2.52-2.09,2.52-6-.67-5.82-2.55-5.82S167.12,100.66,167.12,104.54Zm12.24-2.84c0-3,0-4.85,0-6.14h4c0,.32.1,1.07.1,3a4.61,4.61,0,0,1,4.75-3.29v4.68c-3-.06-4.63.81-4.63,4.23v9.51h-4.18ZM197.08,90h7.22c4.11,0,6.37,2.27,6.37,6,0,3-1.42,4.44-2.74,4.93,1.68.69,3.43,2.23,3.43,5.79,0,4.5-2.93,7-7.15,7h-7.13Zm6.2,9.45c2.64,0,3.32-1,3.32-3.06s-1.08-3-3.17-3h-2.19v6.08Zm-2,10.93h2.53c2.11,0,3.34-1.09,3.34-3.75,0-2.44-1-3.87-3.81-3.87h-2.06Zm26-5.91c0,6.58-2.41,9.56-6.86,9.56s-6.75-2.85-6.75-9.46c0-6.42,2.7-9.32,7-9.32S227.29,98.4,227.29,104.47Zm-9.39.07c0,3.89.65,6,2.65,6s2.52-2.09,2.52-6-.66-5.82-2.55-5.82S217.9,100.66,217.9,104.54Zm12.24-3.34c0-3.72,0-4.69,0-5.64h4a13.88,13.88,0,0,1,.13,1.89,4.21,4.21,0,0,1,4-2.23c2.95,0,4.63,1.87,4.63,5.54v12.92h-4.18v-12c0-1.8-.36-2.9-2.05-2.9s-2.34.89-2.34,3.65v11.22h-4.19Zm18.94-5.64c1.13,5.15,2.34,10.74,2.75,13.77h0c.33-2.79,1.85-8.56,2.95-13.77H259l-5.08,18.12h-4.5l-4.8-18.12Zm24.55,8.91c0,6.58-2.41,9.56-6.86,9.56s-6.75-2.85-6.75-9.46c0-6.42,2.7-9.32,7-9.32S273.63,98.4,273.63,104.47Zm-9.39.07c0,3.89.65,6,2.65,6s2.52-2.09,2.52-6-.66-5.82-2.55-5.82S264.24,100.66,264.24,104.54Zm15.11-9c1.33,5.83,2.6,10.78,2.81,13h0c.41-2.58,1.61-7.87,2.84-13h4.2L284,114.5c-1.55,5.64-3.58,6-6.1,6a9.1,9.1,0,0,1-1.63-.13v-3.53a11.55,11.55,0,0,0,1.3.07c1.6,0,2.15-.8,2.63-3l-5.44-18.36Zm-163.6,42h4.18v18.12h-4.18Zm0-6.74H120V135h-4.18Zm7.88,12.38c0-3.72,0-4.69,0-5.64h4a15.7,15.7,0,0,1,.13,1.89,4.21,4.21,0,0,1,4-2.23c3,0,4.64,1.87,4.64,5.54v12.92h-4.19v-12c0-1.8-.36-2.9-2-2.9s-2.34.89-2.34,3.65v11.22h-4.19Zm16.84,12.48V141h-2.11v-3.43h2.11V135.8c0-3,1.38-5.22,5-5.22a7.13,7.13,0,0,1,1.72.21v3.5a4.55,4.55,0,0,0-1-.12c-1.2,0-1.51.68-1.51,1.92v1.47h2.57V141h-2.57v14.69Zm21.29-9.21c0,6.58-2.41,9.56-6.86,9.56s-6.75-2.85-6.75-9.46c0-6.42,2.7-9.32,7-9.32S161.79,140.4,161.79,146.47Zm-9.39.07c0,3.89.65,6,2.65,6s2.52-2.09,2.52-5.95-.66-5.82-2.55-5.82S152.4,142.66,152.4,146.54Zm12.24-2.84c0-3,0-4.85,0-6.14h4a26.82,26.82,0,0,1,.1,3,4.61,4.61,0,0,1,4.75-3.29v4.68c-3-.06-4.62.81-4.62,4.23v9.51h-4.19Zm10.88-.7c0-3.58,0-4.65,0-5.44h4a13.36,13.36,0,0,1,.13,1.85,4.32,4.32,0,0,1,4-2.16,3.49,3.49,0,0,1,3.67,2.46,4.81,4.81,0,0,1,4.45-2.46c2.58,0,4.59,1.31,4.59,5.44v13h-4.12V143.31c0-1.45-.47-2.5-1.92-2.5-1.7,0-2.24,1.28-2.24,3.52v11.35h-4.16v-12.3c0-1.66-.56-2.54-1.91-2.54-1.67,0-2.29,1.16-2.29,3.6v11.24h-4.15Zm36.12,8.74c0,.89.07,3.13.14,3.94H208a11,11,0,0,1-.18-1.68,4.31,4.31,0,0,1-4.08,2c-3.48,0-4.82-2.78-4.82-5.37,0-3.71,2.54-6,7.14-6,.61,0,1.07,0,1.48,0v-2c0-1.06-.13-2.29-2-2.29s-1.93,1.14-2,2.33h-4c.07-2.67,1.33-5.52,6.17-5.52,3.89,0,5.91,1.77,5.91,5.23Zm-4-4a7.84,7.84,0,0,0-1.35-.08c-2.38,0-3.25,1.11-3.25,2.59a2.09,2.09,0,0,0,2.08,2.35c2.14,0,2.52-1.6,2.52-4.29Zm5.76-10.18h2.38V133h4.17v4.52h2.8V141h-2.8v9.92c0,1.05.2,1.65,1.5,1.65a4.73,4.73,0,0,0,1-.08v3.08a7.22,7.22,0,0,1-2.56.37c-2.89,0-4.14-1.07-4.14-4.33V141h-2.38Zm11.6,0h4.18v18.12H225Zm0-6.74h4.18V135H225Zm20.68,15.65c0,6.58-2.42,9.56-6.87,9.56s-6.75-2.85-6.75-9.46c0-6.42,2.7-9.32,7-9.32S245.69,140.4,245.69,146.47Zm-9.39.07c0,3.89.65,6,2.64,6s2.53-2.09,2.53-5.95-.67-5.82-2.56-5.82S236.3,142.66,236.3,146.54Zm12.24-3.34c0-3.72,0-4.69,0-5.64h4a15.7,15.7,0,0,1,.13,1.89,4.18,4.18,0,0,1,4-2.23c3,0,4.64,1.87,4.64,5.54v12.92h-4.19v-12c0-1.8-.36-2.9-2-2.9s-2.35.89-2.35,3.65v11.22h-4.18ZM570,71.68h-3.23a18.49,18.49,0,0,1-.2-2c-1.06,1.87-2.71,2.42-4.71,2.42-4.94,0-6.73-4.41-6.73-12.1,0-8.65,2.92-12.37,8-12.37,6.42,0,6.77,5.5,6.84,6.91h-4.19c-.07-1-.27-3.32-2.77-3.32-2.74,0-3.5,3.64-3.5,8.77,0,5.52.65,8.55,3.35,8.55,2.25,0,2.93-1.72,2.93-5.21V62h-3.19V58.37H570Zm16.07-5.32c0,2.64,0,4.39,0,5.32h-4a17.59,17.59,0,0,1-.17-2,3.94,3.94,0,0,1-4,2.3c-2.58,0-4.53-1.27-4.53-5.43v-13h4.18V65.63c0,1.78.38,2.78,1.89,2.78s2.42-.85,2.42-3.72V53.56h4.19Zm7-2.65c0,2.3.28,4.86,2.6,4.86a2.37,2.37,0,0,0,2.43-2.39h4A6.1,6.1,0,0,1,595.58,72c-5.87,0-6.69-4.94-6.69-9.52,0-5.75,2.18-9.26,6.77-9.26,5.26,0,6.55,3.94,6.55,8.67,0,.63,0,1.48-.07,1.79Zm5-3c0-1.76-.2-4-2.42-4-2.4,0-2.54,2.7-2.55,4Zm10.07,5.52a2.35,2.35,0,0,0,2.35,2.61,1.78,1.78,0,0,0,2-1.91c0-1.28-.57-2-2.71-2.78-4.28-1.57-5.33-3.07-5.33-5.69s1.55-5.21,5.88-5.21c4.75,0,5.9,3.27,5.91,5.64h-4c0-.64-.08-2.45-2-2.45a1.58,1.58,0,0,0-1.7,1.7c0,1.15.65,1.68,2.82,2.48,3.83,1.42,5.28,2.88,5.28,5.81,0,3.56-2.23,5.6-6.34,5.6-4.33,0-6.26-2.58-6.27-5.8Zm9.47-12.64H620V49h4.18v4.52H627V57h-2.8v9.92c0,1,.19,1.65,1.5,1.65a4.79,4.79,0,0,0,1-.08v3.08a7.25,7.25,0,0,1-2.56.37c-2.9,0-4.15-1.07-4.15-4.33V57h-2.37ZM489.33,104.47c0,6.58-2.41,9.56-6.86,9.56s-6.75-2.85-6.75-9.46c0-6.42,2.7-9.32,7-9.32S489.33,98.4,489.33,104.47Zm-9.39.07c0,3.89.65,6,2.64,6s2.53-2.09,2.53-6-.67-5.82-2.56-5.82S479.94,100.66,479.94,104.54Zm16.42,7.75v7.93h-4.18V100.8c0-2.44,0-4.09,0-5.24h4a17,17,0,0,1,.13,2,4,4,0,0,1,4.06-2.3c3.36,0,5.3,2.89,5.3,9.07,0,7.09-2.35,9.71-5.85,9.71A3.56,3.56,0,0,1,496.36,112.29Zm5.08-7.78c0-4.33-.91-5.7-2.68-5.7-2.11,0-2.53,2-2.53,5.54,0,4.15.22,6.12,2.5,6.12C500.56,110.47,501.44,108.51,501.44,104.51Zm5.28-9h2.38V91h4.18v4.52h2.79V99h-2.79v9.92c0,1,.19,1.65,1.49,1.65a4.68,4.68,0,0,0,1-.08v3.08a7.2,7.2,0,0,1-2.55.37c-2.9,0-4.15-1.07-4.15-4.33V99h-2.38Zm14.89,12.64a2.36,2.36,0,0,0,2.35,2.61c1.39,0,2-.73,2-1.91s-.58-2-2.72-2.78c-4.27-1.57-5.33-3.07-5.33-5.69s1.56-5.21,5.88-5.21c4.75,0,5.91,3.27,5.91,5.64h-4c0-.64-.07-2.45-2-2.45a1.58,1.58,0,0,0-1.71,1.7c0,1.15.66,1.68,2.82,2.48,3.83,1.42,5.28,2.88,5.28,5.81,0,3.56-2.22,5.6-6.33,5.6-4.33,0-6.26-2.58-6.28-5.8Zm10.19,6.18,6.86-24.53h3.13L535,114.38Zm16.88-2.09v7.93H544.5V100.8c0-2.44,0-4.09,0-5.24h4a15,15,0,0,1,.13,2,4,4,0,0,1,4.07-2.3c3.36,0,5.29,2.89,5.29,9.07,0,7.09-2.35,9.71-5.85,9.71A3.56,3.56,0,0,1,548.68,112.29Zm5.08-7.78c0-4.33-.91-5.7-2.68-5.7-2.1,0-2.53,2-2.53,5.54,0,4.15.22,6.12,2.5,6.12C552.88,110.47,553.76,108.51,553.76,104.51Zm7.09-2.81c0-3,0-4.85,0-6.14h4a26.82,26.82,0,0,1,.1,3,4.62,4.62,0,0,1,4.75-3.29v4.68c-3-.06-4.62.81-4.62,4.23v9.51h-4.18Zm23.78,2.77c0,6.58-2.41,9.56-6.86,9.56s-6.75-2.85-6.75-9.46c0-6.42,2.7-9.32,7-9.32S584.63,98.4,584.63,104.47Zm-9.39.07c0,3.89.65,6,2.65,6s2.52-2.09,2.52-6-.66-5.82-2.55-5.82S575.24,100.66,575.24,104.54ZM587.51,101c0-3.58,0-4.65,0-5.44h4a13.36,13.36,0,0,1,.13,1.85,4.32,4.32,0,0,1,4-2.16,3.49,3.49,0,0,1,3.67,2.46,4.8,4.8,0,0,1,4.45-2.46c2.58,0,4.59,1.31,4.59,5.44v13h-4.12V101.31c0-1.45-.47-2.5-1.92-2.5-1.7,0-2.25,1.28-2.25,3.52v11.35h-4.15v-12.3c0-1.66-.56-2.54-1.91-2.54-1.67,0-2.29,1.16-2.29,3.6v11.24h-4.15Zm28.65,11.29v7.93H612V100.8c0-2.44,0-4.09,0-5.24h4a15,15,0,0,1,.13,2,4,4,0,0,1,4.06-2.3c3.36,0,5.3,2.89,5.3,9.07,0,7.09-2.35,9.71-5.85,9.71A3.56,3.56,0,0,1,616.16,112.29Zm5.08-7.78c0-4.33-.91-5.7-2.68-5.7-2.1,0-2.53,2-2.53,5.54,0,4.15.22,6.12,2.5,6.12C620.36,110.47,621.24,108.51,621.24,104.51Zm5.28-9h2.38V91h4.18v4.52h2.79V99h-2.79v9.92c0,1,.19,1.65,1.49,1.65a4.68,4.68,0,0,0,1-.08v3.08a7.2,7.2,0,0,1-2.55.37c-2.9,0-4.15-1.07-4.15-4.33V99h-2.38Zm14.89,12.64a2.36,2.36,0,0,0,2.35,2.61c1.39,0,2-.73,2-1.91s-.58-2-2.72-2.78c-4.27-1.57-5.32-3.07-5.32-5.69s1.55-5.21,5.87-5.21c4.76,0,5.91,3.27,5.91,5.64h-4c0-.64-.07-2.45-2-2.45a1.58,1.58,0,0,0-1.71,1.7c0,1.15.66,1.68,2.83,2.48,3.82,1.42,5.28,2.88,5.28,5.81,0,3.56-2.23,5.6-6.34,5.6-4.33,0-6.26-2.58-6.28-5.8Zm30.51-3.73c0,6.58-2.42,9.56-6.87,9.56s-6.74-2.85-6.74-9.46c0-6.42,2.69-9.32,7-9.32S671.92,98.4,671.92,104.47Zm-9.39.07c0,3.89.65,6,2.64,6s2.53-2.09,2.53-6-.67-5.82-2.56-5.82S662.53,100.66,662.53,104.54Zm24.86,3.82c0,2.64,0,4.39,0,5.32h-4a17.64,17.64,0,0,1-.16-2,4,4,0,0,1-4,2.3c-2.58,0-4.53-1.27-4.53-5.43v-13h4.18v12.07c0,1.78.38,2.78,1.89,2.78s2.42-.85,2.42-3.72V95.56h4.19Zm2.17-12.8h2.37V91h4.18v4.52h2.8V99h-2.8v9.92c0,1,.19,1.65,1.49,1.65a4.68,4.68,0,0,0,1-.08v3.08a7.16,7.16,0,0,1-2.55.37c-2.9,0-4.15-1.07-4.15-4.33V99h-2.37Zm10.3,21.82a36.39,36.39,0,0,0,2.07-9.06h4a23.83,23.83,0,0,1-2.73,9.06ZM492.34,154.22c0,5.14-1.5,8.28-7,8.28-5.16,0-6.25-3-6.36-5.24h4.16c.07.55.26,1.84,2.35,1.84,2.27,0,2.7-1.71,2.7-4.88v-.82a3.92,3.92,0,0,1-3.88,2.16c-3.86,0-5.5-3.39-5.5-8.73,0-6.2,2.24-9.58,5.89-9.58,2.38,0,3.2,1.13,3.49,1.92,0-.55.1-1.17.16-1.61h4c0,1.12-.06,2.93-.06,5.46Zm-9.21-7.51c0,3.73.9,5.32,2.59,5.32,2.11,0,2.56-2,2.56-5.89,0-3.25-.16-5.33-2.43-5.33C484.1,140.81,483.13,142.63,483.13,146.71Zm25.71-.24c0,6.58-2.41,9.56-6.86,9.56s-6.75-2.85-6.75-9.46c0-6.42,2.7-9.32,7-9.32S508.84,140.4,508.84,146.47Zm-9.39.07c0,3.89.65,6,2.65,6s2.52-2.09,2.52-5.95-.66-5.82-2.55-5.82S499.45,142.66,499.45,146.54Zm15.72,1.17c0,2.3.28,4.86,2.6,4.86a2.36,2.36,0,0,0,2.42-2.39h4a6.09,6.09,0,0,1-6.48,5.85c-5.88,0-6.7-4.94-6.7-9.52,0-5.75,2.18-9.26,6.78-9.26,5.25,0,6.54,3.94,6.54,8.67,0,.63,0,1.48-.06,1.79Zm5-3c0-1.76-.21-4-2.43-4-2.39,0-2.54,2.7-2.55,4Zm10.06,5.52a2.36,2.36,0,0,0,2.35,2.61c1.39,0,2-.73,2-1.91s-.58-2-2.72-2.78c-4.27-1.57-5.32-3.07-5.32-5.69,0-2.47,1.55-5.21,5.87-5.21,4.76,0,5.91,3.27,5.91,5.64h-4c0-.64-.07-2.45-2-2.45a1.58,1.58,0,0,0-1.71,1.7c0,1.15.66,1.68,2.83,2.48,3.82,1.42,5.28,2.88,5.28,5.81,0,3.56-2.23,5.6-6.34,5.6-4.33,0-6.26-2.58-6.28-5.8ZM546,137.56h2.37V133h4.18v4.52h2.8V141h-2.8v9.92c0,1.05.19,1.65,1.5,1.65a4.73,4.73,0,0,0,1-.08v3.08a7.25,7.25,0,0,1-2.56.37c-2.9,0-4.15-1.07-4.15-4.33V141H546Zm24.32,8.91c0,6.58-2.41,9.56-6.86,9.56s-6.75-2.85-6.75-9.46c0-6.42,2.7-9.32,7-9.32S570.33,140.4,570.33,146.47Zm-9.39.07c0,3.89.65,6,2.65,6s2.52-2.09,2.52-5.95-.66-5.82-2.55-5.82S560.94,142.66,560.94,146.54Zm18.72,9.14V130.82h4.18v24.86Zm7.87-18.12h4.18v18.12h-4.18Zm0-6.74h4.19V135h-4.19Zm10.65,6.74c1.13,5.15,2.34,10.74,2.75,13.77h0c.33-2.79,1.85-8.56,3-13.77h4.19l-5.08,18.12h-4.5l-4.8-18.12Zm15.1,10.15c0,2.3.28,4.86,2.59,4.86a2.37,2.37,0,0,0,2.43-2.39h4a6.1,6.1,0,0,1-6.49,5.85c-5.87,0-6.69-4.94-6.69-9.52,0-5.75,2.18-9.26,6.78-9.26,5.25,0,6.54,3.94,6.54,8.67,0,.63,0,1.48-.07,1.79Zm5-3c0-1.76-.21-4-2.43-4-2.4,0-2.54,2.7-2.55,4Zm25.35,7.06c0,.89.07,3.13.14,3.94H640a9.83,9.83,0,0,1-.18-1.68,4.31,4.31,0,0,1-4.08,2c-3.49,0-4.83-2.78-4.83-5.37,0-3.71,2.55-6,7.15-6,.61,0,1.07,0,1.48,0v-2c0-1.06-.13-2.29-2-2.29s-1.94,1.14-2,2.33h-4c.07-2.67,1.33-5.52,6.17-5.52,3.89,0,5.91,1.77,5.91,5.23Zm-4-4a7.9,7.9,0,0,0-1.35-.08c-2.39,0-3.25,1.11-3.25,2.59a2.09,2.09,0,0,0,2.08,2.35c2.13,0,2.52-1.6,2.52-4.29Zm20.41,6.48c0,5.14-1.5,8.28-7,8.28-5.16,0-6.25-3-6.36-5.24h4.16c.07.55.26,1.84,2.36,1.84,2.26,0,2.69-1.71,2.69-4.88v-.82a3.92,3.92,0,0,1-3.88,2.16c-3.86,0-5.5-3.39-5.5-8.73,0-6.2,2.24-9.58,5.89-9.58,2.38,0,3.2,1.13,3.49,1.92,0-.55.1-1.17.16-1.61h4c0,1.12-.06,2.93-.06,5.46Zm-9.21-7.51c0,3.73.9,5.32,2.59,5.32,2.11,0,2.56-2,2.56-5.89,0-3.25-.16-5.33-2.43-5.33C651.85,140.81,650.88,142.63,650.88,146.71Zm16.25,1c0,2.3.29,4.86,2.6,4.86a2.37,2.37,0,0,0,2.43-2.39h4a6.1,6.1,0,0,1-6.49,5.85c-5.87,0-6.69-4.94-6.69-9.52,0-5.75,2.18-9.26,6.77-9.26,5.26,0,6.55,3.94,6.55,8.67,0,.63,0,1.48-.07,1.79Zm5-3c0-1.76-.2-4-2.42-4-2.4,0-2.54,2.7-2.55,4Zm7-1.48c0-3.72,0-4.69,0-5.64h4a13.7,13.7,0,0,1,.14,1.89,4.18,4.18,0,0,1,4-2.23c3,0,4.64,1.87,4.64,5.54v12.92H687.7v-12c0-1.8-.36-2.9-2.05-2.9s-2.34.89-2.34,3.65v11.22h-4.18Zm14.5-5.64H696V133h4.18v4.52H703V141h-2.79v9.92c0,1.05.19,1.65,1.49,1.65a4.68,4.68,0,0,0,1-.08v3.08a7.2,7.2,0,0,1-2.55.37c-2.9,0-4.15-1.07-4.15-4.33V141h-2.38Zm-356,64.94H39.35A39.39,39.39,0,0,1,0,163.15V39.35A39.39,39.39,0,0,1,39.35,0H337.66A39.39,39.39,0,0,1,377,39.35v123.8A39.39,39.39,0,0,1,337.66,202.5ZM39.35,17A22.38,22.38,0,0,0,17,39.35v123.8A22.38,22.38,0,0,0,39.35,185.5H337.66A22.37,22.37,0,0,0,360,163.15V39.35A22.37,22.37,0,0,0,337.66,17Zm700.4,185.5H441.43a39.4,39.4,0,0,1-39.35-39.35V39.35A39.4,39.4,0,0,1,441.43,0H739.75A39.4,39.4,0,0,1,779.1,39.35v123.8A39.4,39.4,0,0,1,739.75,202.5ZM441.43,17a22.38,22.38,0,0,0-22.35,22.35v123.8a22.38,22.38,0,0,0,22.35,22.35H739.75a22.38,22.38,0,0,0,22.35-22.35V39.35A22.38,22.38,0,0,0,739.75,17Z"/></g></g></svg>