<svg xmlns="http://www.w3.org/2000/svg" viewBox="0 0 839.23 385.12"><defs><style>.cls-1{fill:#1b1464;}</style></defs><g id="Layer_2" data-name="Layer 2"><g id="Layer_1-2" data-name="Layer 1"><path class="cls-1" d="M337.66,159.22H39.35A39.39,39.39,0,0,1,0,119.87V39.35A39.39,39.39,0,0,1,39.35,0H337.66A39.39,39.39,0,0,1,377,39.35v80.52A39.39,39.39,0,0,1,337.66,159.22ZM39.35,17A22.38,22.38,0,0,0,17,39.35v80.52a22.37,22.37,0,0,0,22.35,22.35H337.66A22.37,22.37,0,0,0,360,119.87V39.35A22.37,22.37,0,0,0,337.66,17ZM107,92h-3.23a18.49,18.49,0,0,1-.2-2c-1.06,1.87-2.7,2.42-4.7,2.42-5,0-6.74-4.41-6.74-12.1C92.09,71.7,95,68,100.1,68c6.41,0,6.77,5.5,6.84,6.91h-4.19c-.07-1-.28-3.32-2.78-3.32-2.73,0-3.5,3.64-3.5,8.77,0,5.52.65,8.55,3.36,8.55,2.24,0,2.92-1.72,2.92-5.21V82.35H99.56V78.73H107ZM123,86.72c0,2.64,0,4.39,0,5.32h-4a17.39,17.39,0,0,1-.17-2,3.94,3.94,0,0,1-4,2.3c-2.58,0-4.53-1.27-4.53-5.43v-13h4.19V86c0,1.79.37,2.78,1.89,2.78s2.42-.85,2.42-3.72V73.92H123Zm7-2.65c0,2.3.29,4.86,2.6,4.86a2.37,2.37,0,0,0,2.43-2.39h4a6.1,6.1,0,0,1-6.49,5.85c-5.87,0-6.69-4.94-6.69-9.52,0-5.75,2.18-9.26,6.78-9.26,5.25,0,6.54,3.94,6.54,8.67,0,.63,0,1.48-.07,1.79Zm5-3c0-1.76-.21-4-2.43-4-2.4,0-2.54,2.7-2.55,4Zm10.06,5.52a2.36,2.36,0,0,0,2.35,2.61c1.39,0,2.05-.73,2.05-1.91s-.58-2-2.72-2.78c-4.27-1.57-5.33-3.07-5.33-5.69s1.56-5.21,5.88-5.21c4.75,0,5.91,3.27,5.91,5.64h-4c0-.64-.07-2.45-2-2.45a1.58,1.58,0,0,0-1.71,1.7c0,1.15.66,1.68,2.82,2.48,3.83,1.42,5.28,2.88,5.28,5.81,0,3.56-2.22,5.6-6.33,5.6-4.33,0-6.27-2.58-6.28-5.8Zm9.47-12.64H157V69.4h4.17v4.52H164v3.43h-2.8v9.92c0,1,.19,1.65,1.5,1.65a4.18,4.18,0,0,0,1-.08v3.08a7.22,7.22,0,0,1-2.56.37c-2.89,0-4.14-1.07-4.14-4.33V77.35H154.6Zm30.12,12c-.07,1.45-.4,6.45-6.38,6.45-5.2,0-6.48-4.16-6.48-9.53,0-4.8,1.58-9.25,6.69-9.25,5.95,0,6.14,5.13,6.17,6.23H180.5c0-.7-.11-2.77-2-2.77s-2.44,2.06-2.44,5.82.58,6,2.39,6c2,0,2.1-2,2.21-3Zm14.65,2.19c0,.89.07,3.13.14,3.94h-3.8a11,11,0,0,1-.17-1.68,4.32,4.32,0,0,1-4.09,2c-3.48,0-4.82-2.78-4.82-5.37,0-3.71,2.54-6,7.14-6,.61,0,1.07,0,1.48,0v-2c0-1.06-.13-2.29-1.94-2.29s-1.94,1.14-2.05,2.33h-4c.07-2.67,1.32-5.52,6.16-5.52,3.89,0,5.91,1.77,5.91,5.23Zm-4-4A7.84,7.84,0,0,0,194,84c-2.38,0-3.25,1.11-3.25,2.59A2.09,2.09,0,0,0,192.83,89c2.14,0,2.52-1.6,2.52-4.29ZM203.09,92V67.18h4.18V92ZM211,92V67.18h4.19V92Zm10.68-5.48A2.35,2.35,0,0,0,224,89.17a1.78,1.78,0,0,0,2-1.91c0-1.28-.57-2-2.71-2.78C219,82.91,218,81.41,218,78.79s1.55-5.21,5.88-5.21c4.75,0,5.9,3.27,5.91,5.64h-4c0-.64-.07-2.45-2-2.45a1.57,1.57,0,0,0-1.7,1.7c0,1.15.65,1.68,2.82,2.48,3.83,1.42,5.28,2.88,5.28,5.81,0,3.56-2.23,5.6-6.34,5.6-4.33,0-6.26-2.58-6.28-5.8Zm31.77-1.41c-.11,1.19-.56,7.3-7.13,7.3-6.74,0-7.51-5.92-7.51-12.28C238.77,72.5,241,68,246.53,68c6.28,0,6.77,5.39,6.87,7.28h-4.2c-.07-.8-.12-3.68-2.73-3.68s-3.32,3.26-3.32,8.68c0,4.46.45,8.66,3.2,8.66,2.52,0,2.73-2.87,2.83-3.77Zm14.43-3.64h-7.6v6.88h8.53L268.25,92h-12.2V68.36H268.2v3.71h-8v5.76h7.6Zm17.52,3.64c-.1,1.19-.56,7.3-7.13,7.3-6.73,0-7.5-5.92-7.5-12.28C270.73,72.5,273,68,278.49,68c6.28,0,6.76,5.39,6.86,7.28h-4.19c-.07-.8-.13-3.68-2.74-3.68s-3.31,3.26-3.31,8.68c0,4.46.44,8.66,3.19,8.66,2.53,0,2.73-2.87,2.84-3.77Zm514.52,74.07H501.57a39.4,39.4,0,0,1-39.35-39.35V39.35A39.4,39.4,0,0,1,501.57,0H799.88a39.39,39.39,0,0,1,39.35,39.35v80.52A39.39,39.39,0,0,1,799.88,159.22ZM501.57,17a22.38,22.38,0,0,0-22.35,22.35v80.52a22.37,22.37,0,0,0,22.35,22.35H799.88a22.37,22.37,0,0,0,22.35-22.35V39.35A22.37,22.37,0,0,0,799.88,17ZM522,64.41c.21,2,1,3.69,3.16,3.69S528,66.8,528,65c0-1.94-1-3.07-4-4.5-4-1.93-5.64-3.63-5.64-7.15,0-3.8,2.44-6.39,6.72-6.39,5.33,0,6.64,3.6,6.71,6.68h-4.15c-.14-1.35-.49-3.34-2.63-3.34-1.68,0-2.43,1.09-2.43,2.69s.76,2.51,3.53,3.8c4.25,2,6.16,3.87,6.16,7.83,0,3.72-2.3,6.8-7.31,6.8-5.44,0-7.1-3.49-7.25-7Zm16.18-11.49c1.33,5.83,2.6,10.78,2.81,13h0c.4-2.58,1.61-7.87,2.84-13h4.2l-5.22,18.94c-1.55,5.64-3.57,6-6.09,6a9.1,9.1,0,0,1-1.63-.13V74.17a11.28,11.28,0,0,0,1.3.07c1.6,0,2.15-.8,2.62-3l-5.44-18.36ZM553,65.56a2.37,2.37,0,0,0,2.36,2.61,1.78,1.78,0,0,0,2-1.91c0-1.28-.57-2-2.72-2.78-4.27-1.57-5.32-3.07-5.32-5.69s1.55-5.21,5.87-5.21c4.76,0,5.91,3.27,5.91,5.64h-4c0-.64-.07-2.45-2-2.45a1.58,1.58,0,0,0-1.71,1.7c0,1.15.66,1.68,2.83,2.48,3.83,1.42,5.28,2.88,5.28,5.81,0,3.56-2.23,5.6-6.34,5.6-4.33,0-6.26-2.58-6.28-5.8Zm9.47-12.64h2.38V48.4H569v4.52h2.79v3.43H569v9.92c0,1,.19,1.65,1.49,1.65a4.14,4.14,0,0,0,1-.08v3.08a7.2,7.2,0,0,1-2.55.37c-2.9,0-4.15-1.07-4.15-4.33V56.35h-2.38ZM577.3,63.07c0,2.3.28,4.86,2.6,4.86a2.37,2.37,0,0,0,2.43-2.39h4a6.11,6.11,0,0,1-6.49,5.85c-5.88,0-6.69-4.94-6.69-9.52,0-5.75,2.18-9.26,6.77-9.26,5.26,0,6.55,3.94,6.55,8.67,0,.63,0,1.48-.07,1.79Zm5-3c0-1.76-.2-4-2.42-4-2.4,0-2.54,2.7-2.55,4Zm7-1.68c0-3.58,0-4.65,0-5.44h4a13.36,13.36,0,0,1,.13,1.85,4.32,4.32,0,0,1,4-2.16,3.51,3.51,0,0,1,3.68,2.46,4.78,4.78,0,0,1,4.44-2.46c2.58,0,4.59,1.31,4.59,5.44V71H606V58.67c0-1.45-.47-2.5-1.92-2.5-1.7,0-2.24,1.28-2.24,3.52V71h-4.15V58.74c0-1.66-.57-2.54-1.92-2.54-1.67,0-2.28,1.16-2.28,3.6V71h-4.16Zm30.95-5.44h4.18V71h-4.18Zm0-6.74h4.18v4.13H620.3Zm7.88,12.38c0-3.72,0-4.68,0-5.64h4a15.86,15.86,0,0,1,.13,1.89,4.21,4.21,0,0,1,4-2.23c3,0,4.64,1.87,4.64,5.54V71h-4.19v-12c0-1.8-.36-2.9-2-2.9s-2.35.89-2.35,3.65V71h-4.18Zm27.11,11.09v7.93H651.1V58.16c0-2.44,0-4.09,0-5.24h4a15,15,0,0,1,.13,2,4,4,0,0,1,4.07-2.3c3.36,0,5.29,2.89,5.29,9.07,0,7.09-2.35,9.71-5.85,9.71A3.55,3.55,0,0,1,655.29,69.65Zm5.07-7.78c0-4.33-.9-5.7-2.67-5.7-2.11,0-2.54,2-2.54,5.54,0,4.15.22,6.12,2.51,6.12C659.48,67.83,660.36,65.87,660.36,61.87ZM667.45,71V46.18h4.18V71ZM687,67.1c0,.89.08,3.13.14,3.94h-3.8a11,11,0,0,1-.17-1.68,4.31,4.31,0,0,1-4.09,2c-3.48,0-4.82-2.78-4.82-5.37,0-3.71,2.55-6,7.14-6,.61,0,1.08,0,1.49,0v-2c0-1.06-.14-2.29-1.95-2.29s-1.94,1.14-2,2.33h-4c.07-2.67,1.32-5.52,6.17-5.52,3.89,0,5.9,1.77,5.9,5.23Zm-4-4a7.84,7.84,0,0,0-1.35-.08c-2.38,0-3.25,1.11-3.25,2.59A2.09,2.09,0,0,0,680.46,68c2.14,0,2.52-1.6,2.52-4.29Zm19.78,1.81c-.07,1.45-.39,6.45-6.37,6.45-5.2,0-6.49-4.16-6.49-9.53,0-4.8,1.59-9.25,6.7-9.25,5.95,0,6.13,5.13,6.16,6.23h-4.22c0-.7-.1-2.77-2-2.77s-2.44,2.06-2.44,5.82.57,6,2.39,6,2.1-2,2.21-3ZM709,63.07c0,2.3.28,4.86,2.6,4.86A2.36,2.36,0,0,0,714,65.54h4a6.11,6.11,0,0,1-6.49,5.85c-5.88,0-6.7-4.94-6.7-9.52,0-5.75,2.19-9.26,6.78-9.26,5.26,0,6.54,3.94,6.54,8.67,0,.63,0,1.48-.06,1.79Zm5-3c0-1.76-.2-4-2.42-4-2.4,0-2.55,2.7-2.55,4Zm25.35,7.06c0,.89.08,3.13.14,3.94h-3.8a11,11,0,0,1-.17-1.68,4.31,4.31,0,0,1-4.09,2c-3.48,0-4.82-2.78-4.82-5.37,0-3.71,2.54-6,7.14-6,.61,0,1.08,0,1.49,0v-2c0-1.06-.14-2.29-2-2.29s-1.94,1.14-2,2.33h-4c.07-2.67,1.32-5.52,6.17-5.52,3.89,0,5.9,1.77,5.9,5.23Zm-4-4A7.84,7.84,0,0,0,734,63c-2.38,0-3.25,1.11-3.25,2.59A2.09,2.09,0,0,0,732.82,68c2.14,0,2.52-1.6,2.52-4.29Zm10.51,2.46a2.35,2.35,0,0,0,2.35,2.61,1.78,1.78,0,0,0,2-1.91c0-1.28-.57-2-2.72-2.78-4.27-1.57-5.32-3.07-5.32-5.69s1.55-5.21,5.87-5.21c4.76,0,5.91,3.27,5.91,5.64h-4c0-.64-.07-2.45-2-2.45a1.57,1.57,0,0,0-1.7,1.7c0,1.15.65,1.68,2.82,2.48,3.83,1.42,5.28,2.88,5.28,5.81,0,3.56-2.23,5.6-6.34,5.6-4.33,0-6.26-2.58-6.28-5.8Zm15.24-4.9c1.26-2.29,2.93-5.18,4.43-7.74h4.61c-1.47,2.28-2.86,4.35-4.39,6.65L770.39,71h-4.73l-2.75-8.12c-.5.69-1.35,2-1.82,2.65V71h-4.18V46.18h4.18Zm14,4.9a2.37,2.37,0,0,0,2.36,2.61,1.78,1.78,0,0,0,2-1.91c0-1.28-.57-2-2.72-2.78-4.27-1.57-5.32-3.07-5.32-5.69s1.55-5.21,5.87-5.21c4.76,0,5.91,3.27,5.91,5.64h-4c0-.64-.07-2.45-2-2.45a1.58,1.58,0,0,0-1.71,1.7c0,1.15.66,1.68,2.83,2.48,3.83,1.42,5.28,2.88,5.28,5.81,0,3.56-2.23,5.6-6.34,5.6-4.33,0-6.26-2.58-6.28-5.8ZM506.92,113V98.35H504.8V94.92h2.12V93.16c0-3,1.37-5.22,5-5.22a7.06,7.06,0,0,1,1.72.21v3.5a4.46,4.46,0,0,0-1-.12c-1.2,0-1.52.68-1.52,1.92v1.47h2.57v3.43H511.1V113Zm21.29-9.21c0,6.58-2.42,9.56-6.87,9.56s-6.75-2.85-6.75-9.46c0-6.42,2.7-9.32,7-9.32S528.21,97.77,528.21,103.83Zm-9.4.07c0,3.89.65,6,2.65,6s2.52-2.09,2.52-6-.66-5.81-2.55-5.81S518.81,100,518.81,103.9Zm12.24-2.84c0-3,0-4.85,0-6.14h4a26.82,26.82,0,0,1,.1,3,4.63,4.63,0,0,1,4.75-3.29V99.3c-3-.06-4.62.81-4.62,4.23V113h-4.19Zm17.73-11.7H556c4.11,0,6.37,2.28,6.37,6,0,3-1.43,4.44-2.74,4.93,1.67.69,3.42,2.23,3.42,5.79,0,4.5-2.93,7-7.14,7h-7.13Zm6.2,9.45c2.63,0,3.32-1,3.32-3.06s-1.09-3-3.18-3h-2.19v6.08Zm-2.05,10.93h2.53c2.12,0,3.34-1.09,3.34-3.75,0-2.44-1-3.87-3.8-3.87h-2.07ZM579,103.83c0,6.58-2.41,9.56-6.86,9.56s-6.75-2.85-6.75-9.46c0-6.42,2.69-9.32,7-9.32S579,97.77,579,103.83Zm-9.39.07c0,3.89.65,6,2.64,6s2.53-2.09,2.53-6-.67-5.81-2.56-5.81S569.6,100,569.6,103.9Zm12.24-3.34c0-3.72,0-4.68,0-5.64h4a15.86,15.86,0,0,1,.13,1.89,4.21,4.21,0,0,1,4-2.23c3,0,4.64,1.87,4.64,5.54V113h-4.19v-12c0-1.8-.36-2.9-2-2.9s-2.35.89-2.35,3.65V113h-4.18Zm18.94-5.64c1.12,5.15,2.33,10.74,2.74,13.77h0c.33-2.79,1.85-8.56,3-13.77h4.18L605.62,113h-4.51l-4.8-18.12Zm24.55,8.91c0,6.58-2.41,9.56-6.87,9.56s-6.74-2.85-6.74-9.46c0-6.42,2.69-9.32,7-9.32S625.33,97.77,625.33,103.83Zm-9.39.07c0,3.89.65,6,2.64,6s2.53-2.09,2.53-6-.67-5.81-2.56-5.81S615.94,100,615.94,103.9Zm15.11-9c1.32,5.83,2.59,10.78,2.81,13h0c.41-2.58,1.62-7.87,2.84-13h4.2l-5.21,18.94c-1.55,5.64-3.57,6-6.09,6a9.1,9.1,0,0,1-1.63-.13v-3.53a11.28,11.28,0,0,0,1.3.07c1.6,0,2.15-.8,2.62-3l-5.44-18.36Zm18.37,0h4.18V113h-4.18Zm0-6.74h4.19v4.13h-4.19Zm7.88,12.38c0-3.72,0-4.68,0-5.64h4a14,14,0,0,1,.13,1.89,4.21,4.21,0,0,1,4-2.23c3,0,4.64,1.87,4.64,5.54V113h-4.18v-12c0-1.8-.36-2.9-2-2.9s-2.34.89-2.34,3.65V113h-4.19ZM674.18,113V98.35h-2.11V94.92h2.11V93.16c0-3,1.37-5.22,5-5.22a7.22,7.22,0,0,1,1.73.21v3.5a4.62,4.62,0,0,0-1-.12c-1.2,0-1.52.68-1.52,1.92v1.47h2.57v3.43h-2.57V113Zm21.29-9.21c0,6.58-2.42,9.56-6.87,9.56s-6.75-2.85-6.75-9.46c0-6.42,2.7-9.32,7-9.32S695.47,97.77,695.47,103.83Zm-9.39.07c0,3.89.65,6,2.64,6s2.53-2.09,2.53-6-.67-5.81-2.56-5.81S686.08,100,686.08,103.9Zm12.24-2.84c0-3,0-4.85,0-6.14h4a25.39,25.39,0,0,1,.11,3,4.61,4.61,0,0,1,4.74-3.29V99.3c-3-.06-4.62.81-4.62,4.23V113h-4.18Zm10.88-.7c0-3.58,0-4.65,0-5.44h4a13.2,13.2,0,0,1,.14,1.85,4.31,4.31,0,0,1,4-2.16A3.51,3.51,0,0,1,721,97.07a4.79,4.79,0,0,1,4.45-2.46c2.57,0,4.58,1.31,4.58,5.44v13h-4.12V100.67c0-1.45-.46-2.5-1.92-2.5-1.7,0-2.24,1.28-2.24,3.52V113h-4.15v-12.3c0-1.66-.57-2.54-1.91-2.54-1.68,0-2.29,1.16-2.29,3.6V113H709.2Zm36.11,8.74c0,.89.08,3.13.14,3.94h-3.8a11,11,0,0,1-.17-1.68,4.31,4.31,0,0,1-4.09,2c-3.48,0-4.82-2.78-4.82-5.37,0-3.71,2.54-6,7.14-6,.61,0,1.08,0,1.49,0v-2c0-1.06-.14-2.29-2-2.29s-1.94,1.14-2,2.33h-4c.07-2.67,1.32-5.52,6.17-5.52,3.89,0,5.9,1.77,5.9,5.23Zm-4-4a7.84,7.84,0,0,0-1.35-.08c-2.38,0-3.25,1.11-3.25,2.59a2.09,2.09,0,0,0,2.08,2.35c2.14,0,2.52-1.6,2.52-4.29Zm5.77-10.18h2.37V90.4h4.18v4.52h2.8v3.43h-2.8v9.92c0,1,.19,1.65,1.49,1.65a4.14,4.14,0,0,0,1-.08v3.08a7.16,7.16,0,0,1-2.55.37c-2.9,0-4.15-1.07-4.15-4.33V98.35h-2.37Zm11.6,0h4.18V113h-4.18Zm0-6.74h4.18v4.13h-4.18Zm20.67,15.65c0,6.58-2.41,9.56-6.86,9.56s-6.75-2.85-6.75-9.46c0-6.42,2.7-9.32,7-9.32S779.36,97.77,779.36,103.83Zm-9.39.07c0,3.89.65,6,2.65,6s2.52-2.09,2.52-6-.66-5.81-2.55-5.81S770,100,770,103.9Zm12.24-3.34c0-3.72,0-4.68,0-5.64h4a15.86,15.86,0,0,1,.13,1.89,4.21,4.21,0,0,1,4-2.23c3,0,4.64,1.87,4.64,5.54V113h-4.19v-12c0-1.8-.36-2.9-2-2.9s-2.34.89-2.34,3.65V113h-4.19Zm17.67,284.56H501.57a39.4,39.4,0,0,1-39.35-39.35V265.25a39.4,39.4,0,0,1,39.35-39.35H799.88a39.39,39.39,0,0,1,39.35,39.35v80.52A39.39,39.39,0,0,1,799.88,385.12ZM501.57,242.9a22.37,22.37,0,0,0-22.35,22.35v80.52a22.38,22.38,0,0,0,22.35,22.35H799.88a22.37,22.37,0,0,0,22.35-22.35V265.25a22.37,22.37,0,0,0-22.35-22.35Zm37.26,54h-3.24a18.93,18.93,0,0,1-.2-2c-1.06,1.88-2.7,2.43-4.7,2.43-5,0-6.74-4.41-6.74-12.11,0-8.64,2.92-12.36,8-12.36,6.41,0,6.77,5.5,6.84,6.9h-4.19c-.07-.95-.28-3.31-2.78-3.31-2.73,0-3.5,3.64-3.5,8.77,0,5.52.65,8.55,3.36,8.55,2.25,0,2.92-1.72,2.92-5.21v-1.33h-3.19v-3.62h7.41Zm16.06-5.32c0,2.64,0,4.39,0,5.32h-4a17.59,17.59,0,0,1-.17-2,3.94,3.94,0,0,1-4,2.29c-2.58,0-4.53-1.27-4.53-5.43v-13h4.19v12.06c0,1.79.37,2.79,1.89,2.79s2.42-.85,2.42-3.73V278.82h4.18Zm7-2.65c0,2.29.28,4.85,2.6,4.85a2.36,2.36,0,0,0,2.42-2.38h4a6.08,6.08,0,0,1-6.49,5.84c-5.87,0-6.69-4.93-6.69-9.52,0-5.74,2.18-9.25,6.78-9.25,5.25,0,6.54,3.93,6.54,8.66,0,.63,0,1.49-.06,1.8Zm5-3c0-1.76-.21-4-2.43-4-2.4,0-2.54,2.69-2.55,4ZM577,291.46a2.36,2.36,0,0,0,2.35,2.61,1.78,1.78,0,0,0,2-1.92c0-1.28-.58-2-2.72-2.77-4.27-1.57-5.33-3.07-5.33-5.7,0-2.46,1.56-5.2,5.88-5.2,4.76,0,5.91,3.26,5.91,5.64h-4c0-.64-.07-2.46-2-2.46a1.59,1.59,0,0,0-1.71,1.71c0,1.15.66,1.67,2.82,2.48,3.83,1.41,5.29,2.87,5.29,5.8,0,3.57-2.23,5.6-6.34,5.6-4.33,0-6.26-2.57-6.28-5.79Zm9.47-12.64h2.38v-4.53H593v4.53h2.8v3.43H593v9.91c0,1.06.2,1.65,1.5,1.65a4.77,4.77,0,0,0,1-.07v3.07a7.22,7.22,0,0,1-2.56.37c-2.89,0-4.14-1.07-4.14-4.32V282.25h-2.38Zm30.87,8.91c0,6.57-2.41,9.55-6.86,9.55s-6.75-2.84-6.75-9.46c0-6.41,2.7-9.31,7-9.31S617.33,281.66,617.33,287.73Zm-9.39.07c0,3.89.65,6,2.65,6s2.52-2.08,2.52-5.94c0-4-.66-5.82-2.55-5.82S607.94,283.91,607.94,287.8Zm16.42,7.75v7.93h-4.18V284.06c0-2.45,0-4.09,0-5.24h4a16.77,16.77,0,0,1,.13,2,4,4,0,0,1,4.06-2.29c3.36,0,5.3,2.89,5.3,9.07,0,7.08-2.35,9.7-5.85,9.7A3.56,3.56,0,0,1,624.36,295.55Zm5.08-7.78c0-4.33-.91-5.7-2.68-5.7-2.1,0-2.53,2-2.53,5.54,0,4.14.22,6.12,2.5,6.12C628.56,293.73,629.44,291.77,629.44,287.77Zm5.28-8.95h2.38v-4.53h4.18v4.53h2.79v3.43h-2.79v9.91c0,1.06.19,1.65,1.49,1.65a4.72,4.72,0,0,0,1-.07v3.07a7.2,7.2,0,0,1-2.55.37c-2.9,0-4.15-1.07-4.15-4.32V282.25h-2.38Zm14.89,12.64a2.36,2.36,0,0,0,2.35,2.61,1.78,1.78,0,0,0,2-1.92c0-1.28-.58-2-2.72-2.77-4.27-1.57-5.33-3.07-5.33-5.7,0-2.46,1.56-5.2,5.88-5.2,4.76,0,5.91,3.26,5.91,5.64h-4c0-.64-.07-2.46-2-2.46a1.59,1.59,0,0,0-1.71,1.71c0,1.15.66,1.67,2.83,2.48,3.82,1.41,5.28,2.87,5.28,5.8,0,3.57-2.23,5.6-6.34,5.6-4.33,0-6.26-2.57-6.28-5.79Zm10.19,6.18,6.86-24.53h3.13L663,297.64Zm16.89-2.09v7.93H672.5V284.06c0-2.45,0-4.09,0-5.24h4a14.86,14.86,0,0,1,.13,2,4,4,0,0,1,4.07-2.29c3.36,0,5.29,2.89,5.29,9.07,0,7.08-2.35,9.7-5.85,9.7A3.55,3.55,0,0,1,676.69,295.55Zm5.07-7.78c0-4.33-.9-5.7-2.67-5.7-2.11,0-2.54,2-2.54,5.54,0,4.14.22,6.12,2.51,6.12C680.88,293.73,681.76,291.77,681.76,287.77Zm7.09-2.81c0-3,0-4.85,0-6.14h4a29.54,29.54,0,0,1,.1,3,4.62,4.62,0,0,1,4.74-3.29v4.69c-3-.07-4.62.8-4.62,4.23v9.51h-4.18Zm23.78,2.77c0,6.57-2.41,9.55-6.86,9.55s-6.75-2.84-6.75-9.46c0-6.41,2.7-9.31,7-9.31S712.63,281.66,712.63,287.73Zm-9.39.07c0,3.89.65,6,2.65,6s2.52-2.08,2.52-5.94c0-4-.66-5.82-2.55-5.82S703.24,283.91,703.24,287.8Zm12.27-3.54c0-3.58,0-4.66,0-5.44h4a13.25,13.25,0,0,1,.13,1.85,4.32,4.32,0,0,1,4-2.16,3.49,3.49,0,0,1,3.67,2.46,4.79,4.79,0,0,1,4.45-2.46c2.58,0,4.59,1.31,4.59,5.43v13h-4.12V284.56c0-1.44-.47-2.49-1.92-2.49-1.7,0-2.25,1.28-2.25,3.52v11.35h-4.15V284.63c0-1.66-.56-2.53-1.91-2.53-1.67,0-2.29,1.15-2.29,3.59v11.25h-4.15Zm28.65,11.29v7.93H740V284.06c0-2.45,0-4.09,0-5.24h4a14.86,14.86,0,0,1,.13,2,4,4,0,0,1,4.07-2.29c3.36,0,5.29,2.89,5.29,9.07,0,7.08-2.35,9.7-5.85,9.7A3.56,3.56,0,0,1,744.16,295.55Zm5.08-7.78c0-4.33-.9-5.7-2.68-5.7-2.1,0-2.53,2-2.53,5.54,0,4.14.22,6.12,2.51,6.12C748.36,293.73,749.24,291.77,749.24,287.77Zm5.29-8.95h2.37v-4.53h4.18v4.53h2.8v3.43h-2.8v9.91c0,1.06.19,1.65,1.49,1.65a4.72,4.72,0,0,0,1-.07v3.07a7.16,7.16,0,0,1-2.55.37c-2.9,0-4.15-1.07-4.15-4.32V282.25h-2.37Zm14.89,12.64a2.36,2.36,0,0,0,2.35,2.61,1.78,1.78,0,0,0,2-1.92c0-1.28-.57-2-2.72-2.77-4.27-1.57-5.32-3.07-5.32-5.7,0-2.46,1.55-5.2,5.87-5.2,4.76,0,5.91,3.26,5.91,5.64h-4c0-.64-.07-2.46-2-2.46a1.59,1.59,0,0,0-1.71,1.71c0,1.15.66,1.67,2.83,2.48,3.83,1.41,5.28,2.87,5.28,5.8,0,3.57-2.23,5.6-6.34,5.6-4.33,0-6.26-2.57-6.28-5.79ZM524.74,329.73c0,6.57-2.41,9.55-6.86,9.55s-6.75-2.84-6.75-9.46c0-6.41,2.7-9.31,7-9.31S524.74,323.66,524.74,329.73Zm-9.39.07c0,3.89.65,6,2.65,6s2.52-2.08,2.52-5.94c0-4-.66-5.82-2.55-5.82S515.35,325.91,515.35,329.8Zm24.86,3.82c0,2.64,0,4.39,0,5.32h-4a17.59,17.59,0,0,1-.17-2,3.94,3.94,0,0,1-4,2.29c-2.58,0-4.53-1.27-4.53-5.43v-13h4.19v12.06c0,1.79.37,2.79,1.89,2.79s2.42-.85,2.42-3.73V320.82h4.18Zm2.17-12.8h2.37v-4.53h4.18v4.53h2.8v3.43h-2.8v9.91c0,1.06.19,1.65,1.5,1.65a4.77,4.77,0,0,0,1-.07v3.07a7.22,7.22,0,0,1-2.56.37c-2.89,0-4.15-1.07-4.15-4.32V324.25h-2.37Zm10.3,21.82a36,36,0,0,0,2.07-9.06h4a23.89,23.89,0,0,1-2.74,9.06Zm27.65-5.17c0,5.15-1.49,8.29-7,8.29-5.15,0-6.25-3-6.35-5.24h4.16c.07.55.26,1.84,2.35,1.84,2.27,0,2.69-1.71,2.69-4.89v-.81a3.91,3.91,0,0,1-3.87,2.15c-3.86,0-5.5-3.38-5.5-8.72,0-6.2,2.24-9.58,5.88-9.58,2.39,0,3.21,1.13,3.49,1.91,0-.54.1-1.16.17-1.6h4c0,1.11-.07,2.93-.07,5.46Zm-9.21-7.5c0,3.73.91,5.32,2.6,5.32,2.11,0,2.56-2,2.56-5.89,0-3.26-.16-5.33-2.43-5.33C572.1,324.07,571.12,325.89,571.12,330Zm25.72-.24c0,6.57-2.41,9.55-6.86,9.55s-6.75-2.84-6.75-9.46c0-6.41,2.69-9.31,7-9.31S596.84,323.66,596.84,329.73Zm-9.39.07c0,3.89.65,6,2.64,6s2.53-2.08,2.53-5.94c0-4-.67-5.82-2.56-5.82S587.45,325.91,587.45,329.8ZM603.17,331c0,2.29.28,4.85,2.6,4.85a2.36,2.36,0,0,0,2.42-2.38h4a6.09,6.09,0,0,1-6.49,5.84c-5.87,0-6.69-4.93-6.69-9.52,0-5.74,2.18-9.25,6.78-9.25,5.25,0,6.54,3.93,6.54,8.66,0,.63,0,1.49-.06,1.8Zm5-3c0-1.76-.21-4-2.43-4-2.4,0-2.54,2.69-2.55,4Zm10.06,5.52a2.36,2.36,0,0,0,2.35,2.61,1.78,1.78,0,0,0,2-1.92c0-1.28-.58-2-2.72-2.77-4.27-1.57-5.33-3.07-5.33-5.7,0-2.46,1.56-5.2,5.88-5.2,4.75,0,5.91,3.26,5.91,5.64h-4c0-.64-.07-2.46-2-2.46a1.59,1.59,0,0,0-1.71,1.71c0,1.15.66,1.67,2.82,2.48,3.83,1.41,5.28,2.87,5.28,5.8,0,3.57-2.22,5.6-6.33,5.6-4.33,0-6.26-2.57-6.28-5.79ZM634,320.82h2.37v-4.53h4.18v4.53h2.8v3.43h-2.8v9.91c0,1.06.19,1.65,1.49,1.65a4.72,4.72,0,0,0,1-.07v3.07a7.16,7.16,0,0,1-2.55.37c-2.9,0-4.15-1.07-4.15-4.32V324.25H634Zm24.32,8.91c0,6.57-2.41,9.55-6.86,9.55s-6.75-2.84-6.75-9.46c0-6.41,2.7-9.31,7-9.31S658.33,323.66,658.33,329.73Zm-9.39.07c0,3.89.65,6,2.65,6s2.52-2.08,2.52-5.94c0-4-.66-5.82-2.55-5.82S648.94,325.91,648.94,329.8Zm18.72,9.14V314.07h4.18v24.87Zm7.87-18.12h4.18v18.12h-4.18Zm0-6.75h4.18v4.13h-4.18Zm10.65,6.75c1.13,5.14,2.34,10.73,2.75,13.76h0c.33-2.78,1.85-8.55,3-13.76h4.19l-5.08,18.12h-4.51l-4.8-18.12ZM701.3,331c0,2.29.28,4.85,2.6,4.85a2.37,2.37,0,0,0,2.43-2.38h4a6.09,6.09,0,0,1-6.49,5.84c-5.87,0-6.69-4.93-6.69-9.52,0-5.74,2.18-9.25,6.77-9.25,5.26,0,6.55,3.93,6.55,8.66,0,.63,0,1.49-.07,1.8Zm5-3c0-1.76-.2-4-2.42-4-2.4,0-2.54,2.69-2.55,4ZM731.7,335c0,.89.07,3.13.14,3.95H728a9.84,9.84,0,0,1-.18-1.69,4.31,4.31,0,0,1-4.08,2c-3.49,0-4.83-2.77-4.83-5.37,0-3.71,2.55-6,7.15-6,.61,0,1.07,0,1.48,0v-2c0-1.06-.13-2.3-2-2.3s-1.94,1.15-2,2.34h-4c.07-2.67,1.32-5.52,6.17-5.52,3.89,0,5.91,1.76,5.91,5.22Zm-4-4a8,8,0,0,0-1.36-.07c-2.38,0-3.24,1.11-3.24,2.58a2.08,2.08,0,0,0,2.08,2.35c2.13,0,2.52-1.59,2.52-4.28Zm20.4,6.48c0,5.15-1.49,8.29-7,8.29-5.16,0-6.26-3-6.36-5.24h4.16c.07.55.26,1.84,2.35,1.84,2.27,0,2.69-1.71,2.69-4.89v-.81a3.91,3.91,0,0,1-3.87,2.15c-3.86,0-5.5-3.38-5.5-8.72,0-6.2,2.24-9.58,5.89-9.58,2.38,0,3.2,1.13,3.48,1.91,0-.54.1-1.16.17-1.6h4c0,1.11-.07,2.93-.07,5.46Zm-9.2-7.5c0,3.73.9,5.32,2.59,5.32,2.11,0,2.56-2,2.56-5.89,0-3.26-.16-5.33-2.43-5.33C739.85,324.07,738.88,325.89,738.88,330Zm16.25,1c0,2.29.28,4.85,2.6,4.85a2.37,2.37,0,0,0,2.43-2.38h4a6.09,6.09,0,0,1-6.49,5.84c-5.87,0-6.69-4.93-6.69-9.52,0-5.74,2.18-9.25,6.77-9.25,5.26,0,6.55,3.93,6.55,8.66,0,.63,0,1.49-.07,1.8Zm5-3c0-1.76-.2-4-2.42-4-2.4,0-2.54,2.69-2.55,4Zm7-1.48c0-3.73,0-4.69,0-5.64h4a13.88,13.88,0,0,1,.13,1.89,4.21,4.21,0,0,1,4-2.23c3,0,4.63,1.87,4.63,5.53v12.93H775.7V327c0-1.79-.36-2.89-2.05-2.89s-2.34.89-2.34,3.64v11.23h-4.19Zm14.51-5.64H784v-4.53h4.18v4.53H791v3.43h-2.79v9.91c0,1.06.19,1.65,1.49,1.65a4.77,4.77,0,0,0,1-.07v3.07a7.22,7.22,0,0,1-2.56.37c-2.89,0-4.14-1.07-4.14-4.32V324.25h-2.38Zm-444,64.3h-12v-17h12Zm-24,0h-12v-17h12Zm-24,0h-12v-17h12Zm-24,0h-12v-17h12Zm-24,0h-12v-17h12Zm-24,0h-12v-17h12Zm-24,0h-12v-17h12Zm-24,0h-12v-17h12Zm-24,0h-12v-17h12Zm-24,0h-12v-17h12Zm-24,0h-12v-17h12Zm-24,0h-12v-17h12Zm-24,0H39.35c-.72,0-1.44,0-2.15-.06l.92-17c.41,0,.82,0,1.23,0H49.66Zm292.55-.26L340.26,368a22.22,22.22,0,0,0,8.21-2.63l8.23,14.87A39,39,0,0,1,342.21,384.86ZM22.46,381.32a39.52,39.52,0,0,1-12.21-9.06l12.57-11.45A22.2,22.2,0,0,0,29.76,366Zm345.87-10.89-13.24-10.66a22.32,22.32,0,0,0,4-7.64L375.4,357A39.18,39.18,0,0,1,368.33,370.43Zm-366-11.18A39.33,39.33,0,0,1,0,345.77v-1.21H17v1.21a22.28,22.28,0,0,0,1.34,7.65ZM377,342.67H360v-12h17ZM17,332.56H0v-12H17Zm360-13.89H360v-12h17ZM17,308.56H0v-12H17Zm360-13.89H360v-12h17ZM17,284.56H0v-12H17Zm360-13.89H360v-5.42a22.7,22.7,0,0,0-.5-4.74l16.62-3.59a39.34,39.34,0,0,1,.88,8.33ZM17.25,261.85.45,259.3A39.07,39.07,0,0,1,5.61,245l14.57,8.77A22.17,22.17,0,0,0,17.25,261.85Zm338.84-9.26a22.42,22.42,0,0,0-6.19-6.05l9.33-14.21A39.21,39.21,0,0,1,370.09,243ZM26,247.33,15.81,233.71a39.06,39.06,0,0,1,13.72-6.58l4.23,16.47A22,22,0,0,0,26,247.33Zm315.93-4a22.44,22.44,0,0,0-4.26-.4h-6.1v-17h6.1a39.71,39.71,0,0,1,7.47.7Zm-22.36-.4h-12v-17h12Zm-24,0h-12v-17h12Zm-24,0h-12v-17h12Zm-24,0h-12v-17h12Zm-24,0h-12v-17h12Zm-24,0h-12v-17h12Zm-24,0h-12v-17h12Zm-24,0h-12v-17h12Zm-24,0h-12v-17h12Zm-24,0h-12v-17h12Zm-24,0h-12v-17h12Zm-24,0h-12v-17h12Zm4.4,54-4.52-23.69H60c.86,5.59,2,13.34,2.34,17.77h0c.71-4.58,2.4-12.61,3.34-17.77h3.77c.89,4.66,2.6,13,3.21,17.55h.07c.52-5,1.94-13,2.55-17.55h4.22l-4.82,23.69H70.5c-.91-4.94-2.45-12.15-3.08-16.71h-.06c-.67,4.64-2.29,12.15-3.22,16.71Zm25.73-24.87v8.49a4.22,4.22,0,0,1,4.07-2.08c3,0,4.51,1.95,4.51,5.65v12.81H90.08V285c0-1.77-.31-2.9-2.09-2.9s-2.3,1.39-2.3,3.79v11.08H81.51V272.07Zm14.68,6.75c1.32,5.82,2.59,10.77,2.81,12.95h0c.41-2.57,1.62-7.86,2.84-12.95h4.2L105,297.76c-1.55,5.64-3.57,6-6.09,6a9.13,9.13,0,0,1-1.63-.14v-3.53a11,11,0,0,0,1.3.08c1.6,0,2.15-.81,2.62-3L95.8,278.82Zm15.93,10.72V289c0-2.13.62-3.71,2.49-6.12a6.56,6.56,0,0,0,1.72-4.15c0-1.53-.53-2.48-1.92-2.48-1.55,0-2,1.21-2.14,3h-3.87c0-3.28,1.67-6.33,6.18-6.3s5.88,2.75,5.88,5.79c0,2.49-.66,3.84-2.6,6.42a6.27,6.27,0,0,0-1.5,4.05v.31Zm0,7.4v-5.38h4.25v5.38Zm17.76,0V273.25h4.81c4.9,13.09,5.84,15.59,6.12,16.75h0c-.2-2.84-.21-6.33-.21-10.21v-6.54h3.79v23.69H144c-5.06-14-6-16.47-6.26-17.56h0c.18,2.92.18,6.41.18,10.65v6.91Zm31.23-9.21c0,6.57-2.42,9.55-6.87,9.55s-6.75-2.84-6.75-9.46c0-6.41,2.7-9.31,7-9.31S165.28,281.66,165.28,287.73Zm-9.4.07c0,3.89.66,6,2.65,6s2.53-2.08,2.53-5.94c0-4-.67-5.82-2.56-5.82S155.88,283.91,155.88,287.8Zm18.72-9h4.18v18.12H174.6Zm0-6.75h4.18v4.13h-4.18Zm7.88,12.39c0-3.73,0-4.69,0-5.64h4a13.88,13.88,0,0,1,.13,1.89,4.21,4.21,0,0,1,4-2.23c3,0,4.64,1.87,4.64,5.53v12.93h-4.18V285c0-1.79-.36-2.89-2.05-2.89s-2.34.89-2.34,3.64v11.23h-4.19Zm16.85,12.48V282.25h-2.12v-3.43h2.12v-1.77c0-3,1.37-5.21,5-5.21a7.66,7.66,0,0,1,1.72.2v3.5a4.46,4.46,0,0,0-1-.11c-1.2,0-1.52.67-1.52,1.92v1.47h2.57v3.43h-2.57v14.69Zm21.29-9.21c0,6.57-2.42,9.55-6.87,9.55s-6.75-2.84-6.75-9.46c0-6.41,2.7-9.31,7-9.31S220.65,281.66,220.65,287.73Zm-9.4.07c0,3.89.65,6,2.65,6s2.53-2.08,2.53-5.94c0-4-.67-5.82-2.56-5.82S211.25,283.91,211.25,287.8ZM223.5,285c0-3,0-4.85,0-6.14h4a26.4,26.4,0,0,1,.1,3,4.64,4.64,0,0,1,4.75-3.29v4.69c-3-.07-4.62.8-4.62,4.23v9.51H223.5Zm10.88-.7c0-3.58,0-4.66,0-5.44h4a13.07,13.07,0,0,1,.14,1.85,4.3,4.3,0,0,1,4-2.16,3.51,3.51,0,0,1,3.68,2.46,4.76,4.76,0,0,1,4.44-2.46c2.58,0,4.59,1.31,4.59,5.43v13H251V284.56c0-1.44-.46-2.49-1.92-2.49-1.7,0-2.24,1.28-2.24,3.52v11.35h-4.15V284.63c0-1.66-.57-2.53-1.91-2.53-1.68,0-2.29,1.15-2.29,3.59v11.25h-4.15ZM270.49,293c0,.89.08,3.13.14,3.95h-3.8a11.06,11.06,0,0,1-.17-1.69,4.31,4.31,0,0,1-4.09,2c-3.48,0-4.82-2.77-4.82-5.37,0-3.71,2.54-6,7.14-6,.61,0,1.08,0,1.49,0v-2c0-1.06-.14-2.3-1.95-2.3s-1.94,1.15-2.05,2.34h-4c.07-2.67,1.32-5.52,6.17-5.52,3.89,0,5.9,1.76,5.9,5.22Zm-4-4a7.92,7.92,0,0,0-1.35-.07c-2.38,0-3.25,1.11-3.25,2.58a2.08,2.08,0,0,0,2.08,2.35c2.14,0,2.52-1.59,2.52-4.28Zm5.76-10.17h2.38v-4.53h4.18v4.53h2.79v3.43h-2.79v9.91c0,1.06.19,1.65,1.49,1.65a4.72,4.72,0,0,0,1-.07v3.07a7.16,7.16,0,0,1-2.55.37c-2.9,0-4.15-1.07-4.15-4.32V282.25h-2.38Zm11.6,0H288v18.12h-4.19Zm0-6.75h4.18v4.13h-4.18Zm20.67,15.66c0,6.57-2.41,9.55-6.86,9.55s-6.75-2.84-6.75-9.46c0-6.41,2.7-9.31,7-9.31S304.54,281.66,304.54,287.73Zm-9.39.07c0,3.89.65,6,2.65,6s2.52-2.08,2.52-5.94c0-4-.67-5.82-2.56-5.82S295.15,283.91,295.15,287.8Zm12.24-3.34c0-3.73,0-4.69,0-5.64h4a15.7,15.7,0,0,1,.13,1.89,4.21,4.21,0,0,1,4-2.23c3,0,4.64,1.87,4.64,5.53v12.93H316V285c0-1.79-.36-2.89-2-2.89s-2.34.89-2.34,3.64v11.23h-4.19ZM143.07,332.8c-.07,1.46-.4,6.45-6.38,6.45-5.19,0-6.48-4.15-6.48-9.53,0-4.8,1.58-9.24,6.7-9.24,5.94,0,6.13,5.13,6.16,6.23h-4.22c0-.71-.11-2.77-2-2.77s-2.45,2.06-2.45,5.81.58,6,2.39,6c2,0,2.1-2,2.21-3Zm15.66-3.07c0,6.57-2.41,9.55-6.86,9.55s-6.75-2.84-6.75-9.46c0-6.41,2.7-9.31,7-9.31S158.73,323.66,158.73,329.73Zm-9.39.07c0,3.89.65,6,2.65,6s2.52-2.08,2.52-5.94c0-4-.66-5.82-2.55-5.82S149.34,325.91,149.34,329.8Zm12.24,9.14V314.07h4.18v24.87Zm7.88,0V314.07h4.18v24.87Zm11.21-8c0,2.29.28,4.85,2.6,4.85a2.36,2.36,0,0,0,2.42-2.38h4a6.08,6.08,0,0,1-6.48,5.84c-5.88,0-6.7-4.93-6.7-9.52,0-5.74,2.18-9.25,6.78-9.25,5.25,0,6.54,3.93,6.54,8.66,0,.63,0,1.49-.06,1.8Zm5-3c0-1.76-.21-4-2.43-4-2.39,0-2.54,2.69-2.55,4ZM205,332.8c-.07,1.46-.4,6.45-6.38,6.45-5.2,0-6.48-4.15-6.48-9.53,0-4.8,1.58-9.24,6.69-9.24,5.95,0,6.14,5.13,6.17,6.23h-4.22c0-.71-.11-2.77-2-2.77s-2.44,2.06-2.44,5.81.58,6,2.39,6c2,0,2.1-2,2.21-3Zm1.34-12h2.38v-4.53h4.18v4.53h2.79v3.43h-2.79v9.91c0,1.06.19,1.65,1.49,1.65a4.72,4.72,0,0,0,1-.07v3.07a7.2,7.2,0,0,1-2.55.37c-2.9,0-4.15-1.07-4.15-4.32V324.25h-2.38ZM221.16,331c0,2.29.28,4.85,2.6,4.85a2.37,2.37,0,0,0,2.43-2.38h4a6.1,6.1,0,0,1-6.49,5.84c-5.88,0-6.69-4.93-6.69-9.52,0-5.74,2.18-9.25,6.77-9.25,5.26,0,6.55,3.93,6.55,8.66,0,.63,0,1.49-.07,1.8Zm5-3c0-1.76-.2-4-2.42-4-2.4,0-2.54,2.69-2.55,4ZM246,314.07V333.9c0,2.14,0,4,0,5h-4a19.11,19.11,0,0,1-.13-1.93c-.53,1.29-1.62,2.24-4,2.24-3.82,0-5.34-3.43-5.34-9.52,0-5.56,1.81-9.22,6-9.22,2,0,2.9.72,3.26,1.43v-7.87Zm-9.23,15.72c0,4.2.76,5.93,2.53,5.93,2.17,0,2.64-1.69,2.64-6.06,0-4.18-.33-5.59-2.46-5.59C237.81,324.07,236.8,325.35,236.8,329.79ZM470.72,88.11h-6.21v-17h6.21Zm-18.21,0h-12v-17h12Zm-24,0h-12v-17h12Zm-24,0h-12v-17h12Zm-24,0h-12v-17h12ZM659.23,234.4h-17V222.72h17Zm0-23.68h-17v-12h17Zm0-24h-17v-12h17Zm0-24h-17v-12h17ZM470.72,314h-12V297h12Zm-24,0h-12V297h12Zm-24,0h-12V297h12Zm-24,0h-12V297h12Zm-24,0h-6.21V297h6.21Z"/></g></g></svg>