<svg xmlns="http://www.w3.org/2000/svg" xmlns:xlink="http://www.w3.org/1999/xlink" viewBox="0 0 839.24 385.12"><defs><style>.cls-1{fill:#1b1464;}.cls-2{fill:url(#linear-gradient);}</style><linearGradient id="linear-gradient" y1="192.56" x2="839.24" y2="192.56" gradientUnits="userSpaceOnUse"><stop offset="0" stop-color="#5e0094"/><stop offset="1" stop-color="#4a85ff"/></linearGradient></defs><g id="Layer_2" data-name="Layer 2"><g id="Layer_1-2" data-name="Layer 1"><path class="cls-1" d="M337.66,159.22H39.35A39.39,39.39,0,0,1,0,119.87V39.35A39.39,39.39,0,0,1,39.35,0H337.66A39.39,39.39,0,0,1,377,39.35v80.52A39.39,39.39,0,0,1,337.66,159.22ZM39.35,17A22.38,22.38,0,0,0,17,39.35v80.52a22.37,22.37,0,0,0,22.35,22.35H337.66A22.37,22.37,0,0,0,360,119.87V39.35A22.37,22.37,0,0,0,337.66,17Z"/><path class="cls-1" d="M107,92h-3.23a18.49,18.49,0,0,1-.2-2c-1.06,1.87-2.7,2.42-4.7,2.42-5,0-6.74-4.41-6.74-12.1C92.09,71.7,95,68,100.1,68c6.41,0,6.77,5.5,6.84,6.91h-4.19c-.07-1-.28-3.32-2.78-3.32-2.73,0-3.5,3.64-3.5,8.77,0,5.52.65,8.55,3.36,8.55,2.24,0,2.92-1.72,2.92-5.21V82.35H99.56V78.73H107Z"/><path class="cls-1" d="M123,86.72c0,2.64,0,4.39,0,5.32h-4a17.39,17.39,0,0,1-.17-2,3.94,3.94,0,0,1-4,2.3c-2.58,0-4.53-1.27-4.53-5.43v-13h4.19V86c0,1.79.37,2.78,1.89,2.78s2.42-.85,2.42-3.72V73.92H123Z"/><path class="cls-1" d="M130,84.07c0,2.3.28,4.86,2.59,4.86a2.37,2.37,0,0,0,2.43-2.39h4a6.1,6.1,0,0,1-6.49,5.85c-5.87,0-6.69-4.94-6.69-9.52,0-5.75,2.18-9.26,6.78-9.26,5.25,0,6.54,3.94,6.54,8.67,0,.63,0,1.48-.07,1.79Zm5-3c0-1.77-.21-4-2.43-4-2.4,0-2.54,2.7-2.55,4Z"/><path class="cls-1" d="M145.13,86.56a2.36,2.36,0,0,0,2.35,2.61c1.39,0,2.05-.73,2.05-1.91s-.58-2-2.72-2.78c-4.27-1.57-5.33-3.07-5.33-5.69s1.56-5.21,5.88-5.21c4.75,0,5.91,3.27,5.91,5.64h-4c0-.64-.07-2.45-2-2.45a1.58,1.58,0,0,0-1.71,1.7c0,1.15.66,1.68,2.82,2.48,3.83,1.42,5.28,2.88,5.28,5.81,0,3.56-2.22,5.6-6.33,5.6-4.33,0-6.27-2.58-6.28-5.8Z"/><path class="cls-1" d="M154.6,73.92H157V69.4h4.17v4.52H164v3.43h-2.8v9.92c0,1,.19,1.65,1.5,1.65a4.77,4.77,0,0,0,1-.07v3.07a7.22,7.22,0,0,1-2.56.37c-2.89,0-4.14-1.07-4.14-4.33V77.35H154.6Z"/><path class="cls-1" d="M184.72,85.91c-.07,1.45-.4,6.45-6.38,6.45-5.2,0-6.48-4.15-6.48-9.53,0-4.8,1.58-9.25,6.69-9.25,5.95,0,6.14,5.13,6.17,6.23H180.5c0-.7-.11-2.77-2-2.77s-2.44,2.06-2.44,5.82.58,6,2.39,6c2,0,2.1-2,2.21-3Z"/><path class="cls-1" d="M199.37,88.1c0,.89.07,3.13.14,3.94h-3.8a11,11,0,0,1-.17-1.68,4.32,4.32,0,0,1-4.09,2c-3.48,0-4.82-2.78-4.82-5.37,0-3.71,2.54-6,7.14-6,.61,0,1.07,0,1.48,0v-2c0-1.06-.13-2.29-1.94-2.29s-1.94,1.14-2.05,2.33h-4c.07-2.67,1.32-5.52,6.16-5.52,3.89,0,5.91,1.77,5.91,5.23Zm-4-4A7.84,7.84,0,0,0,194,84c-2.38,0-3.25,1.11-3.25,2.59A2.09,2.09,0,0,0,192.83,89c2.14,0,2.52-1.6,2.52-4.29Z"/><path class="cls-1" d="M203.09,92V67.18h4.18V92Z"/><path class="cls-1" d="M211,92V67.18h4.19V92Z"/><path class="cls-1" d="M221.64,86.56A2.35,2.35,0,0,0,224,89.17a1.77,1.77,0,0,0,2-1.91c0-1.28-.57-2-2.71-2.78C219,82.91,218,81.41,218,78.79s1.55-5.21,5.88-5.21c4.75,0,5.9,3.27,5.91,5.64h-4c0-.64-.08-2.45-2-2.45a1.58,1.58,0,0,0-1.7,1.7c0,1.15.65,1.68,2.82,2.48,3.83,1.42,5.28,2.88,5.28,5.81,0,3.56-2.23,5.6-6.34,5.6-4.33,0-6.26-2.58-6.28-5.8Z"/><path class="cls-1" d="M253.41,85.15c-.11,1.2-.56,7.3-7.13,7.3-6.74,0-7.51-5.92-7.51-12.28C238.77,72.5,241,68,246.53,68c6.28,0,6.77,5.39,6.87,7.28h-4.2c-.07-.8-.12-3.68-2.73-3.68s-3.32,3.26-3.32,8.68c0,4.46.45,8.66,3.2,8.66,2.53,0,2.73-2.86,2.83-3.77Z"/><path class="cls-1" d="M267.84,81.52h-7.6v6.87h8.53L268.25,92h-12.2V68.36H268.2v3.71h-8v5.76h7.6Z"/><path class="cls-1" d="M285.36,85.15c-.1,1.2-.56,7.3-7.13,7.3-6.73,0-7.5-5.92-7.5-12.28C270.73,72.5,273,68,278.49,68c6.28,0,6.76,5.39,6.86,7.28h-4.19c-.07-.8-.13-3.68-2.74-3.68s-3.31,3.26-3.31,8.68c0,4.46.44,8.66,3.19,8.66,2.53,0,2.73-2.86,2.84-3.77Z"/><path class="cls-1" d="M470.72,88.11h-6.21v-17h6.21Zm-18.21,0h-12v-17h12Zm-24,0h-12v-17h12Zm-24,0h-12v-17h12Zm-24,0h-12v-17h12Z"/><path class="cls-2" d="M799.88,159.22H501.57a39.4,39.4,0,0,1-39.35-39.35V39.35A39.4,39.4,0,0,1,501.57,0H799.88a39.4,39.4,0,0,1,39.36,39.35v80.52A39.4,39.4,0,0,1,799.88,159.22ZM501.57,17a22.38,22.38,0,0,0-22.35,22.35v80.52a22.37,22.37,0,0,0,22.35,22.35H799.88a22.38,22.38,0,0,0,22.36-22.35V39.35A22.38,22.38,0,0,0,799.88,17Zm16.58,30.36V71H513.9V47.36Zm3.51,11.2c0-3.72,0-4.68,0-5.64h4a15.86,15.86,0,0,1,.13,1.89,4.21,4.21,0,0,1,4-2.23c3,0,4.64,1.87,4.64,5.54V71h-4.19v-12c0-1.8-.35-2.9-2-2.9s-2.34.89-2.34,3.65V71h-4.19Zm14.51-5.64h2.37V48.4h4.18v4.52h2.8v3.43h-2.8v9.92c0,1,.19,1.65,1.5,1.65a4.77,4.77,0,0,0,1-.07v3.07a7.25,7.25,0,0,1-2.56.37c-2.9,0-4.15-1.07-4.15-4.33V56.35h-2.37ZM551,63.07c0,2.3.28,4.86,2.6,4.86a2.36,2.36,0,0,0,2.42-2.39h4a6.09,6.09,0,0,1-6.49,5.85c-5.87,0-6.69-4.94-6.69-9.52,0-5.75,2.18-9.26,6.78-9.26,5.25,0,6.54,3.94,6.54,8.67,0,.63,0,1.48-.06,1.79Zm5-3c0-1.77-.21-4-2.43-4-2.4,0-2.54,2.7-2.55,4ZM563,71V46.18h4.18V71Zm7.87,0V46.18h4.18V71Zm7.88-18.12H583V71h-4.18Zm0-6.74H583v4.13h-4.18Zm20.55,23.4c0,5.14-1.49,8.28-7,8.28-5.16,0-6.25-3-6.36-5.24h4.16c.07.55.27,1.85,2.36,1.85,2.26,0,2.69-1.72,2.69-4.89v-.82a3.92,3.92,0,0,1-3.88,2.16c-3.85,0-5.49-3.39-5.49-8.73,0-6.2,2.23-9.58,5.88-9.58,2.38,0,3.2,1.13,3.49,1.92,0-.55.1-1.17.16-1.61h4c0,1.12-.06,2.93-.06,5.46Zm-9.21-7.51c0,3.74.9,5.32,2.59,5.32,2.11,0,2.56-2,2.56-5.89,0-3.25-.16-5.33-2.43-5.33C591.12,56.17,590.15,58,590.15,62.07Zm16.25,1c0,2.3.29,4.86,2.6,4.86a2.37,2.37,0,0,0,2.43-2.39h4a6.1,6.1,0,0,1-6.49,5.85c-5.87,0-6.69-4.94-6.69-9.52,0-5.75,2.18-9.26,6.78-9.26,5.25,0,6.54,3.94,6.54,8.67,0,.63,0,1.48-.07,1.79Zm5.05-3c0-1.77-.21-4-2.43-4-2.4,0-2.54,2.7-2.55,4Zm6.95-1.49c0-3.72,0-4.68,0-5.64h4a13.83,13.83,0,0,1,.14,1.89,4.18,4.18,0,0,1,4-2.23c3,0,4.64,1.87,4.64,5.54V71H627v-12c0-1.8-.36-2.9-2-2.9s-2.35.89-2.35,3.65V71H618.4Zm14.51-5.64h2.37V48.4h4.18v4.52h2.79v3.43h-2.79v9.92c0,1,.19,1.65,1.49,1.65a4.72,4.72,0,0,0,1-.07v3.07a7.16,7.16,0,0,1-2.55.37c-2.9,0-4.15-1.07-4.15-4.33V56.35h-2.37Zm18.07,0h4.18V71H651Zm0-6.74h4.18v4.13H651Zm7.88,12.38c0-3.72,0-4.68,0-5.64h4a14,14,0,0,1,.13,1.89,4.21,4.21,0,0,1,4-2.23c3,0,4.64,1.87,4.64,5.54V71h-4.19v-12c0-1.8-.35-2.9-2-2.9s-2.34.89-2.34,3.65V71h-4.19Zm14.51-5.64h2.37V48.4H680v4.52h2.8v3.43H680v9.92c0,1,.19,1.65,1.5,1.65a4.77,4.77,0,0,0,1-.07v3.07a7.25,7.25,0,0,1-2.56.37c-2.89,0-4.15-1.07-4.15-4.33V56.35H673.4Zm14.87,10.15c0,2.3.28,4.86,2.6,4.86a2.36,2.36,0,0,0,2.42-2.39h4a6.09,6.09,0,0,1-6.49,5.85c-5.87,0-6.69-4.94-6.69-9.52,0-5.75,2.18-9.26,6.78-9.26,5.25,0,6.54,3.94,6.54,8.67,0,.63,0,1.48-.06,1.79Zm5-3c0-1.77-.21-4-2.43-4-2.39,0-2.54,2.7-2.55,4Zm7-1c0-3,0-4.84,0-6.14h4c0,.32.1,1.07.1,3a4.62,4.62,0,0,1,4.75-3.29v4.69c-3-.07-4.63.8-4.63,4.22V71h-4.18Zm22.53,8c0,.89.07,3.13.14,3.94h-3.8a11,11,0,0,1-.17-1.68,4.32,4.32,0,0,1-4.09,2c-3.48,0-4.82-2.78-4.82-5.37,0-3.71,2.54-6,7.14-6,.61,0,1.07,0,1.48,0v-2c0-1.06-.13-2.29-1.94-2.29s-1.94,1.14-2.05,2.33h-4c.07-2.67,1.32-5.52,6.16-5.52,3.89,0,5.91,1.77,5.91,5.23Zm-4-4a7.84,7.84,0,0,0-1.35-.08c-2.38,0-3.25,1.11-3.25,2.59A2.09,2.09,0,0,0,716.25,68c2.14,0,2.52-1.6,2.52-4.29Zm19.78,1.81c-.07,1.45-.4,6.45-6.38,6.45-5.19,0-6.48-4.15-6.48-9.53,0-4.8,1.59-9.25,6.7-9.25,5.94,0,6.13,5.13,6.16,6.23h-4.22c0-.7-.11-2.77-2-2.77s-2.45,2.06-2.45,5.82.58,6,2.39,6c2,0,2.11-2,2.22-3Zm1.35-12h2.37V48.4h4.18v4.52h2.8v3.43h-2.8v9.92c0,1,.19,1.65,1.5,1.65a4.77,4.77,0,0,0,1-.07v3.07a7.25,7.25,0,0,1-2.56.37c-2.9,0-4.15-1.07-4.15-4.33V56.35H739.9Zm11.6,0h4.18V71H751.5Zm0-6.74h4.18v4.13h-4.18ZM772.2,61.83c0,6.58-2.41,9.56-6.86,9.56s-6.75-2.85-6.75-9.46c0-6.42,2.7-9.32,7-9.32S772.2,55.77,772.2,61.83Zm-9.39.07c0,3.89.65,6,2.65,6S768,65.81,768,62s-.66-5.81-2.55-5.81S762.81,58,762.81,61.9Zm12.24-3.34c0-3.72,0-4.68,0-5.64h4a14,14,0,0,1,.13,1.89,4.21,4.21,0,0,1,4-2.23c3,0,4.64,1.87,4.64,5.54V71h-4.18v-12c0-1.8-.36-2.9-2-2.9s-2.34.89-2.34,3.65V71h-4.19ZM510,94.92c1.31,8,1.81,11.27,2.07,13.63h.06c.3-2.43,1.06-5.11,2.69-13.63h3.77c1.38,6.8,2.35,11.46,2.57,13.59h0c.25-1.9.6-4.46,2.2-13.59h4.17L523.16,113H519c-1.1-5.52-2-9.78-2.36-12.4h0c-.32,2.57-1.42,7-2.61,12.4h-4.31l-4.06-18.12Zm19.67,0h4.18V113h-4.18Zm0-6.74h4.18v4.13h-4.18ZM536,94.92h2.38V90.4h4.17v4.52h2.8v3.43h-2.8v9.92c0,1,.19,1.65,1.5,1.65a4.77,4.77,0,0,0,1-.07v3.07a7.22,7.22,0,0,1-2.56.37c-2.89,0-4.14-1.07-4.14-4.33V98.35H536Zm15.76-6.74v8.49a4.18,4.18,0,0,1,4.06-2.09c3,0,4.51,2,4.51,5.66V113h-4.19v-12c0-1.78-.31-2.91-2.08-2.91s-2.3,1.4-2.3,3.8V113h-4.19V88.18Zm31.4,23.4c0,5.14-1.49,8.28-7,8.28-5.16,0-6.25-3-6.36-5.24H574c.07.55.27,1.85,2.36,1.85,2.26,0,2.69-1.72,2.69-4.89v-.82a3.92,3.92,0,0,1-3.87,2.16c-3.86,0-5.5-3.39-5.5-8.73,0-6.2,2.23-9.58,5.88-9.58,2.39,0,3.2,1.13,3.49,1.92,0-.55.1-1.17.17-1.61h4c0,1.12-.07,2.93-.07,5.46ZM574,104.07c0,3.74.9,5.32,2.6,5.32,2.1,0,2.56-2,2.56-5.89,0-3.25-.17-5.33-2.44-5.33C574.93,98.17,574,100,574,104.07Zm25.44,3.65c0,2.64,0,4.39,0,5.32h-4a17.45,17.45,0,0,1-.16-2,4,4,0,0,1-4,2.3c-2.57,0-4.53-1.27-4.53-5.43v-13h4.19V107c0,1.79.37,2.78,1.89,2.78s2.42-.85,2.42-3.72V94.92h4.19Zm7-2.65c0,2.3.28,4.86,2.6,4.86a2.36,2.36,0,0,0,2.42-2.39h4a6.09,6.09,0,0,1-6.48,5.85c-5.88,0-6.7-4.94-6.7-9.52,0-5.75,2.18-9.26,6.78-9.26,5.25,0,6.54,3.94,6.54,8.67,0,.63,0,1.48-.06,1.79Zm5-3c0-1.77-.21-4-2.43-4-2.39,0-2.54,2.7-2.55,4Zm10.06,5.51a2.37,2.37,0,0,0,2.35,2.61c1.39,0,2-.73,2-1.91s-.58-2-2.72-2.78c-4.27-1.57-5.32-3.07-5.32-5.69s1.55-5.21,5.87-5.21c4.76,0,5.91,3.27,5.91,5.64h-4c0-.64-.07-2.45-2-2.45a1.58,1.58,0,0,0-1.71,1.7c0,1.15.66,1.68,2.83,2.48,3.82,1.42,5.28,2.88,5.28,5.81,0,3.56-2.23,5.6-6.34,5.6-4.33,0-6.26-2.58-6.28-5.8ZM631,94.92h2.38V90.4h4.18v4.52h2.79v3.43h-2.79v9.92c0,1,.19,1.65,1.49,1.65a4.72,4.72,0,0,0,1-.07v3.07a7.2,7.2,0,0,1-2.55.37c-2.9,0-4.15-1.07-4.15-4.33V98.35H631Zm16.1,0h2.38V90.4h4.17v4.52h2.8v3.43h-2.8v9.92c0,1,.2,1.65,1.5,1.65a4.77,4.77,0,0,0,1-.07v3.07a7.22,7.22,0,0,1-2.56.37c-2.89,0-4.14-1.07-4.14-4.33V98.35h-2.38Zm15.76-6.74v8.49a4.18,4.18,0,0,1,4.06-2.09c3,0,4.51,2,4.51,5.66V113h-4.18v-12c0-1.78-.32-2.91-2.09-2.91s-2.3,1.4-2.3,3.8V113h-4.19V88.18Zm12.26,12.88c0-3,0-4.84,0-6.14h4c0,.32.09,1.07.09,3a4.63,4.63,0,0,1,4.75-3.29v4.69c-3-.07-4.62.8-4.62,4.22V113h-4.18Zm23.78,2.77c0,6.58-2.41,9.56-6.86,9.56s-6.75-2.85-6.75-9.46c0-6.42,2.7-9.32,7-9.32S698.86,97.77,698.86,103.83Zm-9.39.07c0,3.89.65,6,2.65,6s2.52-2.09,2.52-6-.66-5.81-2.55-5.81S689.47,100,689.47,103.9Zm24.86,3.82c0,2.64,0,4.39,0,5.32h-4a17.39,17.39,0,0,1-.17-2,3.94,3.94,0,0,1-4,2.3c-2.58,0-4.53-1.27-4.53-5.43v-13h4.19V107c0,1.79.37,2.78,1.89,2.78s2.42-.85,2.42-3.72V94.92h4.18Zm16.33,3.86c0,5.14-1.5,8.28-7,8.28-5.16,0-6.25-3-6.36-5.24h4.16c.07.55.26,1.85,2.35,1.85,2.27,0,2.7-1.72,2.7-4.89v-.82a3.92,3.92,0,0,1-3.88,2.16c-3.86,0-5.5-3.39-5.5-8.73,0-6.2,2.24-9.58,5.89-9.58,2.38,0,3.2,1.13,3.49,1.92,0-.55.1-1.17.16-1.61h4c0,1.12-.06,2.93-.06,5.46Zm-9.21-7.51c0,3.74.9,5.32,2.59,5.32,2.11,0,2.56-2,2.56-5.89,0-3.25-.16-5.33-2.43-5.33C722.42,98.17,721.45,100,721.45,104.07Zm17.11-15.89v8.49a4.18,4.18,0,0,1,4.06-2.09c3,0,4.51,2,4.51,5.66V113h-4.19v-12c0-1.78-.31-2.91-2.08-2.91s-2.3,1.4-2.3,3.8V113h-4.19V88.18Zm23.2,1.18V113h-4.25V89.36Zm8,23.68-5.88-23.68h4.57l2.17,10c.69,3.15,1.34,6.66,1.62,9.13h.07c.29-2.41,1.16-6,1.82-9.05l2.1-10.13h4.43l-6,23.68Zm15.11-6-1.18,6h-4.25L785,89.36h5.5L796,113h-4.45l-1.18-6Zm4.72-3.68c-.88-4.53-1.59-7.84-2-10.11h-.1c-.29,2.18-1,5.74-1.91,10.11Zm10.24,281.72H501.57a39.4,39.4,0,0,1-39.35-39.35V265.25a39.4,39.4,0,0,1,39.35-39.35H799.88a39.4,39.4,0,0,1,39.36,39.35v80.52A39.4,39.4,0,0,1,799.88,385.12ZM501.57,242.9a22.37,22.37,0,0,0-22.35,22.35v80.52a22.38,22.38,0,0,0,22.35,22.35H799.88a22.38,22.38,0,0,0,22.36-22.35V265.25a22.38,22.38,0,0,0-22.36-22.35Zm60.16,42c0,8.66-2.35,12.43-7.81,12.43-5.1,0-7.59-3.72-7.59-12.48,0-8.55,2.9-12,7.78-12C559.27,272.88,561.73,276.69,561.73,284.92Zm-11.05-.09c0,5.62.85,9,3.34,9s3.36-3.1,3.36-9c0-5.51-.79-8.37-3.37-8.37S550.68,279.55,550.68,284.83Zm18.19,10.72v7.93h-4.18V284.06c0-2.45,0-4.09,0-5.24h4a16.77,16.77,0,0,1,.13,2,4,4,0,0,1,4.06-2.29c3.36,0,5.3,2.89,5.3,9.07,0,7.08-2.35,9.7-5.85,9.7A3.56,3.56,0,0,1,568.87,295.55Zm5.08-7.78c0-4.33-.91-5.7-2.68-5.7-2.1,0-2.53,2-2.53,5.54,0,4.14.22,6.12,2.5,6.12C573.07,293.73,574,291.77,574,287.77Zm10.56,1.2c0,2.29.28,4.85,2.6,4.85a2.37,2.37,0,0,0,2.43-2.38h4a6.09,6.09,0,0,1-6.49,5.84c-5.87,0-6.69-4.93-6.69-9.52,0-5.74,2.18-9.25,6.77-9.25,5.26,0,6.55,3.93,6.55,8.66,0,.64,0,1.49-.07,1.8Zm5-3c0-1.76-.2-4-2.42-4-2.4,0-2.54,2.69-2.55,4Zm7-1.48c0-3.73,0-4.69,0-5.64h4a13.88,13.88,0,0,1,.13,1.89,4.21,4.21,0,0,1,4-2.23c3,0,4.63,1.87,4.63,5.54v12.92h-4.18V285c0-1.79-.36-2.89-2.05-2.89s-2.34.89-2.34,3.64v11.23H596.5ZM631.32,293c0,.89.07,3.13.14,3.95h-3.8a11.06,11.06,0,0,1-.17-1.69,4.3,4.3,0,0,1-4.09,2c-3.48,0-4.82-2.77-4.82-5.37,0-3.71,2.54-6,7.14-6,.61,0,1.07,0,1.48,0v-2c0-1.06-.13-2.3-1.94-2.3s-1.94,1.15-2,2.34h-4c.07-2.67,1.32-5.52,6.16-5.52,3.89,0,5.91,1.76,5.91,5.22Zm-4-4a7.92,7.92,0,0,0-1.35-.07c-2.38,0-3.25,1.11-3.25,2.58a2.08,2.08,0,0,0,2.08,2.35c2.14,0,2.52-1.59,2.52-4.28Zm7.74,7.95V272.07h4.18v24.87Zm6.28-18.12h2.38v-4.53h4.17v4.53h2.8v3.43h-2.8v9.92c0,1.05.2,1.65,1.5,1.65a4.73,4.73,0,0,0,1-.08v3.08a7.43,7.43,0,0,1-2.56.36c-2.89,0-4.14-1.07-4.14-4.32V282.25h-2.38ZM656.19,289c0,2.29.28,4.85,2.6,4.85a2.36,2.36,0,0,0,2.42-2.38h4a6.08,6.08,0,0,1-6.48,5.84c-5.88,0-6.69-4.93-6.69-9.52,0-5.74,2.18-9.25,6.77-9.25,5.26,0,6.55,3.93,6.55,8.66,0,.64,0,1.49-.07,1.8Zm5-3c0-1.76-.2-4-2.42-4-2.4,0-2.55,2.69-2.55,4Zm6.95-1c0-3,0-4.85,0-6.14h4a29.73,29.73,0,0,1,.1,3,4.63,4.63,0,0,1,4.75-3.29v4.69c-3-.07-4.63.8-4.63,4.23v9.51h-4.18Zm10.85-.5c0-3.73,0-4.69,0-5.64h4a13.88,13.88,0,0,1,.13,1.89,4.21,4.21,0,0,1,4-2.23c3,0,4.64,1.87,4.64,5.54v12.92h-4.18V285c0-1.79-.36-2.89-2.05-2.89s-2.34.89-2.34,3.64v11.23H679Zm28.1,8.53c0,.89.07,3.13.14,3.95h-3.8a9.84,9.84,0,0,1-.18-1.69c-.69,1.16-1.88,2-4.08,2-3.49,0-4.83-2.77-4.83-5.37,0-3.71,2.55-6,7.15-6,.61,0,1.07,0,1.48,0v-2c0-1.06-.13-2.3-2-2.3s-1.94,1.15-2,2.34h-4c.07-2.67,1.33-5.52,6.17-5.52,3.89,0,5.91,1.76,5.91,5.22Zm-4-4a8,8,0,0,0-1.35-.07c-2.38,0-3.25,1.11-3.25,2.58a2.08,2.08,0,0,0,2.08,2.35c2.13,0,2.52-1.59,2.52-4.28Zm5.76-10.17h2.38v-4.53h4.17v4.53h2.8v3.43h-2.8v9.92c0,1.05.2,1.65,1.5,1.65a4.73,4.73,0,0,0,1-.08v3.08a7.43,7.43,0,0,1-2.56.36c-2.89,0-4.14-1.07-4.14-4.32V282.25h-2.38Zm11.6,0h4.18v18.12h-4.18Zm0-6.75h4.18v4.13H720.5Zm10.65,6.75c1.13,5.14,2.34,10.74,2.75,13.76h0c.33-2.78,1.85-8.55,3-13.76h4.19L736,296.94h-4.51l-4.8-18.12ZM746.24,289c0,2.29.29,4.85,2.6,4.85a2.37,2.37,0,0,0,2.43-2.38h4a6.09,6.09,0,0,1-6.49,5.84c-5.87,0-6.69-4.93-6.69-9.52,0-5.74,2.18-9.25,6.77-9.25,5.26,0,6.55,3.93,6.55,8.66,0,.64,0,1.49-.07,1.8Zm5-3c0-1.76-.21-4-2.43-4-2.4,0-2.54,2.69-2.55,4ZM520.82,320.82H525v18.12h-4.18Zm0-6.75H525v4.13h-4.18Zm7.88,12.39c0-3.73,0-4.69,0-5.64h4a15.7,15.7,0,0,1,.13,1.89,4.21,4.21,0,0,1,4-2.23c3,0,4.64,1.87,4.64,5.54v12.92H537.3V327c0-1.79-.36-2.89-2-2.89s-2.35.89-2.35,3.64v11.23h-4.18Zm14.51-5.64h2.37v-4.53h4.18v4.53h2.8v3.43h-2.8v9.92c0,1.05.19,1.65,1.5,1.65a4.73,4.73,0,0,0,1-.08v3.08a7.46,7.46,0,0,1-2.56.36c-2.9,0-4.15-1.07-4.15-4.32V324.25h-2.37ZM558.11,331c0,2.29.28,4.85,2.6,4.85a2.36,2.36,0,0,0,2.42-2.38h4a6.09,6.09,0,0,1-6.49,5.84c-5.87,0-6.69-4.93-6.69-9.52,0-5.74,2.18-9.25,6.78-9.25,5.25,0,6.54,3.93,6.54,8.66,0,.64,0,1.49-.06,1.8Zm5-3c0-1.76-.21-4-2.43-4-2.4,0-2.54,2.69-2.55,4Zm7-1c0-3,0-4.85,0-6.14h4a25.14,25.14,0,0,1,.11,3,4.62,4.62,0,0,1,4.74-3.29v4.69c-3-.07-4.62.8-4.62,4.23v9.51H570.1Zm22.53,8c0,.89.07,3.13.14,3.95H589a9.84,9.84,0,0,1-.18-1.69c-.69,1.16-1.88,2-4.08,2-3.49,0-4.83-2.77-4.83-5.37,0-3.71,2.55-6,7.15-6,.61,0,1.07,0,1.48,0v-2c0-1.06-.13-2.3-2-2.3s-1.94,1.15-2,2.34h-4c.07-2.67,1.33-5.52,6.17-5.52,3.89,0,5.91,1.76,5.91,5.22Zm-4-4a7.92,7.92,0,0,0-1.35-.07c-2.38,0-3.25,1.11-3.25,2.58a2.08,2.08,0,0,0,2.08,2.35c2.13,0,2.52-1.59,2.52-4.28Zm19.78,1.81c-.07,1.46-.4,6.45-6.38,6.45-5.19,0-6.48-4.15-6.48-9.52,0-4.81,1.58-9.25,6.69-9.25,5.95,0,6.14,5.13,6.17,6.23h-4.22c0-.71-.11-2.77-2-2.77s-2.44,2.06-2.44,5.81.58,6,2.39,6c2,0,2.1-2,2.21-3Zm1.35-12h2.37v-4.53h4.18v4.53h2.8v3.43h-2.8v9.92c0,1.05.19,1.65,1.49,1.65a4.68,4.68,0,0,0,1-.08v3.08a7.37,7.37,0,0,1-2.55.36c-2.9,0-4.15-1.07-4.15-4.32V324.25h-2.37Zm11.6,0h4.18v18.12h-4.18Zm0-6.75h4.18v4.13h-4.18ZM642,329.73c0,6.57-2.41,9.55-6.86,9.55s-6.75-2.84-6.75-9.46c0-6.41,2.7-9.31,7-9.31S642,323.66,642,329.73Zm-9.39.07c0,3.89.65,6,2.65,6s2.52-2.08,2.52-5.94c0-4-.66-5.82-2.55-5.82S632.65,325.91,632.65,329.8Zm12.24-3.34c0-3.73,0-4.69,0-5.64h4a13.88,13.88,0,0,1,.13,1.89,4.21,4.21,0,0,1,4-2.23c3,0,4.64,1.87,4.64,5.54v12.92h-4.19V327c0-1.79-.35-2.89-2-2.89s-2.34.89-2.34,3.64v11.23h-4.19Zm35,6.34c-.07,1.46-.4,6.45-6.38,6.45-5.2,0-6.48-4.15-6.48-9.52,0-4.81,1.58-9.25,6.69-9.25,5.95,0,6.14,5.13,6.17,6.23h-4.22c0-.71-.11-2.77-2-2.77s-2.44,2.06-2.44,5.81.58,6,2.39,6,2.1-2,2.21-3Zm6.74-18.73v8.49a4.22,4.22,0,0,1,4.07-2.08c3,0,4.5,1.95,4.5,5.65v12.81H691V327c0-1.77-.32-2.9-2.09-2.9s-2.3,1.4-2.3,3.8v11.07h-4.19V314.07ZM710.51,335c0,.89.07,3.13.14,3.95h-3.8a9.84,9.84,0,0,1-.18-1.69c-.69,1.16-1.88,2-4.08,2-3.49,0-4.83-2.77-4.83-5.37,0-3.71,2.55-6,7.15-6,.61,0,1.07,0,1.48,0v-2c0-1.06-.13-2.3-1.95-2.3s-1.94,1.15-2,2.34h-4c.07-2.67,1.32-5.52,6.17-5.52,3.89,0,5.91,1.76,5.91,5.22Zm-4-4a8,8,0,0,0-1.36-.07c-2.38,0-3.24,1.11-3.24,2.58a2.08,2.08,0,0,0,2.08,2.35c2.13,0,2.52-1.59,2.52-4.28Zm7.73-4.53c0-3.73,0-4.69,0-5.64h4a13.88,13.88,0,0,1,.13,1.89,4.21,4.21,0,0,1,4-2.23c2.95,0,4.64,1.87,4.64,5.54v12.92H722.8V327c0-1.79-.36-2.89-2-2.89s-2.34.89-2.34,3.64v11.23h-4.19Zm16.45,0c0-3.73,0-4.69,0-5.64h4a13.88,13.88,0,0,1,.13,1.89,4.21,4.21,0,0,1,4-2.23c3,0,4.64,1.87,4.64,5.54v12.92h-4.19V327c0-1.79-.36-2.89-2-2.89s-2.34.89-2.34,3.64v11.23h-4.19ZM750.46,331c0,2.29.28,4.85,2.6,4.85a2.37,2.37,0,0,0,2.43-2.38h4a6.09,6.09,0,0,1-6.49,5.84c-5.88,0-6.69-4.93-6.69-9.52,0-5.74,2.18-9.25,6.77-9.25,5.26,0,6.55,3.93,6.55,8.66,0,.64,0,1.49-.07,1.8Zm5-3c0-1.76-.2-4-2.42-4-2.4,0-2.54,2.69-2.55,4Zm7,11V314.07h4.19v24.87Zm10.68-5.48a2.36,2.36,0,0,0,2.35,2.61,1.78,1.78,0,0,0,2-1.92c0-1.28-.57-2-2.71-2.77-4.28-1.57-5.33-3.07-5.33-5.7,0-2.46,1.55-5.2,5.88-5.2,4.75,0,5.9,3.26,5.91,5.64h-4c0-.64-.07-2.46-2-2.46a1.58,1.58,0,0,0-1.7,1.71c0,1.15.65,1.68,2.82,2.48,3.83,1.41,5.28,2.87,5.28,5.8,0,3.57-2.23,5.6-6.34,5.6-4.33,0-6.26-2.57-6.27-5.79ZM337.66,385.12H39.35A39.39,39.39,0,0,1,0,345.77V265.25A39.39,39.39,0,0,1,39.35,225.9H337.66A39.39,39.39,0,0,1,377,265.25v80.52A39.39,39.39,0,0,1,337.66,385.12ZM39.35,242.9A22.37,22.37,0,0,0,17,265.25v80.52a22.38,22.38,0,0,0,22.35,22.35H337.66A22.37,22.37,0,0,0,360,345.77V265.25a22.37,22.37,0,0,0-22.35-22.35ZM43.66,276H49.3c5.57,0,7.73,3.57,7.73,10.38,0,7.31-2.07,11.27-8,11.27H43.66Zm3.91,18.49H49c3,0,4.07-2.28,4.07-8.09,0-5-.93-7.17-4-7.17H47.57Zm15.64-4.12c0,2.1.26,4.44,2.38,4.44a2.16,2.16,0,0,0,2.22-2.18h3.65A5.57,5.57,0,0,1,65.53,298c-5.37,0-6.11-4.51-6.11-8.7,0-5.26,2-8.46,6.19-8.46,4.8,0,6,3.59,6,7.92,0,.57,0,1.35-.06,1.64Zm4.61-2.77c0-1.61-.19-3.66-2.21-3.66-2.2,0-2.33,2.46-2.34,3.66Zm6.36,10.05V274.94H78v22.73Zm7.2-16.56H85.2v16.56H81.38Zm0-6.17h3.82v3.78H81.41Zm9.73,6.17c1,4.7,2.14,9.81,2.51,12.58h0c.3-2.55,1.69-7.82,2.7-12.58h3.83l-4.64,16.56H91.45l-4.39-16.56Zm13.8,9.28c0,2.1.26,4.44,2.38,4.44a2.15,2.15,0,0,0,2.21-2.18h3.66a5.57,5.57,0,0,1-5.93,5.34c-5.37,0-6.12-4.51-6.12-8.7,0-5.26,2-8.46,6.2-8.46,4.8,0,6,3.59,6,7.92,0,.57,0,1.35-.06,1.64Zm4.61-2.77c0-1.61-.19-3.66-2.22-3.66-2.19,0-2.32,2.46-2.33,3.66Zm6.36-.9c0-2.72,0-4.43,0-5.61h3.65a22.24,22.24,0,0,1,.1,2.73,4.21,4.21,0,0,1,4.34-3v4.29c-2.71-.07-4.23.73-4.23,3.86v8.69h-3.82Zm16.06-.64c0-3.27,0-4.25,0-5h3.65a11.22,11.22,0,0,1,.12,1.69,4,4,0,0,1,3.65-2,3.2,3.2,0,0,1,3.36,2.24,4.38,4.38,0,0,1,4.06-2.24c2.36,0,4.2,1.19,4.2,5v11.88H147.2V286.36c0-1.32-.43-2.28-1.75-2.28-1.56,0-2.06,1.17-2.06,3.22v10.37H139.6V286.43c0-1.52-.52-2.32-1.75-2.32-1.53,0-2.09,1.05-2.09,3.28v10.28H132Zm25.42,4.31c0,2.1.26,4.44,2.37,4.44a2.16,2.16,0,0,0,2.22-2.18h3.66a5.57,5.57,0,0,1-5.93,5.34c-5.37,0-6.12-4.51-6.12-8.7,0-5.26,2-8.46,6.19-8.46,4.81,0,6,3.59,6,7.92,0,.57,0,1.35-.06,1.64Zm4.61-2.77c0-1.61-.19-3.66-2.22-3.66-2.19,0-2.32,2.46-2.33,3.66Zm17.19,6.45c0,.81.07,2.86.13,3.6h-3.47a9.24,9.24,0,0,1-.16-1.54A3.94,3.94,0,0,1,172,298c-3.18,0-4.41-2.54-4.41-4.91,0-3.39,2.33-5.44,6.53-5.44.56,0,1,0,1.36,0v-1.81c0-1-.12-2.09-1.78-2.09s-1.77,1-1.87,2.13h-3.63c.07-2.44,1.21-5,5.64-5,3.56,0,5.4,1.61,5.4,4.77Zm-3.67-3.66a7.69,7.69,0,0,0-1.24-.07c-2.18,0-3,1-3,2.37a1.91,1.91,0,0,0,1.9,2.14c2,0,2.31-1.45,2.31-3.91Zm7.07-4.15c0-3.4,0-4.28,0-5.15h3.68a13.35,13.35,0,0,1,.12,1.72,3.85,3.85,0,0,1,3.66-2c2.7,0,4.24,1.71,4.24,5.06v11.81h-3.83V286.73c0-1.65-.33-2.65-1.87-2.65s-2.14.81-2.14,3.33v10.26h-3.83Zm15-5.15h3.83v16.56h-3.83Zm0-6.17h3.82v3.78h-3.82Zm7.2,11.32c0-3.4,0-4.28,0-5.15h3.68a13.35,13.35,0,0,1,.12,1.72,3.85,3.85,0,0,1,3.66-2c2.7,0,4.24,1.71,4.24,5.06v11.81H212.7V286.73c0-1.65-.33-2.65-1.87-2.65s-2.14.81-2.14,3.33v10.26h-3.83Zm26.63,10.07c0,4.7-1.37,7.58-6.37,7.58-4.72,0-5.72-2.77-5.82-4.79h3.81c.06.5.24,1.68,2.15,1.68,2.07,0,2.46-1.57,2.46-4.47v-.74a3.58,3.58,0,0,1-3.54,2c-3.53,0-5-3.09-5-8,0-5.67,2-8.75,5.38-8.75,2.18,0,2.93,1,3.19,1.75a14.55,14.55,0,0,1,.15-1.47h3.68c0,1-.06,2.68-.06,5Zm-8.42-6.86c0,3.42.82,4.87,2.37,4.87,1.93,0,2.34-1.84,2.34-5.39,0-3-.15-4.87-2.22-4.87C224,284.08,223.07,285.74,223.07,289.47Zm12.14,8.2V284.25h-1.93v-3.14h1.93V279.5c0-2.77,1.25-4.77,4.54-4.77a6.46,6.46,0,0,1,1.57.19v3.19a4.43,4.43,0,0,0-.9-.1c-1.1,0-1.39.62-1.39,1.76v1.34h2.35v3.14H239v13.42Zm19.37-4.86c0,2.41,0,4,0,4.86H251a17,17,0,0,1-.15-1.8,3.61,3.61,0,0,1-3.69,2.09c-2.35,0-4.14-1.16-4.14-5V281.11h3.83v11c0,1.63.34,2.54,1.73,2.54s2.21-.77,2.21-3.4V281.11h3.83Zm3.34,4.86V274.94h3.82v22.73Zm24.73-1.34c0,4.7-1.36,7.58-6.37,7.58-4.71,0-5.71-2.77-5.81-4.79h3.8c.07.5.24,1.68,2.16,1.68s2.46-1.57,2.46-4.47v-.74a3.59,3.59,0,0,1-3.55,2c-3.52,0-5-3.09-5-8,0-5.67,2-8.75,5.38-8.75,2.18,0,2.92,1,3.19,1.75a14.55,14.55,0,0,1,.15-1.47h3.67c0,1-.06,2.68-.06,5Zm-8.42-6.86c0,3.42.83,4.87,2.38,4.87,1.92,0,2.34-1.84,2.34-5.39,0-3-.15-4.87-2.23-4.87C275.12,284.08,274.23,285.74,274.23,289.47Zm23.26,3.34c0,2.41,0,4,0,4.86h-3.65a17,17,0,0,1-.15-1.8A3.6,3.6,0,0,1,290,298c-2.36,0-4.15-1.16-4.15-5V281.11h3.83v11c0,1.63.34,2.54,1.73,2.54s2.21-.77,2.21-3.4V281.11h3.83Zm6.39-2.42c0,2.1.26,4.44,2.38,4.44a2.15,2.15,0,0,0,2.21-2.18h3.66A5.57,5.57,0,0,1,306.2,298c-5.37,0-6.12-4.51-6.12-8.7,0-5.26,2-8.46,6.2-8.46,4.8,0,6,3.59,6,7.92,0,.57,0,1.35-.06,1.64Zm4.61-2.77c0-1.61-.19-3.66-2.22-3.66-2.19,0-2.32,2.46-2.33,3.66Zm9.2,5a2.16,2.16,0,0,0,2.15,2.39,1.63,1.63,0,0,0,1.87-1.75c0-1.17-.52-1.81-2.48-2.54-3.91-1.43-4.87-2.8-4.87-5.21,0-2.25,1.42-4.75,5.37-4.75,4.35,0,5.4,3,5.4,5.16h-3.66c0-.59-.06-2.25-1.83-2.25a1.44,1.44,0,0,0-1.56,1.56c0,1.05.6,1.53,2.58,2.27,3.5,1.29,4.82,2.62,4.82,5.3,0,3.26-2,5.12-5.79,5.12-4,0-5.72-2.35-5.74-5.3Zm8.66-11.55h2.17V277h3.82v4.14h2.56v3.14h-2.56v9.06c0,1,.18,1.51,1.37,1.51a4.61,4.61,0,0,0,.94-.07v2.81a6.64,6.64,0,0,1-2.34.34c-2.64,0-3.79-1-3.79-4v-9.69h-2.17Zm-280.6,38.4h3.82v16.56H45.75Zm0-6.17H49.6v3.78H45.78ZM53,324.66c0-3.4,0-4.28,0-5.15h3.67a11.62,11.62,0,0,1,.13,1.72,3.83,3.83,0,0,1,3.65-2c2.71,0,4.24,1.71,4.24,5.06v11.81H60.82V325.13c0-1.65-.33-2.65-1.87-2.65s-2.14.81-2.14,3.33v10.26H53Zm15.4,11.41V322.65H66.45v-3.14h1.93V317.9c0-2.77,1.26-4.77,4.54-4.77a6.46,6.46,0,0,1,1.57.19v3.19a4.35,4.35,0,0,0-.9-.1c-1.1,0-1.39.62-1.39,1.76v1.34h2.35v3.14H72.2v13.42Zm19.46-8.42c0,6-2.2,8.74-6.27,8.74s-6.17-2.6-6.17-8.65c0-5.86,2.47-8.51,6.37-8.51S87.84,322.11,87.84,327.65Zm-8.58.07c0,3.55.59,5.48,2.42,5.48s2.3-1.91,2.3-5.44-.6-5.31-2.33-5.31S79.26,324.17,79.26,327.72Zm11.19-2.6c0-2.72,0-4.43,0-5.61h3.65a26.58,26.58,0,0,1,.09,2.73,4.22,4.22,0,0,1,4.34-3v4.29c-2.71-.07-4.23.73-4.23,3.86v8.69H90.45Zm10-.64c0-3.27,0-4.25,0-5H104a12.71,12.71,0,0,1,.12,1.69,3.93,3.93,0,0,1,3.64-2,3.2,3.2,0,0,1,3.36,2.24,4.38,4.38,0,0,1,4.07-2.24c2.35,0,4.19,1.19,4.19,5v11.88h-3.77V324.76c0-1.32-.42-2.28-1.75-2.28-1.56,0-2,1.17-2,3.22v10.37H108V324.83c0-1.52-.51-2.32-1.74-2.32-1.54,0-2.1,1.05-2.1,3.28v10.28H100.4Zm33,8c0,.81.06,2.86.12,3.6h-3.47a9.24,9.24,0,0,1-.16-1.54,3.94,3.94,0,0,1-3.73,1.83c-3.19,0-4.41-2.54-4.41-4.91,0-3.39,2.32-5.45,6.53-5.45a13.29,13.29,0,0,1,1.35,0v-1.81c0-1-.12-2.09-1.78-2.09s-1.77,1-1.87,2.13h-3.62c.06-2.44,1.21-5,5.64-5,3.55,0,5.4,1.61,5.4,4.77Zm-3.68-3.66a7.63,7.63,0,0,0-1.23-.07c-2.18,0-3,1-3,2.37a1.9,1.9,0,0,0,1.9,2.14c1.95,0,2.3-1.45,2.3-3.91Zm5.27-9.3h2.17v-4.14H141v4.14h2.56v3.14H141v9.06c0,1,.18,1.51,1.37,1.51a4.61,4.61,0,0,0,.94-.07V336a6.64,6.64,0,0,1-2.34.34c-2.64,0-3.79-1-3.79-4v-9.69H135Zm10.61,0h3.82v16.56h-3.82Zm0-6.17h3.82v3.78h-3.82Zm18.9,14.31c0,6-2.21,8.74-6.28,8.74s-6.17-2.6-6.17-8.65c0-5.86,2.47-8.51,6.37-8.51S164.55,322.11,164.55,327.65Zm-8.59.07c0,3.55.6,5.48,2.42,5.48s2.31-1.91,2.31-5.44-.61-5.31-2.34-5.31S156,324.17,156,327.72Zm11.19-3.06c0-3.4,0-4.28,0-5.15h3.68a13.35,13.35,0,0,1,.12,1.72,3.85,3.85,0,0,1,3.66-2c2.7,0,4.24,1.71,4.24,5.06v11.81H175V325.13c0-1.65-.33-2.65-1.87-2.65s-2.14.81-2.14,3.33v10.26h-3.83Zm19.16-5.15h2.17v-4.14h3.82v4.14h2.55v3.14H192.3v9.06c0,1,.17,1.51,1.36,1.51a4.65,4.65,0,0,0,1-.07V336a6.67,6.67,0,0,1-2.34.34c-2.65,0-3.79-1-3.79-4v-9.69h-2.17Zm22.23,8.14c0,6-2.2,8.74-6.27,8.74s-6.17-2.6-6.17-8.65c0-5.86,2.47-8.51,6.37-8.51S208.54,322.11,208.54,327.65Zm-8.58.07c0,3.55.59,5.48,2.42,5.48s2.31-1.91,2.31-5.44-.61-5.31-2.34-5.31S200,324.17,200,327.72Zm30,2c-.09,1.1-.51,6.68-6.51,6.68-6.16,0-6.87-5.41-6.87-11.23,0-7,2.06-11.14,7.1-11.14,5.74,0,6.19,4.92,6.27,6.66h-3.83c-.06-.74-.11-3.37-2.5-3.37s-3,3-3,7.93c0,4.08.41,7.91,2.92,7.91,2.31,0,2.5-2.61,2.59-3.44Zm13.2-3.32h-7v6.29H244l-.48,3.33H232.34V314.42h11.11v3.4h-7.28v5.27h7Zm16,3.32c-.1,1.1-.51,6.68-6.52,6.68s-6.86-5.41-6.86-11.23c0-7,2.06-11.14,7.09-11.14,5.74,0,6.19,4.92,6.28,6.66h-3.84c-.06-.74-.11-3.37-2.5-3.37s-3,3-3,7.93c0,4.08.4,7.91,2.92,7.91,2.31,0,2.49-2.61,2.59-3.44Zm19.27,2.7c0,.81.06,2.86.12,3.6h-3.47a9.24,9.24,0,0,1-.16-1.54,3.94,3.94,0,0,1-3.73,1.83c-3.19,0-4.41-2.54-4.41-4.91,0-3.39,2.32-5.45,6.53-5.45a13.29,13.29,0,0,1,1.35,0v-1.81c0-1-.12-2.09-1.78-2.09s-1.77,1-1.87,2.13h-3.62c.06-2.44,1.21-5,5.64-5,3.55,0,5.4,1.61,5.4,4.77Zm-3.68-3.66a7.63,7.63,0,0,0-1.23-.07c-2.18,0-3,1-3,2.37a1.9,1.9,0,0,0,1.9,2.14c1.95,0,2.3-1.45,2.3-3.91Zm18.66,5.92c0,4.7-1.36,7.58-6.37,7.58-4.71,0-5.72-2.77-5.81-4.79H285c.06.5.24,1.68,2.15,1.68,2.07,0,2.46-1.57,2.46-4.47V334a3.58,3.58,0,0,1-3.54,2c-3.53,0-5-3.09-5-8,0-5.67,2-8.75,5.37-8.75,2.18,0,2.93,1,3.19,1.74,0-.49.09-1.06.15-1.46h3.68c0,1-.06,2.68-.06,5ZM285,327.87c0,3.42.83,4.87,2.37,4.87,1.93,0,2.34-1.84,2.34-5.39,0-3-.15-4.87-2.22-4.87C285.86,322.48,285,324.14,285,327.87Zm14.86.92c0,2.1.26,4.44,2.38,4.44a2.16,2.16,0,0,0,2.22-2.19h3.65a5.57,5.57,0,0,1-5.93,5.35c-5.37,0-6.11-4.51-6.11-8.7,0-5.26,2-8.46,6.19-8.46,4.8,0,6,3.59,6,7.92,0,.57,0,1.35-.06,1.64Zm4.61-2.77c0-1.61-.19-3.66-2.21-3.66-2.2,0-2.33,2.46-2.34,3.66Zm6.36-1.36c0-3.4,0-4.28,0-5.15h3.67a13.16,13.16,0,0,1,.13,1.72,3.83,3.83,0,0,1,3.65-2c2.71,0,4.24,1.71,4.24,5.06v11.81h-3.82V325.13c0-1.65-.33-2.65-1.87-2.65s-2.15.81-2.15,3.33v10.26H310.8Zm13.26-5.15h2.17v-4.14h3.82v4.14h2.56v3.14h-2.56v9.06c0,1,.18,1.51,1.37,1.51a4.55,4.55,0,0,0,.94-.07V336a6.62,6.62,0,0,1-2.33.34c-2.65,0-3.8-1-3.8-4v-9.69h-2.17ZM659.23,234.4h-17V222.72h17Zm0-23.68h-17v-12h17Zm0-24h-17v-12h17Zm0-24h-17v-12h17ZM470.72,314h-12V297h12Zm-24,0h-12V297h12Zm-24,0h-12V297h12Zm-24,0h-12V297h12Zm-24,0h-6.21V297h6.21Z"/></g></g></svg>