<svg xmlns="http://www.w3.org/2000/svg" xmlns:xlink="http://www.w3.org/1999/xlink" viewBox="0 0 1007 189.69"><defs><style>.cls-1{fill:url(#linear-gradient);}.cls-2{fill:#1f140f;}.cls-3{fill:#aa0c36;}.cls-4{fill:#003870;}.cls-5{fill:#4a85ff;}</style><linearGradient id="linear-gradient" x1="469.56" y1="100.27" x2="682" y2="100.27" gradientUnits="userSpaceOnUse"><stop offset="0" stop-color="#5e0094"/><stop offset="1" stop-color="#4a85ff"/></linearGradient></defs><g id="Layer_2" data-name="Layer 2"><g id="Layer_1-2" data-name="Layer 1"><path class="cls-1" d="M520.9,48.05C513.81,41,483.72,39.19,474,38.31a3.25,3.25,0,0,0-2.65.88,6.71,6.71,0,0,0-1.77,3.54V122.4a4.18,4.18,0,0,0,4.42,4.43h26.56a4.86,4.86,0,0,0,4.42-2.66c0-2.65,15.94-49.57,17.71-72.58A3.53,3.53,0,0,0,520.9,48.05Zm94.71,21.24c-8.85-2.66-16.82-6.2-23.9-8.85-15.93-7.08-23-3.54-37.18,10.62-6.19,6.2-10.62,15-9.73,18.59,0,.88,0,.88,1.77,1.77,4.42,1.77,10.62,2.66,16.82-7.08a4.57,4.57,0,0,1,3.54-1.77c2.65,0,3.54-.89,6.19-1.77a43,43,0,0,1,6.2-2.66h1.77c.88,0,2.65.89,3.54.89C589.06,83.45,597,89.65,605,96.73c12.39,9.74,24.78,20.36,31,28.33h.89C630.66,107.35,620,77.26,615.61,69.29Zm62-22.13c-34.52,0-54,8.85-54.88,8.85L620,58.67c0,.88,0,2.65.88,3.54,5.31,8.85,23,57.54,25.67,69.93.89,1.77,2.66,3.54,4.43,3.54h26.55a4.18,4.18,0,0,0,4.43-4.43V51.59A4.18,4.18,0,0,0,677.57,47.16Zm-47.8,86.75c-3.54-8-18.58-19.47-31.86-30.1-7.08-6.19-14.17-11.5-19.48-15.93-.88.88-2.65.88-2.65,1.77-2.66.88-3.54,1.77-7.08,1.77-7.09,8.85-15.94,12.39-25.67,8.85a10.44,10.44,0,0,1-8-8c-1.77-8.86,6.2-21.25,12.39-27.45h-17.7C526.21,82.57,520,105.58,515.59,118c3.54,3.54,7.08,8,9.73,9.73,16.82,14.17,36.3,28.33,39.84,31,2.65,1.78,8,3.55,10.62,3.55h2.65l-14.16-14.17a4.38,4.38,0,0,1,6.2-6.19l17.7,17.7c1.77,1.77,3.54.88,5.31.88,2.66-.88,3.54-2.65,4.43-5.31l-20.36-20.36a4.38,4.38,0,1,1,6.19-6.19l22.13,22.13c.89.88,4.43.88,7.09,0,.88-.89,2.65-1.77,3.54-3.54L591.71,122.4a4.38,4.38,0,1,1,6.2-6.19l25.67,25.67c1.77.88,3.54,0,5.31-.89A6,6,0,0,0,629.77,133.91Z"/><path class="cls-2" d="M802.75,166.85h3.9l6.69,10.5,6.59-10.5h3.9l1.07,22.24h-4.1l-.74-15.41-5.85,9.07h-2l-5.89-8.84-.73,15.18h-3.94Z"/><path class="cls-2" d="M841.79,166.85h4.34l8.43,22.24h-4.67L848,183.45h-8.27l-1.93,5.64h-4.41Zm5,13.13-2.93-8.63-3,8.63Z"/><path class="cls-2" d="M863.38,166.85h8.41a9,9,0,0,1,3.57.63,6.89,6.89,0,0,1,2.36,1.61,6.42,6.42,0,0,1,1.32,2.16,6.54,6.54,0,0,1,.42,2.23,7.44,7.44,0,0,1-.92,3.72,6.46,6.46,0,0,1-2.82,2.58l5.14,9.31h-4.74l-4.5-8.77h-4.21v8.77h-4Zm8.44,10a3.26,3.26,0,0,0,2.49-.94,3.19,3.19,0,0,0,.88-2.26,3.11,3.11,0,0,0-.93-2.34,3.39,3.39,0,0,0-2.44-.9h-4.41v6.44Z"/><path class="cls-2" d="M890.36,166.85h8.41a9,9,0,0,1,3.56.63,6.84,6.84,0,0,1,2.37,1.61,6.42,6.42,0,0,1,1.32,2.16,6.54,6.54,0,0,1,.42,2.23,7.44,7.44,0,0,1-.92,3.72,6.46,6.46,0,0,1-2.82,2.58l5.14,9.31H903.1l-4.5-8.77h-4.21v8.77h-4Zm8.44,10a3.2,3.2,0,0,0,2.48-.94,3.36,3.36,0,0,0,0-4.6,3.39,3.39,0,0,0-2.44-.9h-4.41v6.44Z"/><path class="cls-2" d="M918.36,166.85h4.2v22.24h-4.2Z"/><path class="cls-2" d="M944.26,189.69a11.22,11.22,0,0,1-4.53-.92,11.33,11.33,0,0,1-3.67-2.52,11.87,11.87,0,0,1,0-16.59,11.43,11.43,0,0,1,8.21-3.42,11.23,11.23,0,0,1,4.54.92,11.82,11.82,0,0,1,3.67,19.09,11.55,11.55,0,0,1-3.67,2.52A11.23,11.23,0,0,1,944.26,189.69Zm0-4a6.87,6.87,0,0,0,3-.63,7,7,0,0,0,2.27-1.72,7.62,7.62,0,0,0,1.43-2.52,9.31,9.31,0,0,0,0-6,7.53,7.53,0,0,0-1.43-2.48,6.68,6.68,0,0,0-2.27-1.69,7,7,0,0,0-3-.62,6.93,6.93,0,0,0-3,.62,6.61,6.61,0,0,0-2.25,1.69,7.55,7.55,0,0,0-1.44,2.48,9.31,9.31,0,0,0,0,6,7.64,7.64,0,0,0,1.44,2.52,7,7,0,0,0,2.25,1.72A6.79,6.79,0,0,0,944.26,185.72Z"/><path class="cls-2" d="M968.86,170.55h-7.53v-3.7H980.6v3.7h-7.54v18.54h-4.2Z"/><path class="cls-2" d="M995.26,170.55h-7.54v-3.7H1007v3.7h-7.54v18.54h-4.2Z"/><path class="cls-3" d="M915.37,144.61h37.51L890.11,2.28,858.63,16.83l21.94,49.55L870.33,89.46,831.07,0,799.25,13.86,824.81,71a2.29,2.29,0,0,0-.1.23c-15.77,36.05-35.12,46-37,46.66a39.56,39.56,0,0,1-14.4,2.71c-1.55,0-3.09-.09-4.57-.23L753.3,151.77a34.75,34.75,0,0,0,37.55-2.36l-.06.11s14.55-7,30.13-45.49c0,0,5.72-12.32,8.78-20.13L830,83l27.4,61.6h37.48l-19.3-43.33,10.24-23Z"/><path class="cls-4" d="M63.22,61.06H31.11V78.79H63.22c3.42,0,5.16,1.49,5.16,4.48v22.52c0,3.11-1.74,4.61-5.16,4.61H27.87c-3.54,0-5.28-1.5-5.28-4.61v-27h0V61.06h0V30.32H.31v76.47c0,15,9.15,22.4,27.56,22.4H63.22c18.41,0,27.56-7.47,27.56-22.4V83.45c0-15-9.15-22.39-27.56-22.39"/><rect class="cls-4" x="102.23" y="30.32" width="22.34" height="98.87"/><path class="cls-4" d="M224.8,61.06v46c0,14.74-9.14,22.21-27.56,22.21H163.58c-18.42,0-27.57-7.47-27.57-22.4V61.06h22.34v46.1c0,2.18,1.74,3.17,5.29,3.17H197.3c3.42,0,5.16-1,5.16-3.17V61.06Z"/><rect class="cls-5" y="139.83" width="224.06" height="19.41"/><rect class="cls-5" x="271.78" y="30.32" width="119.84" height="19.41"/><rect class="cls-5" x="236.31" y="61.06" width="22.34" height="98.25"/><path class="cls-5" d="M333,61.06H297.66c-18.42,0-27.56,7.46-27.56,22.39v75.79h22.34V83.39c0-3.11,1.74-4.6,5.28-4.6h35.35c3.42,0,5.16,1.49,5.16,4.6v22.53c0,3-1.74,4.48-5.16,4.48H301v18.85h32.11c18.41,0,27.56-7.47,27.56-22.4V83.52c-.06-15.06-9.21-22.46-27.63-22.46"/><polygon class="cls-5" points="402.75 49.61 402.75 34.05 398.33 34.05 398.33 30.57 410.28 30.57 410.28 34.05 406.05 34.05 406.05 49.61 402.75 49.61"/><polygon class="cls-5" points="421.23 46.62 421.73 46.62 424.34 30.57 431 30.57 431 49.61 427.7 49.61 427.7 33.37 427.14 33.37 424.22 49.61 418.93 49.61 416 33.37 415.44 33.37 415.44 49.61 412.15 49.61 412.15 30.57 418.56 30.57 421.23 46.62"/><path class="cls-5" d="M247.57,40.09a2.37,2.37,0,0,1-2.36-2.37v-13a2.37,2.37,0,1,1,4.73,0V37.78A2.4,2.4,0,0,1,247.57,40.09Z"/><path class="cls-5" d="M247.51,53.4a15.29,15.29,0,0,1-15.3-15.3,13.56,13.56,0,0,1,3.92-9.71,2.5,2.5,0,0,1,3.6,3.48,8.78,8.78,0,0,0-2.55,6.23,10.27,10.27,0,0,0,20.54,0,8.44,8.44,0,0,0-2.55-6.23,2.5,2.5,0,1,1,3.6-3.48,13.77,13.77,0,0,1,4,9.77A15.19,15.19,0,0,1,247.51,53.4Z"/></g></g></svg>