<svg xmlns="http://www.w3.org/2000/svg" xmlns:xlink="http://www.w3.org/1999/xlink" viewBox="0 0 1822.28 512"><defs><style>.cls-1{fill:url(#linear-gradient);}</style><linearGradient id="linear-gradient" y1="256" x2="1822.28" y2="256" gradientUnits="userSpaceOnUse"><stop offset="0" stop-color="#5e0094"/><stop offset="1" stop-color="#4a85ff"/></linearGradient></defs><g id="Layer_2" data-name="Layer 2"><g id="Layer_1-2" data-name="Layer 1"><path class="cls-1" d="M831,147.51a63,63,0,1,1,97.84-.07,89.6,89.6,0,0,1,30.28,21.05,93.9,93.9,0,0,1,19.21,30.09,123.57,123.57,0,1,0-196.53-.35,94.14,94.14,0,0,1,19.08-29.75A90,90,0,0,1,831,147.51ZM763.48,427.22h-32c-31.19,0-57.64,26.9-58.88,59.27a123.31,123.31,0,0,0,149.72.37C821.32,454.33,794.79,427.22,763.48,427.22Zm263.59,0H995.12c-31,0-57.28,26.53-58.86,58.59A123.34,123.34,0,0,0,1086,487.54C1085.28,454.71,1058.6,427.22,1027.07,427.22Zm-16.09-30a33,33,0,1,0-33-33A33.06,33.06,0,0,0,1011,397.22Zm-48.89,6.69a63,63,0,1,1,97.85-.08,89.94,89.94,0,0,1,30.28,21.05,94.4,94.4,0,0,1,21.55,36.72,123.5,123.5,0,0,0-183-164.17l-33.5-28.53V246.23a123,123,0,0,0,58.85-23.68c-4.69-28.9-29.4-51.72-58.13-51.72H864c-28.64,0-53.28,22.68-58.08,51.45a122.91,122.91,0,0,0,59.26,23.95v22.59l-33.68,28.85a123.51,123.51,0,0,0-184.25,162.6,94.21,94.21,0,0,1,21.12-35.39,89.58,89.58,0,0,1,30.11-21,63,63,0,1,1,97.84-.07,89.7,89.7,0,0,1,30.29,21,94.23,94.23,0,0,1,21.27,35.86A123.33,123.33,0,0,0,851,320.57l29.22-25,29,24.73a123.32,123.32,0,0,0,1.91,139.12A94.31,94.31,0,0,1,932,424.88,89.58,89.58,0,0,1,962.09,403.91ZM879.88,140.82a33,33,0,1,0-33-33A33.06,33.06,0,0,0,879.88,140.82ZM747.39,397.22a33,33,0,1,0-33-33A33.07,33.07,0,0,0,747.39,397.22ZM701,158a60,60,0,1,1-60-60A60,60,0,0,1,701,158Zm466,0a28,28,0,1,1-28-28A28,28,0,0,1,1167,158ZM56,347a28,28,0,1,1-28-28A28,28,0,0,1,56,347ZM366,149.59a44.42,44.42,0,1,1-44.41-44.42A44.41,44.41,0,0,1,366,149.59ZM56,100A18.42,18.42,0,1,1,37.59,81.59,18.41,18.41,0,0,1,56,100ZM537,347a78,78,0,1,1-78-78A78,78,0,0,1,537,347Zm885.79-30.79A70.79,70.79,0,1,1,1352,245.42,70.79,70.79,0,0,1,1422.79,316.21ZM1620.5,168.75A42.75,42.75,0,1,1,1577.75,126,42.75,42.75,0,0,1,1620.5,168.75ZM1745.22,402A25.22,25.22,0,1,1,1720,376.78,25.22,25.22,0,0,1,1745.22,402Zm77.06-165.28A19.28,19.28,0,1,1,1803,217.44,19.28,19.28,0,0,1,1822.28,236.72Z"/></g></g></svg>