<?xml version="1.0" encoding="utf-8"?>
<!-- Generator: Adobe Illustrator 24.1.2, SVG Export Plug-In . SVG Version: 6.00 Build 0)  -->
<svg version="1.1" id="Layer_1" xmlns="http://www.w3.org/2000/svg" xmlns:xlink="http://www.w3.org/1999/xlink" x="0px" y="0px"
	 viewBox="0 0 512 100" style="enable-background:new 0 0 512 100;" xml:space="preserve">
<style type="text/css">
	.st0{fill:#FFFFFF;}
</style>
<g>
	<g>
		<path class="st0" d="M274.43,30.51h-20.53v11.35h20.53c2.2,0,3.29,0.95,3.29,2.86v14.42c0,1.98-1.1,2.93-3.29,2.93h-22.62
			c-2.27,0-3.37-0.95-3.37-2.93V41.86h0.01V30.51h-0.01V10.88h-14.28V59.8c0,9.59,5.86,14.35,17.64,14.35h22.62
			c11.79,0,17.64-4.76,17.64-14.35V44.86C292.07,35.27,286.22,30.51,274.43,30.51"/>
		<rect x="299.39" y="10.88" class="st0" width="14.28" height="63.26"/>
		<path class="st0" d="M377.79,30.51v29.43c0,9.44-5.86,14.2-17.64,14.2h-21.52c-11.79,0-17.64-4.76-17.64-14.35V30.51h14.28v29.5
			c0,1.39,1.1,2.05,3.37,2.05h21.52c2.2,0,3.29-0.66,3.29-2.05v-29.5H377.79z"/>
	</g>
	<g>
		<g>
			<rect x="234" y="80.92" class="st0" width="143.36" height="12.43"/>
			<rect x="407.86" y="10.88" class="st0" width="76.66" height="12.43"/>
			<rect x="385.18" y="30.51" class="st0" width="14.28" height="62.84"/>
			<path class="st0" d="M447.04,30.51h-22.62c-11.79,0-17.64,4.76-17.64,14.35v48.49h14.28v-19.2V62.07v-4.85V44.79
				c0-1.98,1.1-2.93,3.37-2.93h22.62c2.2,0,3.29,0.95,3.29,2.93v14.42c0,1.9-1.1,2.86-3.29,2.86h-20.54v12.08h20.54
				c11.79,0,17.64-4.76,17.64-14.35V44.86C464.68,35.27,458.83,30.51,447.04,30.51"/>
			<polygon class="st0" points="491.65,23.21 491.65,13.26 488.82,13.26 488.82,11 496.48,11 496.48,13.26 493.76,13.26 
				493.76,23.21 			"/>
			<polygon class="st0" points="503.46,21.28 503.78,21.28 505.48,11.01 509.72,11.01 509.72,23.21 507.6,23.21 507.6,12.82 
				507.26,12.82 505.38,23.21 501.99,23.21 500.14,12.82 499.78,12.82 499.78,23.21 497.66,23.21 497.66,11.01 501.76,11.01 			"/>
		</g>
		<g>
			<g>
				<path class="st0" d="M392.36,17.13c-0.82,0-1.49-0.67-1.49-1.49V7.28c0-0.82,0.67-1.49,1.49-1.49c0.82,0,1.49,0.67,1.49,1.49
					v8.36C393.85,16.46,393.19,17.13,392.36,17.13z"/>
			</g>
			<g>
				<path class="st0" d="M392.35,25.65c-5.4,0-9.79-4.39-9.79-9.79c0-2.38,0.84-4.46,2.51-6.21c0.62-0.64,1.64-0.67,2.29-0.05
					c0.65,0.62,0.67,1.64,0.05,2.29c-1.09,1.13-1.61,2.43-1.61,3.97c0,3.62,2.94,6.56,6.56,6.56s6.56-2.94,6.56-6.56
					c0-1.55-0.54-2.85-1.64-4c-0.62-0.64-0.6-1.67,0.04-2.29c0.64-0.62,1.67-0.6,2.29,0.04c1.69,1.75,2.55,3.85,2.55,6.24
					C402.14,21.26,397.75,25.65,392.35,25.65z"/>
			</g>
		</g>
	</g>
</g>
<g>
	<path class="st0" d="M3.39,29.42h9.31c5.55,0,9.45,3.46,9.45,9.87c0,6.32-3.52,10.17-10,10.17H7.69v14.96h-4.3V29.42z M7.69,45.88
		h4c4.06,0,6.1-2.13,6.1-6.63c0-3.8-1.98-6.22-5.68-6.22H7.69V45.88z"/>
	<path class="st0" d="M43.04,51.01c0,9.29-3.18,13.91-9.21,13.91c-6.13,0-9.18-4.44-9.18-13.81c0-9.15,3.62-13.37,9.37-13.37
		C39.87,37.74,43.04,42.2,43.04,51.01z M28.96,51.11c0,6.85,1.62,10.17,4.93,10.17c3.28,0,4.84-3.36,4.84-10.18
		c0-6.54-1.53-9.71-4.86-9.71C30.68,41.39,28.96,44.29,28.96,51.11z"/>
	<path class="st0" d="M45.48,38.17h4.5c2.42,12.28,3.55,18.02,4,21.59h0.07c0.5-3.44,1.58-7.5,4.67-21.59h3.98
		c2.87,13.01,4.09,18.57,4.45,21.48h0.05c0.39-2.84,1.28-7.36,4.17-21.48h4.29l-6.44,26.26H64.8c-1.83-8.47-3.66-16.55-4.23-20.56
		h-0.05c-0.49,3.88-2.35,11.32-4.51,20.56h-4.55L45.48,38.17L45.48,38.17z"/>
	<path class="st0" d="M82.07,52.18c0,4.79,0.79,9.13,4.8,9.13c3.91,0,4.41-3.64,4.54-4.46h4.12c-0.08,0.71-0.78,8.06-8.7,8.06
		c-7.89,0-8.98-7.1-8.98-13.65c0-8.31,2.91-13.53,9.17-13.53c7.04,0,8.72,5.69,8.72,12.3c0,0.58-0.02,1.53-0.08,2.14H82.07z
		 M91.52,48.93c0-4.14-0.83-7.61-4.54-7.61c-4.54,0-4.78,5.79-4.83,7.61H91.52z"/>
	<path class="st0" d="M100.41,47.11c0-4.21,0-7.06-0.05-8.94h4.06c0.05,0.64,0.13,1.83,0.13,4.61c1.09-3.13,3.58-4.99,6.93-5.02
		v4.69c-4.47,0.1-6.84,2.63-6.84,7.48v14.49h-4.23V47.11z"/>
	<path class="st0" d="M117.71,52.18c0,4.79,0.79,9.13,4.8,9.13c3.91,0,4.41-3.64,4.54-4.46h4.12c-0.08,0.71-0.78,8.06-8.7,8.06
		c-7.89,0-8.98-7.1-8.98-13.65c0-8.31,2.91-13.53,9.17-13.53c7.04,0,8.72,5.69,8.72,12.3c0,0.58-0.02,1.53-0.08,2.14H117.71z
		 M127.16,48.93c0-4.14-0.83-7.61-4.54-7.61c-4.54,0-4.78,5.79-4.83,7.61H127.16z"/>
	<path class="st0" d="M153.23,27.73v29.85c0,2.65,0,5.3,0.05,6.85h-4.08c-0.08-0.67-0.15-2.33-0.15-3.39
		c-0.8,2.2-2.46,3.85-6.1,3.85c-5.48,0-7.78-4.71-7.78-13.85c0-8.32,3-13.3,8.64-13.3c3.29,0,4.63,1.37,5.2,2.61V27.73H153.23z
		 M139.5,51.08c0,7.29,1.6,10.1,4.69,10.1c3.89,0,4.9-3.28,4.9-10.25c0-7.35-0.95-9.49-4.62-9.49
		C141.49,41.44,139.5,44.01,139.5,51.08z"/>
	<path class="st0" d="M169.09,27.73h4.23v13.77c0.84-1.94,2.65-3.76,6.17-3.76c5.09,0,7.67,4.3,7.67,12.9
		c0,8.14-2.15,14.23-8.41,14.23c-3.37,0-4.79-1.67-5.57-3.42c0,0.82-0.05,2.01-0.13,2.98h-4c0.05-1.46,0.05-4.13,0.05-7.24V27.73z
		 M182.87,50.71c0-6.28-1.38-9.27-4.6-9.27c-3.83,0-5.1,3.32-5.1,9.93c0,6.27,0.99,9.81,4.75,9.81
		C181.29,61.18,182.87,57.91,182.87,50.71z"/>
	<path class="st0" d="M193.99,38.17c2.65,10.49,4.77,18.23,5.11,21.1h0.05c0.53-3.16,2.78-11.9,5.13-21.1h4.34l-7.66,27.56
		c-2.15,7.78-4.36,8.71-8.08,8.71c-0.58,0-1.42-0.05-1.96-0.18v-3.71c0.36,0.08,1.17,0.13,1.76,0.13c2.66,0,3.43-1.73,4.42-5.74
		l-7.73-26.76H193.99z"/>
</g>
</svg>
