<svg xmlns="http://www.w3.org/2000/svg" xmlns:xlink="http://www.w3.org/1999/xlink" viewBox="0 0 183.94 35.07"><defs><style>.cls-1{fill:url(#linear-gradient);}</style><linearGradient id="linear-gradient" y1="17.54" x2="183.94" y2="17.54" gradientUnits="userSpaceOnUse"><stop offset="0" stop-color="#5e0094"/><stop offset="1" stop-color="#4a85ff"/></linearGradient></defs><g id="Layer_2" data-name="Layer 2"><g id="Layer_1-2" data-name="Layer 1"><path class="cls-1" d="M74.3,17.54a6.87,6.87,0,1,1-6.86-6.87A6.86,6.86,0,0,1,74.3,17.54Zm15.53-6.87a6.87,6.87,0,1,0,6.86,6.87A6.86,6.86,0,0,0,89.83,10.67Zm-45.35,0a6.87,6.87,0,1,0,6.87,6.87A6.86,6.86,0,0,0,44.48,10.67Zm-21,6.87A11.72,11.72,0,1,1,11.72,5.82,11.72,11.72,0,0,1,23.44,17.54Zm-5.23,0A6.49,6.49,0,1,0,11.72,24,6.49,6.49,0,0,0,18.21,17.54ZM183.94,1.48v19c-.55.09-1.14.16-1.83.24a35.41,35.41,0,0,1-4.42.37,39.42,39.42,0,0,1-7.94-1c-2.46-.5-4.79-1.42-7.28-1.42a27.35,27.35,0,0,0-3.37.19V35.07h-4.39V1.49l.39-.27c.19-.11,2-1.22,7.36-1.22a38.23,38.23,0,0,1,7.68,1,36,36,0,0,0,7.44,1.12,35,35,0,0,0,4.53-.39C182.8,1.67,183.48,1.57,183.94,1.48Zm-6,11.09A3.14,3.14,0,0,0,175,9.43a4.74,4.74,0,0,0-8.86-1.26,3.79,3.79,0,0,0,.41,7.56h8.22A3.18,3.18,0,0,0,178,12.57Zm-65.91-1.9a6.87,6.87,0,1,0,6.87,6.87A6.87,6.87,0,0,0,112.06,10.67Zm22,0A6.87,6.87,0,1,0,141,17.54,6.87,6.87,0,0,0,134.09,10.67Z"/></g></g></svg>