<svg xmlns="http://www.w3.org/2000/svg" viewBox="0 0 806.36 493.72"><defs><style>.cls-1{fill:#1b1464;}</style></defs><g id="Layer_2" data-name="Layer 2"><g id="Layer_1-2" data-name="Layer 1"><path class="cls-1" d="M337.66,159.22H39.35A39.39,39.39,0,0,1,0,119.87V39.35A39.39,39.39,0,0,1,39.35,0H337.66A39.39,39.39,0,0,1,377,39.35v80.52A39.39,39.39,0,0,1,337.66,159.22ZM39.35,17A22.38,22.38,0,0,0,17,39.35v80.52a22.37,22.37,0,0,0,22.35,22.35H337.66A22.37,22.37,0,0,0,360,119.87V39.35A22.37,22.37,0,0,0,337.66,17Z"/><path class="cls-1" d="M342.47,408.39H44.16A39.39,39.39,0,0,1,4.81,369V288.52a39.39,39.39,0,0,1,39.35-39.35H342.47a39.39,39.39,0,0,1,39.35,39.35V369A39.39,39.39,0,0,1,342.47,408.39ZM44.16,266.17a22.37,22.37,0,0,0-22.35,22.35V369a22.38,22.38,0,0,0,22.35,22.35H342.47A22.37,22.37,0,0,0,364.82,369V288.52a22.37,22.37,0,0,0-22.35-22.35Z"/><path class="cls-1" d="M767,247.11H468.7a39.39,39.39,0,0,1-39.35-39.35V127.24A39.39,39.39,0,0,1,468.7,87.89H767a39.39,39.39,0,0,1,39.35,39.35v80.52A39.39,39.39,0,0,1,767,247.11ZM468.7,104.89a22.37,22.37,0,0,0-22.35,22.35v80.52a22.37,22.37,0,0,0,22.35,22.35H767a22.38,22.38,0,0,0,22.35-22.35V127.24A22.38,22.38,0,0,0,767,104.89Z"/><path class="cls-1" d="M767,493.72H468.7a39.39,39.39,0,0,1-39.35-39.35V373.85A39.39,39.39,0,0,1,468.7,334.5H767a39.39,39.39,0,0,1,39.35,39.35v80.52A39.39,39.39,0,0,1,767,493.72ZM468.7,351.5a22.37,22.37,0,0,0-22.35,22.35v80.52a22.37,22.37,0,0,0,22.35,22.35H767a22.37,22.37,0,0,0,22.35-22.35V373.85A22.38,22.38,0,0,0,767,351.5Z"/><path class="cls-1" d="M626.35,85.06h-17V83.79a36.46,36.46,0,0,0-1-8.6l16.51-4a53.23,53.23,0,0,1,1.52,12.66ZM604.77,66.21a36,36,0,0,0-5.84-7.72l12.07-12a53.08,53.08,0,0,1,8.58,11.37ZM591.25,52.58a35.46,35.46,0,0,0-9-3.62l4.19-16.48a52.88,52.88,0,0,1,13.22,5.36Zm-18.74-4.73h-12v-17h12Zm-24,0h-12v-17h12Zm-24,0h-12v-17h12Zm-24,0h-12v-17h12Zm-24,0h-12v-17h12Zm-24,0h-12v-17h12Zm-24,0h-12v-17h12Zm-24,0h-12v-17h12Zm-24,0h-12v-17h12Z"/><path class="cls-1" d="M201.82,257.67h-17v-5h17Zm0-17h-17v-6.07a53.09,53.09,0,0,1,.46-7l16.85,2.24a36.2,36.2,0,0,0-.31,4.78Zm2.87-20.18-15.64-6.67a52.85,52.85,0,0,1,7.31-12.23l13.29,10.6A36.22,36.22,0,0,0,204.69,220.45Zm12-15-10-13.75A52.79,52.79,0,0,1,219.21,185l6,15.92A35.75,35.75,0,0,0,216.65,205.46Zm17.94-6.71-1.48-16.94c1.54-.13,3.1-.2,4.65-.2h8.09v17h-8.09C236.7,198.61,235.64,198.66,234.59,198.75Zm203.26-.14h-12v-17h12Zm-24,0h-12v-17h12Zm-24,0h-12v-17h12Zm-24,0h-12v-17h12Zm-24,0h-12v-17h12Zm-24,0h-12v-17h12Zm-24,0h-12v-17h12Zm-24,0h-12v-17h12Z"/><path class="cls-1" d="M609.35,343a36.35,36.35,0,0,0-.31-4.79L625.89,336a53.09,53.09,0,0,1,.46,7Zm-2.87-14.1a36,36,0,0,0-5-8.3L614.81,310a53.06,53.06,0,0,1,7.31,12.23Zm-12-15a36.11,36.11,0,0,0-8.52-4.58l6-15.92a52.85,52.85,0,0,1,12.56,6.75Zm-17.94-6.71c-1.05-.09-2.12-.13-3.17-.13h-8.09v-17h8.09c1.54,0,3.11.06,4.65.2Zm-23.26-.13h-12v-17h12Zm-24,0h-12v-17h12Zm-24,0h-12v-17h12Zm-24,0h-12v-17h12Zm-24,0h-12v-17h12Zm-24,0h-12v-17h12Zm-24,0h-12v-17h12Zm-24,0h-12v-17h12Z"/><path class="cls-1" d="M96.58,63.86H93.34a18.49,18.49,0,0,1-.2-2c-1,1.87-2.7,2.42-4.7,2.42-5,0-6.74-4.41-6.74-12.1,0-8.65,2.92-12.37,8-12.37,6.42,0,6.77,5.5,6.84,6.91H92.36c-.07-1-.28-3.32-2.78-3.32-2.73,0-3.49,3.64-3.49,8.77,0,5.52.65,8.55,3.35,8.55,2.25,0,2.92-1.72,2.92-5.21V54.17H89.18V50.55h7.4Z"/><path class="cls-1" d="M112.65,58.54c0,2.64,0,4.39,0,5.32h-4a17.45,17.45,0,0,1-.16-2,4,4,0,0,1-4,2.3c-2.57,0-4.53-1.27-4.53-5.43v-13h4.19V57.81c0,1.79.37,2.78,1.89,2.78s2.42-.85,2.42-3.72V45.74h4.19Z"/><path class="cls-1" d="M119.64,55.89c0,2.3.28,4.86,2.6,4.86a2.36,2.36,0,0,0,2.42-2.39h4a6.09,6.09,0,0,1-6.48,5.85c-5.88,0-6.7-4.94-6.7-9.52,0-5.75,2.18-9.26,6.78-9.26,5.25,0,6.54,3.94,6.54,8.67,0,.63,0,1.48-.06,1.79Zm5-3c0-1.77-.21-4-2.43-4-2.39,0-2.54,2.7-2.55,4Z"/><path class="cls-1" d="M134.74,58.38A2.37,2.37,0,0,0,137.09,61c1.39,0,2-.73,2-1.91s-.58-2-2.72-2.78c-4.27-1.57-5.32-3.07-5.32-5.69s1.55-5.21,5.87-5.21c4.76,0,5.91,3.27,5.91,5.64h-4c0-.64-.07-2.45-2-2.45a1.58,1.58,0,0,0-1.71,1.7c0,1.15.66,1.68,2.83,2.48,3.82,1.42,5.28,2.88,5.28,5.81,0,3.56-2.23,5.6-6.34,5.6-4.33,0-6.26-2.58-6.28-5.8Z"/><path class="cls-1" d="M144.21,45.74h2.38V41.22h4.18v4.52h2.79v3.43h-2.79v9.92c0,1,.19,1.65,1.49,1.65a5.44,5.44,0,0,0,1-.07v3.07a7.2,7.2,0,0,1-2.55.37c-2.9,0-4.15-1.07-4.15-4.33V49.17h-2.38Z"/><path class="cls-1" d="M174.33,57.73c-.07,1.45-.4,6.45-6.38,6.45-5.19,0-6.48-4.16-6.48-9.53,0-4.8,1.58-9.25,6.7-9.25,5.94,0,6.13,5.13,6.16,6.23h-4.22c0-.7-.11-2.77-2-2.77s-2.45,2.06-2.45,5.82.58,6,2.39,6,2.1-2,2.21-3Z"/><path class="cls-1" d="M189,59.92c0,.89.08,3.13.14,3.94h-3.8a11,11,0,0,1-.17-1.68,4.31,4.31,0,0,1-4.09,2c-3.48,0-4.82-2.78-4.82-5.37,0-3.71,2.55-6,7.14-6,.61,0,1.08,0,1.49,0v-2c0-1.06-.14-2.29-2-2.29s-1.94,1.14-2,2.33h-4c.07-2.67,1.32-5.52,6.17-5.52,3.89,0,5.9,1.77,5.9,5.23Zm-4-4a7.84,7.84,0,0,0-1.35-.08c-2.38,0-3.25,1.11-3.25,2.59a2.09,2.09,0,0,0,2.08,2.35c2.14,0,2.52-1.6,2.52-4.29Z"/><path class="cls-1" d="M192.7,63.86V39h4.18V63.86Z"/><path class="cls-1" d="M200.58,63.86V39h4.18V63.86Z"/><path class="cls-1" d="M211.25,58.38A2.36,2.36,0,0,0,213.6,61c1.39,0,2.05-.73,2.05-1.91s-.58-2-2.72-2.78c-4.27-1.57-5.33-3.07-5.33-5.69s1.56-5.21,5.88-5.21c4.75,0,5.9,3.27,5.91,5.64h-4c0-.64-.08-2.45-2-2.45a1.58,1.58,0,0,0-1.71,1.7c0,1.15.66,1.68,2.82,2.48,3.83,1.42,5.28,2.88,5.28,5.81,0,3.56-2.23,5.6-6.33,5.6-4.34,0-6.27-2.58-6.28-5.8Z"/><path class="cls-1" d="M233.15,39v8.49a4.21,4.21,0,0,1,4.07-2.09c3,0,4.51,2,4.51,5.66v12.8h-4.19v-12c0-1.78-.32-2.91-2.09-2.91s-2.3,1.4-2.3,3.8V63.86H229V39Z"/><path class="cls-1" d="M258.21,54.65c0,6.58-2.42,9.56-6.87,9.56s-6.75-2.85-6.75-9.46c0-6.42,2.7-9.32,7-9.32S258.21,48.59,258.21,54.65Zm-9.4.07c0,3.89.65,6,2.65,6S254,58.63,254,54.77,253.32,49,251.43,49,248.81,50.84,248.81,54.72Z"/><path class="cls-1" d="M259.25,45.74h2.38V41.22h4.18v4.52h2.79v3.43h-2.79v9.92c0,1,.19,1.65,1.49,1.65a5.44,5.44,0,0,0,1-.07v3.07a7.2,7.2,0,0,1-2.55.37c-2.9,0-4.15-1.07-4.15-4.33V49.17h-2.38Z"/><path class="cls-1" d="M274.12,55.89c0,2.3.28,4.86,2.6,4.86a2.37,2.37,0,0,0,2.43-2.39h4a6.11,6.11,0,0,1-6.49,5.85c-5.87,0-6.69-4.94-6.69-9.52,0-5.75,2.18-9.26,6.77-9.26,5.26,0,6.55,3.94,6.55,8.67,0,.63,0,1.48-.07,1.79Zm5-3c0-1.77-.2-4-2.42-4-2.4,0-2.54,2.7-2.55,4Z"/><path class="cls-1" d="M286.11,63.86V39h4.19V63.86Z"/><path class="cls-1" d="M151.68,81v19.83c0,2.14,0,4,0,5h-4a18.71,18.71,0,0,1-.13-1.92c-.53,1.28-1.62,2.24-4,2.24-3.82,0-5.34-3.44-5.34-9.53,0-5.55,1.81-9.22,6-9.22,2,0,2.9.73,3.26,1.43V81Zm-9.23,15.72c0,4.2.76,5.93,2.53,5.93,2.17,0,2.64-1.69,2.64-6.07,0-4.18-.33-5.59-2.46-5.59C143.46,91,142.45,92.28,142.45,96.72Z"/><path class="cls-1" d="M155.32,87.74h4.19v18.12h-4.19Zm0-6.74h4.19v4.13h-4.19Z"/><path class="cls-1" d="M163.23,93.88c0-3,0-4.84,0-6.14h4a26.82,26.82,0,0,1,.1,3A4.62,4.62,0,0,1,172,87.44v4.68c-3-.06-4.62.81-4.62,4.23v9.51h-4.19Z"/><path class="cls-1" d="M177.56,97.89c0,2.3.28,4.86,2.6,4.86a2.36,2.36,0,0,0,2.42-2.39h4a6.11,6.11,0,0,1-6.49,5.85c-5.88,0-6.69-4.94-6.69-9.52,0-5.75,2.18-9.26,6.77-9.26,5.26,0,6.55,3.94,6.55,8.67,0,.63,0,1.48-.07,1.79Zm5-3c0-1.77-.2-4-2.42-4-2.4,0-2.54,2.7-2.55,4Z"/><path class="cls-1" d="M201.84,99.73c-.07,1.45-.4,6.45-6.38,6.45-5.19,0-6.48-4.16-6.48-9.53,0-4.8,1.58-9.25,6.7-9.25,5.94,0,6.13,5.13,6.16,6.23h-4.22c0-.7-.11-2.77-2-2.77s-2.45,2.06-2.45,5.82.58,6,2.39,6c2,0,2.1-2,2.21-3Z"/><path class="cls-1" d="M203.19,87.74h2.37V83.22h4.18v4.52h2.8v3.43h-2.8v9.92c0,1,.19,1.65,1.49,1.65a5.44,5.44,0,0,0,1-.07v3.07a7.16,7.16,0,0,1-2.55.37c-2.9,0-4.15-1.07-4.15-4.33V91.17h-2.37Z"/><path class="cls-1" d="M214.75,105.86V81h4.18v24.86Z"/><path class="cls-1" d="M225.36,87.74c1.32,5.83,2.59,10.78,2.81,13h0c.41-2.58,1.62-7.87,2.84-13h4.2L230,106.68c-1.55,5.64-3.57,6-6.09,6a9.29,9.29,0,0,1-1.64-.13V109a11.55,11.55,0,0,0,1.3.07c1.6,0,2.16-.8,2.63-3l-5.44-18.36Z"/><path class="cls-1" d="M540.74,151.47h-3.23c-.1-.72-.17-1.25-.21-2-1,1.87-2.7,2.42-4.7,2.42-5,0-6.73-4.4-6.73-12.1,0-8.65,2.91-12.37,8-12.37,6.42,0,6.77,5.5,6.84,6.91h-4.19c-.07-1-.27-3.32-2.78-3.32-2.73,0-3.49,3.64-3.49,8.77,0,5.52.65,8.55,3.35,8.55,2.25,0,2.93-1.72,2.93-5.21v-1.33h-3.19v-3.61h7.4Z"/><path class="cls-1" d="M556.81,146.15c0,2.64,0,4.4,0,5.32h-4a17.46,17.46,0,0,1-.16-2,4,4,0,0,1-4,2.29c-2.57,0-4.53-1.27-4.53-5.43v-13h4.19v12.06c0,1.79.37,2.79,1.89,2.79s2.42-.86,2.42-3.73V133.36h4.19Z"/><path class="cls-1" d="M563.8,143.5c0,2.3.28,4.86,2.6,4.86a2.36,2.36,0,0,0,2.42-2.39h4a6.09,6.09,0,0,1-6.48,5.85c-5.88,0-6.7-4.94-6.7-9.52,0-5.75,2.19-9.26,6.78-9.26,5.26,0,6.54,3.94,6.54,8.67,0,.63,0,1.48-.06,1.79Zm5-3c0-1.77-.21-4-2.42-4-2.4,0-2.55,2.7-2.56,4Z"/><path class="cls-1" d="M578.91,146a2.36,2.36,0,0,0,2.35,2.62,1.78,1.78,0,0,0,2-1.92c0-1.28-.57-2-2.72-2.78-4.27-1.57-5.32-3.07-5.32-5.69,0-2.47,1.55-5.21,5.87-5.21,4.76,0,5.91,3.27,5.91,5.65h-4c0-.65-.07-2.46-2-2.46a1.58,1.58,0,0,0-1.71,1.7c0,1.15.66,1.68,2.83,2.48,3.83,1.42,5.28,2.88,5.28,5.81,0,3.56-2.23,5.6-6.34,5.6-4.33,0-6.26-2.58-6.28-5.8Z"/><path class="cls-1" d="M588.37,133.36h2.38v-4.53h4.18v4.53h2.79v3.43h-2.79v9.91c0,1.05.19,1.65,1.49,1.65a4.72,4.72,0,0,0,1-.07v3.07a7.16,7.16,0,0,1-2.55.37c-2.9,0-4.15-1.07-4.15-4.33v-10.6h-2.38Z"/><path class="cls-1" d="M618.49,145.34c-.07,1.45-.4,6.45-6.38,6.45-5.19,0-6.48-4.15-6.48-9.53,0-4.8,1.59-9.25,6.7-9.25,5.94,0,6.13,5.14,6.16,6.23h-4.22c0-.7-.11-2.77-2-2.77s-2.45,2.06-2.45,5.82.58,6,2.4,6,2.1-2,2.21-3Z"/><path class="cls-1" d="M625.23,126.61v8.49A4.21,4.21,0,0,1,629.3,133c3,0,4.51,2,4.51,5.66v12.8h-4.19v-12c0-1.77-.31-2.91-2.09-2.91s-2.3,1.4-2.3,3.8v11.07h-4.18V126.61Z"/><path class="cls-1" d="M650.29,142.26c0,6.58-2.41,9.56-6.86,9.56s-6.75-2.85-6.75-9.46c0-6.42,2.69-9.32,7-9.32S650.29,136.2,650.29,142.26Zm-9.39.07c0,3.89.65,6,2.64,6s2.53-2.09,2.53-5.94c0-4-.67-5.82-2.56-5.82S640.9,138.45,640.9,142.33Z"/><path class="cls-1" d="M666.07,142.26c0,6.58-2.41,9.56-6.86,9.56s-6.75-2.85-6.75-9.46c0-6.42,2.7-9.32,7-9.32S666.07,136.2,666.07,142.26Zm-9.39.07c0,3.89.65,6,2.65,6s2.52-2.09,2.52-5.94c0-4-.66-5.82-2.55-5.82S656.68,138.45,656.68,142.33Z"/><path class="cls-1" d="M672,146a2.37,2.37,0,0,0,2.35,2.62,1.78,1.78,0,0,0,2-1.92c0-1.28-.58-2-2.72-2.78-4.27-1.57-5.33-3.07-5.33-5.69,0-2.47,1.56-5.21,5.88-5.21,4.76,0,5.91,3.27,5.91,5.65h-4c0-.65-.07-2.46-2-2.46a1.58,1.58,0,0,0-1.71,1.7c0,1.15.66,1.68,2.83,2.48,3.82,1.42,5.28,2.88,5.28,5.81,0,3.56-2.23,5.6-6.34,5.6-4.33,0-6.26-2.58-6.28-5.8Z"/><path class="cls-1" d="M686.64,143.5c0,2.3.29,4.86,2.6,4.86a2.37,2.37,0,0,0,2.43-2.39h4a6.1,6.1,0,0,1-6.49,5.85c-5.87,0-6.69-4.94-6.69-9.52,0-5.75,2.18-9.26,6.78-9.26,5.25,0,6.54,3.94,6.54,8.67,0,.63,0,1.48-.07,1.79Zm5.05-3c0-1.77-.21-4-2.43-4-2.4,0-2.54,2.7-2.55,4Z"/><path class="cls-1" d="M701.75,146a2.37,2.37,0,0,0,2.35,2.62,1.78,1.78,0,0,0,2-1.92c0-1.28-.58-2-2.72-2.78-4.27-1.57-5.33-3.07-5.33-5.69,0-2.47,1.56-5.21,5.88-5.21,4.75,0,5.9,3.27,5.91,5.65h-4c0-.65-.08-2.46-2-2.46a1.58,1.58,0,0,0-1.71,1.7c0,1.15.66,1.68,2.82,2.48,3.83,1.42,5.28,2.88,5.28,5.81,0,3.56-2.23,5.6-6.33,5.6-4.34,0-6.27-2.58-6.28-5.8Z"/><path class="cls-1" d="M496,181.5c0-3,0-4.85,0-6.14h4a29.54,29.54,0,0,1,.1,3,4.62,4.62,0,0,1,4.75-3.29v4.69c-3-.07-4.63.8-4.63,4.23v9.5H496Z"/><path class="cls-1" d="M510.32,185.5c0,2.3.28,4.86,2.6,4.86a2.36,2.36,0,0,0,2.42-2.39h4a6.09,6.09,0,0,1-6.48,5.85c-5.88,0-6.7-4.94-6.7-9.52,0-5.75,2.19-9.26,6.78-9.26,5.26,0,6.54,3.94,6.54,8.67,0,.63,0,1.48-.06,1.79Zm5-3c0-1.77-.21-4-2.42-4-2.4,0-2.55,2.7-2.56,4Z"/><path class="cls-1" d="M525.43,188a2.36,2.36,0,0,0,2.35,2.62,1.78,1.78,0,0,0,2-1.92c0-1.28-.57-2-2.72-2.78-4.27-1.57-5.32-3.07-5.32-5.69,0-2.47,1.55-5.21,5.87-5.21,4.76,0,5.91,3.27,5.91,5.65h-4c0-.65-.07-2.46-2-2.46a1.58,1.58,0,0,0-1.71,1.7c0,1.15.66,1.68,2.83,2.48,3.83,1.42,5.28,2.88,5.28,5.81,0,3.56-2.23,5.6-6.34,5.6-4.33,0-6.26-2.58-6.28-5.8Z"/><path class="cls-1" d="M540.07,185.5c0,2.3.28,4.86,2.6,4.86a2.36,2.36,0,0,0,2.42-2.39h4a6.09,6.09,0,0,1-6.48,5.85c-5.88,0-6.7-4.94-6.7-9.52,0-5.75,2.18-9.26,6.78-9.26,5.25,0,6.54,3.94,6.54,8.67,0,.63,0,1.48-.06,1.79Zm5-3c0-1.77-.21-4-2.43-4-2.39,0-2.54,2.7-2.55,4Z"/><path class="cls-1" d="M552.06,181.5c0-3,0-4.85,0-6.14h4a29.54,29.54,0,0,1,.1,3,4.62,4.62,0,0,1,4.75-3.29v4.69c-3-.07-4.63.8-4.63,4.23v9.5h-4.18Z"/><path class="cls-1" d="M566.66,175.36c1.13,5.14,2.34,10.73,2.74,13.76h0c.33-2.79,1.85-8.56,2.95-13.76h4.18l-5.07,18.11H567l-4.8-18.11Z"/><path class="cls-1" d="M590,189.53c0,.89.07,3.13.14,3.94h-3.8a10.91,10.91,0,0,1-.17-1.68,4.33,4.33,0,0,1-4.09,2c-3.48,0-4.82-2.78-4.82-5.37,0-3.71,2.54-6,7.14-6,.61,0,1.07,0,1.48,0v-2c0-1.05-.13-2.29-1.94-2.29s-1.94,1.14-2,2.33h-4c.07-2.66,1.32-5.52,6.16-5.52,3.89,0,5.91,1.77,5.91,5.23Zm-4-4a7.84,7.84,0,0,0-1.35-.08c-2.38,0-3.25,1.11-3.25,2.59a2.09,2.09,0,0,0,2.08,2.35c2.14,0,2.52-1.6,2.52-4.28Z"/><path class="cls-1" d="M591.73,175.36h2.38v-4.53h4.18v4.53h2.79v3.43h-2.79v9.91c0,1.05.19,1.65,1.49,1.65a4.72,4.72,0,0,0,1-.07v3.07a7.2,7.2,0,0,1-2.55.37c-2.9,0-4.15-1.07-4.15-4.33v-10.6h-2.38Z"/><path class="cls-1" d="M603.33,175.36h4.18v18.11h-4.18Zm0-6.75h4.19v4.13h-4.19Z"/><path class="cls-1" d="M624,184.26c0,6.58-2.42,9.56-6.87,9.56s-6.74-2.85-6.74-9.46c0-6.42,2.69-9.32,7-9.32S624,178.2,624,184.26Zm-9.39.07c0,3.89.65,6,2.64,6s2.53-2.09,2.53-5.94c0-4-.67-5.82-2.56-5.82S614.65,180.45,614.65,184.33Z"/><path class="cls-1" d="M626.89,181c0-3.72,0-4.68,0-5.63h4a15.52,15.52,0,0,1,.13,1.88,4.21,4.21,0,0,1,4-2.23c3,0,4.64,1.87,4.64,5.54v12.92h-4.19v-12c0-1.8-.36-2.9-2-2.9s-2.35.89-2.35,3.65v11.22h-4.18Z"/><path class="cls-1" d="M654,192.08V200h-4.18V180.59c0-2.44,0-4.09,0-5.23h4a14.74,14.74,0,0,1,.13,2A4,4,0,0,1,658,175c3.36,0,5.29,2.9,5.29,9.07,0,7.09-2.35,9.71-5.85,9.71A3.56,3.56,0,0,1,654,192.08Zm5.08-7.77c0-4.34-.9-5.71-2.68-5.71-2.1,0-2.53,2-2.53,5.54,0,4.15.22,6.12,2.51,6.12C658.19,190.26,659.07,188.31,659.07,184.31Z"/><path class="cls-1" d="M666.16,181.5c0-3,0-4.85,0-6.14h4a25,25,0,0,1,.11,3,4.61,4.61,0,0,1,4.74-3.29v4.69c-3-.07-4.62.8-4.62,4.23v9.5h-4.18Z"/><path class="cls-1" d="M689.94,184.26c0,6.58-2.41,9.56-6.86,9.56s-6.75-2.85-6.75-9.46c0-6.42,2.7-9.32,7-9.32S689.94,178.2,689.94,184.26Zm-9.39.07c0,3.89.65,6,2.65,6s2.52-2.09,2.52-5.94c0-4-.66-5.82-2.55-5.82S680.55,180.45,680.55,184.33Z"/><path class="cls-1" d="M692.82,180.79c0-3.58,0-4.65,0-5.43h4a13.09,13.09,0,0,1,.13,1.84,4.32,4.32,0,0,1,4-2.16,3.49,3.49,0,0,1,3.67,2.46A4.81,4.81,0,0,1,709,175c2.58,0,4.59,1.32,4.59,5.44v13h-4.12V181.1c0-1.44-.47-2.5-1.92-2.5-1.7,0-2.25,1.29-2.25,3.52v11.35h-4.15v-12.3c0-1.66-.56-2.54-1.91-2.54-1.67,0-2.29,1.16-2.29,3.6v11.24h-4.15Z"/><path class="cls-1" d="M721.47,192.08V200h-4.18V180.59c0-2.44,0-4.09,0-5.23h4a14.74,14.74,0,0,1,.13,2,4,4,0,0,1,4.06-2.3c3.36,0,5.3,2.9,5.3,9.07,0,7.09-2.35,9.71-5.85,9.71A3.56,3.56,0,0,1,721.47,192.08Zm5.08-7.77c0-4.34-.91-5.71-2.68-5.71-2.1,0-2.53,2-2.53,5.54,0,4.15.22,6.12,2.5,6.12C725.67,190.26,726.55,188.31,726.55,184.31Z"/><path class="cls-1" d="M731.83,175.36h2.38v-4.53h4.18v4.53h2.79v3.43h-2.79v9.91c0,1.05.19,1.65,1.49,1.65a4.72,4.72,0,0,0,1-.07v3.07a7.16,7.16,0,0,1-2.55.37c-2.9,0-4.15-1.07-4.15-4.33v-10.6h-2.38Z"/><path class="cls-1" d="M72.76,302.65v10.1H68.54V289.07H75.8c4.3,0,6.74,2.24,6.74,6.47,0,3.42-1.83,4.9-3.07,5.39,1.83.86,2.7,2.42,2.7,5.92v.94a28,28,0,0,0,.32,5h-4.1a19.34,19.34,0,0,1-.41-5v-.86c0-3.17-.73-4.24-3.4-4.24Zm0-3.43h2c2.56,0,3.56-1.1,3.56-3.5,0-2-1-3.22-3.14-3.22H72.76Z"/><path class="cls-1" d="M88.92,304.78c0,2.3.28,4.86,2.6,4.86a2.36,2.36,0,0,0,2.42-2.39h4a6.09,6.09,0,0,1-6.49,5.85c-5.87,0-6.69-4.94-6.69-9.52,0-5.75,2.18-9.26,6.78-9.26,5.25,0,6.54,3.94,6.54,8.66,0,.64,0,1.49-.06,1.8Zm5-3c0-1.76-.21-4-2.43-4-2.39,0-2.54,2.69-2.55,4Z"/><path class="cls-1" d="M104,307.27a2.36,2.36,0,0,0,2.35,2.61c1.39,0,2-.73,2-1.91s-.58-2-2.72-2.78c-4.27-1.57-5.32-3.07-5.32-5.7,0-2.46,1.55-5.2,5.87-5.2,4.76,0,5.91,3.27,5.91,5.64h-4c0-.64-.07-2.45-2-2.45a1.58,1.58,0,0,0-1.71,1.7c0,1.15.66,1.68,2.83,2.48,3.82,1.42,5.28,2.87,5.28,5.81,0,3.56-2.23,5.6-6.34,5.6-4.33,0-6.26-2.58-6.28-5.8Z"/><path class="cls-1" d="M118.67,304.78c0,2.3.28,4.86,2.6,4.86a2.36,2.36,0,0,0,2.42-2.39h4a6.1,6.1,0,0,1-6.49,5.85c-5.87,0-6.69-4.94-6.69-9.52,0-5.75,2.18-9.26,6.78-9.26,5.25,0,6.54,3.94,6.54,8.66,0,.64,0,1.49-.06,1.8Zm5-3c0-1.76-.21-4-2.43-4-2.4,0-2.54,2.69-2.55,4Z"/><path class="cls-1" d="M130.66,300.77c0-3,0-4.85,0-6.14h4c0,.32.1,1.07.1,3a4.6,4.6,0,0,1,4.74-3.29V299c-3-.06-4.62.81-4.62,4.23v9.51h-4.18Z"/><path class="cls-1" d="M145.26,294.63c1.12,5.15,2.33,10.74,2.74,13.77h0c.33-2.79,1.84-8.56,3-13.77h4.18l-5.07,18.12h-4.51l-4.8-18.12Z"/><path class="cls-1" d="M168.59,308.81c0,.89.07,3.13.14,3.94h-3.8a9.83,9.83,0,0,1-.18-1.68,4.31,4.31,0,0,1-4.08,2c-3.49,0-4.83-2.78-4.83-5.38,0-3.71,2.55-5.95,7.15-5.95.61,0,1.07,0,1.48,0v-2c0-1.06-.13-2.29-1.95-2.29s-1.94,1.14-2,2.33h-4c.07-2.67,1.32-5.52,6.17-5.52,3.89,0,5.91,1.77,5.91,5.23Zm-4-4a7.9,7.9,0,0,0-1.35-.08c-2.39,0-3.25,1.11-3.25,2.59a2.09,2.09,0,0,0,2.08,2.35c2.13,0,2.52-1.6,2.52-4.29Z"/><path class="cls-1" d="M170.33,294.63h2.38v-4.52h4.17v4.52h2.8v3.43h-2.8V308c0,1,.19,1.65,1.5,1.65a4.73,4.73,0,0,0,1-.08v3.08a7.22,7.22,0,0,1-2.56.37c-2.89,0-4.14-1.07-4.14-4.33V298.06h-2.38Z"/><path class="cls-1" d="M181.93,294.63h4.18v18.12h-4.18Zm0-6.74h4.18V292H182Z"/><path class="cls-1" d="M202.64,303.54c0,6.57-2.42,9.56-6.87,9.56s-6.75-2.85-6.75-9.46c0-6.42,2.7-9.32,7-9.32S202.64,297.47,202.64,303.54Zm-9.4.07c0,3.89.66,6,2.65,6s2.53-2.09,2.53-5.95-.67-5.82-2.56-5.82S193.24,299.73,193.24,303.61Z"/><path class="cls-1" d="M205.49,300.27c0-3.72,0-4.69,0-5.64h4a13.7,13.7,0,0,1,.14,1.89,4.18,4.18,0,0,1,4-2.23c2.95,0,4.64,1.87,4.64,5.54v12.92h-4.19v-12c0-1.8-.36-2.9-2.05-2.9s-2.34.89-2.34,3.65v11.22h-4.18Z"/><path class="cls-1" d="M232.59,311.36v7.93h-4.18V299.87c0-2.44,0-4.09,0-5.24h4a17,17,0,0,1,.13,2,4,4,0,0,1,4.06-2.3c3.36,0,5.3,2.89,5.3,9.07,0,7.09-2.35,9.71-5.85,9.71A3.56,3.56,0,0,1,232.59,311.36Zm5.08-7.78c0-4.33-.91-5.7-2.68-5.7-2.1,0-2.53,2-2.53,5.54,0,4.15.22,6.12,2.5,6.12C236.79,309.54,237.67,307.58,237.67,303.58Z"/><path class="cls-1" d="M244.75,300.77c0-3,0-4.85,0-6.14h4a26.82,26.82,0,0,1,.1,3,4.62,4.62,0,0,1,4.75-3.29V299c-3-.06-4.62.81-4.62,4.23v9.51h-4.19Z"/><path class="cls-1" d="M268.54,303.54c0,6.57-2.41,9.56-6.86,9.56s-6.75-2.85-6.75-9.46c0-6.42,2.69-9.32,7-9.32S268.54,297.47,268.54,303.54Zm-9.39.07c0,3.89.65,6,2.64,6s2.53-2.09,2.53-5.95-.67-5.82-2.56-5.82S259.15,299.73,259.15,303.61Z"/><path class="cls-1" d="M271.42,300.07c0-3.58,0-4.65,0-5.44h4a13.36,13.36,0,0,1,.13,1.85,4.31,4.31,0,0,1,4-2.16,3.5,3.5,0,0,1,3.67,2.46,4.8,4.8,0,0,1,4.45-2.46c2.57,0,4.59,1.31,4.59,5.44v13h-4.12V300.38c0-1.45-.47-2.5-1.92-2.5-1.7,0-2.25,1.28-2.25,3.52v11.35h-4.15v-12.3c0-1.66-.56-2.54-1.91-2.54-1.68,0-2.29,1.16-2.29,3.6v11.24h-4.15Z"/><path class="cls-1" d="M300.07,311.36v7.93h-4.18V299.87c0-2.44,0-4.09,0-5.24h4a17,17,0,0,1,.13,2,4,4,0,0,1,4.06-2.3c3.36,0,5.3,2.89,5.3,9.07,0,7.09-2.35,9.71-5.85,9.71A3.56,3.56,0,0,1,300.07,311.36Zm5.08-7.78c0-4.33-.91-5.7-2.68-5.7-2.11,0-2.53,2-2.53,5.54,0,4.15.22,6.12,2.5,6.12C304.27,309.54,305.15,307.58,305.15,303.58Z"/><path class="cls-1" d="M310.43,294.63h2.38v-4.52H317v4.52h2.79v3.43H317V308c0,1,.19,1.65,1.49,1.65a4.68,4.68,0,0,0,1-.08v3.08A7.2,7.2,0,0,1,317,313c-2.9,0-4.15-1.07-4.15-4.33V298.06h-2.38Z"/><path class="cls-1" d="M52.33,336.63h2.38v-4.52h4.17v4.52h2.8v3.43h-2.8V350c0,1,.2,1.65,1.5,1.65a4.73,4.73,0,0,0,1-.08v3.08a7.22,7.22,0,0,1-2.56.37c-2.89,0-4.14-1.07-4.14-4.33V340.06H52.33Z"/><path class="cls-1" d="M63.9,342.77c0-3,0-4.85,0-6.14h4c0,.32.1,1.07.1,3a4.6,4.6,0,0,1,4.74-3.29V341c-3-.06-4.62.81-4.62,4.23v9.51H63.9Z"/><path class="cls-1" d="M86.43,350.81c0,.89.07,3.13.14,3.94h-3.8a9.83,9.83,0,0,1-.18-1.68,4.31,4.31,0,0,1-4.08,2c-3.49,0-4.83-2.78-4.83-5.38,0-3.71,2.55-5.95,7.15-5.95.61,0,1.07,0,1.48,0v-2c0-1.06-.13-2.29-2-2.29s-1.94,1.14-2,2.33h-4c.07-2.67,1.33-5.52,6.17-5.52,3.89,0,5.91,1.77,5.91,5.23Zm-4-4a7.9,7.9,0,0,0-1.35-.08c-2.38,0-3.25,1.11-3.25,2.59a2.09,2.09,0,0,0,2.08,2.35c2.13,0,2.52-1.6,2.52-4.29Z"/><path class="cls-1" d="M90.15,342.27c0-3.72,0-4.69,0-5.64h4a15.7,15.7,0,0,1,.13,1.89,4.21,4.21,0,0,1,4-2.23c3,0,4.64,1.87,4.64,5.54v12.92H98.72v-12c0-1.8-.36-2.9-2-2.9s-2.35.89-2.35,3.65v11.22H90.15Z"/><path class="cls-1" d="M109.54,349.27a2.35,2.35,0,0,0,2.35,2.61,1.78,1.78,0,0,0,2-1.91c0-1.28-.57-2-2.72-2.78-4.27-1.57-5.32-3.07-5.32-5.7,0-2.46,1.55-5.2,5.87-5.2,4.76,0,5.91,3.27,5.91,5.64h-4c0-.64-.07-2.45-2-2.45a1.57,1.57,0,0,0-1.7,1.7c0,1.15.65,1.68,2.82,2.48,3.83,1.42,5.28,2.87,5.28,5.81,0,3.56-2.23,5.6-6.34,5.6-4.33,0-6.26-2.58-6.28-5.8Z"/><path class="cls-1" d="M121.38,354.75V340.06h-2.12v-3.43h2.12v-1.76c0-3,1.37-5.22,5-5.22a7.66,7.66,0,0,1,1.72.2v3.5a4.46,4.46,0,0,0-1-.11c-1.2,0-1.52.68-1.52,1.92v1.47h2.57v3.43h-2.57v14.69Z"/><path class="cls-1" d="M133.21,346.78c0,2.3.28,4.86,2.6,4.86a2.36,2.36,0,0,0,2.42-2.39h4a6.09,6.09,0,0,1-6.48,5.85c-5.88,0-6.7-4.94-6.7-9.52,0-5.75,2.18-9.26,6.78-9.26,5.26,0,6.54,3.94,6.54,8.66,0,.64,0,1.49-.06,1.8Zm5-3c0-1.76-.21-4-2.43-4-2.39,0-2.54,2.69-2.55,4Z"/><path class="cls-1" d="M145.2,342.77c0-3,0-4.85,0-6.14h4c0,.32.1,1.07.1,3a4.61,4.61,0,0,1,4.75-3.29V341c-3-.06-4.63.81-4.63,4.23v9.51H145.2Z"/><path class="cls-1" d="M159.41,349.27a2.35,2.35,0,0,0,2.35,2.61,1.77,1.77,0,0,0,2-1.91c0-1.28-.57-2-2.71-2.78-4.27-1.57-5.33-3.07-5.33-5.7,0-2.46,1.55-5.2,5.88-5.2,4.75,0,5.9,3.27,5.91,5.64h-4c0-.64-.08-2.45-2-2.45a1.58,1.58,0,0,0-1.71,1.7c0,1.15.65,1.68,2.82,2.48,3.83,1.42,5.28,2.87,5.28,5.81,0,3.56-2.23,5.6-6.34,5.6-4.33,0-6.26-2.58-6.27-5.8Z"/><path class="cls-1" d="M189.79,353.29c0,5.14-1.49,8.28-7,8.28-5.16,0-6.25-3-6.36-5.24h4.16c.07.55.27,1.84,2.36,1.84,2.26,0,2.69-1.71,2.69-4.88v-.82a3.92,3.92,0,0,1-3.88,2.16c-3.85,0-5.49-3.39-5.49-8.73,0-6.2,2.23-9.58,5.88-9.58,2.38,0,3.2,1.13,3.49,1.91,0-.54.1-1.16.16-1.6h4c0,1.12-.06,2.93-.06,5.46Zm-9.21-7.51c0,3.73.9,5.32,2.6,5.32,2.1,0,2.55-2,2.55-5.89,0-3.25-.16-5.33-2.43-5.33C181.55,339.88,180.58,341.7,180.58,345.78Z"/><path class="cls-1" d="M206,349.43c0,2.64,0,4.39,0,5.32h-4a17.59,17.59,0,0,1-.17-2,3.94,3.94,0,0,1-4,2.3c-2.58,0-4.53-1.27-4.53-5.43v-13h4.19v12.06c0,1.79.37,2.79,1.89,2.79s2.42-.85,2.42-3.73V336.63H206Z"/><path class="cls-1" d="M213,346.78c0,2.3.28,4.86,2.6,4.86a2.36,2.36,0,0,0,2.42-2.39h4a6.09,6.09,0,0,1-6.49,5.85c-5.87,0-6.69-4.94-6.69-9.52,0-5.75,2.18-9.26,6.78-9.26,5.25,0,6.54,3.94,6.54,8.66,0,.64,0,1.49-.06,1.8Zm5-3c0-1.76-.21-4-2.43-4-2.4,0-2.54,2.69-2.55,4Z"/><path class="cls-1" d="M228.11,349.27a2.36,2.36,0,0,0,2.35,2.61c1.39,0,2-.73,2-1.91s-.58-2-2.72-2.78c-4.27-1.57-5.33-3.07-5.33-5.7,0-2.46,1.56-5.2,5.88-5.2,4.76,0,5.91,3.27,5.91,5.64h-4c0-.64-.07-2.45-2-2.45a1.58,1.58,0,0,0-1.71,1.7c0,1.15.66,1.68,2.83,2.48,3.82,1.42,5.28,2.87,5.28,5.81,0,3.56-2.23,5.6-6.34,5.6-4.33,0-6.26-2.58-6.28-5.8Z"/><path class="cls-1" d="M237.58,336.63H240v-4.52h4.17v4.52h2.8v3.43h-2.8V350c0,1,.2,1.65,1.5,1.65a4.73,4.73,0,0,0,1-.08v3.08a7.22,7.22,0,0,1-2.56.37c-2.89,0-4.14-1.07-4.14-4.33V340.06h-2.38Z"/><path class="cls-1" d="M253.68,336.63h2.38v-4.52h4.17v4.52H263v3.43h-2.8V350c0,1,.19,1.65,1.5,1.65a4.73,4.73,0,0,0,1-.08v3.08a7.22,7.22,0,0,1-2.56.37c-2.89,0-4.14-1.07-4.14-4.33V340.06h-2.38Z"/><path class="cls-1" d="M278,345.54c0,6.57-2.42,9.56-6.87,9.56s-6.75-2.85-6.75-9.46c0-6.42,2.7-9.32,7-9.32S278,339.47,278,345.54Zm-9.4.07c0,3.89.65,6,2.65,6s2.53-2.09,2.53-5.95-.67-5.82-2.56-5.82S268.61,341.73,268.61,345.61Z"/><path class="cls-1" d="M301.39,347.86c-.1,1.19-.56,7.3-7.13,7.3-6.73,0-7.51-5.92-7.51-12.28,0-7.67,2.25-12.19,7.76-12.19,6.28,0,6.77,5.39,6.87,7.28h-4.2c-.06-.8-.12-3.68-2.73-3.68s-3.31,3.26-3.31,8.68c0,4.46.44,8.65,3.19,8.65,2.53,0,2.73-2.86,2.84-3.76Z"/><path class="cls-1" d="M315.82,344.22h-7.6v6.88h8.53l-.52,3.65H304V331.07h12.15v3.71h-8v5.76h7.6Z"/><path class="cls-1" d="M333.35,347.86c-.11,1.19-.56,7.3-7.13,7.3-6.74,0-7.51-5.92-7.51-12.28,0-7.67,2.25-12.19,7.76-12.19,6.28,0,6.77,5.39,6.86,7.28h-4.19c-.07-.8-.12-3.68-2.74-3.68s-3.31,3.26-3.31,8.68c0,4.46.45,8.65,3.2,8.65,2.52,0,2.73-2.86,2.83-3.76Z"/><path class="cls-1" d="M490.5,391.19c-.1,1.2-.55,7.3-7.13,7.3-6.73,0-7.5-5.91-7.5-12.28,0-7.67,2.25-12.19,7.76-12.19,6.28,0,6.77,5.39,6.86,7.29H486.3c-.07-.81-.12-3.69-2.74-3.69s-3.31,3.26-3.31,8.68c0,4.47.45,8.66,3.19,8.66,2.53,0,2.73-2.86,2.84-3.77Z"/><path class="cls-1" d="M504.94,387.56h-7.61v6.88h8.54l-.52,3.64h-12.2V374.4h12.14v3.71h-8v5.77h7.61Z"/><path class="cls-1" d="M522.46,391.19c-.11,1.2-.56,7.3-7.13,7.3-6.73,0-7.51-5.91-7.51-12.28,0-7.67,2.25-12.19,7.76-12.19,6.28,0,6.77,5.39,6.87,7.29h-4.2c-.06-.81-.12-3.69-2.73-3.69s-3.31,3.26-3.31,8.68c0,4.47.44,8.66,3.19,8.66,2.53,0,2.73-2.86,2.83-3.77Z"/><path class="cls-1" d="M531.64,398.08V373.22h4.18v24.86Z"/><path class="cls-1" d="M551.19,394.14c0,.89.08,3.13.14,3.94h-3.79a9.71,9.71,0,0,1-.18-1.68,4.31,4.31,0,0,1-4.09,2c-3.48,0-4.82-2.78-4.82-5.37,0-3.71,2.55-6,7.14-6,.61,0,1.08,0,1.49,0v-2c0-1.05-.14-2.29-2-2.29s-1.94,1.14-2,2.33h-4c.07-2.66,1.32-5.51,6.17-5.51,3.89,0,5.9,1.76,5.9,5.22Zm-4-4a8,8,0,0,0-1.36-.08c-2.38,0-3.24,1.11-3.24,2.59a2.09,2.09,0,0,0,2.08,2.35c2.13,0,2.52-1.59,2.52-4.28Z"/><path class="cls-1" d="M554.91,385.6c0-3.72,0-4.68,0-5.63h4a13.84,13.84,0,0,1,.13,1.88,4.21,4.21,0,0,1,4-2.23c3,0,4.63,1.87,4.63,5.54v12.92h-4.18v-12c0-1.8-.36-2.9-2-2.9s-2.34.89-2.34,3.65v11.22h-4.19Z"/><path class="cls-1" d="M584,373.22v19.83c0,2.14,0,4,0,5h-4a16.26,16.26,0,0,1-.13-1.92c-.53,1.28-1.63,2.24-4,2.24-3.82,0-5.34-3.43-5.34-9.52,0-5.56,1.82-9.22,6-9.22,2,0,2.91.72,3.27,1.42v-7.86Zm-9.23,15.72c0,4.2.75,5.93,2.53,5.93,2.16,0,2.64-1.69,2.64-6.06,0-4.18-.33-5.6-2.46-5.6C575.77,383.21,574.77,384.5,574.77,388.94Z"/><path class="cls-1" d="M587.64,380h4.18v18.11h-4.18Zm0-6.75h4.18v4.13h-4.18Z"/><path class="cls-1" d="M595.55,385.6c0-3.72,0-4.68,0-5.63h4a15.67,15.67,0,0,1,.13,1.88,4.21,4.21,0,0,1,4-2.23c3,0,4.64,1.87,4.64,5.54v12.92h-4.19v-12c0-1.8-.36-2.9-2-2.9s-2.35.89-2.35,3.65v11.22h-4.18Z"/><path class="cls-1" d="M624.67,396.62c0,5.14-1.49,8.29-7,8.29-5.16,0-6.25-3-6.36-5.24h4.16c.07.55.27,1.84,2.36,1.84,2.26,0,2.69-1.72,2.69-4.89v-.81a3.93,3.93,0,0,1-3.88,2.15c-3.85,0-5.49-3.38-5.49-8.72,0-6.21,2.23-9.58,5.88-9.58,2.38,0,3.2,1.12,3.49,1.91,0-.55.1-1.17.16-1.6h4c0,1.11-.06,2.93-.06,5.45Zm-9.21-7.51c0,3.74.9,5.33,2.59,5.33,2.11,0,2.56-2,2.56-5.89,0-3.26-.16-5.34-2.43-5.34C616.43,383.21,615.46,385,615.46,389.11Z"/><path class="cls-1" d="M634.89,385.6c0-3.72,0-4.68,0-5.63h4a15.67,15.67,0,0,1,.13,1.88,4.21,4.21,0,0,1,4-2.23c3,0,4.64,1.87,4.64,5.54v12.92h-4.19v-12c0-1.8-.36-2.9-2-2.9s-2.35.89-2.35,3.65v11.22h-4.18Z"/><path class="cls-1" d="M664,392.76c0,2.64,0,4.4,0,5.32h-4a17.41,17.41,0,0,1-.17-2,4,4,0,0,1-4,2.29c-2.58,0-4.53-1.27-4.53-5.43V380h4.19V392c0,1.79.37,2.79,1.89,2.79s2.42-.85,2.42-3.73V380H664Z"/><path class="cls-1" d="M667.26,385.4c0-3.58,0-4.65,0-5.43h4a13.09,13.09,0,0,1,.13,1.84,4.3,4.3,0,0,1,4-2.15,3.52,3.52,0,0,1,3.68,2.45,4.78,4.78,0,0,1,4.45-2.45c2.57,0,4.58,1.31,4.58,5.43v13h-4.12V385.71c0-1.44-.46-2.5-1.92-2.5-1.7,0-2.24,1.29-2.24,3.52v11.35h-4.15v-12.3c0-1.66-.56-2.54-1.91-2.54-1.68,0-2.29,1.16-2.29,3.6v11.24h-4.15Z"/><path class="cls-1" d="M691.73,373.22h4.18v8.55a4.21,4.21,0,0,1,4-2.11c3.71,0,5.29,3.26,5.29,8.88s-1.41,9.86-5.84,9.86a3.58,3.58,0,0,1-3.62-2.07c0,.42,0,1.23-.07,1.75h-4c0-1.2,0-3.26,0-5.09ZM701,388.61c0-3.5-.5-5.4-2.54-5.4s-2.7,1.48-2.7,5.91c0,4.24.59,5.75,2.54,5.75S701,393,701,388.61Z"/><path class="cls-1" d="M711.51,390.11c0,2.3.28,4.86,2.6,4.86a2.37,2.37,0,0,0,2.43-2.39h4a6.1,6.1,0,0,1-6.49,5.85c-5.87,0-6.69-4.94-6.69-9.52,0-5.75,2.18-9.25,6.77-9.25,5.26,0,6.55,3.93,6.55,8.66,0,.63,0,1.48-.07,1.79Zm5-3c0-1.77-.2-4-2.42-4-2.4,0-2.54,2.69-2.55,4Z"/><path class="cls-1" d="M723.51,386.11c0-3,0-4.85,0-6.14h4a26.4,26.4,0,0,1,.1,3,4.63,4.63,0,0,1,4.75-3.29v4.69c-3-.07-4.62.8-4.62,4.23v9.5h-4.18Z"/><path class="cls-1" d="M741,380h4.18v18.11H741Zm0-6.75h4.18v4.13h-4.18Z"/><path class="cls-1" d="M751.75,392.6a2.36,2.36,0,0,0,2.35,2.62,1.78,1.78,0,0,0,2-1.92c0-1.28-.57-2-2.71-2.77-4.27-1.58-5.33-3.08-5.33-5.7,0-2.47,1.56-5.21,5.88-5.21,4.75,0,5.9,3.27,5.91,5.65h-4c0-.64-.08-2.46-2-2.46a1.58,1.58,0,0,0-1.71,1.71c0,1.14.66,1.67,2.82,2.48,3.83,1.41,5.28,2.87,5.28,5.8,0,3.56-2.23,5.6-6.34,5.6-4.33,0-6.26-2.58-6.27-5.8Z"/><path class="cls-1" d="M516.83,436.14c0,.89.07,3.13.14,3.94h-3.8a9.71,9.71,0,0,1-.18-1.68,4.31,4.31,0,0,1-4.08,2c-3.49,0-4.83-2.78-4.83-5.37,0-3.71,2.55-6,7.15-6,.61,0,1.07,0,1.48,0v-2c0-1.05-.14-2.29-2-2.29s-1.94,1.14-2,2.33h-4c.07-2.66,1.32-5.51,6.17-5.51,3.89,0,5.91,1.76,5.91,5.22Zm-4-4a8,8,0,0,0-1.36-.08c-2.38,0-3.24,1.11-3.24,2.59a2.09,2.09,0,0,0,2.08,2.35c2.13,0,2.52-1.59,2.52-4.28Z"/><path class="cls-1" d="M525.08,422h2.37v-4.53h4.18V422h2.8v3.43h-2.8v9.91c0,1.05.19,1.65,1.5,1.65a4.77,4.77,0,0,0,1-.07V440a7.25,7.25,0,0,1-2.56.37c-2.9,0-4.15-1.07-4.15-4.33V425.4h-2.37Z"/><path class="cls-1" d="M549.4,430.87c0,6.58-2.41,9.56-6.86,9.56s-6.75-2.85-6.75-9.46c0-6.42,2.7-9.31,7-9.31S549.4,424.81,549.4,430.87Zm-9.39.07c0,3.89.65,6,2.65,6s2.52-2.09,2.52-5.94c0-4-.66-5.82-2.55-5.82S540,427.06,540,430.94Z"/><path class="cls-1" d="M552.25,440.08V415.22h4.19v24.86Z"/><path class="cls-1" d="M560.13,440.08V415.22h4.18v24.86Z"/><path class="cls-1" d="M574.75,429.13v3.61h-7.69v-3.61Z"/><path class="cls-1" d="M577.71,440.08V425.4H575.6V422h2.11V420.2c0-3,1.37-5.22,5-5.22a7.22,7.22,0,0,1,1.73.21v3.5a4.62,4.62,0,0,0-1-.12c-1.2,0-1.52.68-1.52,1.93V422h2.57v3.43h-2.57v14.68Z"/><path class="cls-1" d="M586.41,428.11c0-3,0-4.85,0-6.14h4a29.54,29.54,0,0,1,.1,3,4.62,4.62,0,0,1,4.75-3.29v4.69c-3-.07-4.63.8-4.63,4.23v9.5h-4.18Z"/><path class="cls-1" d="M600.74,432.11c0,2.3.28,4.86,2.6,4.86a2.36,2.36,0,0,0,2.42-2.39h4a6.09,6.09,0,0,1-6.48,5.85c-5.88,0-6.7-4.94-6.7-9.52,0-5.75,2.19-9.25,6.78-9.25,5.26,0,6.54,3.93,6.54,8.66,0,.63,0,1.48-.06,1.79Zm5-3c0-1.77-.21-4-2.42-4-2.4,0-2.55,2.69-2.56,4Z"/><path class="cls-1" d="M616.31,432.11c0,2.3.28,4.86,2.6,4.86a2.37,2.37,0,0,0,2.43-2.39h4a6.1,6.1,0,0,1-6.49,5.85c-5.87,0-6.69-4.94-6.69-9.52,0-5.75,2.18-9.25,6.77-9.25,5.26,0,6.55,3.93,6.55,8.66,0,.63,0,1.48-.07,1.79Zm5-3c0-1.77-.2-4-2.42-4-2.4,0-2.54,2.69-2.55,4Z"/><path class="cls-1" d="M634.81,427.6c0-3.72,0-4.68,0-5.63h4a13.67,13.67,0,0,1,.14,1.88,4.18,4.18,0,0,1,4-2.23c2.95,0,4.64,1.87,4.64,5.54v12.92h-4.19v-12c0-1.8-.36-2.9-2-2.9s-2.34.89-2.34,3.65v11.22h-4.19Z"/><path class="cls-1" d="M663.92,434.76c0,2.64,0,4.4,0,5.32h-4a17.41,17.41,0,0,1-.17-2,4,4,0,0,1-4,2.29c-2.58,0-4.53-1.27-4.53-5.43V422h4.18V434c0,1.79.38,2.79,1.89,2.79s2.42-.85,2.42-3.73V422h4.19Z"/><path class="cls-1" d="M667.19,427.4c0-3.58,0-4.65,0-5.43h4a13.09,13.09,0,0,1,.13,1.84,4.32,4.32,0,0,1,4-2.15,3.52,3.52,0,0,1,3.68,2.45,4.77,4.77,0,0,1,4.44-2.45c2.58,0,4.59,1.31,4.59,5.43v13h-4.12V427.71c0-1.44-.47-2.5-1.92-2.5-1.7,0-2.24,1.29-2.24,3.52v11.35h-4.15v-12.3c0-1.66-.57-2.54-1.92-2.54-1.67,0-2.28,1.16-2.28,3.6v11.24h-4.15Z"/><path class="cls-1" d="M691.66,415.22h4.18v8.55a4.21,4.21,0,0,1,4-2.11c3.71,0,5.29,3.26,5.29,8.88s-1.41,9.86-5.84,9.86a3.58,3.58,0,0,1-3.62-2.07c0,.42,0,1.23-.07,1.75h-4c0-1.2,0-3.26,0-5.09ZM701,430.61c0-3.5-.51-5.4-2.54-5.4s-2.7,1.48-2.7,5.91c0,4.24.58,5.75,2.54,5.75S701,435,701,430.61Z"/><path class="cls-1" d="M711.44,432.11c0,2.3.28,4.86,2.6,4.86a2.37,2.37,0,0,0,2.43-2.39h4a6.11,6.11,0,0,1-6.49,5.85c-5.88,0-6.69-4.94-6.69-9.52,0-5.75,2.18-9.25,6.77-9.25,5.26,0,6.55,3.93,6.55,8.66,0,.63,0,1.48-.07,1.79Zm5-3c0-1.77-.2-4-2.42-4-2.4,0-2.54,2.69-2.55,4Z"/><path class="cls-1" d="M723.43,428.11c0-3,0-4.85,0-6.14h4a26.4,26.4,0,0,1,.1,3,4.62,4.62,0,0,1,4.75-3.29v4.69c-3-.07-4.62.8-4.62,4.23v9.5h-4.19Z"/></g></g></svg>