<svg xmlns="http://www.w3.org/2000/svg" xmlns:xlink="http://www.w3.org/1999/xlink" viewBox="0 0 717.89 536.96"><defs><style>.cls-1{fill:url(#linear-gradient);}</style><linearGradient id="linear-gradient" y1="268.48" x2="717.89" y2="268.48" gradientUnits="userSpaceOnUse"><stop offset="0" stop-color="#5e0094"/><stop offset="1" stop-color="#4a85ff"/></linearGradient></defs><g id="Layer_2" data-name="Layer 2"><g id="Layer_1-2" data-name="Layer 1"><path class="cls-1" d="M75.43,130.07v10.09H71.22V116.48h7.25c4.3,0,6.74,2.25,6.74,6.47,0,3.43-1.83,4.9-3.07,5.39,1.84.86,2.71,2.42,2.71,5.92v.94a26.93,26.93,0,0,0,.32,5H81.06a19.88,19.88,0,0,1-.4-5v-.86c0-3.16-.73-4.23-3.41-4.23Zm0-3.44h2c2.56,0,3.56-1.1,3.56-3.49,0-2-1-3.22-3.14-3.22H75.43Zm16.16,5.56c0,2.3.28,4.86,2.6,4.86a2.36,2.36,0,0,0,2.42-2.39h4a6.11,6.11,0,0,1-6.49,5.85c-5.88,0-6.69-4.94-6.69-9.52,0-5.75,2.18-9.25,6.77-9.25,5.26,0,6.55,3.93,6.55,8.66,0,.63,0,1.48-.07,1.79Zm5-3c0-1.77-.2-4-2.42-4-2.4,0-2.54,2.69-2.55,4Zm10.07,5.51a2.36,2.36,0,0,0,2.35,2.62,1.78,1.78,0,0,0,2-1.92c0-1.28-.57-2-2.71-2.77-4.28-1.58-5.33-3.08-5.33-5.7,0-2.47,1.55-5.21,5.87-5.21,4.76,0,5.91,3.27,5.91,5.65h-4c0-.64-.07-2.46-2-2.46a1.57,1.57,0,0,0-1.7,1.71c0,1.14.65,1.67,2.82,2.48,3.83,1.41,5.28,2.87,5.28,5.8,0,3.56-2.23,5.6-6.34,5.6-4.33,0-6.26-2.58-6.28-5.8Zm14.64-2.49c0,2.3.28,4.86,2.6,4.86a2.36,2.36,0,0,0,2.42-2.39h4a6.09,6.09,0,0,1-6.48,5.85c-5.88,0-6.7-4.94-6.7-9.52,0-5.75,2.19-9.25,6.78-9.25,5.26,0,6.54,3.93,6.54,8.66,0,.63,0,1.48-.06,1.79Zm5-3c0-1.77-.21-4-2.42-4-2.4,0-2.55,2.69-2.56,4Zm7-1c0-3,0-4.85,0-6.14h4a29.54,29.54,0,0,1,.1,3,4.62,4.62,0,0,1,4.75-3.29v4.69c-3-.07-4.63.8-4.63,4.23v9.5h-4.18Zm14.6-6.14c1.13,5.14,2.34,10.73,2.74,13.76h0c.33-2.79,1.85-8.56,2.95-13.76h4.18l-5.07,18.11h-4.51l-4.8-18.11Zm23.33,14.17c0,.89.07,3.13.14,3.94h-3.8a10.91,10.91,0,0,1-.17-1.68,4.31,4.31,0,0,1-4.09,2c-3.48,0-4.82-2.78-4.82-5.37,0-3.71,2.54-6,7.14-6,.61,0,1.08,0,1.49,0v-2c0-1-.14-2.29-2-2.29s-1.94,1.14-2,2.33h-4c.07-2.66,1.32-5.51,6.16-5.51,3.9,0,5.91,1.76,5.91,5.22Zm-4-4a7.92,7.92,0,0,0-1.35-.07c-2.38,0-3.25,1.1-3.25,2.58a2.09,2.09,0,0,0,2.08,2.35c2.14,0,2.52-1.59,2.52-4.28ZM173,122.05h2.38v-4.53h4.18v4.53h2.79v3.43h-2.79v9.91c0,1.05.19,1.65,1.49,1.65a4.72,4.72,0,0,0,1-.07V140a7.2,7.2,0,0,1-2.55.37c-2.9,0-4.15-1.07-4.15-4.33v-10.6H173Zm11.6,0h4.19v18.11H184.6Zm0-6.75h4.19v4.13h-4.19ZM205.31,131c0,6.58-2.41,9.56-6.86,9.56s-6.75-2.85-6.75-9.46c0-6.42,2.7-9.31,7-9.31S205.31,124.89,205.31,131Zm-9.39.07c0,3.89.65,6,2.65,6s2.52-2.09,2.52-5.94c0-4-.67-5.82-2.56-5.82S195.92,127.14,195.92,131Zm12.24-3.34c0-3.72,0-4.68,0-5.63h4a15.52,15.52,0,0,1,.13,1.88,4.21,4.21,0,0,1,4-2.23c3,0,4.64,1.87,4.64,5.54v12.92h-4.19v-12c0-1.8-.36-2.9-2-2.9s-2.35.89-2.35,3.65v11.22h-4.18Zm27.11,11.09v7.94h-4.19V127.28c0-2.44,0-4.09,0-5.23h4a14.74,14.74,0,0,1,.13,2,4,4,0,0,1,4.07-2.29c3.36,0,5.29,2.89,5.29,9.06,0,7.09-2.35,9.71-5.85,9.71A3.55,3.55,0,0,1,235.27,138.77Zm5.07-7.77c0-4.34-.9-5.71-2.67-5.71-2.11,0-2.54,2-2.54,5.54,0,4.15.22,6.12,2.51,6.12C239.46,137,240.34,135,240.34,131Zm7.09-2.81c0-3,0-4.85,0-6.14h4a29.54,29.54,0,0,1,.1,3,4.61,4.61,0,0,1,4.74-3.29v4.69c-3-.07-4.62.8-4.62,4.23v9.5h-4.18ZM271.21,131c0,6.58-2.41,9.56-6.86,9.56s-6.75-2.85-6.75-9.46c0-6.42,2.7-9.31,7-9.31S271.21,124.89,271.21,131Zm-9.39.07c0,3.89.65,6,2.65,6s2.52-2.09,2.52-5.94c0-4-.66-5.82-2.55-5.82S261.82,127.14,261.82,131Zm12.27-3.54c0-3.58,0-4.65,0-5.43h4a13.09,13.09,0,0,1,.13,1.84,4.32,4.32,0,0,1,4-2.15,3.49,3.49,0,0,1,3.67,2.45,4.8,4.8,0,0,1,4.45-2.45c2.58,0,4.59,1.31,4.59,5.43v13h-4.12V127.79c0-1.44-.47-2.5-1.92-2.5-1.7,0-2.25,1.29-2.25,3.52v11.35h-4.15v-12.3c0-1.66-.56-2.54-1.91-2.54-1.67,0-2.29,1.16-2.29,3.6v11.24h-4.15Zm28.65,11.29v7.94h-4.18V127.28c0-2.44,0-4.09,0-5.23h4a14.74,14.74,0,0,1,.13,2,4,4,0,0,1,4.07-2.29c3.36,0,5.29,2.89,5.29,9.06,0,7.09-2.35,9.71-5.85,9.71A3.57,3.57,0,0,1,302.74,138.77Zm5.08-7.77c0-4.34-.9-5.71-2.68-5.71-2.1,0-2.53,2-2.53,5.54,0,4.15.22,6.12,2.51,6.12C306.94,137,307.82,135,307.82,131Zm5.29-9h2.37v-4.53h4.18v4.53h2.8v3.43h-2.8v9.91c0,1.05.19,1.65,1.49,1.65a4.72,4.72,0,0,0,1-.07V140a7.16,7.16,0,0,1-2.55.37c-2.9,0-4.15-1.07-4.15-4.33v-10.6h-2.37Zm-230.51,42H85v-4.53h4.18v4.53H92v3.43H89.16v9.91c0,1.05.19,1.65,1.49,1.65a4.72,4.72,0,0,0,1-.07V182a7.2,7.2,0,0,1-2.55.37c-2.9,0-4.15-1.07-4.15-4.33v-10.6H82.6Zm11.57,6.14c0-3,0-4.85,0-6.14h4a29.54,29.54,0,0,1,.1,3,4.61,4.61,0,0,1,4.74-3.29v4.69c-3-.07-4.62.8-4.62,4.23v9.5H94.17Zm22.53,8c0,.89.07,3.13.14,3.94H113a10.91,10.91,0,0,1-.17-1.68,4.33,4.33,0,0,1-4.09,2c-3.48,0-4.82-2.78-4.82-5.37,0-3.71,2.54-6,7.14-6,.61,0,1.07,0,1.48,0v-2c0-1.05-.13-2.29-2-2.29s-1.93,1.14-2,2.33h-4c.08-2.66,1.33-5.51,6.17-5.51,3.89,0,5.91,1.76,5.91,5.22Zm-4-4a7.92,7.92,0,0,0-1.35-.07c-2.38,0-3.25,1.1-3.25,2.58a2.09,2.09,0,0,0,2.08,2.35c2.14,0,2.52-1.59,2.52-4.28Zm7.74-4.54c0-3.72,0-4.68,0-5.63h4a15.52,15.52,0,0,1,.13,1.88,4.21,4.21,0,0,1,4-2.23c3,0,4.64,1.87,4.64,5.54v12.92H129v-12c0-1.8-.36-2.9-2-2.9s-2.35.89-2.35,3.65v11.22h-4.18Zm19.39,7a2.36,2.36,0,0,0,2.35,2.62,1.78,1.78,0,0,0,2-1.92c0-1.28-.57-2-2.71-2.77-4.28-1.58-5.33-3.08-5.33-5.7,0-2.47,1.55-5.21,5.88-5.21,4.75,0,5.9,3.27,5.91,5.65h-4c0-.64-.07-2.46-2-2.46a1.57,1.57,0,0,0-1.7,1.71c0,1.14.65,1.67,2.82,2.48,3.83,1.41,5.28,2.87,5.28,5.8,0,3.56-2.23,5.6-6.34,5.6-4.33,0-6.26-2.58-6.28-5.8Zm11.84,5.48V167.48h-2.11v-3.43h2.11v-1.77c0-3,1.37-5.22,5-5.22a7.06,7.06,0,0,1,1.72.21v3.5a4.46,4.46,0,0,0-1-.12c-1.2,0-1.52.68-1.52,1.93v1.47h2.57v3.43h-2.57v14.68Zm11.83-8c0,2.3.28,4.86,2.6,4.86a2.36,2.36,0,0,0,2.42-2.39h4a6.09,6.09,0,0,1-6.48,5.85c-5.88,0-6.7-4.94-6.7-9.52,0-5.75,2.19-9.25,6.78-9.25,5.26,0,6.54,3.93,6.54,8.66,0,.63,0,1.48-.06,1.79Zm5-3c0-1.77-.21-4-2.42-4-2.4,0-2.55,2.69-2.56,4Zm6.95-1c0-3,0-4.85,0-6.14h4a29.54,29.54,0,0,1,.1,3,4.62,4.62,0,0,1,4.75-3.29v4.69c-3-.07-4.63.8-4.63,4.23v9.5h-4.18Zm14.21,6.49A2.36,2.36,0,0,0,192,179.3a1.78,1.78,0,0,0,2-1.92c0-1.28-.57-2-2.71-2.77-4.27-1.58-5.33-3.08-5.33-5.7,0-2.47,1.56-5.21,5.88-5.21,4.75,0,5.9,3.27,5.91,5.65h-4c0-.64-.08-2.46-2-2.46a1.58,1.58,0,0,0-1.71,1.71c0,1.14.65,1.67,2.82,2.48,3.83,1.41,5.28,2.87,5.28,5.8,0,3.56-2.23,5.6-6.34,5.6-4.33,0-6.26-2.58-6.27-5.8Zm30.38,4c0,5.14-1.49,8.29-7,8.29-5.16,0-6.25-3-6.36-5.24h4.16c.07.55.27,1.84,2.36,1.84,2.26,0,2.69-1.72,2.69-4.89v-.81a3.93,3.93,0,0,1-3.88,2.15c-3.85,0-5.49-3.38-5.49-8.72,0-6.21,2.23-9.58,5.88-9.58,2.38,0,3.2,1.12,3.49,1.91,0-.55.1-1.17.17-1.6h4c0,1.11-.06,2.93-.06,5.45Zm-9.21-7.51c0,3.74.9,5.33,2.6,5.33,2.1,0,2.55-2,2.55-5.89,0-3.26-.16-5.34-2.43-5.34C211.82,167.29,210.85,169.12,210.85,173.19Zm25.44,3.65c0,2.64,0,4.4,0,5.32h-4a17.46,17.46,0,0,1-.16-2,4,4,0,0,1-4,2.29c-2.58,0-4.53-1.27-4.53-5.43v-13h4.19v12.06c0,1.79.37,2.79,1.89,2.79s2.42-.85,2.42-3.73V164.05h4.19Zm7-2.65c0,2.3.28,4.86,2.6,4.86a2.36,2.36,0,0,0,2.42-2.39h4a6.09,6.09,0,0,1-6.49,5.85c-5.87,0-6.69-4.94-6.69-9.52,0-5.75,2.18-9.25,6.78-9.25,5.25,0,6.54,3.93,6.54,8.66,0,.63,0,1.48-.06,1.79Zm5-3c0-1.77-.21-4-2.43-4-2.39,0-2.54,2.69-2.55,4Zm10.06,5.51a2.37,2.37,0,0,0,2.35,2.62,1.78,1.78,0,0,0,2-1.92c0-1.28-.58-2-2.72-2.77-4.27-1.58-5.32-3.08-5.32-5.7,0-2.47,1.55-5.21,5.87-5.21,4.76,0,5.91,3.27,5.91,5.65h-4c0-.64-.07-2.46-2-2.46a1.58,1.58,0,0,0-1.71,1.71c0,1.14.66,1.67,2.83,2.48,3.82,1.41,5.28,2.87,5.28,5.8,0,3.56-2.23,5.6-6.34,5.6-4.33,0-6.26-2.58-6.28-5.8Zm9.47-12.63h2.38v-4.53h4.18v4.53h2.79v3.43h-2.79v9.91c0,1.05.19,1.65,1.49,1.65a4.77,4.77,0,0,0,1-.07V182a7.2,7.2,0,0,1-2.55.37c-2.9,0-4.15-1.07-4.15-4.33v-10.6h-2.38Zm16.1,0h2.38v-4.53h4.17v4.53h2.8v3.43h-2.8v9.91c0,1.05.2,1.65,1.5,1.65a4.77,4.77,0,0,0,1-.07V182a7.22,7.22,0,0,1-2.56.37c-2.89,0-4.14-1.07-4.14-4.33v-10.6H284Zm24.33,8.9c0,6.58-2.42,9.56-6.87,9.56s-6.75-2.85-6.75-9.46c0-6.42,2.7-9.31,7-9.31S308.28,166.89,308.28,173Zm-9.4.07c0,3.89.66,6,2.65,6s2.53-2.09,2.53-5.94c0-4-.67-5.82-2.56-5.82S298.88,169.14,298.88,173ZM187.55,217.27c-.1,1.2-.56,7.3-7.13,7.3-6.73,0-7.5-5.91-7.5-12.28,0-7.67,2.25-12.19,7.76-12.19,6.28,0,6.76,5.39,6.86,7.29h-4.19c-.07-.81-.13-3.69-2.74-3.69s-3.31,3.26-3.31,8.68c0,4.47.45,8.66,3.19,8.66,2.53,0,2.73-2.86,2.84-3.77ZM202,213.64h-7.6v6.88h8.54l-.53,3.64H190.2V200.48h12.14v3.71h-8V210H202Zm17.53,3.63c-.11,1.2-.56,7.3-7.13,7.3-6.74,0-7.51-5.91-7.51-12.28,0-7.67,2.25-12.19,7.76-12.19,6.28,0,6.77,5.39,6.87,7.29h-4.2c-.07-.81-.12-3.69-2.73-3.69s-3.32,3.26-3.32,8.68c0,4.47.45,8.66,3.2,8.66,2.52,0,2.73-2.86,2.83-3.77ZM461.84,333.62c-.11,1.2-.56,7.31-7.13,7.31-6.73,0-7.51-5.92-7.51-12.28,0-7.67,2.25-12.19,7.76-12.19,6.28,0,6.77,5.38,6.87,7.28h-4.2c-.06-.81-.12-3.69-2.73-3.69s-3.31,3.26-3.31,8.68c0,4.47.44,8.66,3.19,8.66,2.53,0,2.73-2.86,2.83-3.77ZM476.27,330h-7.6v6.88h8.53l-.52,3.65h-12.2V316.83h12.15v3.72h-8v5.76h7.6Zm17.52,3.63c-.1,1.2-.55,7.31-7.13,7.31-6.73,0-7.5-5.92-7.5-12.28,0-7.67,2.25-12.19,7.76-12.19,6.28,0,6.77,5.38,6.86,7.28h-4.19c-.07-.81-.12-3.69-2.74-3.69s-3.31,3.26-3.31,8.68c0,4.47.45,8.66,3.19,8.66,2.53,0,2.73-2.86,2.84-3.77Zm9.18,6.9V315.65h4.19v24.87Zm19.56-3.95c0,.89.07,3.13.14,3.95h-3.8a11.06,11.06,0,0,1-.17-1.69,4.32,4.32,0,0,1-4.09,2c-3.48,0-4.82-2.77-4.82-5.37,0-3.71,2.54-6,7.14-6,.61,0,1.07,0,1.48,0v-2c0-1.06-.13-2.3-1.94-2.3s-1.94,1.15-2.05,2.34h-4c.07-2.67,1.32-5.52,6.16-5.52,3.89,0,5.91,1.76,5.91,5.22Zm-4-4a7.92,7.92,0,0,0-1.35-.07c-2.38,0-3.25,1.11-3.25,2.58a2.08,2.08,0,0,0,2.08,2.35c2.14,0,2.52-1.59,2.52-4.28Zm7.74-4.53c0-3.73,0-4.69,0-5.64h4a15.7,15.7,0,0,1,.13,1.89,4.21,4.21,0,0,1,4-2.23c3,0,4.64,1.87,4.64,5.54v12.92h-4.19v-12c0-1.79-.36-2.89-2-2.89s-2.35.89-2.35,3.64v11.23h-4.18Zm29.08-12.39v19.83c0,2.15,0,4,0,5h-4a19.11,19.11,0,0,1-.13-1.93c-.53,1.29-1.62,2.24-4,2.24-3.82,0-5.34-3.43-5.34-9.52,0-5.55,1.81-9.22,6-9.22,2,0,2.9.72,3.26,1.43v-7.87Zm-9.23,15.72c0,4.2.76,5.93,2.53,5.93,2.17,0,2.64-1.69,2.64-6.06,0-4.18-.33-5.59-2.46-5.59C547.11,325.65,546.1,326.93,546.1,331.37Zm12.87-9h4.19v18.12H559Zm0-6.75h4.19v4.13H559ZM566.88,328c0-3.73,0-4.69,0-5.64h4a13.88,13.88,0,0,1,.13,1.89,4.21,4.21,0,0,1,4-2.23c3,0,4.64,1.87,4.64,5.54v12.92h-4.18v-12c0-1.79-.36-2.89-2.05-2.89s-2.34.89-2.34,3.64v11.23h-4.19Zm29.12,11c0,5.15-1.49,8.29-7,8.29-5.15,0-6.25-3-6.35-5.24h4.16c.07.55.26,1.84,2.35,1.84,2.27,0,2.69-1.71,2.69-4.89v-.81A3.93,3.93,0,0,1,588,340.4c-3.86,0-5.5-3.39-5.5-8.73,0-6.2,2.24-9.58,5.88-9.58,2.39,0,3.2,1.13,3.49,1.91,0-.54.1-1.16.17-1.6h4c0,1.11-.07,2.93-.07,5.46Zm-9.21-7.5c0,3.73.91,5.32,2.6,5.32,2.11,0,2.56-2,2.56-5.89,0-3.25-.16-5.33-2.43-5.33C587.77,325.65,586.79,327.47,586.79,331.55ZM448.66,370c0-3.73,0-4.69,0-5.64h4a13.7,13.7,0,0,1,.14,1.89,4.18,4.18,0,0,1,4-2.23c3,0,4.64,1.87,4.64,5.54v12.92h-4.19v-12c0-1.79-.36-2.89-2.05-2.89s-2.34.89-2.34,3.64v11.23h-4.18Zm29.1,7.16c0,2.64,0,4.39,0,5.32h-4a17.59,17.59,0,0,1-.17-2,3.94,3.94,0,0,1-4,2.29c-2.58,0-4.53-1.27-4.53-5.43v-13h4.18v12.06c0,1.79.38,2.79,1.9,2.79s2.41-.85,2.41-3.73V364.4h4.19Zm3.27-7.36c0-3.58,0-4.66,0-5.44h4a13.25,13.25,0,0,1,.13,1.85,4.32,4.32,0,0,1,4-2.16,3.51,3.51,0,0,1,3.68,2.46,4.76,4.76,0,0,1,4.44-2.46c2.58,0,4.59,1.31,4.59,5.43v13h-4.12V370.15c0-1.45-.47-2.5-1.92-2.5-1.7,0-2.24,1.28-2.24,3.52v11.35h-4.15v-12.3c0-1.67-.57-2.54-1.92-2.54-1.67,0-2.28,1.15-2.28,3.59v11.25H481Zm24.47-12.19h4.18v8.56a4.2,4.2,0,0,1,4-2.12c3.71,0,5.29,3.26,5.29,8.89s-1.41,9.85-5.84,9.85a3.57,3.57,0,0,1-3.62-2.07c0,.43,0,1.23-.07,1.76h-4c0-1.2,0-3.27,0-5.1ZM514.79,373c0-3.5-.5-5.39-2.54-5.39s-2.7,1.47-2.7,5.9c0,4.24.58,5.75,2.54,5.75S514.79,377.42,514.79,373Zm10.49,1.51c0,2.29.28,4.85,2.6,4.85a2.37,2.37,0,0,0,2.43-2.38h4a6.1,6.1,0,0,1-6.49,5.84c-5.87,0-6.69-4.93-6.69-9.52,0-5.74,2.18-9.25,6.77-9.25,5.26,0,6.55,3.93,6.55,8.66,0,.64,0,1.49-.07,1.8Zm5-3c0-1.76-.2-4-2.42-4-2.4,0-2.54,2.69-2.55,4Zm6.95-1c0-3,0-4.85,0-6.14h4a26.56,26.56,0,0,1,.1,3,4.63,4.63,0,0,1,4.75-3.29v4.69c-3-.07-4.62.8-4.62,4.23v9.51h-4.19Zm17.54-6.14H559v18.12h-4.18Zm0-6.75H559v4.13h-4.18ZM565.52,377a2.36,2.36,0,0,0,2.35,2.61,1.78,1.78,0,0,0,2-1.92c0-1.28-.57-2-2.71-2.77-4.28-1.57-5.33-3.07-5.33-5.7,0-2.46,1.55-5.2,5.88-5.2,4.75,0,5.9,3.26,5.91,5.64h-4c0-.64-.07-2.46-2-2.46a1.58,1.58,0,0,0-1.7,1.71c0,1.15.65,1.68,2.82,2.48,3.83,1.41,5.28,2.87,5.28,5.8,0,3.57-2.23,5.6-6.34,5.6-4.33,0-6.26-2.57-6.28-5.79Zm29.6,1.53c0,.89.07,3.13.14,3.95h-3.8a9.84,9.84,0,0,1-.18-1.69,4.31,4.31,0,0,1-4.08,2c-3.49,0-4.82-2.77-4.82-5.37,0-3.71,2.54-6,7.14-6,.61,0,1.07,0,1.48,0v-2c0-1.06-.13-2.3-2-2.3s-1.93,1.15-2,2.34h-4c.07-2.67,1.33-5.52,6.17-5.52,3.89,0,5.91,1.76,5.91,5.22Zm-4-4a8,8,0,0,0-1.35-.07c-2.38,0-3.25,1.11-3.25,2.58a2.08,2.08,0,0,0,2.08,2.35c2.13,0,2.52-1.59,2.52-4.28Zm-173,31.83h2.37v-4.53h4.18v4.53h2.8v3.43h-2.8v9.92c0,1.05.19,1.65,1.5,1.65a4.73,4.73,0,0,0,1-.08v3.08a7.46,7.46,0,0,1-2.56.36c-2.9,0-4.15-1.07-4.15-4.32V409.83h-2.37Zm24.32,8.91c0,6.57-2.41,9.55-6.86,9.55s-6.75-2.84-6.75-9.46c0-6.41,2.7-9.31,7-9.31S442.39,409.24,442.39,415.31Zm-9.39.07c0,3.89.65,6,2.65,6s2.52-2.08,2.52-5.94-.66-5.82-2.55-5.82S433,411.49,433,415.38Zm12.24,9.14V399.65h4.18v24.87Zm7.88,0V399.65h4.18v24.87Zm14.62-11v3.62h-7.69v-3.62Zm3,11V409.83h-2.11V406.4h2.11v-1.76c0-3,1.37-5.22,5-5.22a7.66,7.66,0,0,1,1.72.2v3.5a4.46,4.46,0,0,0-1-.11c-1.2,0-1.52.68-1.52,1.92v1.47h2.57v3.43h-2.57v14.69Zm8.7-12c0-3,0-4.85,0-6.14h4a29.73,29.73,0,0,1,.1,3,4.63,4.63,0,0,1,4.75-3.29v4.69c-3-.07-4.63.8-4.63,4.23v9.51H479.4Zm14.33,4c0,2.29.28,4.85,2.6,4.85a2.36,2.36,0,0,0,2.42-2.38h4a6.08,6.08,0,0,1-6.48,5.84c-5.88,0-6.7-4.93-6.7-9.52,0-5.74,2.19-9.25,6.78-9.25,5.26,0,6.54,3.93,6.54,8.66,0,.64,0,1.49-.06,1.8Zm5-3c0-1.76-.21-4-2.42-4-2.4,0-2.55,2.69-2.56,4Zm10.53,3c0,2.29.28,4.85,2.6,4.85a2.37,2.37,0,0,0,2.43-2.38h4a6.09,6.09,0,0,1-6.49,5.84c-5.87,0-6.69-4.93-6.69-9.52,0-5.74,2.18-9.25,6.77-9.25,5.26,0,6.55,3.93,6.55,8.66,0,.64,0,1.49-.07,1.8Zm5-3c0-1.76-.2-4-2.42-4-2.4,0-2.54,2.69-2.55,4ZM527.8,412c0-3.73,0-4.69,0-5.64h4a13.88,13.88,0,0,1,.13,1.89,4.21,4.21,0,0,1,4-2.23c3,0,4.64,1.87,4.64,5.54v12.92h-4.19v-12c0-1.79-.36-2.89-2-2.89s-2.34.89-2.34,3.64v11.23H527.8Zm29.11,7.16c0,2.64,0,4.39,0,5.32h-4a17.59,17.59,0,0,1-.17-2,3.94,3.94,0,0,1-4,2.29c-2.58,0-4.53-1.27-4.53-5.43v-13h4.18v12.06c0,1.79.38,2.79,1.89,2.79s2.42-.85,2.42-3.73V406.4h4.19Zm3.26-7.36c0-3.58,0-4.66,0-5.44h4a13.25,13.25,0,0,1,.13,1.85,4.32,4.32,0,0,1,4-2.16,3.51,3.51,0,0,1,3.68,2.46,4.76,4.76,0,0,1,4.44-2.46c2.58,0,4.59,1.31,4.59,5.43v13h-4.12V412.15c0-1.45-.47-2.5-1.92-2.5-1.7,0-2.24,1.28-2.24,3.52v11.35h-4.15v-12.3c0-1.67-.57-2.54-1.91-2.54-1.68,0-2.29,1.15-2.29,3.59v11.25h-4.16Zm24.48-12.19h4.18v8.56a4.2,4.2,0,0,1,4-2.12c3.71,0,5.29,3.26,5.29,8.89s-1.41,9.85-5.84,9.85a3.57,3.57,0,0,1-3.62-2.07c0,.43,0,1.23-.07,1.76h-4c0-1.2,0-3.27,0-5.1ZM593.94,415c0-3.5-.51-5.39-2.54-5.39s-2.7,1.47-2.7,5.9c0,4.24.58,5.75,2.54,5.75S593.94,419.42,593.94,415Zm10.49,1.51c0,2.29.28,4.85,2.6,4.85a2.37,2.37,0,0,0,2.43-2.38h4a6.1,6.1,0,0,1-6.49,5.84c-5.88,0-6.69-4.93-6.69-9.52,0-5.74,2.18-9.25,6.77-9.25,5.26,0,6.55,3.93,6.55,8.66,0,.64,0,1.49-.07,1.8Zm5-3c0-1.76-.2-4-2.42-4-2.4,0-2.54,2.69-2.55,4Zm6.95-1c0-3,0-4.85,0-6.14h4a26.56,26.56,0,0,1,.1,3,4.63,4.63,0,0,1,4.75-3.29v4.69c-3-.07-4.62.8-4.62,4.23v9.51h-4.19ZM294,339.47H98L0,169.73,98,0H294l98,169.73Zm-185.6-18h175.2L371.2,169.73,283.59,18H108.39L20.79,169.73ZM619.9,537h-196l-98-169.74,98-169.73h196l98,169.73ZM434.3,519H609.5l87.61-151.74L609.5,215.49H434.3L346.7,367.22Zm-74.72-44.91h-10v-17h10Zm-22,0h-12v-17h12Zm-24,0h-12v-17h12Zm-24.07,0a124.64,124.64,0,0,1-12.84-.77l1.88-16.89a107.88,107.88,0,0,0,11.1.66ZM264,471.19a119.94,119.94,0,0,1-12.42-3.41l5.35-16.13a107.16,107.16,0,0,0,10.7,2.94Zm-24.42-8.1a125,125,0,0,1-11.44-5.92l8.59-14.67a106.94,106.94,0,0,0,9.86,5.1Zm-22.19-13a123.41,123.41,0,0,1-10-8.15l11.44-12.58a107.64,107.64,0,0,0,8.6,7Zm-19-17.28a125.08,125.08,0,0,1-8.07-10l13.77-10a109.35,109.35,0,0,0,7,8.65ZM183.25,412a127.48,127.48,0,0,1-5.83-11.48L193,393.59a106.88,106.88,0,0,0,5,9.9Zm-10.42-23.52A122.25,122.25,0,0,1,169.52,376l16.63-3.5A108.18,108.18,0,0,0,189,383.22Zm-5.3-25.18a124.65,124.65,0,0,1-.66-12.85h17a107.7,107.7,0,0,0,.57,11.1Z"/></g></g></svg>