<svg xmlns="http://www.w3.org/2000/svg" xmlns:xlink="http://www.w3.org/1999/xlink" viewBox="0 0 450 512"><defs><style>.cls-1{fill:url(#linear-gradient);}</style><linearGradient id="linear-gradient" x1="347.13" y1="535.04" x2="92.6" y2="94.18" gradientUnits="userSpaceOnUse"><stop offset="0" stop-color="#5e0094"/><stop offset="1" stop-color="#4a85ff"/></linearGradient></defs><g id="Layer_2" data-name="Layer 2"><g id="Layer_1-2" data-name="Layer 1"><path class="cls-1" d="M438.51,317A45,45,0,0,0,405,242H317.66c8.65-26.25,12.34-61.08,12.34-76V151a60.07,60.07,0,0,0-60-60H255a15,15,0,0,0-14.55,11.36l-8.17,32.69c-11.45,45.78-47.8,96.29-85.42,105.47A45.06,45.06,0,0,0,105,212H15A15,15,0,0,0,0,227V497a15,15,0,0,0,15,15h90a45,45,0,0,0,40.62-25.65l51.54,17.18A164.64,164.64,0,0,0,249.34,512H375a45,45,0,0,0,41.84-61.58A45,45,0,0,0,438.51,377a44.91,44.91,0,0,0,0-60ZM120,467a15,15,0,0,1-15,15H30V242h75a15,15,0,0,1,15,15ZM375,332h30a15,15,0,0,1,0,30H375a15,15,0,0,0,0,30h30a15,15,0,0,1,0,30H375a15,15,0,0,0,0,30,15,15,0,0,1,0,30H249.34a134.71,134.71,0,0,1-42.7-6.93L150,456.19V270.58c23.53-4.47,46.56-19.37,67.35-43.76,20.3-23.82,36.76-55.4,44-84.49L266.71,121H270a30,30,0,0,1,30,30v15c0,20.14-6.3,58.77-14.36,76H255a15,15,0,0,0,0,30H405a15,15,0,0,1,0,30H375a15,15,0,0,0,0,30ZM75,422a15,15,0,1,1-15,15A15,15,0,0,1,75,422ZM285,0a15,15,0,0,0-15,15V46a15,15,0,0,0,30,0V15A15,15,0,0,0,285,0ZM221.36,66.15,200.15,44.94a15,15,0,0,0-21.22,21.21l21.22,21.21a15,15,0,0,0,21.21-21.21ZM391.07,44.94a15,15,0,0,0-21.22,0L348.64,66.15a15,15,0,0,0,21.21,21.21l21.22-21.21A15,15,0,0,0,391.07,44.94Z"/></g></g></svg>