<svg xmlns="http://www.w3.org/2000/svg" xmlns:xlink="http://www.w3.org/1999/xlink" viewBox="0 0 1029.67 338.03"><defs><style>.cls-1{fill:url(#linear-gradient);}</style><linearGradient id="linear-gradient" y1="169.01" x2="1029.67" y2="169.01" gradientUnits="userSpaceOnUse"><stop offset="0" stop-color="#5e0094"/><stop offset="1" stop-color="#4a85ff"/></linearGradient></defs><g id="Layer_2" data-name="Layer 2"><g id="Layer_1-2" data-name="Layer 1"><path class="cls-1" d="M64.49,338,0,0H64.7C77,79.77,93.27,190.4,98.15,253.58h.5C108.74,188.26,132.8,73.56,146.33,0h53.83C212.81,66.46,237.24,186,246,250.44h1C254.39,179.57,274.57,64.38,283.25,0H343.5L274.72,338H214.87C201.9,267.53,180,164.68,171,99.52h-.94C160.5,165.83,137.36,273,124.22,338ZM375.64,0h60.63V133.61h81.46V0h60.63V338H517.73V186.14H436.27V338H375.64ZM688,253,671.16,338H610.54L688.82,0h78.56l79.13,338H783L766.17,253Zm67.44-52.53c-12.61-64.7-22.69-112-28-144.25h-1.45c-4.11,31.11-14.82,81.91-27.26,144.25ZM896.81,53H824.59V0h205.08V53H957.44V338H896.81Z"/></g></g></svg>