<svg xmlns="http://www.w3.org/2000/svg" viewBox="0 0 173.25 45.83"><defs><style>.cls-1{isolation:isolate;}.cls-2{fill:#fff;mix-blend-mode:color;}</style></defs><g class="cls-1"><g id="Layer_2" data-name="Layer 2"><g id="Layer_1-2" data-name="Layer 1"><path class="cls-2" d="M78.82,11.32a1.61,1.61,0,0,1,1.84,0,28,28,0,0,1,2.92,2.95,1.25,1.25,0,0,1,0,1.8c-.86,1-1.61,1.27-2,2.05a3.16,3.16,0,0,0,.49,3.48C83.17,22.76,89.6,29,89.6,29a3,3,0,0,0,3.81,0l1.31-1.31a1.34,1.34,0,0,1,2.21-.11c1.31,1.27,2.62,2.58,2.62,2.58s1.31.75-.34,2.39a6.93,6.93,0,0,1-2.32,1.83s-2.43,1.39-7.46-1.08-10-7.48-12-12.11S75.59,14.2,78.82,11.32ZM81.7,4.84A12.7,12.7,0,0,1,89.06,7.1,13.07,13.07,0,0,1,93.87,13a6.22,6.22,0,0,1,4.26-1.59A6.59,6.59,0,0,1,104.71,18a6.38,6.38,0,0,1-1,3.54A9.68,9.68,0,0,1,109.13,25a9.86,9.86,0,0,1-.74,13.12,9.5,9.5,0,0,1-7,2.88H73.48A11.52,11.52,0,0,1,62,29.49a11.21,11.21,0,0,1,1.82-6.2,11.45,11.45,0,0,1,4.8-4.2c0-.47,0-.84,0-1.1A12.69,12.69,0,0,1,72.4,8.7a12.64,12.64,0,0,1,9.3-3.86M81.7,0A18.18,18.18,0,0,0,65,11.09a17.77,17.77,0,0,0-1.26,5.25,16.63,16.63,0,0,0-4,4.31,16.55,16.55,0,0,0-1.38,15.1A16.26,16.26,0,0,0,73.48,45.83h27.94a14.67,14.67,0,0,0,5.63-1.09,15.13,15.13,0,0,0,8-8A14.66,14.66,0,0,0,112.88,22a14.78,14.78,0,0,0-3.38-3.1c0-.29,0-.57,0-.87A11.42,11.42,0,0,0,95.78,6.82a18.36,18.36,0,0,0-4-3.7A17.35,17.35,0,0,0,81.7,0ZM14.47,12.45A10.47,10.47,0,1,1,4,22.91,10.47,10.47,0,0,1,14.47,12.45m0-4A14.47,14.47,0,1,0,28.93,22.91,14.46,14.46,0,0,0,14.47,8.45Zm144.32,0a14.47,14.47,0,1,0,14.46,14.46A14.46,14.46,0,0,0,158.79,8.45Zm0,15.69a1.49,1.49,0,0,1-1.49-1.49V14.29a1.49,1.49,0,0,1,3,0v8.36A1.49,1.49,0,0,1,158.79,24.14Zm0,8.52A9.8,9.8,0,0,1,149,22.87a8.72,8.72,0,0,1,2.51-6.21,1.62,1.62,0,0,1,2.34,2.24,5.47,5.47,0,0,0-1.61,4,6.56,6.56,0,0,0,13.12,0,5.55,5.55,0,0,0-1.64-4A1.62,1.62,0,1,1,166,16.62a8.72,8.72,0,0,1,2.55,6.24A9.83,9.83,0,0,1,158.78,32.66ZM37.42,24.14a1.5,1.5,0,0,0-1.5-1.5h-.5a1.5,1.5,0,0,0,0,3h.5A1.5,1.5,0,0,0,37.42,24.14Zm10.48,1.5h-.85a1.5,1.5,0,0,1,0-3h.85a1.5,1.5,0,0,1,0,3Zm-6,0h-.86a1.5,1.5,0,0,1,0-3h.86a1.5,1.5,0,0,1,0,3ZM55,24.14a1.5,1.5,0,0,0-1.5-1.5H53a1.5,1.5,0,0,0,0,3h.5A1.5,1.5,0,0,0,55,24.14Zm68.67,0a1.5,1.5,0,0,0-1.5-1.5h-.5a1.5,1.5,0,0,0,0,3h.5A1.5,1.5,0,0,0,123.71,24.14Zm10.49,1.5h-.86a1.5,1.5,0,0,1,0-3h.86a1.5,1.5,0,0,1,0,3Zm-6,0h-.85a1.5,1.5,0,0,1,0-3h.85a1.5,1.5,0,0,1,0,3Zm13.13-1.5a1.5,1.5,0,0,0-1.5-1.5h-.5a1.5,1.5,0,0,0,0,3h.5A1.5,1.5,0,0,0,141.33,24.14ZM14.47,17.91a3.24,3.24,0,1,0,3.23,3.24A3.24,3.24,0,0,0,14.47,17.91Zm0,7.71c-3.55,0-6.42,2.23-6.42,5s2.87,5,6.42,5,6.41-2.23,6.41-5S18,25.62,14.47,25.62Z"/></g></g></g></svg>