<svg xmlns="http://www.w3.org/2000/svg" viewBox="0 0 169.58 55.32"><defs><style>.cls-1{fill:#fff;}</style></defs><g id="Layer_2" data-name="Layer 2"><g id="Layer_1-2" data-name="Layer 1"><path class="cls-1" d="M58.24,22.14c4.27,0,6.38,1.72,6.38,5.19v5.39c0,3.46-2.11,5.19-6.38,5.19H50.07c-4.26,0-6.38-1.72-6.38-5.19V15h5.15v7.11h0v4.11h0v6.24c0,.72.41,1.07,1.23,1.07h8.17c.8,0,1.2-.35,1.2-1.07V27.28c0-.69-.4-1-1.2-1H50.82V22.14h7.42m9,15.77h5.17V15H67.27ZM90.46,22.14V32.81c0,.49-.4.73-1.19.73H81.48c-.82,0-1.23-.23-1.23-.73V22.14H75.09v10.6c0,3.45,2.11,5.18,6.37,5.18h7.79c4.26,0,6.38-1.73,6.38-5.14V22.14ZM43.62,44.86H95.46V40.37H43.62ZM106.5,19.52h27.72V15H106.5ZM98.29,44.87h5.17V22.14H98.29Zm22.37-22.73h-8.17c-4.27,0-6.38,1.73-6.38,5.19V44.86h5.17V27.31c0-.72.4-1.06,1.22-1.06h8.18c.79,0,1.19.34,1.19,1.06v5.21c0,.69-.4,1-1.19,1h-7.43v4.36h7.43c4.26,0,6.37-1.73,6.37-5.18v-5.4c0-3.48-2.13-5.2-6.39-5.2m16.9-2.65V15.9h1v-.81h-2.76v.81h1v3.59Zm2.9-4.4H139v4.4h.77V15.74h.13l.67,3.75h1.23l.67-3.75h.13v3.75h.76v-4.4h-1.54l-.6,3.71h-.12Zm-39,1.67v-3a.55.55,0,1,0-1.09,0v3a.55.55,0,0,0,1.09,0Zm3,.09a3.19,3.19,0,0,0-.92-2.26.57.57,0,0,0-.82,0,.57.57,0,0,0,0,.82,1.92,1.92,0,0,1,.59,1.44,2.38,2.38,0,1,1-4.75,0,2,2,0,0,1,.59-1.44.57.57,0,0,0,0-.82.57.57,0,0,0-.82,0,3.11,3.11,0,0,0-.91,2.24,3.54,3.54,0,0,0,7.07,0ZM8.75,20.21a13.05,13.05,0,0,1-1.57-6.45,13.76,13.76,0,0,1,27.52,0A13.68,13.68,0,0,1,20.94,27.52,21.88,21.88,0,0,1,14.5,26L6.14,33.79s-2.79,2.44-5.06,0a3.74,3.74,0,0,1,0-5.22Zm12.37,3.48a9.93,9.93,0,1,0-9.93-9.93A10,10,0,0,0,21.12,23.69Zm147.49,26a3.36,3.36,0,0,1,0,4.69c-2,2.19-4.54,0-4.54,0l-7.51-7a19.65,19.65,0,0,1-5.79,1.41,12.36,12.36,0,1,1,12.36-12.36,11.74,11.74,0,0,1-1.41,5.79Zm-9.08-13.3a8.92,8.92,0,1,0-8.92,8.92A9,9,0,0,0,159.53,36.35ZM16.45,14.18V12.71a.48.48,0,1,0-.95,0v1.47a.48.48,0,0,0,.95,0Zm.77-.55a.48.48,0,0,1-.48-.48V9.7a.48.48,0,0,1,1,0v3.45A.48.48,0,0,1,17.22,13.63Zm1.27,1.13a.47.47,0,0,1-.47-.47V11.76a.48.48,0,0,1,.95,0v2.53A.47.47,0,0,1,18.49,14.76Zm1.28-1.36a.47.47,0,0,1-.48-.48V10.18a.48.48,0,0,1,.95,0v2.74A.47.47,0,0,1,19.77,13.4ZM21,15.33a.48.48,0,0,1-.48-.48V12a.48.48,0,1,1,1,0v2.81A.48.48,0,0,1,21,15.33Zm1.25,1.45a.47.47,0,0,1-.47-.47V13.18a.48.48,0,1,1,.95,0v3.13A.47.47,0,0,1,22.25,16.78Zm1.26-.45a.47.47,0,0,1-.48-.48V11A.48.48,0,1,1,24,11v4.85A.47.47,0,0,1,23.51,16.33Zm1.26-.64a.47.47,0,0,1-.48-.48v-3a.48.48,0,1,1,.95,0v3A.47.47,0,0,1,24.77,15.69ZM26,16.78a.47.47,0,0,1-.47-.48V14.18a.48.48,0,1,1,1,0v2.13A.47.47,0,0,1,26,16.78Zm1.5-3.61a14.79,14.79,0,0,0-.43-1.44,4.71,4.71,0,0,0-1.4-2,6.32,6.32,0,0,0-4.34-1.33,4.87,4.87,0,0,0-1.74-.08A6,6,0,0,0,17.51,9a.79.79,0,0,1,.46.53A4.9,4.9,0,0,1,19.66,9,4.18,4.18,0,0,1,21.22,9a.16.16,0,0,0,.1,0c3.54-.07,4.74,1.8,5.14,2.92a12.93,12.93,0,0,1,.41,1.4l0,.09a2.07,2.07,0,0,1-.09,2v.92a3,3,0,0,0,.52-.48A2.72,2.72,0,0,0,27.53,13.17Zm-12.34-.31a1.16,1.16,0,0,1-.08-.42,2,2,0,0,1,1.16-1.67.41.41,0,0,0,.11-.07l.05-.06V9.71c-.16.14-.33.3-.5.47a2.67,2.67,0,0,0-1.5,2.26,2.26,2.26,0,0,0,.76,1.61Zm10.19,3.87a3.47,3.47,0,0,0-.31.44c-.33.55-1.19.5-1.36.49-.46-.15-.83-.07-.95.23a1,1,0,0,0-.07.41.3.3,0,0,1-.12.27l-.09,0s-.16-.07-.33-.65a2.27,2.27,0,0,0-2.57-1.69l-.47,0c-.83-.07-1.25-.55-1.28-.77a1.41,1.41,0,0,1,0-.18.82.82,0,0,0-.35-.64,2,2,0,0,0-.72-.36.76.76,0,0,1-.41.57l.09,0,.07,0a1.13,1.13,0,0,1,.52.23.6.6,0,0,1,.11.1s0,.07,0,.11,0,.11,0,.2a2,2,0,0,0,1.89,1.35l.51,0c.86,0,1.6,0,1.94,1.2.18.61.42,1,.75,1.09a.57.57,0,0,0,.24.05.75.75,0,0,0,.44-.14,1,1,0,0,0,.44-.87l.15,0,.07,0a2.17,2.17,0,0,0,2.07-.82,2.29,2.29,0,0,1,.32-.43A.79.79,0,0,1,25.38,16.73Zm126.1,14.4V41.57l-6.13-1.11V32.19ZM149.8,35v-.75l-2.8.16v.72l1,0v3h.71l0-3L149.8,35Zm4.18-.55a1,1,0,1,0,1-1A.95.95,0,0,0,154,34.46Zm-2.4,5.08a.75.75,0,0,0,.42.2h.66a1,1,0,0,0,1-.94V35.46h-2Zm2.4-.7h.87a1,1,0,0,0,1-1V36H154ZM152.41,33a1,1,0,0,0-.83.49v.91a.94.94,0,0,0,1.66-.9A.93.93,0,0,0,152.41,33Z"/></g></g></svg>