<svg xmlns="http://www.w3.org/2000/svg" xmlns:xlink="http://www.w3.org/1999/xlink" viewBox="0 0 839.42 338.03"><defs><style>.cls-1{fill:url(#linear-gradient);}</style><linearGradient id="linear-gradient" y1="169.01" x2="839.42" y2="169.01" gradientUnits="userSpaceOnUse"><stop offset="0" stop-color="#5e0094"/><stop offset="1" stop-color="#4a85ff"/></linearGradient></defs><g id="Layer_2" data-name="Layer 2"><g id="Layer_1-2" data-name="Layer 1"><path class="cls-1" d="M64.48,338,0,0H64.71C77,79.77,93.27,190.4,98.15,253.58h.5c10.1-65.32,34.14-180,47.68-253.58h53.83C212.8,66.46,237.24,186,246,250.44h1C254.38,179.57,274.57,64.38,283.26,0H343.5L274.72,338H214.87C201.9,267.53,180,164.68,171,99.52h-.93C160.5,165.83,137.37,273,124.21,338ZM375.63,0h60.64V133.61h81.45V0h60.63V338H517.72V186.14H436.27V338H375.63Zm315,338V218.41a24.58,24.58,0,0,0-2.38-11L603.13,0H670.7c19,53,42.09,118.21,52.14,155.25C735.22,113.76,758.47,50.42,775.53,0h63.89L753.24,208.28a30.1,30.1,0,0,0-1.94,11.39V338Z"/></g></g></svg>